<?xml version="1.0" encoding="utf-8"?>
<!-- Generator: Adobe Illustrator 22.0.1, SVG Export Plug-In . SVG Version: 6.00 Build 0)  -->
<svg version="1.1" id="Layer_1" xmlns="http://www.w3.org/2000/svg" xmlns:xlink="http://www.w3.org/1999/xlink" x="0px" y="0px"
	 viewBox="0 0 100 100" style="enable-background:new 0 0 100 100;" xml:space="preserve">
<style type="text/css">
	.st0{fill:#FFFFFF;}
	.st1{fill:#41C0C0;}
</style>
<path class="st0" d="M125.9,857c0,29.3,0,58.7,0,88c-533.3,0-1066.7,0-1600,0c0-29.3,0-58.7,0-88c24.2,0,48.3,0.1,72.5,0.1
	c506.5,0,1013,0,1519.5,0C120.6,857.1,123.3,857,125.9,857z M-1261.8,919.2c0-7.2,0-15,0-22.7
	C-1264.3,899.1-1264,915.9-1261.8,919.2z M20.9,894.6c2.6,2.6,5.3,4.2,6.1,6.5c0.8,2.4-0.2,5.5-0.4,8.3c0.5,0,1,0,1.4,0
	c-0.3-3.9-0.1-7.9-1.1-11.5C26.4,896.4,23.3,895.8,20.9,894.6z M-15.5,900.8c-2.6-0.7-4.4-1.2-6.7-1.8c0,1.5,0,2.9,0,4.3
	c2.4-0.3,4.6-0.6,6.9-0.9C-15.4,901.7-15.5,900.8-15.5,900.8z M-981,915.6c0-4.6,0-9.2,0-13.8C-983.6,908.9-982.9,915-981,915.6z
	 M-1348.2,882.3c-0.1,0-0.2,0.1-0.3,0.1c0,7.4,0,14.8,0,22.1c0.1,0,0.2,0,0.3,0C-1348.2,897.2-1348.2,889.8-1348.2,882.3z
	 M-1118.4,912.9c0.2,0,0.4,0.1,0.6,0.1c0-3.8,0-7.5,0-11.3c-0.2,0-0.4,0-0.6,0C-1118.4,905.4-1118.4,909.2-1118.4,912.9z"/>
<path d="M125.9,857c-2.7,0-5.3,0.1-8,0.1c-506.5,0-1013,0-1519.5,0c-24.2,0-48.3-0.1-72.5-0.1c0-0.3,0-0.7,0-1c2,0.1,4,0.4,5.9,0.4
	c529.4,0,1058.7,0,1588.1,0c2,0,4-0.3,5.9-0.4C125.9,856.3,125.9,856.7,125.9,857z"/>
<path class="st1" d="M50,2.2C76.4,2.1,97.9,23.7,97.8,50c0,26.6-21.4,47.3-46.8,47.9C23.9,98.4,2.1,76.4,2.2,49.9
	C2.2,23.5,23.7,2.1,50,2.2z M28.2,48.1c0.2-2.6,0.3-5.2,0.5-7.8c0.1-1.7,0.3-3.3,0.6-5c0.2-1.6,0.5-3.1,0.8-4.7c0-0.2,0-0.3-0.2-0.4
	c-2.5-1.2-5-2.5-7.2-4.2c-1.3-1-2.6-2-3.9-3c-0.7-0.6-1.3-1.2-2-1.8C10.1,29,6.6,37.9,6,48.1C13.5,48.1,20.8,48.1,28.2,48.1z
	 M83.3,21.2c-0.4,0.4-0.8,0.8-1.3,1.2c-3.5,3.2-7.5,5.8-11.8,7.8c-0.2,0.1-0.3,0.2-0.3,0.5c0.4,2.8,0.9,5.7,1.2,8.5
	c0.3,2.7,0.3,5.5,0.5,8.2c0,0.2,0,0.4,0,0.6c7.4,0,14.8,0,22.2,0c-0.2-4.3-1-8.4-2.4-12.5C89.8,30.3,87,25.5,83.3,21.2z M83.3,78.7
	C89.9,71,93.4,62.1,94,51.9c-7.5,0-14.8,0-22.3,0c0,0.9,0,1.7,0,2.6c-0.1,1.7-0.2,3.5-0.3,5.2c-0.2,1.7-0.3,3.3-0.6,5
	c-0.2,1.5-0.5,3-0.8,4.5c-0.1,0.3,0,0.4,0.3,0.6c3,1.4,5.8,3.1,8.4,5.1C80.3,76.1,81.8,77.4,83.3,78.7z M6,51.9
	c0.2,4.7,1.1,9.3,2.8,13.7c1.8,4.8,4.5,9.2,7.8,13.1c1-0.9,1.9-1.7,2.9-2.5c3.1-2.6,6.5-4.8,10.2-6.5c0.3-0.1,0.3-0.3,0.3-0.5
	c-0.1-0.5-0.2-1-0.3-1.4c-0.3-2-0.6-4-0.8-6.1c-0.2-1.6-0.3-3.2-0.4-4.8c-0.1-1.5-0.1-3.1-0.2-4.6c0-0.1,0-0.2,0-0.4
	C20.8,51.9,13.5,51.9,6,51.9z M67.9,48.1c-0.1-5.4-0.6-10.8-1.7-16.2c-0.5,0.2-0.9,0.3-1.4,0.5c-4.1,1.3-8.3,2.1-12.6,2.3
	c-0.3,0-0.4,0-0.4,0.4c0,4.3,0,8.6,0,12.8c0,0.1,0,0.1,0,0.2C57.3,48.1,62.6,48.1,67.9,48.1z M33.7,31.9c-1,5.4-1.5,10.7-1.6,16.2
	c5.4,0,10.7,0,16,0c0-4.5,0-8.9,0-13.4C43.1,34.5,38.4,33.5,33.7,31.9z M48.1,51.9c-5.3,0-10.7,0-16,0c0.1,5.5,0.6,10.8,1.6,16.2
	c4.7-1.7,9.4-2.6,14.4-2.8C48.1,60.9,48.1,56.4,48.1,51.9z M66.3,68.1c1-5.4,1.5-10.8,1.6-16.2c-5.4,0-10.7,0-16,0
	c0,4.5,0,8.9,0,13.4C56.9,65.5,61.6,66.4,66.3,68.1z M34.5,71.9c0,0.1,0,0.2,0,0.3c0.7,2.8,1.5,5.5,2.6,8.2c1.2,3,2.6,5.8,4.5,8.4
	c1.4,1.8,3,3.5,5.1,4.5c0.4,0.2,0.8,0.3,1.3,0.5c0-8.2,0-16.4,0-24.6C43.4,69.4,38.9,70.3,34.5,71.9z M51.9,6.2c0,8.2,0,16.4,0,24.6
	c0.7-0.1,1.3-0.1,2-0.2c1.6-0.2,3.2-0.4,4.8-0.7c2.2-0.4,4.4-1.1,6.6-1.8c0.3-0.1,0.2-0.3,0.2-0.4c-0.8-2.9-1.6-5.9-2.8-8.7
	c-1.2-2.9-2.6-5.7-4.5-8.2c-1.4-1.7-2.9-3.2-4.9-4.2C52.8,6.5,52.4,6.4,51.9,6.2z M51.9,93.7C52,93.7,52,93.7,51.9,93.7
	c0.1,0,0.2,0,0.2,0c1.6-0.5,2.9-1.4,4.1-2.5c2.2-2.1,3.8-4.7,5.2-7.5c1.7-3.4,2.9-7,3.8-10.7c0.1-0.4,0.2-0.7,0.3-1.1
	c-4.4-1.6-8.9-2.5-13.5-2.7C51.9,77.4,51.9,85.5,51.9,93.7z M48.1,30.8c0-8.2,0-16.3,0-24.5c-0.1,0-0.2,0-0.3,0.1
	c-1.5,0.5-2.8,1.3-3.9,2.4c-2.1,1.9-3.6,4.3-4.8,6.7c-1.7,3.3-2.9,6.8-3.9,10.3c-0.2,0.7-0.4,1.5-0.6,2.2
	C37.1,29.3,45.3,31,48.1,30.8z M19.4,81.6c5.9,5.7,12.8,9.4,20.8,11.3c-4.9-5.7-7.4-12.4-9.2-19.4C26.6,75.5,22.8,78.2,19.4,81.6z
	 M59.8,92.9c8-1.9,14.9-5.7,20.8-11.3c-3.4-3.3-7.3-6-11.6-8.1c0,0.1-0.1,0.3-0.1,0.4c-0.7,2.7-1.5,5.4-2.6,8
	c-1.4,3.4-3,6.6-5.3,9.5C60.7,91.8,60.3,92.3,59.8,92.9z M59.9,7.1c0.7,0.9,1.5,1.8,2.1,2.8c3.3,4.7,5.3,10,6.7,15.5
	c0.1,0.3,0.2,0.7,0.3,1c4.3-2.1,8.1-4.8,11.5-8.1C74.7,12.6,66.9,8.6,59.9,7.1z M30.9,26.5c1.9-7.1,4.3-13.8,9.3-19.4
	c-8,1.9-14.9,5.7-20.8,11.3C22.8,21.8,26.6,24.5,30.9,26.5z"/>
<path d="M-1261.8,919.2c-2.2-3.3-2.5-20.1,0-22.7C-1261.8,904.2-1261.8,912-1261.8,919.2z"/>
<path d="M20.9,894.6c2.4,1.2,5.6,1.8,5.9,3.2c1,3.7,0.8,7.7,1.1,11.5c-0.5,0-1,0-1.4,0c0.2-2.8,1.3-5.8,0.4-8.3
	C26.2,898.8,23.4,897.2,20.9,894.6z"/>
<path d="M-15.5,900.8c0,0,0.1,0.9,0.2,1.5c-2.3,0.3-4.4,0.6-6.9,0.9c0-1.3,0-2.8,0-4.3C-19.9,899.6-18.1,900.1-15.5,900.8z"/>
<path d="M-981,915.6c-1.9-0.6-2.6-6.6,0-13.8C-981,906.3-981,910.9-981,915.6z"/>
<path d="M-1348.2,882.3c0,7.4,0,14.8,0,22.3c-0.1,0-0.2,0-0.3,0c0-7.4,0-14.8,0-22.1C-1348.4,882.4-1348.3,882.4-1348.2,882.3z"/>
<path d="M-1118.4,912.9c0-3.7,0-7.5,0-11.2c0.2,0,0.4,0,0.6,0c0,3.8,0,7.5,0,11.3C-1118,913-1118.2,912.9-1118.4,912.9z"/>
</svg>
