<?xml version="1.0" encoding="utf-8"?>
<!-- Generator: Adobe Illustrator 22.0.1, SVG Export Plug-In . SVG Version: 6.00 Build 0)  -->
<svg version="1.1" id="Layer_1" xmlns="http://www.w3.org/2000/svg" xmlns:xlink="http://www.w3.org/1999/xlink" x="0px" y="0px"
	 viewBox="0 0 100 100" style="enable-background:new 0 0 100 100;" xml:space="preserve">
<style type="text/css">
	.st0{display:none;}
	.st1{display:inline;fill:#41C0C0;}
	.st2{fill:#41C0C0;}
</style>
<g class="st0">
	<path class="st1" d="M50,2.2C76.4,2.1,97.9,23.7,97.8,50c0,26.6-21.4,47.3-46.8,47.9C23.9,98.4,2.1,76.4,2.2,49.9
		C2.2,23.5,23.7,2.1,50,2.2z M28.2,48.1c0.2-2.6,0.3-5.2,0.5-7.8c0.1-1.7,0.3-3.3,0.6-5c0.2-1.6,0.5-3.1,0.8-4.7
		c0-0.2,0-0.3-0.2-0.4c-2.5-1.2-5-2.5-7.2-4.2c-1.3-1-2.6-2-3.9-3c-0.7-0.6-1.3-1.2-2-1.8C10.1,29,6.6,37.9,6,48.1
		C13.5,48.1,20.8,48.1,28.2,48.1z M83.3,21.2c-0.4,0.4-0.8,0.8-1.3,1.2c-3.5,3.2-7.5,5.8-11.8,7.8c-0.2,0.1-0.3,0.2-0.3,0.5
		c0.4,2.8,0.9,5.7,1.2,8.5c0.3,2.7,0.3,5.5,0.5,8.2c0,0.2,0,0.4,0,0.6c7.4,0,14.8,0,22.2,0c-0.2-4.3-1-8.4-2.4-12.5
		C89.8,30.3,87,25.5,83.3,21.2z M83.3,78.7C89.9,71,93.4,62.1,94,51.9c-7.5,0-14.8,0-22.3,0c0,0.9,0,1.7,0,2.6
		c-0.1,1.7-0.2,3.5-0.3,5.2c-0.2,1.7-0.3,3.3-0.6,5c-0.2,1.5-0.5,3-0.8,4.5c-0.1,0.3,0,0.4,0.3,0.6c3,1.4,5.8,3.1,8.4,5.1
		C80.3,76.1,81.8,77.4,83.3,78.7z M6,51.9c0.2,4.7,1.1,9.3,2.8,13.7c1.8,4.8,4.5,9.2,7.8,13.1c1-0.9,1.9-1.7,2.9-2.5
		c3.1-2.6,6.5-4.8,10.2-6.5c0.3-0.1,0.3-0.3,0.3-0.5c-0.1-0.5-0.2-1-0.3-1.4c-0.3-2-0.6-4-0.8-6.1c-0.2-1.6-0.3-3.2-0.4-4.8
		c-0.1-1.5-0.1-3.1-0.2-4.6c0-0.1,0-0.2,0-0.4C20.8,51.9,13.5,51.9,6,51.9z M67.9,48.1c-0.1-5.4-0.6-10.8-1.7-16.2
		c-0.5,0.2-0.9,0.3-1.4,0.5c-4.1,1.3-8.3,2.1-12.6,2.3c-0.3,0-0.4,0-0.4,0.4c0,4.3,0,8.6,0,12.8c0,0.1,0,0.1,0,0.2
		C57.3,48.1,62.6,48.1,67.9,48.1z M33.7,31.9c-1,5.4-1.5,10.7-1.6,16.2c5.4,0,10.7,0,16,0c0-4.5,0-8.9,0-13.4
		C43.1,34.5,38.4,33.5,33.7,31.9z M48.1,51.9c-5.3,0-10.7,0-16,0c0.1,5.5,0.6,10.8,1.6,16.2c4.7-1.7,9.4-2.6,14.4-2.8
		C48.1,60.9,48.1,56.4,48.1,51.9z M66.3,68.1c1-5.4,1.5-10.8,1.6-16.2c-5.4,0-10.7,0-16,0c0,4.5,0,8.9,0,13.4
		C56.9,65.5,61.6,66.4,66.3,68.1z M34.5,71.9c0,0.1,0,0.2,0,0.3c0.7,2.8,1.5,5.5,2.6,8.2c1.2,3,2.6,5.8,4.5,8.4
		c1.4,1.8,3,3.5,5.1,4.5c0.4,0.2,0.8,0.3,1.3,0.5c0-8.2,0-16.4,0-24.6C43.4,69.4,38.9,70.3,34.5,71.9z M51.9,6.2
		c0,8.2,0,16.4,0,24.6c0.7-0.1,1.3-0.1,2-0.2c1.6-0.2,3.2-0.4,4.8-0.7c2.2-0.4,4.4-1.1,6.6-1.8c0.3-0.1,0.2-0.3,0.2-0.4
		c-0.8-2.9-1.6-5.9-2.8-8.7c-1.2-2.9-2.6-5.7-4.5-8.2c-1.4-1.7-2.9-3.2-4.9-4.2C52.8,6.5,52.4,6.4,51.9,6.2z M51.9,93.7
		C52,93.7,52,93.7,51.9,93.7c0.1,0,0.2,0,0.2,0c1.6-0.5,2.9-1.4,4.1-2.5c2.2-2.1,3.8-4.7,5.2-7.5c1.7-3.4,2.9-7,3.8-10.7
		c0.1-0.4,0.2-0.7,0.3-1.1c-4.4-1.6-8.9-2.5-13.5-2.7C51.9,77.4,51.9,85.5,51.9,93.7z M48.1,30.8c0-8.2,0-16.3,0-24.5
		c-0.1,0-0.2,0-0.3,0.1c-1.5,0.5-2.8,1.3-3.9,2.4c-2.1,1.9-3.6,4.3-4.8,6.7c-1.7,3.3-2.9,6.8-3.9,10.3c-0.2,0.7-0.4,1.5-0.6,2.2
		C37.1,29.3,45.3,31,48.1,30.8z M19.4,81.6c5.9,5.7,12.8,9.4,20.8,11.3c-4.9-5.7-7.4-12.4-9.2-19.4C26.6,75.5,22.8,78.2,19.4,81.6z
		 M59.8,92.9c8-1.9,14.9-5.7,20.8-11.3c-3.4-3.3-7.3-6-11.6-8.1c0,0.1-0.1,0.3-0.1,0.4c-0.7,2.7-1.5,5.4-2.6,8
		c-1.4,3.4-3,6.6-5.3,9.5C60.7,91.8,60.3,92.3,59.8,92.9z M59.9,7.1c0.7,0.9,1.5,1.8,2.1,2.8c3.3,4.7,5.3,10,6.7,15.5
		c0.1,0.3,0.2,0.7,0.3,1c4.3-2.1,8.1-4.8,11.5-8.1C74.7,12.6,66.9,8.6,59.9,7.1z M30.9,26.5c1.9-7.1,4.3-13.8,9.3-19.4
		c-8,1.9-14.9,5.7-20.8,11.3C22.8,21.8,26.6,24.5,30.9,26.5z"/>
</g>
<g>
	<path class="st2" d="M85.4,70c-1.8,0.4-3.6,0.7-5.4,1.2c-1.4,0.4-2.1,0-2.5-1.4c-1.2-4.2-1.3-4.2,3-5.2c4.1-1,8.1-1.9,12.2-2.9
		c1.6-0.4,2.3,0,2.7,1.6c1,4.7,2.2,9.4,3.3,14c0.4,1.6,0,2.3-1.6,2.7c-4,0.9-4,1-5-3.1c-0.3-1.1-0.1-2.8-1-3c-1.1-0.2-1.4,1.5-2,2.4
		C78.2,91.6,63.5,99,44.8,97.7C22,96.1,3,76.4,1.3,53.8C-0.5,28.7,17.2,7,40.6,2.9C62.8-0.9,84,10.4,92.7,30.8
		c1,2.3,0.8,2.5-1.6,2.7c-2.2,0.2-3.5-0.5-4.6-2.7C78.2,14.3,60.1,5.3,42.1,8.3C23.9,11.4,10.1,25.5,7.3,43.8
		C3.7,67.1,20.1,89,43.5,91.9C61.2,94,74.8,87,84.7,72.5c0.4-0.6,0.7-1.4,1.1-2.1c0-0.1,0.1-0.3,0.1-0.4C85.7,70,85.5,70,85.4,70z"
		/>
	<path class="st2" d="M17.6,47.9c0-5.4,0.1-10.7,0-16.1c0-1.7,0.6-2.5,2.2-3.1c10.3-4,20.7-8.1,31-12.1c1.2-0.5,2.2-0.5,3.4,0.1
		c7.9,3.7,15.9,7.4,23.8,11.1c1.5,0.7,2.3,1.6,2.3,3.4c-0.1,9,0,18,0,26.9c0,1.6-0.4,2.6-1.9,3.4C68,66.9,57.6,72.4,47.2,78.1
		c-1.4,0.8-2.5,0.8-4,0.1c-7.8-3.7-15.7-7.4-23.6-11c-1.5-0.7-2-1.7-2-3.3C17.7,58.5,17.6,53.2,17.6,47.9z M47.3,58.4
		c0,3.7,0,7.3,0,11c0,1.6,0.5,2,2,1.3c8-4.1,16-8.1,24-12.1c1.1-0.6,1.6-1.4,1.6-2.7c0-6.8,0-13.6,0-20.4c0-2.1-0.3-2.3-2.2-1.4
		c-8,3.7-15.9,7.4-23.8,11.1c-1.3,0.6-1.7,1.5-1.7,2.8C47.3,51.5,47.3,55,47.3,58.4z M22.8,49.2c0,3.6,0,7.2,0,10.8
		c0,1.4,0.4,2.2,1.7,2.8c5.2,2.4,10.4,4.9,15.5,7.3c1.9,0.9,2.1,0.7,2.1-1.4c0-7.2,0-14.4,0-21.6c0-1.7-0.7-2.5-2.1-3.2
		C35.1,41.5,30,39,25,36.7c-1.9-0.9-2.1-0.7-2.2,1.5C22.8,41.8,22.8,45.5,22.8,49.2z M57.4,36.1c-0.7-0.4-0.8-0.5-1-0.6
		c-5.7-2.7-11.3-5.5-17-8.2c-0.9-0.4-1.8-0.4-2.7,0c-3.1,1.2-6.2,2.3-9.4,3.4c-0.5,0.2-1.1,0.3-1.2,0.8c-0.1,0.7,0.6,0.8,1.1,1.1
		c5.7,2.7,11.4,5.4,17.1,8.1c0.6,0.3,1.2,0.7,1.8,0.4C49.8,39.5,53.4,37.9,57.4,36.1z M53.6,20.6c-2.6,1-5.2,2.1-7.8,3.2
		c-0.5,0.2-1.4,0.3-1.4,1.1c0,0.7,0.9,0.8,1.4,1.1c3.1,1.5,6.5,2.6,9.4,4.4c5,3.2,9.8,3.5,14.8,0.2c0.1,0,0.1-0.1,0.2-0.1
		c0.5-0.3,1.4-0.3,1.5-1c0.1-0.8-0.8-0.9-1.4-1.1C65.2,26,60.1,23.6,55,21.2C54.6,20.9,54.1,20.8,53.6,20.6z"/>
	<path class="st2" d="M85.4,70c0.2,0,0.4,0,0.6,0c0,0.1-0.1,0.3-0.1,0.4C85.7,70.3,85.5,70.1,85.4,70z"/>
</g>
</svg>
