<?xml version="1.0" encoding="utf-8"?>
<!-- Generator: Adobe Illustrator 22.0.1, SVG Export Plug-In . SVG Version: 6.00 Build 0)  -->
<svg version="1.1" id="Layer_1" xmlns="http://www.w3.org/2000/svg" xmlns:xlink="http://www.w3.org/1999/xlink" x="0px" y="0px"
	 viewBox="0 0 100 100" style="enable-background:new 0 0 100 100;" xml:space="preserve">
<style type="text/css">
	.st0{display:none;}
	.st1{display:inline;fill:#41C0C0;}
	.st2{display:none;fill:#41C0C0;}
	.st3{fill:#41C0C0;}
</style>
<g class="st0">
	<path class="st1" d="M50,2.2C76.4,2.1,97.9,23.7,97.8,50c0,26.6-21.4,47.3-46.8,47.9C23.9,98.4,2.1,76.4,2.2,49.9
		C2.2,23.5,23.7,2.1,50,2.2z M28.2,48.1c0.2-2.6,0.3-5.2,0.5-7.8c0.1-1.7,0.3-3.3,0.6-5c0.2-1.6,0.5-3.1,0.8-4.7
		c0-0.2,0-0.3-0.2-0.4c-2.5-1.2-5-2.5-7.2-4.2c-1.3-1-2.6-2-3.9-3c-0.7-0.6-1.3-1.2-2-1.8C10.1,29,6.6,37.9,6,48.1
		C13.5,48.1,20.8,48.1,28.2,48.1z M83.3,21.2c-0.4,0.4-0.8,0.8-1.3,1.2c-3.5,3.2-7.5,5.8-11.8,7.8c-0.2,0.1-0.3,0.2-0.3,0.5
		c0.4,2.8,0.9,5.7,1.2,8.5c0.3,2.7,0.3,5.5,0.5,8.2c0,0.2,0,0.4,0,0.6c7.4,0,14.8,0,22.2,0c-0.2-4.3-1-8.4-2.4-12.5
		C89.8,30.3,87,25.5,83.3,21.2z M83.3,78.7C89.9,71,93.4,62.1,94,51.9c-7.5,0-14.8,0-22.3,0c0,0.9,0,1.7,0,2.6
		c-0.1,1.7-0.2,3.5-0.3,5.2c-0.2,1.7-0.3,3.3-0.6,5c-0.2,1.5-0.5,3-0.8,4.5c-0.1,0.3,0,0.4,0.3,0.6c3,1.4,5.8,3.1,8.4,5.1
		C80.3,76.1,81.8,77.4,83.3,78.7z M6,51.9c0.2,4.7,1.1,9.3,2.8,13.7c1.8,4.8,4.5,9.2,7.8,13.1c1-0.9,1.9-1.7,2.9-2.5
		c3.1-2.6,6.5-4.8,10.2-6.5c0.3-0.1,0.3-0.3,0.3-0.5c-0.1-0.5-0.2-1-0.3-1.4c-0.3-2-0.6-4-0.8-6.1c-0.2-1.6-0.3-3.2-0.4-4.8
		c-0.1-1.5-0.1-3.1-0.2-4.6c0-0.1,0-0.2,0-0.4C20.8,51.9,13.5,51.9,6,51.9z M67.9,48.1c-0.1-5.4-0.6-10.8-1.7-16.2
		c-0.5,0.2-0.9,0.3-1.4,0.5c-4.1,1.3-8.3,2.1-12.6,2.3c-0.3,0-0.4,0-0.4,0.4c0,4.3,0,8.6,0,12.8c0,0.1,0,0.1,0,0.2
		C57.3,48.1,62.6,48.1,67.9,48.1z M33.7,31.9c-1,5.4-1.5,10.7-1.6,16.2c5.4,0,10.7,0,16,0c0-4.5,0-8.9,0-13.4
		C43.1,34.5,38.4,33.5,33.7,31.9z M48.1,51.9c-5.3,0-10.7,0-16,0c0.1,5.5,0.6,10.8,1.6,16.2c4.7-1.7,9.4-2.6,14.4-2.8
		C48.1,60.9,48.1,56.4,48.1,51.9z M66.3,68.1c1-5.4,1.5-10.8,1.6-16.2c-5.4,0-10.7,0-16,0c0,4.5,0,8.9,0,13.4
		C56.9,65.5,61.6,66.4,66.3,68.1z M34.5,71.9c0,0.1,0,0.2,0,0.3c0.7,2.8,1.5,5.5,2.6,8.2c1.2,3,2.6,5.8,4.5,8.4
		c1.4,1.8,3,3.5,5.1,4.5c0.4,0.2,0.8,0.3,1.3,0.5c0-8.2,0-16.4,0-24.6C43.4,69.4,38.9,70.3,34.5,71.9z M51.9,6.2
		c0,8.2,0,16.4,0,24.6c0.7-0.1,1.3-0.1,2-0.2c1.6-0.2,3.2-0.4,4.8-0.7c2.2-0.4,4.4-1.1,6.6-1.8c0.3-0.1,0.2-0.3,0.2-0.4
		c-0.8-2.9-1.6-5.9-2.8-8.7c-1.2-2.9-2.6-5.7-4.5-8.2c-1.4-1.7-2.9-3.2-4.9-4.2C52.8,6.5,52.4,6.4,51.9,6.2z M51.9,93.7
		C52,93.7,52,93.7,51.9,93.7c0.1,0,0.2,0,0.2,0c1.6-0.5,2.9-1.4,4.1-2.5c2.2-2.1,3.8-4.7,5.2-7.5c1.7-3.4,2.9-7,3.8-10.7
		c0.1-0.4,0.2-0.7,0.3-1.1c-4.4-1.6-8.9-2.5-13.5-2.7C51.9,77.4,51.9,85.5,51.9,93.7z M48.1,30.8c0-8.2,0-16.3,0-24.5
		c-0.1,0-0.2,0-0.3,0.1c-1.5,0.5-2.8,1.3-3.9,2.4c-2.1,1.9-3.6,4.3-4.8,6.7c-1.7,3.3-2.9,6.8-3.9,10.3c-0.2,0.7-0.4,1.5-0.6,2.2
		C37.1,29.3,45.3,31,48.1,30.8z M19.4,81.6c5.9,5.7,12.8,9.4,20.8,11.3c-4.9-5.7-7.4-12.4-9.2-19.4C26.6,75.5,22.8,78.2,19.4,81.6z
		 M59.8,92.9c8-1.9,14.9-5.7,20.8-11.3c-3.4-3.3-7.3-6-11.6-8.1c0,0.1-0.1,0.3-0.1,0.4c-0.7,2.7-1.5,5.4-2.6,8
		c-1.4,3.4-3,6.6-5.3,9.5C60.7,91.8,60.3,92.3,59.8,92.9z M59.9,7.1c0.7,0.9,1.5,1.8,2.1,2.8c3.3,4.7,5.3,10,6.7,15.5
		c0.1,0.3,0.2,0.7,0.3,1c4.3-2.1,8.1-4.8,11.5-8.1C74.7,12.6,66.9,8.6,59.9,7.1z M30.9,26.5c1.9-7.1,4.3-13.8,9.3-19.4
		c-8,1.9-14.9,5.7-20.8,11.3C22.8,21.8,26.6,24.5,30.9,26.5z"/>
</g>
<g class="st0">
	<path class="st1" d="M85.4,70c-1.8,0.4-3.6,0.7-5.4,1.2c-1.4,0.4-2.1,0-2.5-1.4c-1.2-4.2-1.3-4.2,3-5.2c4.1-1,8.1-1.9,12.2-2.9
		c1.6-0.4,2.3,0,2.7,1.6c1,4.7,2.2,9.4,3.3,14c0.4,1.6,0,2.3-1.6,2.7c-4,0.9-4,1-5-3.1c-0.3-1.1-0.1-2.8-1-3c-1.1-0.2-1.4,1.5-2,2.4
		C78.2,91.6,63.5,99,44.8,97.7C22,96.1,3,76.4,1.3,53.8C-0.5,28.7,17.2,7,40.6,2.9C62.8-0.9,84,10.4,92.7,30.8
		c1,2.3,0.8,2.5-1.6,2.7c-2.2,0.2-3.5-0.5-4.6-2.7C78.2,14.3,60.1,5.3,42.1,8.3C23.9,11.4,10.1,25.5,7.3,43.8
		C3.7,67.1,20.1,89,43.5,91.9C61.2,94,74.8,87,84.7,72.5c0.4-0.6,0.7-1.4,1.1-2.1c0-0.1,0.1-0.3,0.1-0.4C85.7,70,85.5,70,85.4,70z"
		/>
	<path class="st1" d="M17.6,47.9c0-5.4,0.1-10.7,0-16.1c0-1.7,0.6-2.5,2.2-3.1c10.3-4,20.7-8.1,31-12.1c1.2-0.5,2.2-0.5,3.4,0.1
		c7.9,3.7,15.9,7.4,23.8,11.1c1.5,0.7,2.3,1.6,2.3,3.4c-0.1,9,0,18,0,26.9c0,1.6-0.4,2.6-1.9,3.4C68,66.9,57.6,72.4,47.2,78.1
		c-1.4,0.8-2.5,0.8-4,0.1c-7.8-3.7-15.7-7.4-23.6-11c-1.5-0.7-2-1.7-2-3.3C17.7,58.5,17.6,53.2,17.6,47.9z M47.3,58.4
		c0,3.7,0,7.3,0,11c0,1.6,0.5,2,2,1.3c8-4.1,16-8.1,24-12.1c1.1-0.6,1.6-1.4,1.6-2.7c0-6.8,0-13.6,0-20.4c0-2.1-0.3-2.3-2.2-1.4
		c-8,3.7-15.9,7.4-23.8,11.1c-1.3,0.6-1.7,1.5-1.7,2.8C47.3,51.5,47.3,55,47.3,58.4z M22.8,49.2c0,3.6,0,7.2,0,10.8
		c0,1.4,0.4,2.2,1.7,2.8c5.2,2.4,10.4,4.9,15.5,7.3c1.9,0.9,2.1,0.7,2.1-1.4c0-7.2,0-14.4,0-21.6c0-1.7-0.7-2.5-2.1-3.2
		C35.1,41.5,30,39,25,36.7c-1.9-0.9-2.1-0.7-2.2,1.5C22.8,41.8,22.8,45.5,22.8,49.2z M57.4,36.1c-0.7-0.4-0.8-0.5-1-0.6
		c-5.7-2.7-11.3-5.5-17-8.2c-0.9-0.4-1.8-0.4-2.7,0c-3.1,1.2-6.2,2.3-9.4,3.4c-0.5,0.2-1.1,0.3-1.2,0.8c-0.1,0.7,0.6,0.8,1.1,1.1
		c5.7,2.7,11.4,5.4,17.1,8.1c0.6,0.3,1.2,0.7,1.8,0.4C49.8,39.5,53.4,37.9,57.4,36.1z M53.6,20.6c-2.6,1-5.2,2.1-7.8,3.2
		c-0.5,0.2-1.4,0.3-1.4,1.1c0,0.7,0.9,0.8,1.4,1.1c3.1,1.5,6.5,2.6,9.4,4.4c5,3.2,9.8,3.5,14.8,0.2c0.1,0,0.1-0.1,0.2-0.1
		c0.5-0.3,1.4-0.3,1.5-1c0.1-0.8-0.8-0.9-1.4-1.1C65.2,26,60.1,23.6,55,21.2C54.6,20.9,54.1,20.8,53.6,20.6z"/>
	<path class="st1" d="M85.4,70c0.2,0,0.4,0,0.6,0c0,0.1-0.1,0.3-0.1,0.4C85.7,70.3,85.5,70.1,85.4,70z"/>
</g>
<path class="st2" d="M49.8,6.8c0.1,0,0.1,0,0.2,0c0.7,0.2,1.4,0.4,2,0.7c5.6,2.8,11.1,5.5,16.6,8.3c6,3,12,6,18,9
	c0.8,0.4,1.4,1,1.8,1.7c1.9,3.3,3.7,6.7,5.6,10c1.5,2.8,3,5.6,4.5,8.3c0,0.4,0,0.8,0,1.2c-0.1,0.2-0.1,0.4-0.2,0.5
	c-0.3,0.8-0.8,1.4-1.5,1.8c-2.5,1.3-5,2.5-7.6,3.7c-0.4,0.2-0.6,0.4-0.6,0.9c0,6.3,0,12.6,0,18.9c0,1.5-0.6,2.7-2.1,3.3
	c-0.1,0.1-0.3,0.1-0.4,0.2C74.8,81.3,63.4,87,51.9,92.8c-1.3,0.7-2.5,0.7-3.8,0C36.5,87,24.9,81.2,13.3,75.4
	c-1.5-0.7-2.2-1.9-2.2-3.5c0-6.3,0-12.5,0-18.8c0-0.5-0.2-0.8-0.6-1c-2.4-1.2-4.7-2.4-7.1-3.5c-2.1-1.1-2.7-3-1.5-5
	c3.2-5.7,6.4-11.4,9.6-17.1c0.4-0.8,1-1.3,1.8-1.7C23.8,19.5,34.2,14.3,44.7,9C46.4,8.2,48,7.1,49.8,6.8z M52,85.2
	c0.2-0.1,0.3-0.1,0.4-0.2c9.8-4.9,19.5-9.7,29.3-14.6c0.4-0.2,0.5-0.4,0.5-0.8c0-5.4,0-10.8,0-16.2c0-0.2,0-0.4,0-0.6
	c-0.3,0.1-0.5,0.2-0.7,0.3c-4.3,2.1-8.5,4.3-12.8,6.4c-2.8,1.4-5.5,2.8-8.3,4.2c-1.4,0.7-2.4,0.4-3.1-1c-1.7-3-3.3-5.9-5-8.9
	c-0.1-0.1-0.1-0.2-0.2-0.4C52,64.1,52,74.6,52,85.2z M48,85.3c0-10.7,0-21.2,0-31.8c-0.2,0.1-0.3,0.3-0.4,0.5c-1.7,3-3.3,6-5,8.9
	c-0.5,0.8-1.3,1.3-2.2,1.1c-0.4-0.1-0.8-0.3-1.2-0.5c-7-3.5-13.9-6.9-20.8-10.4c-0.2-0.1-0.3-0.2-0.6-0.3c0,0.3,0,0.5,0,0.7
	c0,5.3,0,10.6,0,15.9c0,0.5,0.2,0.8,0.6,1c8.2,4.1,16.4,8.2,24.7,12.3C44.7,83.6,46.3,84.4,48,85.3z M60,59.4
	C70.3,54.3,80.5,49.2,90.8,44c-2.4-4.3-4.9-8.6-7.3-13C73.2,36.2,63,41.3,52.7,46.4C55.2,50.8,57.6,55.1,60,59.4z M9.3,44.1
	C19.5,49.2,29.7,54.3,40,59.4c2.4-4.4,4.8-8.7,7.3-13C37,41.3,26.8,36.2,16.6,31.1C14.1,35.4,11.7,39.7,9.3,44.1z M48,42.3
	c0-9.2,0-18.3,0-27.5c-9.2,4.6-18.3,9.1-27.5,13.7C29.7,33.2,38.8,37.8,48,42.3z M79.5,28.6C70.3,24,61.2,19.4,52,14.9
	c0,9.2,0,18.3,0,27.4C61.2,37.7,70.3,33.2,79.5,28.6z"/>
<g class="st0">
	<path class="st1" d="M69,37.6c0.1,4.1-1.3,7.7-3.6,11c-1,1.5-2.2,2.9-3.2,4.4c-0.2,0.2-0.5,0.4-0.4,0.7c0.1,0.2,0.5,0.1,0.7,0.1
		c4.5,0.2,9.1,0.3,13.6,0.5c2.8,0.1,5.7,0.2,8.5,0.3c0.4,0,0.7,0.1,1,0.3c4.1,2.8,8.2,5.6,12.3,8.4c0.6,0.4,1.1,0.7,1,1.5
		c-0.1,0.9-0.7,1-1.3,1.3c-14.6,6.6-29.2,13.2-43.8,19.8c-1.1,0.5-1.8,0.3-2.7-0.4c-3.4-3-6.8-5.9-10.2-8.8c-0.3-0.3-0.6-0.5-1-0.5
		c-3.9-0.2-7.8-0.4-11.7-0.6c-3.3-0.2-6.5-0.3-9.8-0.4c-0.4,0-0.8-0.2-1.1-0.4C12.3,72,7.2,69.1,2.1,66.2c-0.6-0.3-1.2-0.7-1.1-1.5
		c0.1-0.8,0.7-1,1.3-1.2c11.8-4.8,23.6-9.5,35.4-14.3c1.3-0.5,1.3-0.4,0.5-1.6c-4.3-7-4.1-14.9,1-20.9c4.5-5.3,10.4-7.2,17.1-5.5
		c6.8,1.7,10.8,6.3,12.4,13.1C69,35.4,69,36.5,69,37.6z M23.9,72.9c0,0.1,0,0.1,0.1,0.2c5.4,0.3,10.8,0.6,16.2,0.8
		c0.9,0,1.6,0.3,2.2,0.9c3.1,2.7,6.3,5.4,9.4,8.1c0.7,0.6,1.3,0.8,2.3,0.4c13.3-6.1,26.7-12.1,40-18.1c0.3-0.2,0.8-0.2,1-0.6
		c-0.3-0.2-0.5-0.4-0.8-0.6c-2.9-2-5.9-4-8.8-6.1c-0.6-0.4-1.1-0.5-1.8-0.2c-6.6,3-13.2,6.1-19.7,9.1C61.6,67.9,59.3,69,57,70
		c-0.6,0.3-1.2,0.3-1.7-0.3c-0.4-0.5-0.3-1.1,0.1-1.5c0.2-0.2,0.5-0.4,0.8-0.5c6.5-3,13-6,19.6-9c1.1-0.5,2.2-1,3.6-1.7
		c-1.8-0.1-3.2-0.2-4.7-0.2c-4.3-0.2-8.7-0.3-13-0.5c-0.4,0-0.8,0-1.1-0.2c-0.6-0.4-0.9,0-1.3,0.4c-2.1,2.8-4.1,5.5-6.2,8.3
		c-0.8,1.1-1.4,1.1-2.2,0c-3.2-4.4-6.6-8.8-9.9-13.1c-0.5-0.7-0.9-0.8-1.7-0.5c-11.1,4.5-22.2,9-33.3,13.5c-0.3,0.1-0.7,0.1-0.8,0.5
		c0.3,0.2,0.5,0.3,0.8,0.5c3.8,2.2,7.6,4.3,11.4,6.5c0.7,0.4,1.2,0.4,1.9,0.1c7.6-3.3,15.2-6.6,22.8-10c0.8-0.3,1.5-0.7,2.3-1
		c0.7-0.2,1.3,0,1.6,0.7c0.3,0.7,0,1.2-0.5,1.5c-0.2,0.1-0.4,0.2-0.6,0.3c-5.1,2.2-10.2,4.4-15.3,6.6C27.7,71.3,25.8,72.1,23.9,72.9
		z M52.2,62.9c3.7-5,7.6-9.7,11.1-14.7c1.1-1.5,1.9-3.1,2.6-4.8c4-9.4-2.6-20.3-13-20.7c-6.6-0.3-12.7,3.8-14.9,10.2
		c-1.6,4.7-0.7,9.2,1.8,13.4c1.8,3.1,4.2,5.8,6.4,8.7C48.1,57.7,50.1,60.2,52.2,62.9z"/>
	<path class="st1" d="M85.2,33.4c0,4.8-0.7,8.3-1.9,11.6c-0.3,0.9-0.9,1.2-1.7,0.9c-0.8-0.3-0.8-1-0.6-1.7c1-3.3,1.6-6.7,1.5-10.3
		c-0.1-3.2-0.6-6.3-1.8-9.3c-0.3-0.7-0.3-1.3,0.3-1.8c0.7-0.6,1.6-0.2,2,0.7C84.5,27.1,85.2,30.8,85.2,33.4z"/>
	<path class="st1" d="M19.7,34.2c0-3.2,0.7-6.8,2-10.3c0.4-1,1-1.4,1.8-1.1c0.9,0.4,0.7,1.2,0.5,1.9c-1.2,3.5-1.9,7.1-1.9,10.8
		c0.1,3,0.6,5.9,1.6,8.7c0.4,1.2-0.2,2-1.4,1.9c-0.6-0.1-0.8-0.6-1-1.1C20.2,41.6,19.7,38.2,19.7,34.2z"/>
	<path class="st1" d="M80.3,35.1c0,2.8-0.6,5.7-1.7,8.5c-0.1,0.2-0.2,0.5-0.4,0.7c-0.3,0.5-0.8,0.5-1.3,0.4
		c-0.5-0.1-0.7-0.6-0.7-1.1c0-0.4,0.2-0.8,0.3-1.2c0.9-3,1.7-6,1.2-9.2c-0.2-1,0.3-1.7,1-1.7c1-0.1,1.3,0.6,1.4,1.4
		C80.3,33.6,80.3,34.3,80.3,35.1z"/>
	<path class="st1" d="M27,34.6c0,2.8,0.4,5.5,1.4,8.2c0.4,0.9,0.1,1.7-0.6,2c-0.7,0.3-1.5-0.2-1.8-1.1c-1.2-3.5-1.6-7.1-1.5-10.8
		c0-0.9,0.6-1.3,1.4-1.3c0.8,0,1.1,0.5,1,1.3C27,33.4,27,34,27,34.6z"/>
	<path class="st1" d="M80.7,19.1c-0.1,0.6-0.4,1.1-1.2,1.2c-0.7,0.1-1.6-1-1.6-1.9c0-0.8,0.3-1.2,1.1-1.2
		C79.7,17.1,80.6,18.1,80.7,19.1z"/>
	<path class="st1" d="M25.2,20.3c-0.6-0.1-0.9-0.6-0.9-1.3c0-0.9,0.9-2,1.7-1.9c0.7,0.1,1.1,0.6,1.1,1.3
		C27.1,19.3,26.1,20.4,25.2,20.3z"/>
	<path class="st1" d="M79.3,28.3c0,0.5-0.4,0.9-1.1,0.9c-1,0-1.3-0.5-1.5-1.8c-0.1-0.7,0.5-1.2,1.3-1.2C78.8,26.3,79.3,27,79.3,28.3
		z"/>
	<path class="st1" d="M28.1,27.5c0,1.1-0.6,1.8-1.3,1.7c-0.8-0.1-1.1-0.6-1.1-1.4c0-1.1,0.5-1.7,1.3-1.7
		C27.7,26.3,28.1,26.7,28.1,27.5z"/>
	<path class="st1" d="M81.3,46.7c0.5,0,0.8,0.6,0.8,1.3c0,0.7-0.8,1.5-1.5,1.5c-0.6-0.1-1.1-0.4-1.2-1.1
		C79.5,47.5,80.2,46.7,81.3,46.7z"/>
	<path class="st1" d="M23.9,46.7c0.8,0,1.4,0.6,1.4,1.5c0,0.7-0.5,1.3-1.2,1.3c-0.6,0-1.4-0.9-1.4-1.5
		C22.7,47.4,23.3,46.7,23.9,46.7z"/>
	<path class="st1" d="M77.7,15.3c-0.1,0.7-0.6,0.9-1.3,0.9c-0.8,0-1.4-0.6-1.3-1.4c0.1-0.7,0.5-1.2,1.2-1.2
		C76.9,13.6,77.7,14.5,77.7,15.3z"/>
	<path class="st1" d="M29.8,14.6c0,0.8-0.7,1.6-1.3,1.6c-0.7,0-1.2-0.2-1.3-1c-0.1-0.8,0.6-1.6,1.3-1.6C29.3,13.6,29.7,14,29.8,14.6
		z"/>
	<path class="st1" d="M59,37.7c0,3.8-3.1,6.9-7.1,6.8c-3.6,0-6.7-3.3-6.7-7c0-3.7,3.2-6.9,6.9-6.9C55.9,30.7,59,33.9,59,37.7z
		 M57.1,37.6c0-2.7-2.3-5-5-5c-2.7,0-5.1,2.3-5.1,5c0,2.7,2.3,5,5,5C54.9,42.6,57.1,40.3,57.1,37.6z"/>
	<path class="st1" d="M65,37.2c0,0.6,0,1.2-0.7,1.4c-0.7,0.3-1.3-0.2-1.3-1.2c0-1.1-0.2-2.2-0.5-3.2c-1-3.1-3.1-5.3-6-6.6
		c-0.7-0.3-1.6-0.5-1.2-1.6c0.5-1.1,1.3-0.5,2-0.1C62.1,28.1,64.6,32,65,37.2z"/>
	<path class="st1" d="M52.2,26.7c-0.5-0.1-0.9-0.4-0.9-1c0-0.6,0.4-0.9,1-0.9c0.5,0,0.9,0.4,0.9,1C53.1,26.3,52.7,26.6,52.2,26.7z"
		/>
</g>
<g>
	<path class="st3" d="M12.6,66.2c-3.1,0-5.9,0-8.8,0c-2,0-2.8-0.8-2.8-2.8c0-13.5,0-27,0-40.6c0-2,0.9-2.7,2.8-2.7
		c16.3,0,32.7,0,49,0c2.2,0,2.8,1,2.8,3c0,12,0,24.1,0,36.1c0,0.9,0,1.9,0,3c1,0,1.7,0,2.6,0c0-1.5,0-2.9,0-4.2c0-8.2,0-16.4,0-24.6
		c0-2.9,0.5-3.4,3.3-3.4c5.4,0,10.8,0,16.2,0c1.7,0,2.7,0.6,3.5,2.1c1.6,3.3,3.4,6.6,5,9.9c0.5,1.1,1.1,1.8,2.5,1.7
		c1.5,0,2.9,0.2,4.4,0.5c2.8,0.4,4.2,2,4.1,4.8c-0.2,4.3-0.5,8.7-0.8,13c2.9,1.4,3.1,2.3,2.1,7c-0.5,2.3-2.1,3.8-4.4,3.9
		c-0.5,0-1,0-1.6,0c-2.5-0.1-4.3,0.1-6.1,2.8c-4.1,6.3-13.2,5.5-16.7-1.3c-0.6-1.2-1.3-1.6-2.5-1.6c-11.2,0-22.5,0-33.7,0.1
		c-0.7,0-1.8,0.6-2.2,1.2c-2.9,4.9-7.4,6.9-12.3,5.2c-5-1.7-7.4-6.2-6.5-11.8C12.5,67.1,12.5,66.9,12.6,66.2z M51.5,62.3
		c0-13,0-25.6,0-38.1c-0.4-0.1-0.6-0.2-0.8-0.2c-14.7,0-29.4,0-44.1,0c-1.6,0-1.8,0.8-1.8,2.1c0,11.4,0,22.7,0,34.1
		c0,1.6,0.4,2.3,2.1,2.2c2-0.1,4,0.1,6-0.1c1.5-0.1,3-0.5,4.3-1.1c3.1-1.4,6.3-1.9,9.1-0.3c2.4,1.4,4.7,1.5,7.2,1.4
		c1.9,0,3.8,0,5.8,0C43.3,62.3,47.3,62.3,51.5,62.3z M93.3,48.1c-2.5-0.3-4.6-0.8-6.7-0.9c-1.9-0.1-2.7-1.1-3.4-2.6
		c-1.5-3.1-3.1-6.2-4.7-9.3c-0.5-1.1-1.2-1.6-2.6-1.6c-3.9,0.1-7.8,0.1-11.7,0c-1.6,0-2.2,0.4-2.2,2.1c0.1,7.2,0,14.5,0,21.7
		c0,4.7,0,4.7,4.8,4.7c2.6,0,5.1,0,7.6-1.5c2.5-1.6,5.8-1.5,8.3,0.1c2.7,1.7,5.5,1.3,8.3,1.3c0.5,0,1.3-0.8,1.3-1.2
		C92.8,56.8,93,52.5,93.3,48.1z M78.6,75.9c3.3,0,6-2.9,6-6.1c0-3.3-2.8-6-6.1-6c-3.4,0-6.2,2.8-6.1,6.2
		C72.5,73.3,75.3,76,78.6,75.9z M28.3,69.8c0-3.3-2.7-6-6-6c-3.3,0-6.1,2.7-6.2,6c-0.1,3.3,2.8,6.2,6.2,6.2
		C25.6,75.9,28.3,73.2,28.3,69.8z M31.8,66.3c-0.2,2.1,0.6,2.7,2.7,2.7c10.7-0.1,21.4-0.1,32.1,0c2,0,2.6-0.8,2.2-2.7
		C56.3,66.3,44.1,66.3,31.8,66.3z M87.7,66.2c0.4,1.1,0.7,2.5,1.1,2.6c1.8,0.2,3.6,0.1,5.4-0.1c0.3,0,0.6-1.1,0.6-1.7
		c0-0.3-0.8-0.7-1.2-0.8C91.9,66.1,90.1,66.2,87.7,66.2z"/>
	<path class="st3" d="M72.7,47.9c-1.5,0-3.1,0.2-4.6-0.1c-0.8-0.2-1.5-1.2-2.2-1.9c0.7-0.6,1.4-1.7,2.1-1.8c3.2-0.2,6.5-0.2,9.7,0
		c0.7,0,1.3,1.2,1.9,1.9c-0.7,0.6-1.3,1.6-2,1.8C75.9,48.1,74.3,47.9,72.7,47.9z"/>
</g>
</svg>
