<?xml version="1.0" encoding="utf-8"?>
<!-- Generator: Adobe Illustrator 22.0.1, SVG Export Plug-In . SVG Version: 6.00 Build 0)  -->
<svg version="1.1" id="nap" xmlns="http://www.w3.org/2000/svg" xmlns:xlink="http://www.w3.org/1999/xlink" x="0px" y="0px"
	 viewBox="0 0 264.4 170.4" style="enable-background:new 0 0 264.4 170.4;" xml:space="preserve">
<style type="text/css">
	.st0{fill:#FFFFFF;}
	.st1{fill:#3A3C79;}
	.st2{fill:#0470B7;}
	.st3{fill:none;stroke:#FFFFFF;stroke-width:6.6567;stroke-linecap:round;stroke-linejoin:round;stroke-miterlimit:10;}
	.st4{fill:#2AABE2;}
	.st5{fill:#1261AC;}
</style>
<g>
	<path class="st0" d="M256.9,117.3c-4.7,0.1-4.8,0.3-5,5c-0.1-4.7-0.3-4.8-5-5c4.7-0.1,4.8-0.3,5-5
		C252.1,117,252.2,117.2,256.9,117.3"/>
	<path class="st1" d="M264.4,154c0,0-149.4-29.2-262.2,1.7C2.3,155.6,108.5,113.2,264.4,154"/>
	<path class="st1" d="M0,15.7c0,0,149.4,29.2,262.2-1.7C262.2,14.1,156,56.5,0,15.7"/>
	<path class="st2" d="M239.3,61c0-2,0.7-3.6,2.2-4.9c1.2-1,2.6-1.5,4.2-1.5c1.8,0,3.3,0.6,4.6,1.8c1.2,1.2,1.8,2.8,1.8,4.6
		c0,1.8-0.6,3.3-1.8,4.6c-1.2,1.2-2.7,1.9-4.5,1.9c-1.8,0-3.3-0.6-4.6-1.8C239.9,64.4,239.3,62.9,239.3,61 M250.5,61
		c0-1.5-0.4-2.7-1.3-3.7c-0.9-0.9-2.1-1.4-3.5-1.4c-1.5,0-2.6,0.5-3.5,1.4c-0.9,1-1.3,2.2-1.3,3.7c0,1.5,0.4,2.7,1.3,3.6
		c0.9,1,2.1,1.5,3.5,1.5c1.5,0,2.6-0.5,3.6-1.5C250,63.7,250.5,62.5,250.5,61 M248.1,64.2h-1.5l-1.4-2.6h-0.4v2.6h-1.3v-6.4h2.4
		c1.6,0,2.4,0.6,2.4,2c0,1.1-0.5,1.6-1.6,1.7L248.1,64.2z M245.9,60.6c0.8,0,1.2-0.3,1.2-0.9c0-0.6-0.5-0.8-1.5-0.8h-0.8v1.7H245.9z
		"/>
	<path class="st0" d="M240.5,87.5c-8.8-14.8-16.4-22.2-23.2-22.6c-7.4-1.3-15.9,5.9-26.1,21.9c-0.9,1.4-1.7,2.8-2.5,4.1
		c-0.4-7-1.6-13-3.7-17.7c-3.8-8.3-8.9-9.6-11.6-9.6h0c-2.8,0-8.7,1.2-12.4,10.6c-7.6-8-13.7-11.6-18.9-11c0,0-0.1,0-0.1,0
		c0,0,0,0,0,0c0,0,0,0,0,0c-0.1,0-0.2,0-0.3,0.1c-2.8,0.4-7.8,2.3-11.1,10.5c-1.2-2.5-2.6-4.7-4.4-6.3c-2.4-2.3-5.3-3.5-8.1-3.5
		c-7.2,0-15.6,6.9-15.7,26.3l0,5.5c0,1.5,0,3.3-0.1,4.7c-0.1-1.4-0.1-3.2-0.1-5.5l0-4.7c0.1-10.3-2.6-18.4-7.4-23
		c-2.4-2.3-5.2-3.5-8-3.5c-3.1-0.1-6,1.2-8.5,3.4c-1.8,1.7-3.3,3.9-4.5,6.6c-0.1-0.2-0.2-0.4-0.3-0.7c-3.8-8.3-8.9-9.6-11.6-9.6h0
		c-2.8,0-8.7,1.2-12.4,10.6c-7.6-8-13.7-11.5-18.9-11c-0.1,0-0.3,0-0.4,0.1c-4.4,0.6-14.1,5-14.1,31.3c0,14,2.5,23.5,7.6,28.2
		c2.3,2.1,5,3.2,7.9,3.2c2.8,0,8.7-1.2,12.4-10.7c4.7,5,10.7,10,16.1,10.9c0.2,0,0.3,0,0.5,0.1l0.1,0c0.2,0,0.5,0,0.6,0.1l0.4,0
		c0.1,0,0.1,0,0.2,0c5.4,0,11-4.2,13.7-15.1c4.9,9.5,13.7,14.6,25.6,14.7h0.3c17.9,0,24.2-10.5,26.8-15l-4-2.4l4,2.4
		c0-0.1,0,0,0.1-0.1l0.2-0.3c0,0,0.1-0.1,0.1-0.1c0.1-0.1,0.2-0.3,0.2-0.5c1.2,5.8,3.3,10.1,6.2,12.8c2.3,2.1,5,3.2,7.9,3.2
		c2.8,0,8.7-1.2,12.4-10.7c4.7,5,10.7,10,16.1,10.9c0.2,0,0.3,0,0.5,0.1l0.1,0c0.2,0,0.5,0,0.6,0.1l0.4,0c0.1,0,0.1,0,0.2,0
		c3.1,0,6.4-1.5,9.1-4.8c1.3,2.1,3.6,4.4,7.7,5.5c4.4,1.2,9.7-1.2,15.3-7c2.9,0.3,6.1,0.5,9.8,0.5c3.6,0.1,7-0.1,10-0.4
		c4.7,5.1,9.2,7.8,13.2,7.8c0.7,0,1.4-0.1,2.1-0.2c5.2-1.3,7.6-4.5,8.8-6.9c0.8-1.9,1.3-4.1,1.3-6.5
		C250.5,107.7,247.1,98.6,240.5,87.5 M141.9,63.3c0,0-0.1,0-0.1,0c-0.1,0-0.1,0-0.2,0C141.7,63.3,141.8,63.3,141.9,63.3"/>
	<path class="st3" d="M240.5,87.5c-8.8-14.8-16.4-22.2-23.2-22.6c-7.4-1.3-15.9,5.9-26.1,21.9c-0.9,1.4-1.7,2.8-2.5,4.1
		c-0.4-7-1.6-13-3.7-17.7c-3.8-8.3-8.9-9.6-11.6-9.6h0c-2.8,0-8.7,1.2-12.4,10.6c-7.6-8-13.7-11.6-18.9-11c0,0-0.1,0-0.1,0
		c0,0,0,0,0,0c0,0,0,0,0,0c-0.1,0-0.2,0-0.3,0.1c-2.8,0.4-7.8,2.3-11.1,10.5c-1.2-2.5-2.6-4.7-4.4-6.3c-2.4-2.3-5.3-3.5-8.1-3.5
		c-7.2,0-15.6,6.9-15.7,26.3l0,5.5c0,1.5,0,3.3-0.1,4.7c-0.1-1.4-0.1-3.2-0.1-5.5l0-4.7c0.1-10.3-2.6-18.4-7.4-23
		c-2.4-2.3-5.2-3.5-8-3.5c-3.1-0.1-6,1.2-8.5,3.4c-1.8,1.7-3.3,3.9-4.5,6.6c-0.1-0.2-0.2-0.4-0.3-0.7c-3.8-8.3-8.9-9.6-11.6-9.6h0
		c-2.8,0-8.7,1.2-12.4,10.6c-7.6-8-13.7-11.5-18.9-11c-0.1,0-0.3,0-0.4,0.1c-4.4,0.6-14.1,5-14.1,31.3c0,14,2.5,23.5,7.6,28.2
		c2.3,2.1,5,3.2,7.9,3.2c2.8,0,8.7-1.2,12.4-10.7c4.7,5,10.7,10,16.1,10.9c0.2,0,0.3,0,0.5,0.1l0.1,0c0.2,0,0.5,0,0.6,0.1l0.4,0
		c0.1,0,0.1,0,0.2,0c5.4,0,11-4.2,13.7-15.1c4.9,9.5,13.7,14.6,25.6,14.7h0.3c17.9,0,24.2-10.5,26.8-15l-4-2.4l4,2.4
		c0-0.1,0,0,0.1-0.1l0.2-0.3c0,0,0.1-0.1,0.1-0.1c0.1-0.1,0.2-0.3,0.2-0.5c1.2,5.8,3.3,10.1,6.2,12.8c2.3,2.1,5,3.2,7.9,3.2
		c2.8,0,8.7-1.2,12.4-10.7c4.7,5,10.7,10,16.1,10.9c0.2,0,0.3,0,0.5,0.1l0.1,0c0.2,0,0.5,0,0.6,0.1l0.4,0c0.1,0,0.1,0,0.2,0
		c3.1,0,6.4-1.5,9.1-4.8c1.3,2.1,3.6,4.4,7.7,5.5c4.4,1.2,9.7-1.2,15.3-7c2.9,0.3,6.1,0.5,9.8,0.5c3.6,0.1,7-0.1,10-0.4
		c4.7,5.1,9.2,7.8,13.2,7.8c0.7,0,1.4-0.1,2.1-0.2c5.2-1.3,7.6-4.5,8.8-6.9c0.8-1.9,1.3-4.1,1.3-6.5
		C250.5,107.7,247.1,98.6,240.5,87.5z M141.9,63.3c0,0-0.1,0-0.1,0c-0.1,0-0.1,0-0.2,0C141.7,63.3,141.8,63.3,141.9,63.3z"/>
	<path class="st2" d="M241.7,86.8c-9-15.1-17-22.8-24.3-23.3c-8.1-1.4-16.8,5.8-27.5,22.6c-0.1,0.1-0.2,0.3-0.3,0.4
		c-0.6-5.3-1.8-10-3.5-13.8c-4.1-9.1-9.9-10.4-12.9-10.4c-5.4,0-9.9,3.3-12.8,9.5c-7.3-7.3-13.3-10.5-18.5-9.9c0,0-0.1,0-0.1,0
		c-0.1,0-0.2,0-0.3,0c0,0-0.1,0-0.1,0c-2.9,0.4-7.5,2.2-10.9,8.7c-1-1.6-2.1-3-3.3-4.1c-2.8-2.6-5.9-3.9-9.1-3.9
		c-6.1,0-13,4.4-15.8,15.8c-1.3-5.1-3.5-9.3-6.5-12.1c-2.7-2.5-5.8-3.9-9.1-3.9c-3.4,0-6.7,1.3-9.3,3.8c-1.3,1.2-2.5,2.7-3.5,4.4
		c-4-7.3-9.1-8.4-11.9-8.4c-5.4,0-9.8,3.3-12.8,9.5c-7.3-7.3-13.3-10.5-18.6-9.9c-0.1,0-0.3,0-0.5,0.1c-5.8,0.8-15.3,6.2-15.4,32.7
		c0,14.6,2.6,24.2,8,29.2c2.5,2.3,5.6,3.6,8.9,3.6c5.4,0,9.8-3.4,12.8-9.6c5.7,5.8,10.9,9.1,15.4,9.8c0.2,0,0.5,0.1,0.6,0.1l0.1,0
		c0.4,0.1,0.6,0.1,0.9,0.1l0.6,0c2.5,0,10.1-1.1,14.2-12.9c5.4,8.2,14,12.5,25.2,12.5h0.1l0.2,0c16.4,0,23.6-8.7,26.9-13.7
		c1.3,4.4,3.3,7.8,5.8,10.2c2.5,2.3,5.6,3.6,8.9,3.6c5.4,0,9.8-3.4,12.8-9.6c5.7,5.8,10.9,9.1,15.4,9.8c0.2,0,0.4,0.1,0.6,0.1l0.1,0
		c0.3,0,0.6,0.1,0.9,0.1l0.5,0c3.3,0,6.4-1.4,9-4c1.5,1.9,3.9,3.6,7.5,4.6c4.9,1.3,10.3-1,16.2-6.9c2.7,0.3,5.8,0.4,9.2,0.5
		c3.4,0,6.6-0.1,9.5-0.3c4.9,5.1,9.5,7.7,13.8,7.7c0.8,0,1.6-0.1,2.4-0.3c4.6-1.1,7.9-3.8,9.7-7.7c0.9-2.1,1.4-4.4,1.4-7.1
		C251.9,107.4,248.5,98.1,241.7,86.8"/>
	<path class="st4" d="M239,123.5c2.8-0.7,4.7-2.1,5.7-4.3c0.6-1.3,0.9-2.8,0.9-4.6c0-5.8-3.2-14.1-9.4-24.5
		c-7.8-13-14.8-20.3-19.8-20.4c-5.1-1.2-12.8,5.9-21.6,19.8c-8.5,13.3-11.7,23.3-9.3,28.8c0.9,2.2,2.8,3.7,5.5,4.5
		c2.9,0.8,7.4-1.9,12.2-7.3l0.2-0.2l0.2,0c3.2,0.5,7,0.7,11.4,0.8c4.3,0.1,8.2-0.1,11.6-0.6l0.2,0l0.1,0.2
		C231.6,121.4,236,124.2,239,123.5 M215.7,97.7c1.3,2.8,2.8,5.6,4.3,8.2l0.3,0.5l-5.3-0.2l-4.9,0l0.3-0.5c1.6-2.5,3.1-5.3,4.6-8.1
		l0.3-0.7L215.7,97.7z M72.4,95.2L72.4,95.2c0-17.4-5.6-26.7-10.8-26.7c-4.6,0-8.3,5.5-9.9,14.8l-0.1,0.8l-0.5-0.6
		C39.8,70.1,33.9,67.7,30.8,68.1c-0.1,0-0.2,0-0.2,0c-5,0.6-10.2,8-10.3,26.7c0,15.8,3.3,22.2,6.1,24.8c1.4,1.3,3,2,4.8,2
		c4.6,0,8.3-5.6,9.9-15l0.1-0.8l0.5,0.7c7.1,8.9,14,14.7,18.6,15.5c0.1,0,0.5,0,0.5,0c0.1,0,0.2,0,0.2,0c0.1,0,0.5,0,0.5,0
		C66.9,122,72.3,113.7,72.4,95.2 M183.8,95.2L183.8,95.2c0-17.4-5.6-26.7-10.8-26.7c-4.6,0-8.4,5.5-9.9,14.8l-0.1,0.8l-0.5-0.6
		c-11.1-13.3-17.1-15.7-20.1-15.4c-0.1,0-0.2,0-0.2,0c-5,0.6-10.2,8-10.2,26.7c0,15.8,3.3,22.2,6.1,24.8c1.4,1.3,3,2,4.7,2
		c4.6,0,8.4-5.6,10-15l0.1-0.8l0.5,0.7c7.1,8.9,14,14.7,18.6,15.5c0.1,0,0.5,0,0.5,0c0.1,0,0.2,0,0.2,0c0.1,0,0.5,0,0.5,0
		C178.3,122,183.8,113.7,183.8,95.2 M124,108.8c0,0,0.2-0.4,0.2-0.4c1.9-3.6,4.4-8,4.4-17.8v-0.4c0-8.6-2.2-15.6-5.9-19.2
		c-1.5-1.4-3.2-2.2-4.9-2.2c-5.1,0-11,5.6-11.1,21.6l0,5.4c0,5.7-0.1,9.4-1.9,11.1c-0.7,0.7-1.7,1-3.1,1c-1,0-1.8-0.3-2.5-0.9
		c-1.8-1.7-2.1-5.5-2.1-11.9l0-4.7c0.1-8.8-2.1-15.9-5.9-19.6c-1.5-1.4-3.2-2.2-4.9-2.2c-1.9,0-3.7,0.7-5.3,2.2
		c-3.7,3.4-5.8,10.3-5.8,19.4c0,7.2,1.6,13.6,3.1,16.8c3.9,9.5,11.5,14.3,22.5,14.4C116.4,121.6,121.5,113,124,108.8"/>
	<path class="st0" d="M238.4,120.7c2.8-0.7,4.7-2.1,5.7-4.3c0.6-1.3,0.9-2.8,0.9-4.6c0-5.8-3.2-14.1-9.3-24.5
		c-7.8-13-14.8-20.3-19.8-20.4c-5.1-1.2-12.8,5.9-21.6,19.8c-8.5,13.3-11.7,23.3-9.3,28.8c0.9,2.2,2.8,3.7,5.5,4.5
		c2.9,0.8,7.4-1.9,12.2-7.3l0.2-0.2l0.2,0c3.2,0.5,7,0.7,11.4,0.8c4.3,0.1,8.2-0.1,11.6-0.6l0.2,0l0.1,0.2
		C231,118.6,235.5,121.4,238.4,120.7 M215.1,94.9c1.3,2.8,2.8,5.6,4.3,8.2l0.3,0.5l-5.3-0.2l-4.9,0l0.3-0.5c1.6-2.5,3.1-5.3,4.6-8
		l0.3-0.7L215.1,94.9z M71.8,92.4L71.8,92.4c0-17.4-5.6-26.7-10.8-26.7c-4.6,0-8.3,5.5-9.9,14.8l-0.1,0.8l-0.5-0.6
		C39.3,67.3,33.3,64.9,30.3,65.3c-0.1,0-0.2,0-0.2,0c-5,0.6-10.2,8-10.3,26.7c0,15.8,3.3,22.2,6.1,24.8c1.4,1.3,3,2,4.8,2
		c4.6,0,8.3-5.6,9.9-15l0.1-0.8l0.5,0.7c7.1,8.9,14,14.7,18.6,15.5c0.1,0,0.5,0,0.5,0c0.1,0,0.2,0,0.2,0c0.1,0,0.5,0,0.5,0
		C66.3,119.2,71.8,110.9,71.8,92.4 M183.2,92.4L183.2,92.4c0-17.4-5.6-26.7-10.8-26.7c-4.6,0-8.4,5.5-9.9,14.8l-0.1,0.8l-0.5-0.6
		c-11.1-13.3-17.1-15.7-20.1-15.4c-0.1,0-0.2,0-0.2,0c-5,0.6-10.2,8-10.2,26.7c0,15.8,3.3,22.2,6.1,24.8c1.4,1.3,3,2,4.7,2
		c4.6,0,8.4-5.6,9.9-15l0.1-0.8l0.5,0.7c7.1,8.9,14,14.7,18.6,15.5c0.1,0,0.5,0,0.5,0c0.1,0,0.2,0,0.2,0c0.1,0,0.5,0,0.5,0
		C177.8,119.2,183.2,110.9,183.2,92.4 M123.4,106c0,0,0.2-0.4,0.2-0.4c1.9-3.6,4.4-8,4.4-17.8v-0.4c0-8.6-2.2-15.6-5.9-19.2
		c-1.5-1.4-3.2-2.2-4.9-2.2c-5.1,0-11,5.6-11.1,21.6l0,5.4c0,5.7-0.1,9.4-1.9,11.1c-0.7,0.7-1.7,1-3.1,1c-1,0-1.8-0.3-2.5-0.9
		c-1.8-1.7-2.1-5.5-2.1-11.9l0-4.7c0.1-8.8-2.1-15.9-5.9-19.6c-1.5-1.4-3.2-2.2-4.9-2.2c-1.9,0-3.7,0.7-5.3,2.2
		c-3.7,3.4-5.8,10.3-5.8,19.4c0,7.2,1.6,13.6,3.1,16.8c3.9,9.5,11.5,14.3,22.5,14.4C115.8,118.8,120.9,110.2,123.4,106"/>
	<g>
		<defs>
			<rect id="SVGID_1_" x="19.8" y="65.3" width="225.2" height="55.5"/>
		</defs>
		<clipPath id="SVGID_2_">
			<use xlink:href="#SVGID_1_"  style="overflow:visible;"/>
		</clipPath>
		<g style="clip-path:url(#SVGID_2_);">
			
				<image style="overflow:visible;" width="617" height="152" xlink:href="AB7FDCFB.png"  transform="matrix(0.3651 0 0 0.3651 19.8186 65.2508)">
			</image>
		</g>
	</g>
	<path class="st2" d="M169.6,53.4c-9.4-1.9-39-6.3-65.7,4.5c-0.9,0.4-1.8,0.5-0.2-0.4c7.7-4.5,33-16.5,66.1-4.5
		C170.8,53.3,171.6,53.8,169.6,53.4"/>
	<path class="st2" d="M138.6,41.5c-6.8,2.8-10.8,5.9-12.9,8c2.2,0.8,6.5,0.1,10.7-2c5.1-2.5,8.2-5.9,6.8-7.7
		c-1.4-1.8-6.6-1.3-11.8,1.2c-5,2.4-8,5.8-6.9,7.6C132,42.5,138.6,41.5,138.6,41.5"/>
	<path class="st2" d="M149.9,55.3c-5.5-2.1-9.7-2.7-12.4-2.9c0.5,1.3,3.2,3,6.8,4.2c4.4,1.4,8.4,1.5,9,0.1c0.6-1.3-2.4-3.6-6.8-5
		c-4.3-1.4-8.2-1.5-9-0.2C145.8,52.7,149.9,55.3,149.9,55.3"/>
	<path class="st2" d="M166.6,55.3c1.9,0.7,6.3,2.2,10.9,1.6c3.9-0.5,7.7-2.4,5.9-7.1c-1.1-2.8-4.7-3.7-6.4-4c-0.6-0.1-1-0.4-1.2-0.8
		c-0.5-1.4-1.8-4.4-5.3-5.1c-5.7-1.2-7.8,2.1-8.1,5.4c-0.4,3.9,1.7,7.5,2.7,9C165.5,54.7,166,55.1,166.6,55.3"/>
	<g>
		<g>
			<path class="st5" d="M45.8,169.3L43,154.9c0.2,0,0.5-0.1,0.9-0.1c0.4,0,0.7-0.1,0.9-0.1c0.2,0,0.5-0.1,0.9-0.3
				c0.4-0.1,0.7-0.2,0.9-0.3l1.3,6.6c0.8-1.2,1.7-2.5,2.6-3.9c1-1.5,1.9-2.8,2.6-3.9c0.5,0,0.9-0.1,1.4-0.1c0.2,0,0.4-0.1,0.6-0.2
				c0.2-0.1,0.5-0.2,0.7-0.2l0,0.2l-3.4,4.4l-1.9,2.7l8.2,6.8l0.1,0.3c-0.2,0-0.5,0.1-0.9,0.1c-0.4,0-0.7,0.1-0.9,0.1
				c-0.2,0-0.5,0.1-0.9,0.2c-0.4,0.1-0.7,0.2-0.9,0.2l-6.9-5.6l1.3,6.7c-0.2,0-0.5,0.1-1,0.1c-0.4,0-0.7,0.1-1,0.1
				c-0.2,0-0.5,0.1-0.9,0.2C46.3,169.2,46,169.3,45.8,169.3z"/>
			<path class="st5" d="M61.9,149.9l1.1,7.2c0.4-0.5,0.9-1,1.5-1.4c0.7-0.5,1.3-0.7,2-0.8c1.2-0.2,2.2,0,3.1,0.6
				c0.5,0.3,0.8,0.6,1,1c0.2,0.4,0.3,0.9,0.4,1.5l1,6.8c-0.2,0-0.4,0-0.6,0c-0.6,0-1,0.1-1.1,0.1c-0.2,0-0.5,0.1-0.9,0.2
				c-0.4,0.1-0.7,0.2-0.9,0.2l-0.8-5.3c-0.2-1.1-0.4-1.9-0.7-2.4c-0.4-0.6-1-0.8-1.9-0.7c-0.9,0.1-1.4,0.6-1.7,1.4
				c-0.2,0.6-0.2,1.3,0,2.2l0.1,0.5l0.7,4.9c-0.2,0-0.5,0.1-0.9,0.1c-0.4,0-0.7,0-0.9,0.1c-0.2,0-0.5,0.1-0.8,0.2
				c-0.3,0.1-0.6,0.1-0.9,0.2l-2.4-16.1c0.2,0,0.5,0,0.9-0.1c0.4,0,0.7,0,0.8-0.1c0.2,0,0.5-0.1,0.9-0.2
				C61.4,150,61.7,149.9,61.9,149.9z"/>
			<path class="st5" d="M83.6,155.8l0.6,5.8c0.1,0.7,0.5,1,1.2,0.9l0.2-0.1l0.1,0.5c-0.3,0.2-0.7,0.4-1.1,0.5
				c-0.4,0.2-0.8,0.3-1.1,0.3c-0.6,0.1-1.1,0-1.6-0.3c-0.5-0.2-0.8-0.6-1.1-1c-0.3,0.5-0.7,0.9-1.2,1.3c-0.6,0.3-1.2,0.6-1.8,0.6
				c-1.1,0.1-2,0-2.7-0.4c-0.7-0.4-1.1-1.1-1.2-2c-0.1-1,0.2-1.7,0.9-2.3c0.6-0.4,1.7-0.9,3.4-1.5c0.4-0.1,0.7-0.2,0.9-0.3
				c0.4-0.1,0.6-0.3,0.9-0.4c0.1-0.1,0.2-0.3,0.3-0.4c0-0.1,0.1-0.3,0-0.5c-0.1-0.5-0.4-0.9-0.9-1.2c-0.5-0.3-1.1-0.4-1.7-0.4
				c-0.7,0.1-1.4,0.3-2,0.7c-0.5,0.3-0.8,0.6-0.9,0.9l-0.2,0l-0.5-1.2c0.5-0.5,1.2-0.9,2-1.3c0.8-0.4,1.7-0.6,2.5-0.7
				c1.3-0.1,2.3,0,3.2,0.3C82.9,154.1,83.5,154.8,83.6,155.8z M82.1,149.6c-0.1,0.8-0.4,1.5-1,2.1c-0.6,0.5-1.4,0.9-2.4,1
				c-1.1,0.1-1.9,0-2.6-0.4c-0.7-0.4-1.2-1-1.4-1.8l1.3-0.1c0.3,0.3,0.6,0.6,1,0.7c0.4,0.1,0.9,0.1,1.5,0.1c0.6-0.1,1-0.2,1.4-0.4
				c0.4-0.2,0.6-0.5,0.8-0.9L82.1,149.6z M80.6,160.3l-0.2-2.1c-0.5,0.2-0.9,0.4-1.2,0.5c-0.5,0.2-0.9,0.5-1.2,0.7
				c-0.3,0.2-0.5,0.5-0.6,0.8c-0.1,0.3-0.1,0.6-0.1,1.1c0.1,0.5,0.2,0.9,0.4,1.2c0.2,0.3,0.6,0.4,1.2,0.4c0.7-0.1,1.2-0.4,1.4-0.9
				C80.6,161.4,80.7,160.9,80.6,160.3z"/>
			<path class="st5" d="M87.6,163.1l-0.8-10.3c0.3,0,0.5,0,0.8,0c0.3,0,0.6,0,0.9,0c0.3,0,0.6-0.1,0.9-0.1c0.3,0,0.6-0.1,0.8-0.1
				l0.1,1.6c0.5-0.6,1.1-1.1,1.6-1.4c0.7-0.4,1.4-0.6,2.1-0.7c1.5-0.1,2.6,0.2,3.3,0.9c0.6,0.6,0.9,1.6,1.1,3l0.5,6.2
				c-0.2,0-0.4,0-0.6,0c-0.6,0-1,0-1.1,0c-0.2,0-0.5,0.1-0.9,0.1c-0.4,0.1-0.7,0.1-0.9,0.1l-0.4-5.3c-0.1-1.1-0.3-2-0.5-2.4
				c-0.4-0.6-1-0.9-1.8-0.8c-0.9,0.1-1.5,0.6-1.8,1.5c-0.1,0.6-0.2,1.4-0.1,2.4l0.4,4.9c-0.2,0-0.5,0-0.9,0c-0.4,0-0.7,0-0.9,0
				c-0.2,0-0.5,0.1-0.8,0.1C88.2,163,87.9,163.1,87.6,163.1z"/>
			<path class="st5" d="M118.9,151.4c0.3,0,0.4-0.1,0.5-0.1c0.1,0,0.2-0.1,0.3-0.3c0.1-0.2,0.2-0.4,0.2-0.6c0-0.3-0.1-0.5-0.2-0.6
				c-0.1-0.1-0.2-0.1-0.5-0.1c-0.3,0-0.4,0-0.4-0.1l0-1.3c0.3,0,0.6,0.1,0.8,0.1l1.1-0.1l0.7,0l0,0.3l0,1c0,0.3,0,0.6-0.1,0.9
				c-0.1,0.3-0.3,0.6-0.6,0.9c-0.2,0.2-0.4,0.4-0.7,0.5c-0.2,0.1-0.6,0.1-1.1,0.2l0.3,9.3c-0.5,0-1.1-0.1-1.6-0.1
				c-0.2,0-0.5,0-0.8,0.1c-0.3,0-0.6,0.1-0.8,0.1l0-1.6c-0.5,0.5-0.9,0.9-1.2,1.1c-0.7,0.5-1.5,0.8-2.4,0.8c-0.7,0-1.3-0.1-1.9-0.3
				c-0.6-0.2-1.1-0.5-1.4-0.9c-0.3-0.3-0.5-0.7-0.6-1.2c-0.1-0.5-0.2-0.9-0.2-1.4l0-0.7l-0.2-5.9l1.7,0c0.2,0,0.5,0,1-0.1
				c0.4,0,0.7-0.1,0.7-0.1l0.2,5.9c0,0.6,0,1,0.1,1.2c0,0.2,0.1,0.3,0.2,0.5c0.2,0.4,0.4,0.6,0.7,0.8c0.3,0.2,0.6,0.3,1.1,0.2
				c0.9,0,1.5-0.4,1.8-1.1c0.2-0.4,0.3-1.1,0.2-2.1l-0.2-5.5c0.3,0,0.5,0,0.8,0c0.3,0,0.6,0,0.9,0c0.3,0,0.6,0,0.9-0.1
				c0.3,0,0.6-0.1,0.8-0.1L118.9,151.4z"/>
			<path class="st5" d="M130.9,152c0.2,0,0.4,0,0.6-0.1c0.2-0.1,0.4-0.2,0.5-0.3c0.1-0.2,0.2-0.3,0.2-0.5c0-0.3-0.1-0.4-0.2-0.6
				c-0.1-0.1-0.2-0.1-0.5-0.1c-0.3,0-0.4,0-0.4-0.1l0-1.3c0.3,0.1,0.6,0.1,0.8,0.1c0.1,0,0.3,0,0.6,0c0.2,0,0.4,0,0.6,0l0.7,0l0,0.3
				l0,1c0,0.4,0,0.8-0.1,1c-0.1,0.2-0.2,0.4-0.5,0.6c-0.4,0.3-0.5,0.5-0.6,0.5c-0.2,0.2-0.5,0.2-0.9,0.2c0.7,0.9,1.1,2,1.1,3.2
				c0,1.7-0.5,3-1.5,4.1c-1,1-2.4,1.6-4.2,1.6c-1.7,0-3.1-0.5-4.1-1.4c-1-0.9-1.5-2.2-1.5-3.8c0-1.7,0.5-3,1.5-4.1
				c1-1,2.4-1.5,4.2-1.5C128.6,150.8,129.9,151.2,130.9,152z M124.6,149.6l3.2-3.2c0.3-0.2,0.4-0.4,0.6-0.5c0.3-0.2,0.7-0.3,1.1-0.3
				c0.3,0,0.6,0.1,0.8,0.3c0.2,0.2,0.3,0.4,0.3,0.7c0,0.3-0.1,0.6-0.4,0.8c0,0-0.3,0.2-0.9,0.5l-3.3,1.7L124.6,149.6z M127.2,151.8
				c-0.9,0-1.5,0.4-1.9,1.3c-0.3,0.7-0.5,1.8-0.5,3.2c0,1.1,0.1,1.9,0.4,2.6c0.4,1.1,1,1.6,1.9,1.6c0.8,0,1.4-0.5,1.8-1.6
				c0.3-0.9,0.5-2,0.5-3.4c0-1.1-0.2-2-0.5-2.7C128.5,152.1,128,151.8,127.2,151.8z"/>
			<path class="st5" d="M139.2,152.5l-0.1,6.1c0,0.7,0,1.2,0.2,1.5c0.1,0.3,0.5,0.5,1,0.5c0.1,0,0.3,0,0.4,0c0.1,0,0.4-0.1,0.7-0.1
				l0,0.8c-1,0.3-1.8,0.5-2.6,0.5c-1.2,0-2.1-0.4-2.6-1c-0.4-0.5-0.6-1.4-0.6-2.5l0.1-5.7l-1.7,0c0-0.2,0.1-0.4,0.1-0.7l0-0.2
				c0-0.1,0-0.1,0-0.2c0-0.1,0-0.2,0-0.2l1.7,0l0-2.4c1.1-0.3,2.3-0.7,3.5-1.2l-0.1,3.7l2.2,0c-0.1,0.3-0.1,0.5-0.1,0.7
				c0,0.1,0,0.3,0.1,0.7L139.2,152.5z"/>
			<path class="st5" d="M161.4,157.3l-7.2-0.4l-0.1,0.3c-0.1,1.1,0.2,2,0.7,2.6c0.6,0.7,1.5,1.1,2.7,1.2c0.5,0,1.1,0,1.6-0.2
				c0.5-0.1,1-0.3,1.5-0.6l0.3,0.2l-0.6,1.2c-1.2,0.6-2.4,0.9-3.7,0.8c-2.1-0.1-3.6-0.7-4.6-1.7c-1-1-1.5-2.5-1.4-4.2
				c0.1-1.5,0.7-2.7,1.7-3.6c1.1-0.9,2.5-1.3,4.3-1.2c1.8,0.1,3.1,0.6,3.9,1.6c0.8,0.8,1.1,2,1,3.4L161.4,157.3z M154.3,155.8
				l3.7,0.2c0-0.9,0-1.6-0.1-2.1c-0.2-0.9-0.7-1.3-1.3-1.4c-0.8,0-1.4,0.3-1.8,1.2C154.5,154.3,154.3,155,154.3,155.8z"/>
			<path class="st5" d="M163.3,162.5l0.9-10.3c0.5,0.1,0.8,0.1,1,0.2c0.2,0,0.4,0,0.7,0.1c0.2,0,0.5,0,1,0c0.5,0,0.7,0,0.8,0
				l-0.1,1.6c0.4-0.5,1-0.9,1.7-1.1c0.7-0.3,1.4-0.4,2.2-0.3c0.8,0.1,1.5,0.3,2.1,0.7c0.5,0.4,0.9,0.9,1.2,1.6
				c0.5-0.6,1.1-1,1.8-1.3c0.7-0.3,1.4-0.4,2.2-0.3c1.4,0.1,2.4,0.6,3,1.3c0.5,0.7,0.7,1.6,0.6,2.8l-0.6,6.8c-0.2,0-0.5-0.1-0.9-0.1
				c-0.4-0.1-0.7-0.1-0.9-0.1c-0.2,0-0.5,0-0.8,0c-0.3,0-0.6,0-0.9,0l0.5-5.8c0.1-1.2,0-2-0.3-2.4c-0.3-0.4-0.7-0.7-1.3-0.7
				c-0.8-0.1-1.4,0.1-1.7,0.5c-0.3,0.3-0.5,0.9-0.5,1.6l-0.6,6.4c-0.2,0-0.5-0.1-0.9-0.1c-0.4-0.1-0.7-0.1-0.9-0.1
				c-0.2,0-0.5,0-0.8,0s-0.6,0-0.9,0l0.5-5.8c0.1-1.2,0-2-0.3-2.4c-0.3-0.4-0.7-0.7-1.3-0.7c-0.8-0.1-1.3,0.1-1.7,0.6
				c-0.3,0.4-0.5,1-0.6,1.7l-0.6,6.2c-0.2,0-0.5-0.1-0.9-0.1c-0.4-0.1-0.7-0.1-0.9-0.1c-0.2,0-0.5,0-0.8,0
				C163.9,162.5,163.6,162.5,163.3,162.5z"/>
			<path class="st5" d="M191.8,165.3l2.2-15.9c0.2,0,0.5,0.1,0.9,0.2c0.4,0.1,0.7,0.2,0.9,0.2c0.2,0,0.5,0.1,0.8,0.1
				c0.3,0,0.6,0,0.9,0l-1,7.3c0.4-0.5,0.9-0.8,1.6-1.1c0.6-0.2,1.3-0.3,2-0.2c1.5,0.2,2.7,0.9,3.5,2.1c0.7,1.1,1,2.3,0.8,3.6
				c-0.1,0.8-0.3,1.5-0.6,2.1c-0.4,0.7-0.8,1.3-1.4,1.7c-1.3,0.9-2.7,1.3-4.4,1.1c-0.7-0.1-1.4-0.3-1.9-0.6c-0.6-0.3-1-0.8-1.3-1.3
				c-0.4,0.1-0.9,0.3-1.5,0.5c-0.5,0.2-0.8,0.3-0.9,0.4L191.8,165.3z M195.9,160.9c-0.2,1.5-0.2,2.6,0.1,3.3
				c0.3,0.7,0.8,1.1,1.5,1.2c0.8,0.1,1.4-0.2,1.9-0.9c0.5-0.7,0.9-1.7,1.1-3.1c0.2-1.1,0.2-1.9,0-2.5c-0.2-1-0.8-1.6-1.7-1.7
				c-1-0.1-1.7,0.3-2.2,1.2C196.3,159,196,159.8,195.9,160.9z"/>
			<path class="st5" d="M217.2,164.1l-7.1-1.2l-0.1,0.3c-0.2,1.1-0.1,2,0.4,2.7c0.5,0.8,1.3,1.3,2.5,1.5c0.5,0.1,1,0.1,1.6,0
				c0.5-0.1,1-0.2,1.5-0.5l0.3,0.2l-0.7,1.1c-1.2,0.5-2.5,0.6-3.8,0.4c-2-0.3-3.5-1.1-4.4-2.2c-0.9-1.1-1.2-2.6-0.9-4.4
				c0.2-1.5,1-2.6,2.1-3.4c1.2-0.8,2.6-1,4.4-0.7c1.7,0.3,3,1,3.7,2c0.7,0.9,0.9,2.1,0.7,3.5L217.2,164.1z M210.2,161.9l3.7,0.6
				c0.1-0.9,0.2-1.6,0.1-2.1c-0.1-0.9-0.5-1.4-1.2-1.5c-0.8-0.1-1.5,0.2-1.9,1C210.6,160.3,210.3,161,210.2,161.9z M210.8,156.4
				l3.7-2.6c0.3-0.2,0.5-0.3,0.6-0.4c0.3-0.2,0.7-0.2,1.2-0.1c0.3,0.1,0.6,0.2,0.8,0.4c0.2,0.2,0.2,0.4,0.2,0.7
				c0,0.3-0.2,0.5-0.6,0.7c-0.1,0-0.4,0.2-1,0.4l-3.5,1.1L210.8,156.4z"/>
		</g>
		<g>
			<path class="st0" d="M45.8,170.4c-0.2,0-0.4-0.1-0.6-0.2c-0.3-0.2-0.4-0.4-0.5-0.7l-2.8-14.4c-0.1-0.6,0.3-1.2,0.9-1.3
				c0.2,0,0.6-0.1,1-0.1c0.4,0,0.6-0.1,0.8-0.1c0.2,0,0.5-0.1,0.8-0.2c0.5-0.1,0.8-0.2,1-0.3c0.1,0,0.1,0,0.2,0
				c0.2,0,0.4,0.1,0.6,0.2c0.3,0.2,0.4,0.4,0.5,0.7l0.8,3.9c0.4-0.5,0.7-1.1,1.1-1.6c1-1.5,1.8-2.8,2.5-3.9c0.2-0.3,0.5-0.5,0.8-0.5
				c0.5,0,0.9-0.1,1.4-0.1c0,0,0.2-0.1,0.3-0.1l0.7-0.2c0.1,0,0.2-0.1,0.3-0.1c0.2,0,0.4,0.1,0.6,0.2c0.3,0.2,0.5,0.4,0.5,0.8l0,0.2
				c0.1,0.3,0,0.6-0.2,0.9l-3.4,4.4l-1.3,1.8l7.4,6.1c0.2,0.2,0.3,0.4,0.4,0.7l0.1,0.3c0.1,0.3,0,0.6-0.2,0.8s-0.4,0.4-0.7,0.5
				c-0.2,0-0.6,0.1-1,0.1c-0.4,0-0.6,0.1-0.8,0.1c-0.2,0-0.5,0.1-0.8,0.2c-0.5,0.1-0.8,0.2-1,0.3c-0.1,0-0.1,0-0.2,0
				c-0.3,0-0.5-0.1-0.7-0.3l-4.5-3.6l0.7,3.6c0.1,0.6-0.3,1.2-0.9,1.3c-0.2,0-0.6,0.1-1.1,0.1c-0.4,0-0.7,0.1-0.8,0.1
				c-0.2,0-0.4,0.1-0.8,0.2c-0.5,0.1-0.8,0.2-1,0.3C46,170.4,45.9,170.4,45.8,170.4z"/>
			<path class="st0" d="M60.8,167.6c-0.2,0-0.4-0.1-0.6-0.2c-0.3-0.2-0.4-0.5-0.5-0.8l-2.4-16.1c0-0.3,0-0.6,0.2-0.9
				c0.2-0.2,0.5-0.4,0.8-0.4c0.2,0,0.5,0,0.9-0.1c0.4,0,0.6,0,0.7-0.1c0.2,0,0.4-0.1,0.7-0.2c0.4-0.1,0.8-0.2,1-0.2
				c0.1,0,0.1,0,0.2,0c0.6,0,1,0.4,1.1,1l0.8,5.1c0,0,0,0,0,0c0.8-0.6,1.7-0.9,2.5-1c0.3,0,0.7-0.1,1-0.1c1,0,2,0.3,2.8,0.8
				c0.6,0.4,1.1,0.9,1.4,1.5c0.2,0.5,0.4,1.1,0.5,1.9l1,6.8c0,0.3,0,0.6-0.2,0.9c-0.2,0.2-0.5,0.4-0.8,0.4l-0.6,0
				c-0.5,0-0.9,0-1,0.1c-0.2,0-0.4,0.1-0.8,0.2c-0.4,0.1-0.8,0.2-1,0.2c-0.1,0-0.1,0-0.2,0c-0.2,0-0.5-0.1-0.7-0.2
				c-0.2-0.2-0.4-0.4-0.4-0.7l-0.8-5.3c-0.2-1.3-0.4-1.8-0.5-1.9c-0.1-0.1-0.2-0.2-0.5-0.2c-0.1,0-0.2,0-0.2,0
				c-0.5,0.1-0.7,0.3-0.8,0.6c-0.1,0.3-0.1,0.8,0,1.7l0.1,0.3l0.7,5c0.1,0.6-0.3,1.2-1,1.3c-0.2,0-0.6,0.1-1,0.1
				c-0.3,0-0.6,0-0.8,0.1c-0.2,0-0.5,0.1-0.7,0.1l-0.9,0.2C61,167.6,60.9,167.6,60.8,167.6z"/>
			<path class="st0" d="M77.1,165.5c-1,0-1.8-0.2-2.6-0.6c-1-0.6-1.6-1.6-1.8-2.8c-0.2-1.4,0.3-2.5,1.3-3.3c0.7-0.5,1.9-1.1,3.8-1.7
				c0.3-0.1,0.6-0.2,0.8-0.3c0.2-0.1,0.4-0.2,0.5-0.2c0,0-0.1-0.1-0.3-0.3c-0.3-0.2-0.6-0.2-0.8-0.2c-0.1,0-0.1,0-0.2,0
				c-0.5,0.1-1.1,0.2-1.5,0.6c-0.4,0.2-0.5,0.4-0.5,0.4c-0.1,0.5-0.5,0.7-0.9,0.7c0,0-0.2,0-0.3,0c-0.5,0-0.9-0.3-1.1-0.7l-0.5-1.2
				c-0.2-0.4-0.1-0.9,0.3-1.2c0.6-0.6,1.3-1,2.2-1.4c-0.9-0.5-1.5-1.4-1.9-2.4c-0.1-0.3,0-0.7,0.1-0.9c0.2-0.3,0.5-0.5,0.8-0.5
				l1.3-0.1c0,0,0.1,0,0.1,0c0.4,0,0.7,0.2,0.9,0.4c0.1,0.1,0.2,0.2,0.4,0.3c0.2,0,0.4,0.1,0.6,0.1c0.2,0,0.3,0,0.5,0
				c0.4,0,0.7-0.1,1-0.3c0.2-0.1,0.2-0.2,0.3-0.3c0.2-0.4,0.5-0.6,0.9-0.7l1.4-0.2c0,0,0.1,0,0.1,0c0.3,0,0.6,0.1,0.8,0.3
				c0.2,0.2,0.4,0.6,0.3,0.9c-0.1,1.1-0.6,2-1.4,2.7c0,0,0,0,0,0c0.1,0,0.2,0.1,0.4,0.1c2,0.7,2.5,2,2.6,3l0.6,5.7
				c0.1,0,0.2,0,0.3,0c0.2,0,0.4,0.1,0.6,0.2c0.3,0.2,0.5,0.5,0.5,0.8l0.1,0.5c0,0.5-0.2,0.9-0.6,1.1c-0.4,0.2-0.8,0.4-1.2,0.6
				c-0.5,0.2-1,0.3-1.4,0.4c-0.2,0-0.3,0-0.5,0c-0.6,0-1.2-0.1-1.7-0.4c-0.2-0.1-0.4-0.2-0.5-0.3c-0.2,0.2-0.4,0.4-0.7,0.5
				c-0.7,0.4-1.5,0.7-2.3,0.8C77.6,165.5,77.3,165.5,77.1,165.5z M79.4,159.9c-0.4,0.2-0.6,0.3-0.7,0.4c-0.1,0.1-0.2,0.2-0.2,0.2
				c0,0.1-0.1,0.3,0,0.6c0,0.3,0.1,0.5,0.2,0.6c0,0,0.1,0,0.1,0c0.4,0,0.5-0.2,0.5-0.3c0.1-0.3,0.2-0.6,0.1-1L79.4,159.9z"/>
			<path class="st0" d="M87.6,164.2c-0.3,0-0.5-0.1-0.7-0.2c-0.3-0.2-0.4-0.5-0.4-0.8l-0.8-10.3c0-0.3,0.1-0.6,0.3-0.9
				c0.2-0.2,0.5-0.4,0.8-0.4c0,0,0.4,0,0.4,0l0.3,0c0.2,0,0.5,0,0.8,0c0.2,0,0.5,0,0.8-0.1c0.3,0,0.6-0.1,0.7-0.1c0.1,0,0.1,0,0.2,0
				c0.3,0,0.5,0.1,0.7,0.2c0.1,0.1,0.2,0.1,0.2,0.2c0.1,0,0.1-0.1,0.2-0.1c0.8-0.5,1.7-0.8,2.6-0.8c0.2,0,0.4,0,0.7,0
				c1.5,0,2.7,0.4,3.5,1.3c0.8,0.8,1.2,2.1,1.4,3.7l0.5,6.2c0,0.3-0.1,0.6-0.3,0.9c-0.2,0.2-0.5,0.4-0.8,0.4l-0.6,0l-0.7,0
				c-0.2,0-0.3,0-0.3,0c-0.2,0-0.4,0.1-0.8,0.1c-0.4,0.1-0.8,0.1-1,0.1c0,0-0.1,0-0.1,0c-0.6,0-1.1-0.5-1.1-1l-0.4-5.3
				c-0.1-1.3-0.3-1.8-0.4-2c-0.1-0.1-0.2-0.3-0.6-0.3l-0.1,0c-0.4,0-0.6,0.2-0.8,0.7c-0.1,0.3-0.2,0.9-0.1,2.1l0.4,4.9
				c0,0.3-0.1,0.6-0.3,0.8c-0.2,0.2-0.5,0.4-0.8,0.4c-0.1,0-0.3,0-0.5,0c-0.1,0-0.9,0-0.9,0c-0.1,0-0.3,0-0.4,0
				c-0.2,0-0.4,0-0.7,0.1l-0.9,0.2C87.7,164.2,87.7,164.2,87.6,164.2z"/>
			<path class="st0" d="M112.1,162.9c-0.7,0-1.4-0.1-2.1-0.3c-0.8-0.3-1.4-0.7-1.9-1.3c-0.4-0.5-0.7-1-0.8-1.6
				c-0.1-0.5-0.2-1.1-0.2-1.7l0-0.8l-0.2-5.8c0-0.3,0.1-0.6,0.3-0.8c0.2-0.2,0.5-0.3,0.8-0.3c0,0,1.7,0,1.7,0c0.1,0,0.4,0,0.8-0.1
				c0.5,0,0.8-0.1,0.8-0.1c0,0,0,0,0,0c0.6,0,1.1,0.5,1.1,1.1l0.2,5.9c0,0.5,0,0.9,0.1,1l0,0c0,0,0,0,0.1,0.1
				c0.1,0.3,0.2,0.4,0.3,0.5c0,0,0.2,0.1,0.4,0.1c0.7,0,0.8-0.3,0.8-0.4c0.1-0.2,0.2-0.6,0.1-1.7l-0.2-5.5c0-0.3,0.1-0.6,0.3-0.9
				c0.2-0.2,0.5-0.3,0.8-0.3c0,0,0.1,0,0.1,0c0.2,0,0.5,0,0.7,0l0.3,0c0.2,0,0.3,0,0.5,0c0.2,0,0.4,0,0.6,0c0-0.1,0-0.2,0-0.3l0-1.3
				c0-0.3,0.1-0.7,0.4-0.9c0.2-0.2,0.5-0.3,0.8-0.3c0,0,0.1,0,0.2,0c0.2,0,0.4,0,0.6,0l1.1-0.1c0,0,0.8,0,0.8,0
				c0.3,0,0.6,0.1,0.8,0.4c0.2,0.2,0.3,0.6,0.3,0.9l0,0.2l0,0.9c0,0.5-0.1,0.9-0.2,1.3c-0.2,0.4-0.4,0.8-0.8,1.2
				c-0.3,0.4-0.7,0.6-1.1,0.8c-0.1,0-0.2,0.1-0.3,0.1l0.2,8.3c0,0.3-0.1,0.6-0.3,0.8c-0.2,0.2-0.5,0.3-0.8,0.3c0,0-1.7-0.1-1.7-0.1
				c-0.1,0-0.3,0-0.6,0.1l-0.8,0.1c-0.1,0-0.1,0-0.2,0c-0.3,0-0.5-0.1-0.7-0.3c-0.1-0.1-0.1-0.1-0.2-0.2c-0.8,0.5-1.7,0.7-2.7,0.8
				L112.1,162.9z"/>
			<path class="st0" d="M127.1,162.7c-2,0-3.7-0.6-4.9-1.7c-1.3-1.1-1.9-2.7-1.9-4.6c0-2,0.6-3.6,1.8-4.9c0.5-0.5,1-0.9,1.6-1.2
				c-0.1-0.1-0.2-0.2-0.2-0.3c-0.2-0.4-0.1-0.9,0.3-1.2l3.2-3.2c0.3-0.3,0.5-0.5,0.7-0.6c0.5-0.4,1.1-0.5,1.8-0.5
				c0.6,0,1.1,0.2,1.5,0.5c0.5,0.4,0.7,0.9,0.7,1.5c0,0.5-0.2,0.9-0.4,1.3c0,0,0.1,0,0.1,0c0.3,0,0.5,0.1,0.6,0.1c0.1,0,0.2,0,0.4,0
				c0.3,0,0.5-0.1,0.8-0.1c0,0,0.7,0,0.7,0c0.3,0,0.6,0.1,0.9,0.4c0.2,0.3,0.3,0.6,0.3,0.9l0,0.2l0,0.9c0,0.6-0.1,1.1-0.2,1.4
				c-0.1,0.3-0.4,0.7-0.7,1l-0.6,0.6c0.4,0.8,0.6,1.7,0.6,2.7c0,2-0.6,3.6-1.8,4.9C130.9,162,129.2,162.7,127.1,162.7
				C127.1,162.7,127.1,162.7,127.1,162.7z M127.2,152.9c-0.3,0-0.6,0.1-0.8,0.6c-0.2,0.4-0.4,1.2-0.4,2.8c0,0.9,0.1,1.7,0.3,2.2
				c0.3,0.8,0.6,0.8,0.8,0.8c0.1,0,0.5,0,0.8-0.9c0.3-0.7,0.4-1.7,0.4-3c0-1.2-0.2-1.8-0.4-2.2C127.7,152.9,127.4,152.9,127.2,152.9
				l0-1.1L127.2,152.9z M128.2,149.7c0.6,0.1,1.3,0.2,1.8,0.5l0-1.2c0-0.1,0-0.2,0-0.2c-0.1,0-0.1,0.1-0.2,0.1L128.2,149.7z"/>
			<path class="st0" d="M138.7,162.8c-1.6,0-2.8-0.5-3.5-1.5c-0.6-0.8-0.8-1.8-0.8-3.2l0.1-4.6l-0.6,0c-0.3,0-0.7-0.2-0.9-0.4
				c-0.2-0.3-0.3-0.6-0.2-0.9c0-0.1,0-0.3,0-0.5l0-0.3c0-0.1,0-0.3,0-0.4c0-0.6,0.5-1.1,1.1-1.1c0,0,0.6,0,0.6,0l0-1.3
				c0-0.5,0.3-0.9,0.8-1.1c1.1-0.3,2.2-0.7,3.4-1.2c0.1-0.1,0.3-0.1,0.4-0.1c0.2,0,0.5,0.1,0.6,0.2c0.3,0.2,0.5,0.6,0.5,1l-0.1,2.6
				l1,0c0.3,0,0.7,0.2,0.9,0.4c0.2,0.3,0.3,0.6,0.2,1c-0.1,0.3-0.1,0.4-0.1,0.4c0,0.1,0,0.2,0.1,0.5c0.1,0.3,0,0.7-0.3,0.9
				c-0.2,0.3-0.5,0.4-0.9,0.4c0,0-1.1,0-1.1,0l-0.1,4.9c0,0.4,0,0.7,0,0.8c0,0,0.1,0,0.1,0c0.1,0,0.2,0,0.2,0c0.1,0,0.3-0.1,0.6-0.1
				c0.1,0,0.1,0,0.2,0c0.3,0,0.5,0.1,0.7,0.3c0.3,0.2,0.4,0.5,0.4,0.9l0,0.8c0,0.5-0.3,0.9-0.8,1.1c-1,0.3-2,0.5-2.9,0.5
				C138.8,162.8,138.7,162.8,138.7,162.8z"/>
			<path class="st0" d="M156.9,163.5c-0.2,0-0.3,0-0.5,0c-2.4-0.1-4.2-0.8-5.4-2.1c-1.2-1.3-1.8-3-1.7-5.1c0.1-1.8,0.8-3.3,2.2-4.4
				c1.2-1,2.7-1.5,4.5-1.5c0.2,0,0.4,0,0.6,0c2.1,0.1,3.7,0.8,4.7,2c1,1.1,1.4,2.5,1.3,4.3l0,0.6c0,0.6-0.5,1.1-1.1,1.1
				c0,0-6.1-0.3-6.1-0.3c0.1,0.4,0.2,0.8,0.4,1.1c0.4,0.5,1,0.7,1.8,0.8l0.2,0c0.3,0,0.7,0,1-0.1c0.4-0.1,0.8-0.3,1.2-0.5
				c0.2-0.1,0.4-0.2,0.6-0.2c0.2,0,0.4,0.1,0.6,0.2l0.3,0.2c0.5,0.3,0.7,1,0.4,1.5l-0.6,1.2c-0.1,0.2-0.3,0.4-0.5,0.5
				C159.5,163.2,158.2,163.5,156.9,163.5z M156.9,154.8c0-0.3-0.1-0.5-0.1-0.6c-0.1-0.5-0.3-0.5-0.3-0.5l-0.1,0
				c-0.2,0-0.4,0-0.7,0.5c-0.1,0.2-0.1,0.3-0.2,0.5L156.9,154.8z"/>
			<path class="st0" d="M181.5,165.3c-0.2,0-0.6-0.1-1-0.2c-0.3-0.1-0.6-0.1-0.8-0.1c-0.2,0-0.4,0-0.7,0c0,0-0.9,0-0.9,0
				c-0.3,0-0.6-0.1-0.8-0.4c-0.2-0.2-0.3-0.6-0.3-0.9l0.5-5.8c0.1-1.3-0.1-1.7-0.1-1.7c0,0-0.1-0.2-0.5-0.2c-0.1,0-0.2,0-0.3,0
				c-0.3,0-0.5,0-0.5,0.1c0,0-0.2,0.2-0.2,1l-0.6,6.4c-0.1,0.6-0.5,1-1.1,1c0,0-0.1,0-0.1,0c-0.2,0-0.6-0.1-1-0.2
				c-0.3-0.1-0.6-0.1-0.8-0.1c-0.2,0-0.5,0-0.7,0c0,0-0.9,0-0.9,0c-0.3,0-0.6-0.1-0.8-0.4c-0.2-0.2-0.3-0.5-0.3-0.9l0.5-5.8
				c0.1-1.3-0.1-1.7-0.1-1.7c0,0-0.1-0.2-0.5-0.2c-0.1,0-0.1,0-0.2,0c-0.4,0-0.5,0.1-0.6,0.2c-0.2,0.2-0.3,0.6-0.3,1.1l-0.6,6.2
				c-0.1,0.6-0.5,1-1.1,1c0,0-0.1,0-0.1,0c-0.2,0-0.6-0.1-1-0.2c-0.3-0.1-0.6-0.1-0.8-0.1c-0.2,0-0.4,0-0.7,0c0,0-0.9,0-0.9,0
				c-0.3,0-0.6-0.1-0.8-0.4c-0.2-0.2-0.3-0.6-0.3-0.9l0.9-10.3c0-0.3,0.2-0.6,0.4-0.8c0.2-0.2,0.4-0.2,0.7-0.2c0.1,0,0.1,0,0.2,0
				c0.5,0.1,0.8,0.1,0.9,0.2c0.2,0,0.4,0,0.7,0.1c0.2,0,0.5,0,0.9,0c0.5,0,0.8,0,0.8,0c0.3,0,0.6,0.2,0.8,0.4c0,0.1,0.1,0.1,0.1,0.2
				c0,0,0.1,0,0.1-0.1c0.7-0.3,1.4-0.4,2.1-0.4c0.2,0,0.4,0,0.5,0c1,0.1,1.9,0.4,2.6,0.9c0.3,0.2,0.6,0.5,0.8,0.7
				c0.3-0.2,0.7-0.4,1-0.6c0.7-0.3,1.4-0.4,2.2-0.4c0.2,0,0.4,0,0.6,0c1.7,0.2,3,0.7,3.7,1.7c0.7,0.9,1,2.1,0.9,3.6l-0.6,6.8
				c0,0.3-0.2,0.6-0.4,0.8c-0.2,0.2-0.5,0.3-0.7,0.3C181.6,165.3,181.5,165.3,181.5,165.3z"/>
			<path class="st0" d="M198.8,167.7c-0.4,0-0.8,0-1.2-0.1c-0.9-0.1-1.7-0.4-2.3-0.8c-0.4-0.3-0.8-0.6-1.2-1
				c-0.2,0.1-0.4,0.2-0.6,0.2c-0.5,0.2-0.7,0.3-0.8,0.3c-0.1,0.1-0.3,0.1-0.5,0.1c-0.1,0-0.1,0-0.2,0l-0.5-0.1
				c-0.6-0.1-1.1-0.7-1-1.3l2.2-15.9c0-0.3,0.2-0.6,0.4-0.7c0.2-0.1,0.4-0.2,0.7-0.2c0.1,0,0.1,0,0.2,0c0.2,0,0.5,0.1,1,0.2
				c0.3,0.1,0.6,0.1,0.8,0.2c0.2,0,0.5,0,0.7,0.1l0.8,0c0.3,0,0.7,0.2,0.9,0.4c0.2,0.2,0.3,0.6,0.3,0.9l-0.7,4.9
				c0.5-0.1,1-0.2,1.5-0.2c0.3,0,0.6,0,0.9,0.1c1.9,0.3,3.3,1.1,4.3,2.6c0.9,1.3,1.2,2.8,0.9,4.4c-0.1,0.9-0.4,1.7-0.7,2.4
				c-0.4,0.9-1.1,1.6-1.8,2.2C201.7,167.2,200.4,167.7,198.8,167.7z M198.5,158.3c-0.3,0-0.6,0.1-0.9,0.6c-0.3,0.5-0.5,1.2-0.6,2.1
				c-0.2,1.7-0.1,2.5,0,2.8c0.1,0.3,0.3,0.5,0.6,0.5c0,0,0.1,0,0.1,0c0.1,0,0.4,0,0.7-0.5c0.4-0.6,0.7-1.4,0.9-2.6
				c0.2-1.2,0.1-1.8,0.1-2.1c-0.1-0.7-0.5-0.8-0.8-0.9C198.6,158.3,198.5,158.3,198.5,158.3z"/>
			<path class="st0" d="M212.9,169.8c-0.5,0-0.9,0-1.4-0.1c-2.3-0.4-4-1.3-5.1-2.7c-1.1-1.4-1.5-3.2-1.1-5.2
				c0.3-1.8,1.2-3.2,2.6-4.2c0.6-0.4,1.2-0.6,1.9-0.8c0-0.1-0.1-0.2-0.1-0.3c-0.1-0.5,0.1-0.9,0.5-1.2l3.7-2.6
				c0.4-0.2,0.6-0.4,0.8-0.5c0.4-0.2,0.8-0.3,1.2-0.3c0.2,0,0.4,0,0.6,0.1c0.6,0.1,1.1,0.4,1.4,0.8c0.4,0.5,0.5,1,0.4,1.6
				c-0.1,0.7-0.5,1.2-1.2,1.5c0,0-0.2,0.1-1.1,0.4l-1.7,0.6c1.4,0.4,2.5,1.2,3.2,2.2c0.8,1.2,1.1,2.6,0.8,4.4l-0.1,0.6
				c0,0.3-0.2,0.6-0.5,0.7c-0.2,0.1-0.4,0.2-0.7,0.2c-0.1,0-0.1,0-0.2,0l-6-1c0,0.4,0.1,0.8,0.3,1.1c0.3,0.5,0.9,0.8,1.7,1
				c0.2,0,0.4,0.1,0.6,0.1c0.2,0,0.4,0,0.6,0c0.4-0.1,0.8-0.2,1.2-0.4c0.2-0.1,0.3-0.1,0.5-0.1c0.3,0,0.5,0.1,0.7,0.3l0.3,0.2
				c0.5,0.4,0.6,1,0.2,1.5l-0.7,1.1c-0.1,0.2-0.3,0.3-0.5,0.4C214.9,169.6,213.9,169.8,212.9,169.8z M212.9,161.2c0-0.2,0-0.4,0-0.6
				c-0.1-0.5-0.2-0.5-0.2-0.6c-0.1,0-0.1,0-0.2,0c-0.1,0-0.3,0-0.6,0.4c-0.1,0.1-0.2,0.3-0.2,0.5L212.9,161.2z"/>
		</g>
		<g>
			<path class="st2" d="M45.8,169.3L43,154.9c0.2,0,0.5-0.1,0.9-0.1c0.4,0,0.7-0.1,0.9-0.1c0.2,0,0.5-0.1,0.9-0.3
				c0.4-0.1,0.7-0.2,0.9-0.3l1.3,6.6c0.8-1.2,1.7-2.5,2.6-3.9c1-1.5,1.9-2.8,2.6-3.9c0.5,0,0.9-0.1,1.4-0.1c0.2,0,0.4-0.1,0.6-0.2
				c0.2-0.1,0.5-0.2,0.7-0.2l0,0.2l-3.4,4.4l-1.9,2.7l8.2,6.8l0.1,0.3c-0.2,0-0.5,0.1-0.9,0.1c-0.4,0-0.7,0.1-0.9,0.1
				c-0.2,0-0.5,0.1-0.9,0.2c-0.4,0.1-0.7,0.2-0.9,0.2l-6.9-5.6l1.3,6.7c-0.2,0-0.5,0.1-1,0.1c-0.4,0-0.7,0.1-1,0.1
				c-0.2,0-0.5,0.1-0.9,0.2C46.3,169.2,46,169.3,45.8,169.3z"/>
			<path class="st2" d="M61.9,149.9l1.1,7.2c0.4-0.5,0.9-1,1.5-1.4c0.7-0.5,1.3-0.7,2-0.8c1.2-0.2,2.2,0,3.1,0.6
				c0.5,0.3,0.8,0.6,1,1c0.2,0.4,0.3,0.9,0.4,1.5l1,6.8c-0.2,0-0.4,0-0.6,0c-0.6,0-1,0.1-1.1,0.1c-0.2,0-0.5,0.1-0.9,0.2
				c-0.4,0.1-0.7,0.2-0.9,0.2l-0.8-5.3c-0.2-1.1-0.4-1.9-0.7-2.4c-0.4-0.6-1-0.8-1.9-0.7c-0.9,0.1-1.4,0.6-1.7,1.4
				c-0.2,0.6-0.2,1.3,0,2.2l0.1,0.5l0.7,4.9c-0.2,0-0.5,0.1-0.9,0.1c-0.4,0-0.7,0-0.9,0.1c-0.2,0-0.5,0.1-0.8,0.2
				c-0.3,0.1-0.6,0.1-0.9,0.2l-2.4-16.1c0.2,0,0.5,0,0.9-0.1c0.4,0,0.7,0,0.8-0.1c0.2,0,0.5-0.1,0.9-0.2
				C61.4,150,61.7,149.9,61.9,149.9z"/>
			<path class="st2" d="M83.6,155.8l0.6,5.8c0.1,0.7,0.5,1,1.2,0.9l0.2-0.1l0.1,0.5c-0.3,0.2-0.7,0.4-1.1,0.5
				c-0.4,0.2-0.8,0.3-1.1,0.3c-0.6,0.1-1.1,0-1.6-0.3c-0.5-0.2-0.8-0.6-1.1-1c-0.3,0.5-0.7,0.9-1.2,1.3c-0.6,0.3-1.2,0.6-1.8,0.6
				c-1.1,0.1-2,0-2.7-0.4c-0.7-0.4-1.1-1.1-1.2-2c-0.1-1,0.2-1.7,0.9-2.3c0.6-0.4,1.7-0.9,3.4-1.5c0.4-0.1,0.7-0.2,0.9-0.3
				c0.4-0.1,0.6-0.3,0.9-0.4c0.1-0.1,0.2-0.3,0.3-0.4c0-0.1,0.1-0.3,0-0.5c-0.1-0.5-0.4-0.9-0.9-1.2c-0.5-0.3-1.1-0.4-1.7-0.4
				c-0.7,0.1-1.4,0.3-2,0.7c-0.5,0.3-0.8,0.6-0.9,0.9l-0.2,0l-0.5-1.2c0.5-0.5,1.2-0.9,2-1.3c0.8-0.4,1.7-0.6,2.5-0.7
				c1.3-0.1,2.3,0,3.2,0.3C82.9,154.1,83.5,154.8,83.6,155.8z M82.1,149.6c-0.1,0.8-0.4,1.5-1,2.1c-0.6,0.5-1.4,0.9-2.4,1
				c-1.1,0.1-1.9,0-2.6-0.4c-0.7-0.4-1.2-1-1.4-1.8l1.3-0.1c0.3,0.3,0.6,0.6,1,0.7c0.4,0.1,0.9,0.1,1.5,0.1c0.6-0.1,1-0.2,1.4-0.4
				c0.4-0.2,0.6-0.5,0.8-0.9L82.1,149.6z M80.6,160.3l-0.2-2.1c-0.5,0.2-0.9,0.4-1.2,0.5c-0.5,0.2-0.9,0.5-1.2,0.7
				c-0.3,0.2-0.5,0.5-0.6,0.8c-0.1,0.3-0.1,0.6-0.1,1.1c0.1,0.5,0.2,0.9,0.4,1.2c0.2,0.3,0.6,0.4,1.2,0.4c0.7-0.1,1.2-0.4,1.4-0.9
				C80.6,161.4,80.7,160.9,80.6,160.3z"/>
			<path class="st2" d="M87.6,163.1l-0.8-10.3c0.3,0,0.5,0,0.8,0c0.3,0,0.6,0,0.9,0c0.3,0,0.6-0.1,0.9-0.1c0.3,0,0.6-0.1,0.8-0.1
				l0.1,1.6c0.5-0.6,1.1-1.1,1.6-1.4c0.7-0.4,1.4-0.6,2.1-0.7c1.5-0.1,2.6,0.2,3.3,0.9c0.6,0.6,0.9,1.6,1.1,3l0.5,6.2
				c-0.2,0-0.4,0-0.6,0c-0.6,0-1,0-1.1,0c-0.2,0-0.5,0.1-0.9,0.1c-0.4,0.1-0.7,0.1-0.9,0.1l-0.4-5.3c-0.1-1.1-0.3-2-0.5-2.4
				c-0.4-0.6-1-0.9-1.8-0.8c-0.9,0.1-1.5,0.6-1.8,1.5c-0.1,0.6-0.2,1.4-0.1,2.4l0.4,4.9c-0.2,0-0.5,0-0.9,0c-0.4,0-0.7,0-0.9,0
				c-0.2,0-0.5,0.1-0.8,0.1C88.2,163,87.9,163.1,87.6,163.1z"/>
			<path class="st2" d="M118.9,151.4c0.3,0,0.4-0.1,0.5-0.1c0.1,0,0.2-0.1,0.3-0.3c0.1-0.2,0.2-0.4,0.2-0.6c0-0.3-0.1-0.5-0.2-0.6
				c-0.1-0.1-0.2-0.1-0.5-0.1c-0.3,0-0.4,0-0.4-0.1l0-1.3c0.3,0,0.6,0.1,0.8,0.1l1.1-0.1l0.7,0l0,0.3l0,1c0,0.3,0,0.6-0.1,0.9
				c-0.1,0.3-0.3,0.6-0.6,0.9c-0.2,0.2-0.4,0.4-0.7,0.5c-0.2,0.1-0.6,0.1-1.1,0.2l0.3,9.3c-0.5,0-1.1-0.1-1.6-0.1
				c-0.2,0-0.5,0-0.8,0.1c-0.3,0-0.6,0.1-0.8,0.1l0-1.6c-0.5,0.5-0.9,0.9-1.2,1.1c-0.7,0.5-1.5,0.8-2.4,0.8c-0.7,0-1.3-0.1-1.9-0.3
				c-0.6-0.2-1.1-0.5-1.4-0.9c-0.3-0.3-0.5-0.7-0.6-1.2c-0.1-0.5-0.2-0.9-0.2-1.4l0-0.7l-0.2-5.9l1.7,0c0.2,0,0.5,0,1-0.1
				c0.4,0,0.7-0.1,0.7-0.1l0.2,5.9c0,0.6,0,1,0.1,1.2c0,0.2,0.1,0.3,0.2,0.5c0.2,0.4,0.4,0.6,0.7,0.8c0.3,0.2,0.6,0.3,1.1,0.2
				c0.9,0,1.5-0.4,1.8-1.1c0.2-0.4,0.3-1.1,0.2-2.1l-0.2-5.5c0.3,0,0.5,0,0.8,0c0.3,0,0.6,0,0.9,0c0.3,0,0.6,0,0.9-0.1
				c0.3,0,0.6-0.1,0.8-0.1L118.9,151.4z"/>
			<path class="st2" d="M130.9,152c0.2,0,0.4,0,0.6-0.1c0.2-0.1,0.4-0.2,0.5-0.3c0.1-0.2,0.2-0.3,0.2-0.5c0-0.3-0.1-0.4-0.2-0.6
				c-0.1-0.1-0.2-0.1-0.5-0.1c-0.3,0-0.4,0-0.4-0.1l0-1.3c0.3,0.1,0.6,0.1,0.8,0.1c0.1,0,0.3,0,0.6,0c0.2,0,0.4,0,0.6,0l0.7,0l0,0.3
				l0,1c0,0.4,0,0.8-0.1,1c-0.1,0.2-0.2,0.4-0.5,0.6c-0.4,0.3-0.5,0.5-0.6,0.5c-0.2,0.2-0.5,0.2-0.9,0.2c0.7,0.9,1.1,2,1.1,3.2
				c0,1.7-0.5,3-1.5,4.1c-1,1-2.4,1.6-4.2,1.6c-1.7,0-3.1-0.5-4.1-1.4c-1-0.9-1.5-2.2-1.5-3.8c0-1.7,0.5-3,1.5-4.1
				c1-1,2.4-1.5,4.2-1.5C128.6,150.8,129.9,151.2,130.9,152z M124.6,149.6l3.2-3.2c0.3-0.2,0.4-0.4,0.6-0.5c0.3-0.2,0.7-0.3,1.1-0.3
				c0.3,0,0.6,0.1,0.8,0.3c0.2,0.2,0.3,0.4,0.3,0.7c0,0.3-0.1,0.6-0.4,0.8c0,0-0.3,0.2-0.9,0.5l-3.3,1.7L124.6,149.6z M127.2,151.8
				c-0.9,0-1.5,0.4-1.9,1.3c-0.3,0.7-0.5,1.8-0.5,3.2c0,1.1,0.1,1.9,0.4,2.6c0.4,1.1,1,1.6,1.9,1.6c0.8,0,1.4-0.5,1.8-1.6
				c0.3-0.9,0.5-2,0.5-3.4c0-1.1-0.2-2-0.5-2.7C128.5,152.1,128,151.8,127.2,151.8z"/>
			<path class="st2" d="M139.2,152.5l-0.1,6.1c0,0.7,0,1.2,0.2,1.5c0.1,0.3,0.5,0.5,1,0.5c0.1,0,0.3,0,0.4,0c0.1,0,0.4-0.1,0.7-0.1
				l0,0.8c-1,0.3-1.8,0.5-2.6,0.5c-1.2,0-2.1-0.4-2.6-1c-0.4-0.5-0.6-1.4-0.6-2.5l0.1-5.7l-1.7,0c0-0.2,0.1-0.4,0.1-0.7l0-0.2
				c0-0.1,0-0.1,0-0.2c0-0.1,0-0.2,0-0.2l1.7,0l0-2.4c1.1-0.3,2.3-0.7,3.5-1.2l-0.1,3.7l2.2,0c-0.1,0.3-0.1,0.5-0.1,0.7
				c0,0.1,0,0.3,0.1,0.7L139.2,152.5z"/>
			<path class="st2" d="M161.4,157.3l-7.2-0.4l-0.1,0.3c-0.1,1.1,0.2,2,0.7,2.6c0.6,0.7,1.5,1.1,2.7,1.2c0.5,0,1.1,0,1.6-0.2
				c0.5-0.1,1-0.3,1.5-0.6l0.3,0.2l-0.6,1.2c-1.2,0.6-2.4,0.9-3.7,0.8c-2.1-0.1-3.6-0.7-4.6-1.7c-1-1-1.5-2.5-1.4-4.2
				c0.1-1.5,0.7-2.7,1.7-3.6c1.1-0.9,2.5-1.3,4.3-1.2c1.8,0.1,3.1,0.6,3.9,1.6c0.8,0.8,1.1,2,1,3.4L161.4,157.3z M154.3,155.8
				l3.7,0.2c0-0.9,0-1.6-0.1-2.1c-0.2-0.9-0.7-1.3-1.3-1.4c-0.8,0-1.4,0.3-1.8,1.2C154.5,154.3,154.3,155,154.3,155.8z"/>
			<path class="st2" d="M163.3,162.5l0.9-10.3c0.5,0.1,0.8,0.1,1,0.2c0.2,0,0.4,0,0.7,0.1c0.2,0,0.5,0,1,0c0.5,0,0.7,0,0.8,0
				l-0.1,1.6c0.4-0.5,1-0.9,1.7-1.1c0.7-0.3,1.4-0.4,2.2-0.3c0.8,0.1,1.5,0.3,2.1,0.7c0.5,0.4,0.9,0.9,1.2,1.6
				c0.5-0.6,1.1-1,1.8-1.3c0.7-0.3,1.4-0.4,2.2-0.3c1.4,0.1,2.4,0.6,3,1.3c0.5,0.7,0.7,1.6,0.6,2.8l-0.6,6.8c-0.2,0-0.5-0.1-0.9-0.1
				c-0.4-0.1-0.7-0.1-0.9-0.1c-0.2,0-0.5,0-0.8,0c-0.3,0-0.6,0-0.9,0l0.5-5.8c0.1-1.2,0-2-0.3-2.4c-0.3-0.4-0.7-0.7-1.3-0.7
				c-0.8-0.1-1.4,0.1-1.7,0.5c-0.3,0.3-0.5,0.9-0.5,1.6l-0.6,6.4c-0.2,0-0.5-0.1-0.9-0.1c-0.4-0.1-0.7-0.1-0.9-0.1
				c-0.2,0-0.5,0-0.8,0s-0.6,0-0.9,0l0.5-5.8c0.1-1.2,0-2-0.3-2.4c-0.3-0.4-0.7-0.7-1.3-0.7c-0.8-0.1-1.3,0.1-1.7,0.6
				c-0.3,0.4-0.5,1-0.6,1.7l-0.6,6.2c-0.2,0-0.5-0.1-0.9-0.1c-0.4-0.1-0.7-0.1-0.9-0.1c-0.2,0-0.5,0-0.8,0
				C163.9,162.5,163.6,162.5,163.3,162.5z"/>
			<path class="st2" d="M191.8,165.3l2.2-15.9c0.2,0,0.5,0.1,0.9,0.2c0.4,0.1,0.7,0.2,0.9,0.2c0.2,0,0.5,0.1,0.8,0.1
				c0.3,0,0.6,0,0.9,0l-1,7.3c0.4-0.5,0.9-0.8,1.6-1.1c0.6-0.2,1.3-0.3,2-0.2c1.5,0.2,2.7,0.9,3.5,2.1c0.7,1.1,1,2.3,0.8,3.6
				c-0.1,0.8-0.3,1.5-0.6,2.1c-0.4,0.7-0.8,1.3-1.4,1.7c-1.3,0.9-2.7,1.3-4.4,1.1c-0.7-0.1-1.4-0.3-1.9-0.6c-0.6-0.3-1-0.8-1.3-1.3
				c-0.4,0.1-0.9,0.3-1.5,0.5c-0.5,0.2-0.8,0.3-0.9,0.4L191.8,165.3z M195.9,160.9c-0.2,1.5-0.2,2.6,0.1,3.3
				c0.3,0.7,0.8,1.1,1.5,1.2c0.8,0.1,1.4-0.2,1.9-0.9c0.5-0.7,0.9-1.7,1.1-3.1c0.2-1.1,0.2-1.9,0-2.5c-0.2-1-0.8-1.6-1.7-1.7
				c-1-0.1-1.7,0.3-2.2,1.2C196.3,159,196,159.8,195.9,160.9z"/>
			<path class="st2" d="M217.2,164.1l-7.1-1.2l-0.1,0.3c-0.2,1.1-0.1,2,0.4,2.7c0.5,0.8,1.3,1.3,2.5,1.5c0.5,0.1,1,0.1,1.6,0
				c0.5-0.1,1-0.2,1.5-0.5l0.3,0.2l-0.7,1.1c-1.2,0.5-2.5,0.6-3.8,0.4c-2-0.3-3.5-1.1-4.4-2.2c-0.9-1.1-1.2-2.6-0.9-4.4
				c0.2-1.5,1-2.6,2.1-3.4c1.2-0.8,2.6-1,4.4-0.7c1.7,0.3,3,1,3.7,2c0.7,0.9,0.9,2.1,0.7,3.5L217.2,164.1z M210.2,161.9l3.7,0.6
				c0.1-0.9,0.2-1.6,0.1-2.1c-0.1-0.9-0.5-1.4-1.2-1.5c-0.8-0.1-1.5,0.2-1.9,1C210.6,160.3,210.3,161,210.2,161.9z M210.8,156.4
				l3.7-2.6c0.3-0.2,0.5-0.3,0.6-0.4c0.3-0.2,0.7-0.2,1.2-0.1c0.3,0.1,0.6,0.2,0.8,0.4c0.2,0.2,0.2,0.4,0.2,0.7
				c0,0.3-0.2,0.5-0.6,0.7c-0.1,0-0.4,0.2-1,0.4l-3.5,1.1L210.8,156.4z"/>
		</g>
	</g>
	<g>
		<g>
			<path class="st5" d="M42.6,1.7l-0.1-0.5c0.2,0,0.5,0.1,0.8,0.2c0.4,0.1,0.6,0.2,0.8,0.2c0.3,0,0.6,0.1,0.9,0.1
				c0.3,0,0.6,0.1,0.8,0.1c0.2,1.6,0.3,3.1,0.5,4.6c0.2,1.4,0.4,2.9,0.6,4.4c0.4-0.6,1-1.5,1.7-2.6c0.4-0.7,1-1.5,1.7-2.7
				c0.7-1.1,1.2-2,1.6-2.6c0.2,0.1,0.3,0.1,0.5,0.1C52.6,3,52.8,3,53,3c0.2,0,0.3,0.1,0.5,0.1c0.2,0,0.4,0,0.5,0
				c0.1,1,0.3,2.1,0.6,3.4c0.7,3.6,1.1,5.5,1.1,5.7c0.8-1.4,1.6-2.7,2.3-3.9c0.8-1.5,1.6-2.8,2.2-4.1c0.2,0.1,0.3,0.1,0.5,0.1
				c0.1,0,0.3,0.1,0.5,0.1l0.9,0.1c-1.3,2-2.5,3.8-3.5,5.4c-1.2,1.9-2.3,3.7-3.3,5.5c-0.2-0.1-0.4-0.1-0.6-0.2
				c-0.2-0.1-0.4-0.1-0.4-0.1c-0.1,0-0.3,0-0.5-0.1c-0.2,0-0.4,0-0.5,0c-0.1-0.9-0.3-1.9-0.5-3c-0.2-1.2-0.4-2.2-0.6-3
				c-0.1-0.2-0.3-1.2-0.7-2.9c-0.3,0.5-0.9,1.4-1.6,2.5c-0.7,1-1.2,1.8-1.7,2.5c-0.7,1-1.2,1.9-1.7,2.7c-0.2-0.1-0.4-0.1-0.6-0.2
				c-0.2-0.1-0.4-0.1-0.4-0.1c-0.1,0-0.3,0-0.5-0.1c-0.2,0-0.4,0-0.5,0c-0.1-1.1-0.3-2.4-0.6-4c-0.2-1.3-0.4-2.7-0.7-4
				C43,4.3,42.8,3,42.6,1.7z"/>
			<path class="st5" d="M70.6,13.3l-5.8-0.8l-0.1,0.3c-0.1,0.9,0,1.6,0.4,2.2c0.4,0.6,1.1,1,2.1,1.1c0.4,0.1,0.9,0,1.3,0
				c0.4-0.1,0.8-0.2,1.2-0.4l0.2,0.2l-0.6,0.9c-1,0.4-2,0.6-3,0.4c-1.7-0.2-2.9-0.8-3.6-1.7c-0.8-0.9-1-2.1-0.9-3.5
				c0.2-1.2,0.7-2.2,1.6-2.8c0.9-0.7,2.1-0.9,3.6-0.7c1.4,0.2,2.4,0.7,3.1,1.5c0.6,0.7,0.8,1.7,0.6,2.9L70.6,13.3z M64.8,11.7l3,0.4
				c0.1-0.7,0.1-1.3,0-1.7c-0.1-0.7-0.5-1.1-1-1.2c-0.7-0.1-1.2,0.2-1.5,0.8C65.1,10.5,64.9,11,64.8,11.7z"/>
			<path class="st5" d="M78.2,18.3l1.1-11.8L84.5,7c1.2,0.1,2.1,0.4,2.7,0.8c0.8,0.5,1.2,1.3,1.1,2.2c-0.1,0.8-0.5,1.4-1.2,1.8
				c-0.6,0.4-1.4,0.6-2.4,0.6l0,0.1c1,0.2,1.7,0.5,2.3,0.9c0.8,0.6,1.2,1.4,1.1,2.3c-0.1,1.1-0.7,1.9-1.8,2.4
				c-0.9,0.4-2.1,0.6-3.5,0.5L78.2,18.3z M81.8,12.9l-0.4,4.7l1,0.1c0.6,0.1,1.2-0.1,1.7-0.4c0.6-0.4,0.9-0.9,1-1.6
				c0.1-0.8-0.1-1.5-0.6-1.9c-0.5-0.4-1.2-0.7-2.1-0.8L81.8,12.9z M82.2,7.8l-0.4,4.1l0.5,0.1c0.4,0,0.7,0,1,0
				c0.3,0,0.6-0.1,0.9-0.3c0.3-0.2,0.6-0.4,0.8-0.7c0.2-0.3,0.3-0.6,0.3-1c0.1-0.6-0.1-1.1-0.5-1.5c-0.4-0.4-0.9-0.6-1.6-0.7
				c-0.1,0-0.3,0-0.5,0C82.5,7.8,82.4,7.8,82.2,7.8z"/>
			<path class="st5" d="M98.6,13.7l-0.3,4.7c0,0.6,0.2,0.9,0.8,0.9l0.2,0l0,0.4c-0.3,0.1-0.6,0.2-1,0.3c-0.4,0.1-0.7,0.1-0.9,0.1
				c-0.5,0-0.9-0.2-1.2-0.4c-0.3-0.3-0.6-0.6-0.7-1c-0.3,0.4-0.7,0.7-1.2,0.9c-0.5,0.2-1,0.3-1.5,0.2c-0.9-0.1-1.6-0.3-2.1-0.7
				c-0.5-0.4-0.7-1-0.7-1.7c0.1-0.8,0.4-1.4,1-1.7c0.5-0.3,1.5-0.5,2.9-0.7c0.3,0,0.6-0.1,0.8-0.1c0.3-0.1,0.6-0.1,0.7-0.2
				c0.1-0.1,0.2-0.2,0.3-0.3c0.1-0.1,0.1-0.2,0.1-0.4c0-0.4-0.2-0.8-0.5-1.1c-0.4-0.3-0.8-0.5-1.3-0.5c-0.6,0-1.2,0.1-1.7,0.3
				c-0.5,0.2-0.8,0.4-0.8,0.6l-0.1,0l-0.2-1.1c0.5-0.3,1.1-0.6,1.8-0.7c0.7-0.2,1.4-0.2,2.1-0.2c1,0.1,1.9,0.3,2.6,0.7
				C98.2,12.3,98.6,12.9,98.6,13.7z M95.5,16.9l0.1-1.7c-0.4,0.1-0.7,0.2-1,0.2c-0.5,0.1-0.8,0.2-1.1,0.4c-0.3,0.1-0.4,0.3-0.6,0.6
				c-0.1,0.2-0.2,0.5-0.2,0.8c0,0.4,0,0.7,0.2,1c0.2,0.3,0.4,0.4,0.9,0.5c0.6,0,1-0.1,1.3-0.5C95.3,17.8,95.5,17.4,95.5,16.9z"/>
			<path class="st5" d="M100.7,20l0.6-13.1c0.2,0,0.4,0,0.7,0.1c0.3,0,0.6,0.1,0.7,0.1c0.2,0,0.4,0,0.7,0c0.3,0,0.5,0,0.7,0l-0.3,6
				c0.3-0.4,0.7-0.8,1.2-1c0.5-0.2,1-0.3,1.6-0.3c1.3,0.1,2.3,0.5,3,1.4c0.6,0.8,0.9,1.8,0.9,2.9c0,0.6-0.1,1.2-0.3,1.7
				c-0.2,0.6-0.6,1.1-1,1.5c-0.9,0.9-2.1,1.3-3.5,1.2c-0.6,0-1.1-0.2-1.6-0.4c-0.5-0.2-0.9-0.5-1.2-1c-0.3,0.1-0.7,0.3-1.1,0.5
				c-0.4,0.2-0.6,0.3-0.7,0.4L100.7,20z M103.7,16.1c-0.1,1.2,0.1,2.1,0.3,2.7c0.3,0.6,0.7,0.9,1.3,0.9c0.6,0,1.1-0.3,1.5-0.9
				c0.4-0.6,0.6-1.5,0.6-2.6c0-0.9,0-1.6-0.2-2c-0.3-0.8-0.8-1.2-1.5-1.3c-0.8,0-1.4,0.3-1.7,1.1C103.8,14.5,103.7,15.2,103.7,16.1z
				"/>
			<path class="st5" d="M113,25l2.7-4.4l-4-8.4c0.2,0,0.5,0,0.9,0.1c0.4,0,0.6,0,0.7,0.1c0.2,0,0.4,0,0.9,0c0.4,0,0.6,0,0.7,0
				c0.3,0.9,0.6,1.6,0.8,2.1c0.2,0.5,0.7,1.6,1.5,3.3l0.8-1.7c0.3-0.6,0.5-1,0.6-1.3c0.3-0.7,0.7-1.4,1-2.2c0.2,0,0.3,0,0.4,0
				c0.1,0,0.3,0,0.4,0l0.3,0c0.1,0,0.2,0,0.3,0c0.1,0,0.2,0,0.3,0l-2.2,3.9c-0.9,1.6-1.7,3.1-2.3,4.4c-0.7,1.3-1.4,2.7-2.1,4.4
				c-0.2,0-0.3,0-0.4-0.1c-0.1,0-0.3,0-0.4,0c-0.1,0-0.3,0-0.5,0C113.2,25,113.1,25,113,25z"/>
			<path class="st5" d="M135.6,15.4l0.1,5.4c-0.2,0-0.4,0-0.8,0c-0.3,0-0.6,0-0.8,0c-0.2,0-0.4,0-0.8,0.1c-0.3,0-0.6,0.1-0.8,0.1
				l0-5c-0.3-0.4-0.9-1.1-1.6-2.2c-0.7-0.9-1.2-1.7-1.6-2.3c-0.5-0.8-1.1-1.5-1.6-2.3c0.3,0,0.6,0,0.9,0c0.3,0,0.6,0,1,0.1
				c0.2,0,0.5,0,1-0.1c0.4,0,0.8-0.1,1-0.1c0.6,0.9,1.2,1.9,1.9,3.1c0.4,0.6,0.6,1,0.8,1.3c0.3,0.4,0.4,0.6,0.6,0.8
				c0.4-0.4,1.1-1.4,2-3.1c0.5-0.8,0.9-1.5,1.2-2.1c0.2,0,0.3,0,0.5,0c0.2,0,0.3,0,0.6,0c0.2,0,0.4,0,0.6,0c0.2,0,0.4,0,0.5,0
				c-0.5,0.7-1,1.4-1.5,2.2c-0.7,1-1.2,1.7-1.5,2.2C136.5,14.1,136,14.8,135.6,15.4z"/>
			<path class="st5" d="M146.4,20.7c-1.4,0-2.5-0.3-3.4-1c-0.9-0.7-1.3-1.7-1.3-3c0-1.4,0.3-2.5,1.1-3.3c0.8-0.9,1.9-1.3,3.4-1.3
				c1.4,0,2.6,0.3,3.4,1c0.9,0.7,1.3,1.7,1.4,3c0,1.3-0.3,2.5-1.1,3.3C149,20.2,147.9,20.7,146.4,20.7z M146.3,12.8
				c-0.7,0-1.2,0.4-1.5,1.1c-0.2,0.6-0.3,1.5-0.3,2.6c0,0.9,0.1,1.6,0.4,2.1c0.3,0.9,0.8,1.3,1.6,1.2c0.7,0,1.2-0.5,1.5-1.3
				c0.2-0.7,0.3-1.6,0.3-2.8c0-0.9-0.2-1.6-0.5-2.2C147.4,13.1,146.9,12.8,146.3,12.8z"/>
			<path class="st5" d="M160.4,11.5l0.4,8.4c-0.4,0-0.9,0-1.3,0c-0.2,0-0.4,0-0.6,0.1c-0.2,0-0.5,0.1-0.7,0.1l-0.1-1.3
				c-0.4,0.4-0.7,0.7-0.9,0.9c-0.6,0.4-1.2,0.7-2,0.7c-0.5,0-1,0-1.5-0.2c-0.5-0.2-0.9-0.4-1.2-0.7c-0.2-0.3-0.4-0.6-0.5-0.9
				c-0.1-0.4-0.2-0.7-0.2-1.2l0-0.6l-0.2-4.8l1.4,0c0.2,0,0.4,0,0.8-0.1c0.4,0,0.6-0.1,0.6-0.1l0.2,4.8c0,0.5,0.1,0.8,0.1,1
				c0,0.1,0.1,0.3,0.2,0.4c0.2,0.3,0.3,0.5,0.6,0.6c0.2,0.1,0.5,0.2,0.9,0.2c0.7,0,1.2-0.4,1.4-1c0.1-0.4,0.2-0.9,0.1-1.7l-0.2-4.5
				c0.2,0,0.4,0,0.6,0c0.2,0,0.4,0,0.7,0c0.2,0,0.5,0,0.7-0.1C160.1,11.6,160.3,11.6,160.4,11.5z"/>
			<path class="st5" d="M163.4,19.8l-0.6-8.4c0.4,0,0.7,0,0.8,0c0.1,0,0.3,0,0.6,0c0.2,0,0.4,0,0.8-0.1c0.4,0,0.6-0.1,0.6-0.1
				l0.1,2.1c0.2-0.7,0.5-1.3,0.9-1.7c0.5-0.5,1.3-0.8,2.2-0.8c0,0.2,0,0.5,0,0.9c0,0.4,0,0.7,0,0.9l0.1,0.6l-0.2,0.1
				c-0.1-0.1-0.3-0.1-0.5-0.1c-0.2,0-0.4,0-0.6,0c-1,0.1-1.6,0.5-1.8,1.3c-0.1,0.3-0.1,0.7-0.1,1.1l0.1,0.9l0.2,3.1
				c-0.2,0-0.4,0-0.7,0c-0.3,0-0.6,0-0.7,0c-0.2,0-0.4,0-0.7,0.1C163.9,19.7,163.6,19.7,163.4,19.8z"/>
			<path class="st5" d="M177.7,18.6l-1.1-11.8l5.3-0.5c1.2-0.1,2.1,0,2.8,0.3c0.9,0.4,1.4,1,1.5,2c0.1,0.8-0.2,1.4-0.8,2
				c-0.6,0.5-1.3,0.9-2.3,1.1l0,0.1c1,0,1.8,0.1,2.5,0.4c0.9,0.4,1.4,1.1,1.5,2.1c0.1,1.1-0.3,2-1.3,2.7c-0.8,0.6-2,1-3.3,1.1
				L177.7,18.6z M179.7,7.6l0.4,4.1l0.5,0c0.4,0,0.7-0.1,1-0.2c0.3-0.1,0.6-0.2,0.8-0.4c0.3-0.2,0.5-0.5,0.6-0.9
				c0.1-0.3,0.2-0.7,0.1-1c-0.1-0.6-0.3-1.1-0.7-1.4c-0.4-0.3-1-0.4-1.7-0.4c-0.1,0-0.3,0-0.5,0.1C180,7.5,179.9,7.5,179.7,7.6z
				 M180.2,12.6l0.5,4.7l1-0.1c0.6-0.1,1.1-0.3,1.6-0.7c0.5-0.5,0.7-1.1,0.6-1.8c-0.1-0.8-0.4-1.4-0.9-1.8c-0.5-0.3-1.3-0.5-2.2-0.4
				L180.2,12.6z"/>
			<path class="st5" d="M196.9,10.4l0.5,4.7c0.1,0.6,0.4,0.8,1,0.8l0.2-0.1l0,0.4c-0.3,0.2-0.6,0.3-0.9,0.4
				c-0.3,0.1-0.6,0.2-0.9,0.3c-0.5,0.1-0.9,0-1.3-0.2c-0.4-0.2-0.7-0.5-0.9-0.8c-0.2,0.4-0.5,0.8-1,1.1c-0.4,0.3-0.9,0.5-1.5,0.5
				c-0.9,0.1-1.6,0-2.2-0.3c-0.6-0.3-0.9-0.9-1-1.6c-0.1-0.8,0.1-1.4,0.7-1.9c0.5-0.4,1.4-0.8,2.8-1.2c0.3-0.1,0.5-0.2,0.7-0.3
				c0.3-0.1,0.5-0.2,0.7-0.4c0.1-0.1,0.2-0.2,0.2-0.3c0-0.1,0.1-0.2,0-0.4c0-0.4-0.3-0.7-0.7-1c-0.4-0.2-0.9-0.3-1.4-0.3
				c-0.6,0.1-1.1,0.3-1.6,0.6c-0.4,0.3-0.7,0.5-0.7,0.7l-0.1,0l-0.4-1c0.4-0.4,1-0.8,1.6-1.1c0.7-0.3,1.4-0.5,2-0.6
				c1-0.1,1.9-0.1,2.6,0.2C196.3,9,196.8,9.6,196.9,10.4z M194.4,14.1l-0.2-1.7c-0.4,0.2-0.7,0.3-0.9,0.4c-0.4,0.2-0.8,0.4-1,0.6
				c-0.2,0.2-0.4,0.4-0.5,0.6c-0.1,0.2-0.1,0.5,0,0.9c0,0.4,0.2,0.7,0.4,0.9c0.2,0.2,0.5,0.3,0.9,0.3c0.6-0.1,0.9-0.3,1.1-0.7
				C194.4,15,194.5,14.6,194.4,14.1z"/>
			<path class="st5" d="M200.1,16.2l-1.8-13c0.2,0,0.4,0,0.7,0c0.3,0,0.6,0,0.7,0c0.2,0,0.4-0.1,0.7-0.1c0.2-0.1,0.5-0.1,0.7-0.2
				l0.8,5.9c0.2-0.5,0.5-0.9,1-1.2c0.4-0.3,1-0.5,1.6-0.6c1.3-0.2,2.3,0.1,3.2,0.8c0.8,0.7,1.2,1.6,1.4,2.7c0.1,0.6,0.1,1.2,0,1.7
				c-0.1,0.7-0.4,1.2-0.7,1.7c-0.8,1-1.8,1.6-3.2,1.8c-0.6,0.1-1.1,0.1-1.6-0.1c-0.5-0.1-1-0.4-1.3-0.7c-0.3,0.2-0.6,0.4-1,0.7
				c-0.3,0.3-0.5,0.4-0.6,0.5L200.1,16.2z M202.3,11.8c0.2,1.2,0.4,2.1,0.8,2.6c0.4,0.5,0.9,0.7,1.5,0.6c0.6-0.1,1.1-0.5,1.3-1.1
				c0.3-0.7,0.3-1.6,0.2-2.6c-0.1-0.9-0.3-1.5-0.5-2c-0.4-0.8-1-1.1-1.7-1c-0.8,0.1-1.3,0.6-1.5,1.4
				C202.2,10.2,202.2,10.9,202.3,11.8z"/>
			<path class="st5" d="M213.1,18.9l1.9-4.8l-5.4-7.6c0.2,0,0.5-0.1,0.9-0.1c0.4,0,0.6-0.1,0.7-0.1c0.2,0,0.4-0.1,0.8-0.2
				c0.4-0.1,0.6-0.1,0.7-0.1c0.5,0.8,0.9,1.4,1.2,1.9c0.3,0.5,1,1.5,2.1,3l0.5-1.9c0.2-0.6,0.3-1.1,0.4-1.4c0.2-0.7,0.4-1.5,0.6-2.4
				c0.2,0,0.3,0,0.4,0c0.1,0,0.3,0,0.4-0.1l0.3-0.1c0.1,0,0.2,0,0.3,0c0.1,0,0.2-0.1,0.3-0.1l-1.4,4.2c-0.6,1.8-1.1,3.4-1.5,4.7
				c-0.4,1.4-0.9,2.9-1.3,4.7c-0.2,0-0.3,0-0.4,0c-0.1,0-0.3,0-0.4,0.1c-0.1,0-0.3,0.1-0.5,0.1C213.3,18.8,213.2,18.9,213.1,18.9z"
				/>
		</g>
		<g>
			<path class="st0" d="M55.3,16.6c-0.1,0-0.2,0-0.3-0.1c-0.2-0.1-0.4-0.1-0.6-0.2c-0.2,0-0.3-0.1-0.3-0.1c-0.1,0-0.2,0-0.3,0
				l-0.5,0c-0.5,0-1-0.4-1.1-1c-0.1-0.9-0.3-1.9-0.5-3c-0.2-1.2-0.4-2.2-0.6-2.9c0-0.1,0-0.2-0.1-0.3c-0.1,0.1-1.8,2.8-1.8,2.8
				c-0.7,1-1.2,1.9-1.7,2.7c-0.2,0.3-0.6,0.5-1,0.5c-0.1,0-0.2,0-0.3-0.1c-0.2,0-0.3-0.1-0.6-0.2c-0.2,0-0.3-0.1-0.3-0.1
				c-0.1,0-0.2,0-0.3,0l-0.5,0c-0.6,0-1-0.4-1.1-1c-0.1-1.1-0.3-2.4-0.6-3.9c-0.2-1.3-0.4-2.6-0.7-4c-0.2-1.3-0.5-2.6-0.7-3.9
				l-0.1-0.6c0-0.4,0.1-0.7,0.3-1C41.9,0.1,42.2,0,42.5,0c0.1,0,0.1,0,0.2,0c0.2,0,0.5,0.1,0.9,0.2c0.3,0.1,0.5,0.1,0.7,0.2
				c0.3,0,0.5,0.1,0.8,0.1c0.3,0,0.6,0.1,0.8,0.1c0.6,0,1,0.5,1.1,1c0.2,1.6,0.3,3.1,0.5,4.5c0.1,0.5,0.1,1,0.2,1.4l0.1-0.1
				c0.4-0.7,1-1.5,1.7-2.7c0.7-1.1,1.2-2,1.6-2.6c0.2-0.4,0.6-0.6,1-0.6c0.1,0,0.2,0,0.3,0.1c0.1,0,0.3,0.1,0.4,0.1
				c0.1,0,0.3,0.1,0.5,0.1c0.1,0,0.3,0,0.4,0.1L54,2c0.5,0,1.1,0.5,1.1,1c0.1,1,0.3,2.1,0.6,3.3c0.2,1.1,0.4,2,0.6,2.8
				c0.3-0.5,0.5-0.9,0.8-1.4c0.8-1.5,1.6-2.8,2.2-4c0.2-0.4,0.6-0.6,1-0.6c0.1,0,0.2,0,0.4,0.1c0.1,0,0.3,0.1,0.4,0.1
				c0.1,0,0.3,0.1,0.4,0.1l0.9,0.1c0.4,0,0.7,0.3,0.9,0.6c0.2,0.4,0.1,0.8-0.1,1.1c-1.3,1.9-2.5,3.7-3.5,5.4
				c-1.2,1.9-2.3,3.7-3.2,5.4C56.1,16.4,55.7,16.6,55.3,16.6z"/>
			<path class="st0" d="M67,18.3c-0.3,0-0.6,0-0.9-0.1c-2-0.3-3.4-1-4.4-2.1c-1-1.2-1.3-2.6-1.1-4.4c0.2-1.5,0.9-2.8,2.1-3.6
				c0.9-0.6,2-1,3.3-1c0.3,0,0.7,0,1.1,0.1c1.7,0.2,3,0.9,3.8,2c0.8,1,1,2.2,0.8,3.7l-0.1,0.5c0,0.3-0.2,0.6-0.4,0.8
				c-0.2,0.2-0.4,0.2-0.7,0.2c0,0-0.1,0-0.1,0l-4.6-0.6c0,0.2,0.1,0.4,0.2,0.5c0.1,0.1,0.3,0.5,1.3,0.6c0.1,0,0.3,0,0.4,0
				c0.2,0,0.4,0,0.6-0.1c0.3-0.1,0.6-0.2,0.9-0.3c0.2-0.1,0.3-0.1,0.5-0.1c0.2,0,0.5,0.1,0.7,0.2l0.2,0.2c0.5,0.4,0.6,1,0.3,1.5
				l-0.6,0.9c-0.1,0.2-0.3,0.3-0.5,0.4C68.9,18.1,67.9,18.3,67,18.3z M66.8,10.8c0-0.1,0-0.2,0-0.2c0-0.2-0.1-0.3-0.1-0.3l0,0
				c-0.1,0-0.2,0-0.3,0.3c0,0,0,0.1-0.1,0.1L66.8,10.8z"/>
			<path class="st0" d="M83.8,19.9c-0.3,0-0.6,0-1,0l-4.7-0.4c-0.3,0-0.6-0.2-0.8-0.4c-0.2-0.2-0.3-0.5-0.3-0.8l1.1-11.8
				c0.1-0.6,0.5-1,1.1-1c0,0,0.1,0,0.1,0l5.3,0.5c1.4,0.1,2.4,0.4,3.3,1c1.2,0.8,1.7,1.9,1.6,3.3c-0.1,1.1-0.6,2-1.6,2.6
				c1,0.8,1.5,1.9,1.4,3.2c-0.1,1.5-1,2.7-2.4,3.4C86,19.7,84.9,19.9,83.8,19.9z M82.6,16.5c0.3,0,0.5-0.1,0.8-0.2
				c0.3-0.2,0.4-0.4,0.5-0.8c0-0.5,0-0.8-0.2-1c-0.1-0.1-0.4-0.3-0.9-0.4L82.6,16.5C82.6,16.5,82.6,16.5,82.6,16.5z M83.1,10.8
				c0.1,0,0.1,0,0.2,0c0.2,0,0.3-0.1,0.4-0.1c0.1-0.1,0.2-0.2,0.3-0.3c0.1-0.2,0.1-0.3,0.2-0.5c0-0.4-0.1-0.5-0.1-0.6
				C83.9,9.1,83.5,9,83.3,9L83.1,10.8z"/>
			<path class="st0" d="M97.2,21.2c-0.7,0-1.3-0.3-1.8-0.6c-0.1-0.1-0.2-0.2-0.3-0.2c-0.2,0.1-0.3,0.2-0.5,0.2
				c-0.5,0.2-1.1,0.3-1.7,0.3c-0.1,0-0.2,0-0.3,0c-1.1-0.1-2.1-0.4-2.8-1c-0.8-0.7-1.2-1.6-1.1-2.7c0.1-1.2,0.6-2.1,1.6-2.6
				c0.2-0.1,0.5-0.2,0.8-0.3l0,0c-0.5,0-0.9-0.4-1-0.9l-0.2-1.1c-0.1-0.4,0.1-0.9,0.5-1.2c0.6-0.4,1.3-0.7,2.2-0.9
				c0.7-0.1,1.3-0.2,1.9-0.2c0.2,0,0.3,0,0.5,0c1.2,0.1,2.2,0.4,3,0.8c1.6,0.9,1.8,2.3,1.8,3l-0.3,4.4c0.2,0,0.4,0.1,0.6,0.3
				c0.3,0.2,0.4,0.6,0.4,0.9l0,0.4c0,0.5-0.3,0.9-0.8,1c-0.3,0.1-0.7,0.2-1.1,0.3c-0.4,0.1-0.7,0.1-1,0.1
				C97.4,21.2,97.3,21.2,97.2,21.2z M94,17.5c0.2,0,0.2,0,0.2-0.1c0.1-0.2,0.2-0.4,0.2-0.7l0-0.1c-0.1,0.1-0.2,0.1-0.3,0.1
				C94,16.9,94,16.9,94,16.9c0,0-0.1,0.1-0.1,0.4C93.9,17.4,93.9,17.5,94,17.5C93.9,17.5,94,17.5,94,17.5z M92.2,13.7
				c-0.1,0.1-0.2,0.2-0.3,0.3c0.5-0.1,1.1-0.2,1.7-0.3c0.3,0,0.5-0.1,0.7-0.1c0,0,0,0,0.1,0c-0.2-0.2-0.4-0.2-0.6-0.3l-0.2,0
				c-0.4,0-0.7,0.1-1,0.2C92.4,13.6,92.3,13.7,92.2,13.7z"/>
			<path class="st0" d="M105.6,21.6c-0.7,0-1.4-0.2-2-0.5c-0.4-0.2-0.7-0.4-1-0.6c-0.1,0.1-0.9,0.5-1,0.5c-0.2,0.1-0.4,0.1-0.6,0.1
				c0,0-0.5,0-0.5,0c-0.3,0-0.6-0.1-0.8-0.4c-0.2-0.2-0.3-0.5-0.3-0.8l0.6-13.1c0-0.6,0.5-1.1,1.1-1.1c0,0,0,0,0,0
				c0.2,0,0.5,0,0.8,0.1c0.3,0,0.5,0.1,0.6,0.1l0.2,0c0.1,0,0.2,0,0.3,0c0,0,0.8,0,0.8,0c0.3,0,0.6,0.1,0.8,0.3
				c0.2,0.2,0.3,0.5,0.3,0.9l-0.2,3.7c0.4-0.1,0.9-0.2,1.4-0.2l0.2,0c1.6,0.1,2.9,0.7,3.8,1.8c0.8,1,1.2,2.2,1.2,3.6
				c0,0.7-0.2,1.4-0.4,2.1c-0.3,0.8-0.8,1.5-1.3,2c-1.1,1-2.4,1.5-4,1.5C105.8,21.6,105.7,21.6,105.6,21.6z M105.6,14
				c-0.2,0-0.4,0-0.6,0.5c-0.1,0.3-0.3,0.8-0.3,1.7c-0.1,1.4,0.1,1.9,0.2,2.1c0.1,0.2,0.2,0.2,0.4,0.2c0,0,0,0,0,0
				c0.1,0,0.3,0,0.5-0.3c0.3-0.5,0.4-1.1,0.5-2c0-0.9,0-1.4-0.1-1.6C106.1,14,105.9,14,105.6,14v-1.1V14z"/>
			<path class="st0" d="M114.7,26.2c-0.1,0-0.1,0-0.2,0c-0.1,0-0.2,0-0.3-0.1c-0.1,0-0.2,0-0.3,0c0,0,0,0,0,0c-0.1,0-0.2,0-0.3,0
				c0,0-0.5,0-0.5,0c-0.4,0-0.8-0.2-1-0.5c-0.2-0.4-0.2-0.8,0-1.2l2.4-3.9l-3.7-7.9c-0.2-0.4-0.1-0.8,0.1-1.1
				c0.2-0.3,0.6-0.5,0.9-0.5c0,0,0,0,0,0c0.2,0,0.5,0,0.9,0.1c0.4,0,0.7,0,0.7,0c0.2,0,1.4,0,1.5,0c0.5,0,0.9,0.3,1.1,0.7
				c0.3,0.9,0.6,1.5,0.8,2.1c0.1,0.2,0.3,0.6,0.5,1.1c0.2-0.4,0.3-0.6,0.4-0.8c0.3-0.7,0.7-1.4,1-2.2c0.2-0.4,0.6-0.7,1-0.7
				c0.1,0,0.1,0,0.2,0c0.1,0,0.2,0,0.3,0l0.9,0c0.1,0,0.2,0,0.3,0c0.4,0,0.8,0.2,1,0.6c0.2,0.3,0.2,0.8,0,1.1l-2.2,3.9
				c-0.9,1.6-1.7,3.1-2.3,4.3c-0.7,1.3-1.4,2.7-2.1,4.3C115.6,25.9,115.2,26.2,114.7,26.2z"/>
			<path class="st0" d="M132.6,22c-0.3,0-0.6-0.1-0.8-0.3c-0.2-0.2-0.3-0.5-0.3-0.8l0-4.6c-0.3-0.4-0.8-1.1-1.4-2l-1.6-2.3l-1.6-2.3
				c-0.2-0.3-0.3-0.8-0.1-1.2c0.2-0.4,0.6-0.6,1-0.6l0.2,0c0.3,0,0.6,0,0.8,0l1,0.1c0.1,0,0.4,0,0.8-0.1c0.5,0,0.8-0.1,1.1-0.1
				c0,0,0,0,0,0c0.4,0,0.7,0.2,1,0.5c0.6,0.9,1.2,1.9,1.9,3.1c0.2,0.3,0.3,0.5,0.4,0.7c0.3-0.4,0.6-1,1-1.7c0.5-0.8,0.8-1.5,1.2-2.1
				c0.2-0.4,0.6-0.6,1-0.6c0,0,0.1,0,0.1,0c0.2,0,0.3,0,0.4,0c0.1,0,0.2,0,0.4,0c0.2,0,0.4,0,0.6,0c0,0,0.6-0.1,0.6-0.1
				c0.4,0,0.8,0.2,1,0.6c0.2,0.4,0.2,0.9,0,1.2l-3.1,4.4c-0.5,0.7-0.9,1.3-1.2,1.9l0,5c0,0.6-0.5,1.1-1.1,1.1c0,0,0,0,0,0
				c-0.2,0-0.5,0-0.9,0c-0.3,0-0.5,0-0.6,0c-0.2,0-0.4,0-0.7,0.1C133.1,22,132.8,22,132.6,22C132.6,22,132.6,22,132.6,22z"/>
			<path class="st0" d="M146.2,21.9c-1.6,0-2.9-0.4-3.9-1.3c-1.1-0.9-1.7-2.2-1.7-3.8c-0.1-1.7,0.4-3.1,1.4-4.1
				c1-1.1,2.4-1.6,4.2-1.7l0.3,0c1.6,0,2.9,0.4,3.9,1.3c1.1,0.9,1.7,2.2,1.8,3.8c0.1,1.6-0.4,3-1.4,4.1c-1,1.1-2.4,1.7-4.2,1.7
				L146.2,21.9z M146.3,13.9c-0.2,0-0.3,0-0.5,0.4c-0.1,0.3-0.3,0.9-0.2,2.2c0,0.7,0.1,1.3,0.3,1.7c0.2,0.5,0.4,0.5,0.4,0.5
				c0.2,0,0.3-0.2,0.4-0.6c0.2-0.6,0.3-1.4,0.2-2.4c0-0.9-0.2-1.4-0.3-1.6C146.6,13.9,146.5,13.9,146.3,13.9l0-1.1L146.3,13.9z"/>
			<path class="st0" d="M155,21.5c-0.6,0-1.1-0.1-1.6-0.3c-0.7-0.2-1.2-0.6-1.7-1.1c-0.3-0.4-0.6-0.8-0.7-1.4
				c-0.1-0.5-0.2-0.9-0.2-1.4l0-0.7l-0.2-4.7c0-0.3,0.1-0.6,0.3-0.8c0.2-0.2,0.5-0.4,0.8-0.4l1.4,0c0.1,0,0.3,0,0.7-0.1
				c0.4,0,0.7-0.1,0.7-0.1c0.6,0,1.1,0.5,1.1,1.1l0.2,4.8c0,0.4,0,0.7,0.1,0.8c0,0,0.1,0.1,0.1,0.1c0.1,0.1,0.1,0.2,0.2,0.2v0
				c0,0,0.1,0,0.2,0c0.4,0,0.5-0.1,0.5-0.2c0-0.1,0.1-0.4,0.1-1.3l-0.2-4.5c0-0.3,0.1-0.6,0.3-0.9c0.2-0.2,0.5-0.3,0.8-0.3
				c0,0,0,0,0.1,0c0.2,0,0.4,0,0.6,0c0,0,0,0,0,0c0.2,0,0.4,0,0.7,0c0.2,0,0.4,0,0.7-0.1l0.6-0.1c0,0,0.1,0,0.1,0
				c0.3,0,0.5,0.1,0.7,0.3c0.2,0.2,0.4,0.5,0.4,0.8l0.4,8.4c0,0.3-0.1,0.6-0.3,0.8c-0.2,0.2-0.5,0.3-0.8,0.3c0,0-1.3,0-1.3,0
				c-0.1,0-0.2,0-0.4,0.1l-0.7,0.1c-0.1,0-0.1,0-0.2,0c-0.3,0-0.5-0.1-0.7-0.3c0,0,0,0-0.1-0.1c-0.6,0.4-1.3,0.6-2.1,0.6
				C155.2,21.5,155.1,21.5,155,21.5z"/>
			<path class="st0" d="M163.4,20.9c-0.3,0-0.5-0.1-0.7-0.2c-0.3-0.2-0.4-0.5-0.4-0.8l-0.6-8.4c0-0.3,0.1-0.6,0.3-0.9
				c0.2-0.2,0.5-0.4,0.8-0.4c0,0,0.7,0,0.7,0c0.2,0,0.4,0,0.7,0c0.2,0,0.4,0,0.8-0.1c0.4-0.1,0.7-0.1,0.7-0.1c0,0,0,0,0.1,0
				c0.3,0,0.6,0.1,0.8,0.3c0.7-0.4,1.5-0.7,2.4-0.7c0,0,0.1,0,0.1,0c0.6,0,1.1,0.5,1.1,1.1c0,0.2,0,0.5,0,1c0,0.3,0,0.6,0,0.7
				l0.1,0.6c0.1,0.4-0.1,0.8-0.4,1l-0.2,0.1c-0.2,0.2-0.4,0.2-0.7,0.2c-0.2,0-0.3,0-0.5-0.1c-0.2,0-0.3,0-0.3,0
				c-0.8,0.1-0.9,0.3-0.9,0.4c-0.1,0.2-0.1,0.5-0.1,0.8l0.1,0.8l0.2,3.2c0,0.3-0.1,0.6-0.3,0.8c-0.2,0.2-0.5,0.4-0.8,0.4
				c-0.1,0-0.2,0-0.4,0c-0.1,0-0.8,0-0.9,0c-0.1,0-0.1,0-0.2,0c-0.2,0-0.4,0-0.6,0.1l-0.7,0.1C163.5,20.9,163.5,20.9,163.4,20.9z"/>
			<path class="st0" d="M177.7,19.7c-0.6,0-1.1-0.4-1.1-1L175.4,7c0-0.3,0.1-0.6,0.3-0.8c0.2-0.2,0.5-0.4,0.8-0.4l5.3-0.5
				c0.4,0,0.7-0.1,1-0.1c0.9,0,1.7,0.1,2.3,0.4c1.3,0.5,2,1.5,2.2,2.9c0.1,1.1-0.3,2-1.1,2.8c1.2,0.6,1.8,1.6,1.9,2.9
				c0.1,1.5-0.5,2.8-1.8,3.8c-1,0.7-2.3,1.2-3.9,1.3l-4.7,0.5C177.8,19.7,177.7,19.7,177.7,19.7z M181.7,16.1c0.3,0,0.5-0.2,0.8-0.4
				c0.2-0.2,0.3-0.5,0.3-0.9c0-0.5-0.2-0.8-0.4-0.9c-0.2-0.1-0.5-0.2-0.9-0.2L181.7,16.1z M181.1,10.4c0,0,0.1,0,0.1,0
				c0.2,0,0.3-0.1,0.4-0.2c0.1-0.1,0.2-0.2,0.3-0.4c0.1-0.2,0.1-0.3,0.1-0.5c0-0.4-0.2-0.5-0.3-0.5c-0.1-0.1-0.4-0.2-0.7-0.2
				c0,0-0.1,0-0.2,0L181.1,10.4z"/>
			<path class="st0" d="M191.6,18.5c-0.8,0-1.5-0.2-2.1-0.5c-0.9-0.5-1.4-1.4-1.6-2.4c-0.1-1.2,0.2-2.2,1.1-2.9
				c0.2-0.2,0.4-0.3,0.7-0.4c0,0-0.1,0-0.2,0c-0.5,0-0.9-0.3-1.1-0.7l-0.4-1c-0.2-0.4-0.1-0.9,0.3-1.2c0.5-0.5,1.2-0.9,2-1.3
				c0.8-0.3,1.6-0.6,2.3-0.6c0.4,0,0.7-0.1,1.1-0.1c0.8,0,1.4,0.1,2.1,0.3c1.8,0.6,2.2,1.9,2.3,2.6l0.5,4.4c0,0,0,0,0,0
				c0.2,0,0.4,0.1,0.6,0.2c0.3,0.2,0.5,0.5,0.5,0.8l0,0.4c0.1,0.5-0.2,0.9-0.6,1.1c-0.3,0.2-0.6,0.3-1,0.5c-0.4,0.2-0.8,0.3-1.2,0.3
				c-0.2,0-0.3,0-0.4,0c-0.5,0-1-0.1-1.5-0.3c-0.1-0.1-0.2-0.1-0.3-0.2c-0.1,0.1-0.3,0.2-0.5,0.3c-0.6,0.4-1.2,0.6-1.9,0.7
				C192.1,18.5,191.8,18.5,191.6,18.5z M193.3,14.1c-0.1,0.1-0.2,0.1-0.3,0.2c-0.1,0.1-0.1,0.1-0.1,0.1c0,0,0,0.2,0,0.4
				c0,0.1,0,0.2,0.1,0.2c0.2,0,0.2-0.1,0.3-0.1c0.1-0.2,0.1-0.4,0.1-0.7L193.3,14.1z M190.6,11.6c-0.1,0.1-0.1,0.2-0.2,0.3
				c0.5-0.2,1-0.4,1.6-0.6c0.3-0.1,0.5-0.2,0.6-0.2c0,0,0,0,0.1,0c-0.2-0.1-0.4-0.1-0.5-0.1c0,0-0.1,0-0.1,0c-0.4,0-0.8,0.2-1.2,0.4
				C190.8,11.4,190.7,11.5,190.6,11.6z"/>
			<path class="st0" d="M200.1,17.3c-0.2,0-0.5-0.1-0.7-0.2c-0.2-0.2-0.4-0.5-0.4-0.7l-1.8-13c0-0.3,0-0.6,0.2-0.8
				c0.2-0.2,0.5-0.4,0.8-0.4c0.2,0,0.5,0,0.8-0.1c0.3,0,0.5,0,0.6,0c0.2,0,0.3-0.1,0.5-0.1l0.7-0.2c0.1,0,0.2,0,0.3,0
				c0.2,0,0.5,0.1,0.6,0.2c0.3,0.2,0.4,0.5,0.5,0.8l0.5,3.7c0.5-0.2,1-0.4,1.6-0.5c0.3,0,0.6-0.1,0.9-0.1c1.2,0,2.3,0.4,3.2,1.2
				c1,0.9,1.6,2,1.8,3.4c0.1,0.7,0.1,1.4,0,2.1c-0.2,0.9-0.5,1.6-1,2.2c-0.9,1.2-2.3,2-4,2.2c-0.3,0-0.5,0.1-0.8,0.1
				c-0.4,0-0.9-0.1-1.3-0.2c-0.4-0.1-0.7-0.2-1.1-0.4c-0.1,0.1-0.8,0.6-0.9,0.7c-0.2,0.1-0.4,0.2-0.6,0.3l-0.4,0.1
				C200.2,17.3,200.1,17.3,200.1,17.3z M203.9,9.4c-0.2,0-0.4,0.1-0.5,0.6c-0.1,0.3-0.1,0.8,0,1.7c0.2,1.3,0.5,1.9,0.6,2.1
				c0.1,0.2,0.2,0.2,0.3,0.2c0.2,0,0.4,0,0.5-0.4c0.2-0.5,0.2-1.2,0.1-2.1c-0.1-1-0.3-1.4-0.4-1.6c-0.2-0.4-0.4-0.4-0.5-0.4
				C204,9.4,204,9.4,203.9,9.4z"/>
			<path class="st0" d="M213.1,20c-0.3,0-0.6-0.1-0.8-0.4c-0.3-0.3-0.4-0.8-0.2-1.2l1.7-4.2l-5-7.1c-0.2-0.3-0.3-0.7-0.1-1.1
				c0.2-0.4,0.5-0.6,0.9-0.7c0.2,0,0.5-0.1,0.9-0.1c0.4,0,0.6-0.1,0.6-0.1c0.1,0,0.4-0.1,0.8-0.2c0.4-0.1,0.7-0.1,0.7-0.2
				c0.1,0,0.1,0,0.2,0c0.4,0,0.8,0.2,1,0.5c0.5,0.8,0.9,1.4,1.2,1.9c0.1,0.2,0.4,0.5,0.7,1c0.1-0.4,0.2-0.7,0.2-0.9
				c0.2-0.8,0.4-1.5,0.6-2.4c0.1-0.5,0.6-0.9,1.1-0.9c0.1,0,0.2,0,0.3,0l0.9-0.1c0.2-0.1,0.3-0.1,0.3-0.1c0.1,0,0.1,0,0.2,0
				c0.3,0,0.6,0.1,0.9,0.4c0.3,0.3,0.3,0.7,0.2,1.1l-1.4,4.2c-0.6,1.8-1.1,3.3-1.5,4.7c-0.4,1.3-0.9,2.9-1.3,4.6
				c-0.1,0.5-0.6,0.8-1.1,0.8c-0.1,0-0.2,0-0.3,0c-0.1,0-0.2,0-0.3,0c-0.1,0-0.2,0-0.3,0.1l-0.4,0.1C213.3,20,213.2,20,213.1,20z"/>
		</g>
		<g>
			<path class="st2" d="M42.6,1.7l-0.1-0.5c0.2,0,0.5,0.1,0.8,0.2c0.4,0.1,0.6,0.2,0.8,0.2c0.3,0,0.6,0.1,0.9,0.1
				c0.3,0,0.6,0.1,0.8,0.1c0.2,1.6,0.3,3.1,0.5,4.6c0.2,1.4,0.4,2.9,0.6,4.4c0.4-0.6,1-1.5,1.7-2.6c0.4-0.7,1-1.5,1.7-2.7
				c0.7-1.1,1.2-2,1.6-2.6c0.2,0.1,0.3,0.1,0.5,0.1C52.6,3,52.8,3,53,3c0.2,0,0.3,0.1,0.5,0.1c0.2,0,0.4,0,0.5,0
				c0.1,1,0.3,2.1,0.6,3.4c0.7,3.6,1.1,5.5,1.1,5.7c0.8-1.4,1.6-2.7,2.3-3.9c0.8-1.5,1.6-2.8,2.2-4.1c0.2,0.1,0.3,0.1,0.5,0.1
				c0.1,0,0.3,0.1,0.5,0.1l0.9,0.1c-1.3,2-2.5,3.8-3.5,5.4c-1.2,1.9-2.3,3.7-3.3,5.5c-0.2-0.1-0.4-0.1-0.6-0.2
				c-0.2-0.1-0.4-0.1-0.4-0.1c-0.1,0-0.3,0-0.5-0.1c-0.2,0-0.4,0-0.5,0c-0.1-0.9-0.3-1.9-0.5-3c-0.2-1.2-0.4-2.2-0.6-3
				c-0.1-0.2-0.3-1.2-0.7-2.9c-0.3,0.5-0.9,1.4-1.6,2.5c-0.7,1-1.2,1.8-1.7,2.5c-0.7,1-1.2,1.9-1.7,2.7c-0.2-0.1-0.4-0.1-0.6-0.2
				c-0.2-0.1-0.4-0.1-0.4-0.1c-0.1,0-0.3,0-0.5-0.1c-0.2,0-0.4,0-0.5,0c-0.1-1.1-0.3-2.4-0.6-4c-0.2-1.3-0.4-2.7-0.7-4
				C43,4.3,42.8,3,42.6,1.7z"/>
			<path class="st2" d="M70.6,13.3l-5.8-0.8l-0.1,0.3c-0.1,0.9,0,1.6,0.4,2.2c0.4,0.6,1.1,1,2.1,1.1c0.4,0.1,0.9,0,1.3,0
				c0.4-0.1,0.8-0.2,1.2-0.4l0.2,0.2l-0.6,0.9c-1,0.4-2,0.6-3,0.4c-1.7-0.2-2.9-0.8-3.6-1.7c-0.8-0.9-1-2.1-0.9-3.5
				c0.2-1.2,0.7-2.2,1.6-2.8c0.9-0.7,2.1-0.9,3.6-0.7c1.4,0.2,2.4,0.7,3.1,1.5c0.6,0.7,0.8,1.7,0.6,2.9L70.6,13.3z M64.8,11.7l3,0.4
				c0.1-0.7,0.1-1.3,0-1.7c-0.1-0.7-0.5-1.1-1-1.2c-0.7-0.1-1.2,0.2-1.5,0.8C65.1,10.5,64.9,11,64.8,11.7z"/>
			<path class="st2" d="M78.2,18.3l1.1-11.8L84.5,7c1.2,0.1,2.1,0.4,2.7,0.8c0.8,0.5,1.2,1.3,1.1,2.2c-0.1,0.8-0.5,1.4-1.2,1.8
				c-0.6,0.4-1.4,0.6-2.4,0.6l0,0.1c1,0.2,1.7,0.5,2.3,0.9c0.8,0.6,1.2,1.4,1.1,2.3c-0.1,1.1-0.7,1.9-1.8,2.4
				c-0.9,0.4-2.1,0.6-3.5,0.5L78.2,18.3z M81.8,12.9l-0.4,4.7l1,0.1c0.6,0.1,1.2-0.1,1.7-0.4c0.6-0.4,0.9-0.9,1-1.6
				c0.1-0.8-0.1-1.5-0.6-1.9c-0.5-0.4-1.2-0.7-2.1-0.8L81.8,12.9z M82.2,7.8l-0.4,4.1l0.5,0.1c0.4,0,0.7,0,1,0
				c0.3,0,0.6-0.1,0.9-0.3c0.3-0.2,0.6-0.4,0.8-0.7c0.2-0.3,0.3-0.6,0.3-1c0.1-0.6-0.1-1.1-0.5-1.5c-0.4-0.4-0.9-0.6-1.6-0.7
				c-0.1,0-0.3,0-0.5,0C82.5,7.8,82.4,7.8,82.2,7.8z"/>
			<path class="st2" d="M98.6,13.7l-0.3,4.7c0,0.6,0.2,0.9,0.8,0.9l0.2,0l0,0.4c-0.3,0.1-0.6,0.2-1,0.3c-0.4,0.1-0.7,0.1-0.9,0.1
				c-0.5,0-0.9-0.2-1.2-0.4c-0.3-0.3-0.6-0.6-0.7-1c-0.3,0.4-0.7,0.7-1.2,0.9c-0.5,0.2-1,0.3-1.5,0.2c-0.9-0.1-1.6-0.3-2.1-0.7
				c-0.5-0.4-0.7-1-0.7-1.7c0.1-0.8,0.4-1.4,1-1.7c0.5-0.3,1.5-0.5,2.9-0.7c0.3,0,0.6-0.1,0.8-0.1c0.3-0.1,0.6-0.1,0.7-0.2
				c0.1-0.1,0.2-0.2,0.3-0.3c0.1-0.1,0.1-0.2,0.1-0.4c0-0.4-0.2-0.8-0.5-1.1c-0.4-0.3-0.8-0.5-1.3-0.5c-0.6,0-1.2,0.1-1.7,0.3
				c-0.5,0.2-0.8,0.4-0.8,0.6l-0.1,0l-0.2-1.1c0.5-0.3,1.1-0.6,1.8-0.7c0.7-0.2,1.4-0.2,2.1-0.2c1,0.1,1.9,0.3,2.6,0.7
				C98.2,12.3,98.6,12.9,98.6,13.7z M95.5,16.9l0.1-1.7c-0.4,0.1-0.7,0.2-1,0.2c-0.5,0.1-0.8,0.2-1.1,0.4c-0.3,0.1-0.4,0.3-0.6,0.6
				c-0.1,0.2-0.2,0.5-0.2,0.8c0,0.4,0,0.7,0.2,1c0.2,0.3,0.4,0.4,0.9,0.5c0.6,0,1-0.1,1.3-0.5C95.3,17.8,95.5,17.4,95.5,16.9z"/>
			<path class="st2" d="M100.7,20l0.6-13.1c0.2,0,0.4,0,0.7,0.1c0.3,0,0.6,0.1,0.7,0.1c0.2,0,0.4,0,0.7,0c0.3,0,0.5,0,0.7,0l-0.3,6
				c0.3-0.4,0.7-0.8,1.2-1c0.5-0.2,1-0.3,1.6-0.3c1.3,0.1,2.3,0.5,3,1.4c0.6,0.8,0.9,1.8,0.9,2.9c0,0.6-0.1,1.2-0.3,1.7
				c-0.2,0.6-0.6,1.1-1,1.5c-0.9,0.9-2.1,1.3-3.5,1.2c-0.6,0-1.1-0.2-1.6-0.4c-0.5-0.2-0.9-0.5-1.2-1c-0.3,0.1-0.7,0.3-1.1,0.5
				c-0.4,0.2-0.6,0.3-0.7,0.4L100.7,20z M103.7,16.1c-0.1,1.2,0.1,2.1,0.3,2.7c0.3,0.6,0.7,0.9,1.3,0.9c0.6,0,1.1-0.3,1.5-0.9
				c0.4-0.6,0.6-1.5,0.6-2.6c0-0.9,0-1.6-0.2-2c-0.3-0.8-0.8-1.2-1.5-1.3c-0.8,0-1.4,0.3-1.7,1.1C103.8,14.5,103.7,15.2,103.7,16.1z
				"/>
			<path class="st2" d="M113,25l2.7-4.4l-4-8.4c0.2,0,0.5,0,0.9,0.1c0.4,0,0.6,0,0.7,0.1c0.2,0,0.4,0,0.9,0c0.4,0,0.6,0,0.7,0
				c0.3,0.9,0.6,1.6,0.8,2.1c0.2,0.5,0.7,1.6,1.5,3.3l0.8-1.7c0.3-0.6,0.5-1,0.6-1.3c0.3-0.7,0.7-1.4,1-2.2c0.2,0,0.3,0,0.4,0
				c0.1,0,0.3,0,0.4,0l0.3,0c0.1,0,0.2,0,0.3,0c0.1,0,0.2,0,0.3,0l-2.2,3.9c-0.9,1.6-1.7,3.1-2.3,4.4c-0.7,1.3-1.4,2.7-2.1,4.4
				c-0.2,0-0.3,0-0.4-0.1c-0.1,0-0.3,0-0.4,0c-0.1,0-0.3,0-0.5,0C113.2,25,113.1,25,113,25z"/>
			<path class="st2" d="M135.6,15.4l0.1,5.4c-0.2,0-0.4,0-0.8,0c-0.3,0-0.6,0-0.8,0c-0.2,0-0.4,0-0.8,0.1c-0.3,0-0.6,0.1-0.8,0.1
				l0-5c-0.3-0.4-0.9-1.1-1.6-2.2c-0.7-0.9-1.2-1.7-1.6-2.3c-0.5-0.8-1.1-1.5-1.6-2.3c0.3,0,0.6,0,0.9,0c0.3,0,0.6,0,1,0.1
				c0.2,0,0.5,0,1-0.1c0.4,0,0.8-0.1,1-0.1c0.6,0.9,1.2,1.9,1.9,3.1c0.4,0.6,0.6,1,0.8,1.3c0.3,0.4,0.4,0.6,0.6,0.8
				c0.4-0.4,1.1-1.4,2-3.1c0.5-0.8,0.9-1.5,1.2-2.1c0.2,0,0.3,0,0.5,0c0.2,0,0.3,0,0.6,0c0.2,0,0.4,0,0.6,0c0.2,0,0.4,0,0.5,0
				c-0.5,0.7-1,1.4-1.5,2.2c-0.7,1-1.2,1.7-1.5,2.2C136.5,14.1,136,14.8,135.6,15.4z"/>
			<path class="st2" d="M146.4,20.7c-1.4,0-2.5-0.3-3.4-1c-0.9-0.7-1.3-1.7-1.3-3c0-1.4,0.3-2.5,1.1-3.3c0.8-0.9,1.9-1.3,3.4-1.3
				c1.4,0,2.6,0.3,3.4,1c0.9,0.7,1.3,1.7,1.4,3c0,1.3-0.3,2.5-1.1,3.3C149,20.2,147.9,20.7,146.4,20.7z M146.3,12.8
				c-0.7,0-1.2,0.4-1.5,1.1c-0.2,0.6-0.3,1.5-0.3,2.6c0,0.9,0.1,1.6,0.4,2.1c0.3,0.9,0.8,1.3,1.6,1.2c0.7,0,1.2-0.5,1.5-1.3
				c0.2-0.7,0.3-1.6,0.3-2.8c0-0.9-0.2-1.6-0.5-2.2C147.4,13.1,146.9,12.8,146.3,12.8z"/>
			<path class="st2" d="M160.4,11.5l0.4,8.4c-0.4,0-0.9,0-1.3,0c-0.2,0-0.4,0-0.6,0.1c-0.2,0-0.5,0.1-0.7,0.1l-0.1-1.3
				c-0.4,0.4-0.7,0.7-0.9,0.9c-0.6,0.4-1.2,0.7-2,0.7c-0.5,0-1,0-1.5-0.2c-0.5-0.2-0.9-0.4-1.2-0.7c-0.2-0.3-0.4-0.6-0.5-0.9
				c-0.1-0.4-0.2-0.7-0.2-1.2l0-0.6l-0.2-4.8l1.4,0c0.2,0,0.4,0,0.8-0.1c0.4,0,0.6-0.1,0.6-0.1l0.2,4.8c0,0.5,0.1,0.8,0.1,1
				c0,0.1,0.1,0.3,0.2,0.4c0.2,0.3,0.3,0.5,0.6,0.6c0.2,0.1,0.5,0.2,0.9,0.2c0.7,0,1.2-0.4,1.4-1c0.1-0.4,0.2-0.9,0.1-1.7l-0.2-4.5
				c0.2,0,0.4,0,0.6,0c0.2,0,0.4,0,0.7,0c0.2,0,0.5,0,0.7-0.1C160.1,11.6,160.3,11.6,160.4,11.5z"/>
			<path class="st2" d="M163.4,19.8l-0.6-8.4c0.4,0,0.7,0,0.8,0c0.1,0,0.3,0,0.6,0c0.2,0,0.4,0,0.8-0.1c0.4,0,0.6-0.1,0.6-0.1
				l0.1,2.1c0.2-0.7,0.5-1.3,0.9-1.7c0.5-0.5,1.3-0.8,2.2-0.8c0,0.2,0,0.5,0,0.9c0,0.4,0,0.7,0,0.9l0.1,0.6l-0.2,0.1
				c-0.1-0.1-0.3-0.1-0.5-0.1c-0.2,0-0.4,0-0.6,0c-1,0.1-1.6,0.5-1.8,1.3c-0.1,0.3-0.1,0.7-0.1,1.1l0.1,0.9l0.2,3.1
				c-0.2,0-0.4,0-0.7,0c-0.3,0-0.6,0-0.7,0c-0.2,0-0.4,0-0.7,0.1C163.9,19.7,163.6,19.7,163.4,19.8z"/>
			<path class="st2" d="M177.7,18.6l-1.1-11.8l5.3-0.5c1.2-0.1,2.1,0,2.8,0.3c0.9,0.4,1.4,1,1.5,2c0.1,0.8-0.2,1.4-0.8,2
				c-0.6,0.5-1.3,0.9-2.3,1.1l0,0.1c1,0,1.8,0.1,2.5,0.4c0.9,0.4,1.4,1.1,1.5,2.1c0.1,1.1-0.3,2-1.3,2.7c-0.8,0.6-2,1-3.3,1.1
				L177.7,18.6z M179.7,7.6l0.4,4.1l0.5,0c0.4,0,0.7-0.1,1-0.2c0.3-0.1,0.6-0.2,0.8-0.4c0.3-0.2,0.5-0.5,0.6-0.9
				c0.1-0.3,0.2-0.7,0.1-1c-0.1-0.6-0.3-1.1-0.7-1.4c-0.4-0.3-1-0.4-1.7-0.4c-0.1,0-0.3,0-0.5,0.1C180,7.5,179.9,7.5,179.7,7.6z
				 M180.2,12.6l0.5,4.7l1-0.1c0.6-0.1,1.1-0.3,1.6-0.7c0.5-0.5,0.7-1.1,0.6-1.8c-0.1-0.8-0.4-1.4-0.9-1.8c-0.5-0.3-1.3-0.5-2.2-0.4
				L180.2,12.6z"/>
			<path class="st2" d="M196.9,10.4l0.5,4.7c0.1,0.6,0.4,0.8,1,0.8l0.2-0.1l0,0.4c-0.3,0.2-0.6,0.3-0.9,0.4
				c-0.3,0.1-0.6,0.2-0.9,0.3c-0.5,0.1-0.9,0-1.3-0.2c-0.4-0.2-0.7-0.5-0.9-0.8c-0.2,0.4-0.5,0.8-1,1.1c-0.4,0.3-0.9,0.5-1.5,0.5
				c-0.9,0.1-1.6,0-2.2-0.3c-0.6-0.3-0.9-0.9-1-1.6c-0.1-0.8,0.1-1.4,0.7-1.9c0.5-0.4,1.4-0.8,2.8-1.2c0.3-0.1,0.5-0.2,0.7-0.3
				c0.3-0.1,0.5-0.2,0.7-0.4c0.1-0.1,0.2-0.2,0.2-0.3c0-0.1,0.1-0.2,0-0.4c0-0.4-0.3-0.7-0.7-1c-0.4-0.2-0.9-0.3-1.4-0.3
				c-0.6,0.1-1.1,0.3-1.6,0.6c-0.4,0.3-0.7,0.5-0.7,0.7l-0.1,0l-0.4-1c0.4-0.4,1-0.8,1.6-1.1c0.7-0.3,1.4-0.5,2-0.6
				c1-0.1,1.9-0.1,2.6,0.2C196.3,9,196.8,9.6,196.9,10.4z M194.4,14.1l-0.2-1.7c-0.4,0.2-0.7,0.3-0.9,0.4c-0.4,0.2-0.8,0.4-1,0.6
				c-0.2,0.2-0.4,0.4-0.5,0.6c-0.1,0.2-0.1,0.5,0,0.9c0,0.4,0.2,0.7,0.4,0.9c0.2,0.2,0.5,0.3,0.9,0.3c0.6-0.1,0.9-0.3,1.1-0.7
				C194.4,15,194.5,14.6,194.4,14.1z"/>
			<path class="st2" d="M200.1,16.2l-1.8-13c0.2,0,0.4,0,0.7,0c0.3,0,0.6,0,0.7,0c0.2,0,0.4-0.1,0.7-0.1c0.2-0.1,0.5-0.1,0.7-0.2
				l0.8,5.9c0.2-0.5,0.5-0.9,1-1.2c0.4-0.3,1-0.5,1.6-0.6c1.3-0.2,2.3,0.1,3.2,0.8c0.8,0.7,1.2,1.6,1.4,2.7c0.1,0.6,0.1,1.2,0,1.7
				c-0.1,0.7-0.4,1.2-0.7,1.7c-0.8,1-1.8,1.6-3.2,1.8c-0.6,0.1-1.1,0.1-1.6-0.1c-0.5-0.1-1-0.4-1.3-0.7c-0.3,0.2-0.6,0.4-1,0.7
				c-0.3,0.3-0.5,0.4-0.6,0.5L200.1,16.2z M202.3,11.8c0.2,1.2,0.4,2.1,0.8,2.6c0.4,0.5,0.9,0.7,1.5,0.6c0.6-0.1,1.1-0.5,1.3-1.1
				c0.3-0.7,0.3-1.6,0.2-2.6c-0.1-0.9-0.3-1.5-0.5-2c-0.4-0.8-1-1.1-1.7-1c-0.8,0.1-1.3,0.6-1.5,1.4
				C202.2,10.2,202.2,10.9,202.3,11.8z"/>
			<path class="st2" d="M213.1,18.9l1.9-4.8l-5.4-7.6c0.2,0,0.5-0.1,0.9-0.1c0.4,0,0.6-0.1,0.7-0.1c0.2,0,0.4-0.1,0.8-0.2
				c0.4-0.1,0.6-0.1,0.7-0.1c0.5,0.8,0.9,1.4,1.2,1.9c0.3,0.5,1,1.5,2.1,3l0.5-1.9c0.2-0.6,0.3-1.1,0.4-1.4c0.2-0.7,0.4-1.5,0.6-2.4
				c0.2,0,0.3,0,0.4,0c0.1,0,0.3,0,0.4-0.1l0.3-0.1c0.1,0,0.2,0,0.3,0c0.1,0,0.2-0.1,0.3-0.1l-1.4,4.2c-0.6,1.8-1.1,3.4-1.5,4.7
				c-0.4,1.4-0.9,2.9-1.3,4.7c-0.2,0-0.3,0-0.4,0c-0.1,0-0.3,0-0.4,0.1c-0.1,0-0.3,0.1-0.5,0.1C213.3,18.8,213.2,18.9,213.1,18.9z"
				/>
		</g>
	</g>
</g>
</svg>
