<?xml version="1.0" encoding="utf-8"?>
<!-- Generator: Adobe Illustrator 22.0.1, SVG Export Plug-In . SVG Version: 6.00 Build 0)  -->
<svg version="1.1" id="Layer_1" xmlns="http://www.w3.org/2000/svg" xmlns:xlink="http://www.w3.org/1999/xlink" x="0px" y="0px"
	 viewBox="0 0 32.3 35.7" style="enable-background:new 0 0 32.3 35.7;" xml:space="preserve">
<style type="text/css">
	.st0{fill:#FFC818;}
</style>
<g transform="matrix(0.799, 0.602, -0.602, 0.799, -112.511, -145.865)">
	<path class="st0" d="M200,58c-0.1-0.1-0.3-0.1-0.4-0.1c-0.2,0-0.3,0-0.4,0c-0.1,0-0.3,0-0.4,0c-0.2,0-0.3,0-0.5,0.1
		c-0.2,0-0.3,0.1-0.4,0.2c-0.1,0.1-0.2,0.3-0.2,0.4c0,0.2,0,0.3,0.2,0.4c0.1,0.1,0.2,0.2,0.4,0.2c0.2,0.1,0.3,0.1,0.5,0.1
		s0.3,0,0.5,0c0.1,0,0.3,0,0.4,0c0.2,0,0.3,0,0.4-0.1c0.1,0,0.3-0.1,0.4-0.2c0.2-0.3,0.2-0.6,0-0.9C200.3,58.2,200.2,58.1,200,58z"
		/>
	<path class="st0" d="M202.2,37.2c-0.5-0.5-1.3-0.5-1.9,0l-6.8,6.3v25.3c0,0.5,0.4,1,1,1l0,0h13.6c0.5,0,1-0.4,1-1l0,0V43.5
		L202.2,37.2z M202.3,50.6c0.3-0.1,0.6-0.1,0.9-0.1c0.3,0,0.6,0,0.9,0.1c0.3,0.1,0.5,0.2,0.7,0.4s0.4,0.4,0.5,0.6
		c0.1,0.3,0.2,0.6,0.2,0.9c0,0.3-0.1,0.6-0.2,0.9c-0.1,0.2-0.3,0.5-0.5,0.6c-0.2,0.2-0.5,0.3-0.7,0.3c-0.3,0.1-0.6,0.1-0.9,0.1
		c-0.3,0-0.6,0-0.9-0.1c-0.3-0.1-0.5-0.2-0.7-0.4s-0.4-0.4-0.5-0.6c-0.1-0.3-0.2-0.6-0.2-0.9c0-0.3,0.1-0.6,0.2-0.9
		c0.1-0.2,0.3-0.4,0.5-0.6C201.7,50.8,202,50.7,202.3,50.6L202.3,50.6z M201.3,39.3c0.5,0,0.9,0.4,0.9,0.9s-0.4,0.9-0.9,0.9
		s-0.9-0.4-0.9-0.9l0,0C200.4,39.7,200.8,39.3,201.3,39.3L201.3,39.3L201.3,39.3z M201.3,59.7c-0.1,0.2-0.3,0.4-0.5,0.6
		c-0.2,0.2-0.5,0.3-0.7,0.3c-0.3,0.1-0.6,0.1-0.9,0.1c-0.3,0-0.6,0-0.9-0.1c-0.3-0.1-0.5-0.2-0.8-0.4c-0.2-0.2-0.4-0.4-0.5-0.6
		c-0.1-0.3-0.2-0.6-0.2-0.9c0-0.3,0.1-0.6,0.2-0.9c0.1-0.2,0.3-0.4,0.5-0.6c0.2-0.2,0.5-0.3,0.8-0.3c0.3-0.1,0.6-0.1,0.9-0.1
		c0.3,0,0.6,0,0.9,0.1c0.3,0.1,0.5,0.2,0.7,0.4s0.4,0.4,0.5,0.6c0.1,0.3,0.2,0.6,0.2,0.9C201.5,59,201.4,59.4,201.3,59.7L201.3,59.7
		z M205.6,58.6l-8.9-5v-1l8.9,4.9V58.6z"/>
	<path class="st0" d="M202.2,53.2c0.1,0.1,0.3,0.1,0.5,0.1s0.3,0,0.5,0c0.1,0,0.3,0,0.4,0c0.2,0,0.3,0,0.5-0.1
		c0.1,0,0.3-0.1,0.4-0.2c0.2-0.3,0.2-0.6,0-0.9c-0.1-0.1-0.2-0.2-0.4-0.2c-0.2-0.1-0.3-0.1-0.5-0.1s-0.3,0-0.4,0c-0.1,0-0.3,0-0.4,0
		c-0.2,0-0.3,0-0.5,0.1c-0.1,0-0.3,0.1-0.4,0.2c-0.1,0.1-0.2,0.3-0.2,0.4c0,0.2,0,0.3,0.1,0.4C202,53.1,202.1,53.1,202.2,53.2z"/>
</g>
</svg>
