<?xml version="1.0" encoding="utf-8"?>
<!-- Generator: Adobe Illustrator 22.0.1, SVG Export Plug-In . SVG Version: 6.00 Build 0)  -->
<svg version="1.1" id="Layer_1" xmlns="http://www.w3.org/2000/svg" xmlns:xlink="http://www.w3.org/1999/xlink" x="0px" y="0px"
	 viewBox="0 0 33 33" style="enable-background:new 0 0 33 33;" xml:space="preserve">
<style type="text/css">
	.st0{fill:#FFC818;}
</style>
<path class="st0" d="M14.2,16.5c-4,0-7.9,0-11.9,0c-0.2,0-0.3,0-0.3,0.3c0,4.7,0,9.4,0,14.1c0,0.4,0.1,0.7,0.2,1
	c0.3,0.6,0.9,1,1.5,1.1h10.6c0-5.4,0-10.8,0-16.2C14.4,16.6,14.5,16.5,14.2,16.5z"/>
<path class="st0" d="M30.6,16.5c-3.9,0-7.7,0-11.6,0c-0.3,0-0.4,0.1-0.4,0.4c0,5.2,0,10.5,0,15.7c0,0.1,0,0.3,0,0.4h10.6
	c1.4-0.5,1.7-1,1.7-2.5c0-4.5,0-9.1,0-13.6C30.9,16.6,30.9,16.5,30.6,16.5z"/>
<path class="st0" d="M30.5,8.3c-3.8,0-7.7,0-11.5,0c-0.3,0-0.3,0.1-0.3,0.3c0,1.8,0,3.7,0,5.5c0,0.3,0.1,0.3,0.4,0.3
	c4.7,0,9.3,0,14,0V10C32.8,8.8,31.6,8,30.5,8.3L30.5,8.3z"/>
<path class="st0" d="M14.2,8.2c-4,0-8,0-11.9,0c-1.2,0-2.2,0.8-2.3,2c0,0.1,0,0.2,0,0.3c0,1.2,0,2.5,0,3.7c0,0.2,0.1,0.3,0.3,0.3
	c2.3,0,4.6,0,6.9,0s4.6,0,6.9,0c0.2,0,0.3,0,0.3-0.3c0-1.9,0-3.7,0-5.6C14.4,8.3,14.4,8.2,14.2,8.2z"/>
<path class="st0" d="M26.8,5.9c1.5-0.5,2.4-2.1,1.9-3.6c-0.3-0.9-1-1.6-1.9-1.9C26.3,0.1,25.7,0,25.1,0c-2.3-0.1-4.6,0.8-6.3,2.4
	c-0.1,0.2-0.4,0.2-0.5,0.1c-1.1-0.6-2.5-0.6-3.6,0c-0.2,0.1-0.4,0.1-0.5-0.1C13,1.2,11.5,0.5,9.8,0.2C8.6-0.1,7.4,0,6.2,0.3
	C4.7,0.8,3.8,2.4,4.3,3.9c0.3,0.9,1,1.6,1.9,1.9C6.9,6,7.6,6.1,8.4,6.1c2.7,0,5.4,0,8.1,0s5.4,0,8.1,0C25.4,6.2,26.1,6.1,26.8,5.9z
	 M12.9,4c0,0.1-0.2,0.1-0.3,0.1c-0.8,0-1.6,0-2.5,0c-0.8,0-1.7,0-2.6-0.1C7.2,4,7,4,6.7,3.9c-0.4-0.2-0.6-0.6-0.5-1
	c0.1-0.2,0.3-0.4,0.5-0.5c0.5-0.2,1-0.3,1.6-0.3c1.6,0,3.2,0.6,4.4,1.7C12.8,3.9,12.9,3.9,12.9,4z M22.9,4.1c-1,0-1.8,0-2.6,0
	c-0.1,0-0.2,0.1-0.2-0.1c-0.1,0,0,0,0.1-0.1c1.5-1.4,3.5-2,5.5-1.8c0.2,0,0.5,0.1,0.7,0.2C26.8,2.5,27,3,26.8,3.4
	c-0.1,0.2-0.2,0.3-0.4,0.4C26.1,4,25.8,4,25.5,4.1C24.6,4.2,23.6,4.1,22.9,4.1z"/>
</svg>
