<?xml version="1.0" encoding="utf-8"?>
<!-- Generator: Adobe Illustrator 22.0.1, SVG Export Plug-In . SVG Version: 6.00 Build 0)  -->
<svg version="1.1" id="Layer_1" xmlns="http://www.w3.org/2000/svg" xmlns:xlink="http://www.w3.org/1999/xlink" x="0px" y="0px"
	 viewBox="0 0 43.8 34" style="enable-background:new 0 0 43.8 34;" xml:space="preserve">
<style type="text/css">
	.st0{fill:#FFC818;}
</style>
<g id="Group_424" transform="translate(-16 -27)">
	<path id="Path_247" class="st0" d="M28.2,36.5h-1.6v1.9h1.6c0.3,0,0.6-0.1,0.8-0.2c0.2-0.2,0.3-0.5,0.3-0.7c0-0.3-0.1-0.5-0.3-0.7
		C28.7,36.5,28.4,36.4,28.2,36.5z"/>
	<circle id="Ellipse_11" class="st0" cx="50.9" cy="56.7" r="4.3"/>
	<circle id="Ellipse_12" class="st0" cx="27" cy="56.7" r="4.3"/>
	<path id="Path_248" class="st0" d="M54.3,34.9c-0.5-0.9-1.5-1.5-2.5-1.5H47c-0.3,0-0.5-0.2-0.5-0.5l0,0v-4.1c0-1-0.8-1.7-1.7-1.7
		l0,0H17.7c-1,0-1.7,0.8-1.7,1.7l0,0v25.3c0,1,0.8,1.7,1.7,1.7H21c0.5-3.3,3.5-5.6,6.8-5.1c2.7,0.4,4.7,2.5,5.1,5.1h11.9
		c0.5-3.3,3.5-5.6,6.8-5.1c2.7,0.4,4.7,2.5,5.1,5.1h2c0.5,0,1-0.4,1-1l0,0v-9.7L54.3,34.9z M24.1,36.5h-3.3v1.6h2.9v1.2h-2.9v2.8
		h-1.5v-6.8h4.8L24.1,36.5z M29.4,42.1c-0.1-0.2-0.1-0.5-0.2-0.8c0-0.3,0-0.6-0.1-0.9c0-0.3-0.1-0.6-0.3-0.8
		c-0.2-0.2-0.5-0.3-0.8-0.2h-1.5v2.7H25v-6.8h3.7c0.3,0,0.6,0,0.8,0.1c0.2,0.1,0.4,0.2,0.6,0.4s0.3,0.4,0.4,0.6
		c0.1,0.2,0.1,0.5,0.1,0.7c0,0.4-0.1,0.7-0.3,1c-0.2,0.3-0.5,0.5-0.8,0.7l0,0c0.2,0,0.3,0.1,0.5,0.2c0.1,0.1,0.2,0.2,0.3,0.4
		c0.1,0.1,0.1,0.3,0.2,0.5c0,0.2,0.1,0.3,0.1,0.5c0,0.1,0,0.2,0,0.4c0,0.1,0,0.3,0,0.4c0,0.1,0,0.3,0.1,0.4c0,0.1,0.1,0.2,0.2,0.3
		L29.4,42.1z M37.1,42.1h-5.2v-6.8H37v1.3h-3.6V38h3.3v1.2h-3.3v1.7h3.7L37.1,42.1z M43.3,42.1h-5.2v-6.8h5.1v1.3h-3.6V38h3.3v1.2
		h-3.3v1.7h3.7V42.1z M56.3,44.5h-4c-1.4,0-2.7,0-4.1,0c-0.3,0-0.4-0.1-0.4-0.3c0-2.6,0-5.1,0-7.7c0-0.3,0.1-0.3,0.3-0.3
		c1.1,0,2.3,0,3.4,0c0.4,0,0.9,0.2,1.1,0.6c0.7,1.4,1.4,2.7,2.2,4.1c0.6,1.1,1.2,2.1,1.8,3.2C56.9,44.5,56.8,44.5,56.3,44.5z"/>
</g>
</svg>
