<?xml version="1.0" encoding="utf-8"?>
<!-- Generator: Adobe Illustrator 22.0.1, SVG Export Plug-In . SVG Version: 6.00 Build 0)  -->
<svg version="1.1" id="Layer_1" xmlns="http://www.w3.org/2000/svg" xmlns:xlink="http://www.w3.org/1999/xlink" x="0px" y="0px"
	 viewBox="0 0 33 33" style="enable-background:new 0 0 33 33;" xml:space="preserve">
<style type="text/css">
	.st0{fill:#FFC818;}
</style>
<g transform="translate(53.176 -17.413) rotate(90)">
	<path class="st0" d="M42,47c-2,1.7-4.7,2.5-7.3,2.2c-2.5-0.3-4.7-1.7-6.1-3.7c-1.1-1.5-1.6-3.3-1.5-5.1h2l-5.8-4.8l-5.8,4.8h2.2
		c0.5,3.6,2.2,6.9,4.9,9.3c2.8,2.5,6.4,3.7,10.1,3.4c3.4-0.3,6.6-2,8.7-4.8c2-2.6,3-5.9,2.6-9.2C45.8,42.2,44.3,45,42,47z"/>
	<path class="st0" d="M48.2,33c-0.5-3.6-2.3-6.9-5-9.4c-2.8-2.4-6.4-3.7-10-3.4c-3.4,0.4-6.6,2.1-8.8,4.8c-2.1,2.6-3,5.9-2.6,9.2
		c0.2-3,1.7-5.8,4-7.8c2.1-1.7,4.7-2.5,7.4-2.2c2.4,0.3,4.6,1.6,6,3.6c1.1,1.5,1.6,3.3,1.6,5.2h-2.1l5.8,4.8l5.9-4.8H48.2z"/>
</g>
</svg>
