<svg xmlns="http://www.w3.org/2000/svg">
<defs>
<font id="UTMFacebook" horiz-adv-x="1048" >
  <font-face 
    font-family="UTM Facebook"
    font-weight="400"
    font-stretch="normal"
    units-per-em="2048"
    panose-1="2 4 4 3 5 5 6 2 2 4"
    ascent="1638"
    descent="-410"
    x-height="1090"
    cap-height="1536"
    bbox="-1712 -496.001 3175 2489"
    underline-thickness="109"
    underline-position="-143"
    unicode-range="U+0020-U+FB02"
  />
<missing-glyph horiz-adv-x="3298" 
d="M2158 1244l7 -0.00195312c15.333 -4 23 -15 23 -33c0 -5.33301 -6.66699 -17.666 -20 -36.999h-18c0 10.667 6 22.334 18 35.001l1 6c-2 6 -4 9.33301 -6 10h-6c-3.33301 0 -5.33301 -4 -6 -12h-20c2.66699 20.667 11.667 31 27 31zM1307 1225l18 -19
c0 -7.33301 -8.33301 -14 -25 -20h-12l-38 8l-7 -8l-18 16c4.66699 12.667 13.667 19 27 19h8l26 -7h2c4 0 10.333 3.66699 19 11zM315 1202h91v-38h-60v-48h57v-38h-57v-82l-3 -3h-31v206zM755 1202h27l4 -3v-50h19v-33h-19v-120l-4 -3h-31v123h-16v33h16v50zM1052 1202h27
l3 -3v-60h2c9.33301 10.667 20.666 16 33.999 16h2c24.667 0 42.334 -15.333 53.001 -46l1 -25v-91h-33v73c0 34 -9 51 -27 51h-5c-18 0 -27 -18.333 -27 -55v-69h-33v206zM1423 1202h31l3 -3v-142c4 -21.333 13.667 -32 29 -32c18.667 2.66699 28 15 28 37v137l3 3h31v-138
c0 -36 -14 -59.667 -42 -71c-6 -3.33301 -13.333 -5 -22 -5c-20 0 -37.667 11.667 -53 35c-5.33301 10 -8 22 -8 36v143zM1573 1202h101v-38h-35v-171h-34v171h-35v35zM1692 1202l44.999 -0.000976562c2.66699 -1.33301 20.334 -54.666 53.001 -159.999h1l51 160h47v-209
h-34v154h-2l-47 -154h-28c-2 0 -14.333 38.667 -37 116l-12 38h-2v-154h-35v209zM2420 1202h33.001v-209h-29l-3 3v7l2 1l-2 9c-12.667 -16.667 -29.334 -25 -50.001 -25c-28.667 0 -50 19.333 -64 58l-3 25v2c0 40 19.667 66.667 59 80l15 2c14.667 0 28 -7 40 -21h2v68z
M1331 1169h23l3 -4v-31h-29v-141h-31v14c-9.33301 -12.667 -21.666 -19 -36.999 -19c-38 6 -57 26.667 -57 62v99h32v-66c0 -34 5.66699 -52.333 17 -55l11 -3h4c11.333 0 19.666 7.66699 24.999 23l2 16v85h34v16zM2238 1169v-35h-20v-141h-30v16h-1

<glyph glyph-name=".notdef" horiz-adv-x="3298" 
d="M2158 1244l7 -0.00195312c15.333 -4 23 -15 23 -33c0 -5.33301 -6.66699 -17.666 -20 -36.999h-18c0 10.667 6 22.334 18 35.001l1 6c-2 6 -4 9.33301 -6 10h-6c-3.33301 0 -5.33301 -4 -6 -12h-20c2.66699 20.667 11.667 31 27 31zM1307 1225l18 -19
c0 -7.33301 -8.33301 -14 -25 -20h-12l-38 8l-7 -8l-18 16c4.66699 12.667 13.667 19 27 19h8l26 -7h2c4 0 10.333 3.66699 19 11zM315 1202h91v-38h-60v-48h57v-38h-57v-82l-3 -3h-31v206zM755 1202h27l4 -3v-50h19v-33h-19v-120l-4 -3h-31v123h-16v33h16v50zM1052 1202h27
l3 -3v-60h2c9.33301 10.667 20.666 16 33.999 16h2c24.667 0 42.334 -15.333 53.001 -46l1 -25v-91h-33v73c0 34 -9 51 -27 51h-5c-18 0 -27 -18.333 -27 -55v-69h-33v206zM1423 1202h31l3 -3v-142c4 -21.333 13.667 -32 29 -32c18.667 2.66699 28 15 28 37v137l3 3h31v-138
c0 -36 -14 -59.667 -42 -71c-6 -3.33301 -13.333 -5 -22 -5c-20 0 -37.667 11.667 -53 35c-5.33301 10 -8 22 -8 36v143zM1573 1202h101v-38h-35v-171h-34v171h-35v35zM1692 1202l44.999 -0.000976562c2.66699 -1.33301 20.334 -54.666 53.001 -159.999h1l51 160h47v-209
h-34v154h-2l-47 -154h-28c-2 0 -14.333 38.667 -37 116l-12 38h-2v-154h-35v209zM2420 1202h33.001v-209h-29l-3 3v7l2 1l-2 9c-12.667 -16.667 -29.334 -25 -50.001 -25c-28.667 0 -50 19.333 -64 58l-3 25v2c0 40 19.667 66.667 59 80l15 2c14.667 0 28 -7 40 -21h2v68z
M1331 1169h23l3 -4v-31h-29v-141h-31v14c-9.33301 -12.667 -21.666 -19 -36.999 -19c-38 6 -57 26.667 -57 62v99h32v-66c0 -34 5.66699 -52.333 17 -55l11 -3h4c11.333 0 19.666 7.66699 24.999 23l2 16v85h34v16zM2238 1169v-35h-20v-141h-30v16h-1
c-6.66699 -14 -18.667 -21 -36 -21c-29.333 0 -47.666 16.667 -55 50l-2 18v93h33v-76c0 -21.333 4 -36 12 -44l14 -4h5c18 0 27 14.667 27 44v80h17c2 0 3 6 3 18l2 2h31zM501 1155c28.667 0 50.668 -16.667 66.001 -50c3.33301 -7.33301 5.66602 -18.666 6.99902 -33.999
c0 -37.333 -19 -64.333 -57 -81l-21 -2c-26.667 0 -48 15.333 -64 46c-5.33301 9.33301 -8 20.666 -8 33.999v6c0 40 21.667 67 65 81h12zM662.001 1155h2c32 0 49.667 -21.667 53 -65v-97h-32v76c0 32 -9 48 -27 48h-3c-18.667 0 -28 -16 -28 -48v-76h-34v156h30v-13
c12.667 12.667 25.667 19 39 19zM953.001 1155h5c30.667 0 53 -19 67 -57h-38c-7.33301 12.667 -16.333 19 -27 19h-11c-22.667 -6 -34 -19 -34 -39l-2 -9c5.33301 -29.333 18.333 -44 39 -44h6c9.33301 0 19.333 5.66699 30 17h25l2 2h2l1 -2l1 2l2 -2l1 2l2 -5
c-14 -34 -37.667 -51 -71 -51c-32 0 -55.333 20 -70 60l-3 23v2c0 36 16.667 61.333 50 76c6 4 13.667 6 23 6zM2024 1155h1c21.333 0 36.333 -13 45 -39v-9h-33c0 6.66699 -3.33301 10 -10 10h-3c-6 0 -10 -2.66699 -12 -8v-8c0 -4 14.333 -11.667 43 -23
c13.333 -8 20 -20.333 20 -37c0 -24.667 -13 -41.667 -39 -51l-15 -2c-32.667 4.66699 -49 22.334 -49 53.001h35c0 -8.66699 5.66699 -14 17 -16h3c8 0 13 4.66699 15 14c0 10 -14.667 19.667 -44 29c-14 11.333 -21 23.666 -21 36.999c0 28 15.667 44.667 47 50z
M2703 1155c23.333 0 39.665 -13.667 48.999 -41c3.33301 -7.33301 5 -21 5 -41v-80h-34v71c0 35.333 -8.33301 53 -25 53h-7c-14 0 -22.667 -11.333 -26 -34v-90h-33v3h-1l1 1v152h30v-13c10.667 12.667 24.334 19 41.001 19zM2849 1155h3c17.333 0 32.333 -8.66699 45 -26
v11l-2 2l2 7h30v-133c0 -41.333 -18.333 -69.333 -55 -84l-21 -2h-4c-30 0 -52.333 17 -67 51h38c10 -9.33301 19.667 -14.333 29 -15h8c9.33301 0 18.666 4.66699 28 14c6 5.33301 10.667 16.333 14 33h-2c-14 -16.667 -29.667 -25 -47 -25c-24 0 -44.333 14.667 -61 44
c-4.66699 8 -7.66699 21.667 -9 41c0 37.333 18.333 64 55 80zM2478 1149l34 -0.000976562v-87c2.66699 -24.667 11 -37 25 -37h5c19.333 0 29 19.667 29 59v65h33v-156h-30l-2 6h2l-2 2v3l2 2v1h-3c0 -9.33301 -12 -15.666 -36 -18.999h-2c-25.333 0 -43.333 16 -54 48
l-1 54v59zM457 1069c4.66699 -29.333 18.333 -44 41 -44h4c25.333 6 38 19.667 38 41v10c-6 27.333 -18.667 41 -38 41h-3c-24.667 0 -38.667 -16 -42 -48zM2337 1071c5.33301 -30.667 18.333 -46.001 39 -46.001h3c24.667 0 38.667 16 42 48
c0 20.667 -11 35.334 -33 44.001h-14c-15.333 0 -27 -12 -35 -36zM2812 1071c3.33301 -30.667 17.333 -46 42 -46h3c25.333 4.66699 38 20 38 46s-12.667 41.333 -38 46h-9c-24 -6.66699 -36 -19.667 -36 -39v-7zM2527 971.995h33v-36h-33v36zM689.999 832.995
c18 -4.66699 27 -14.999 27 -30.999v-3c0 -7.33301 -6.66699 -20 -20 -38h-18c0 10.667 6.66699 22.667 20 36v5c0 4.66699 -1.66699 7.66699 -5 9h-7c-4.66699 -1.33301 -7 -5.33301 -7 -12h-18v4c0 13.333 7.33301 22.666 22 27.999zM2157 792.996
c39.333 0 68.667 -21.3311 88 -63.998h-38c-16 18 -33 27 -51 27c-23.333 0 -42 -14.333 -56 -43c-4 -9.33301 -6 -19.333 -6 -30c0 -33.333 17 -57 51 -71h12c15.333 0 31.333 8.33301 48 25h39c-18.667 -41.333 -48 -62 -88 -62s-70 23.667 -90 71
c-4.66699 13.333 -7 26.666 -7 39.999c0 41.333 19.333 73.666 58 96.999c12 6.66699 25.333 10 40 10zM2358 792.998c24.667 0 46.667 -10 66 -30c20 -22 30 -46.667 30 -74v-13c0 -38 -19.667 -69 -59 -93c-14 -5.33301 -27.333 -8 -40 -8c-38 0 -67.333 21.333 -88 64
c-5.33301 14 -8 27 -8 39v11c0 42 20.667 74.333 62 97c12.667 4.66699 25 7 37 7zM1462 790.998h1l30 -7h2c4.66699 0 10 2.33301 16 7l12 -23c-8 -8 -15.333 -12 -22 -12h-2l-35 7l-13 -5l-12 23c7.33301 6.66699 15 10 23 10zM474 789.998h12.001
c50 0 77.667 -5.66699 83 -17c10.667 -11.333 16 -24.666 16 -39.999c-4.66699 -24 -11.334 -36 -20.001 -36v-4c20 -10 30 -24 30 -42v-12c0 -26.667 -14.667 -45.334 -44 -56.001l-34 -3h-43v210zM1646 789.998h33.998v-139c2.66699 -26 12.334 -39 29.001 -39
c12 0 21.333 8.33301 28 25l2 19v130l2 4h29l3 -4v-110c0 -50 -8.33301 -78.333 -25 -85c-10 -10.667 -23.667 -16 -41 -16c-23.333 0 -42.666 16 -57.999 48l-3 35v132zM1809 789.998l38.001 -0.000976562c2 0 28 -50.667 78 -152h3v152h31l3 -4v-206h-37
c-12.667 20.667 -39.334 71.334 -80.001 152.001h-2v-152h-34v210zM1998 789.997h35v-210h-35v210zM2483 789.997h5c66 0 103 -8.66699 111 -26c10 -4.66699 20 -20.667 30 -48l3 -23v-7l2 -1c0 -40 -17.667 -72 -53 -96c-14.667 -6 -35.667 -9 -63 -9h-35v210z
M2663 789.997h98v-39h-66v-48h65v-36h-65v-48l3 -3h63v-36h-100v206zM2294 687.997v-6.99902c0 -32 16.667 -55 50 -69h12c29.333 0 50 18.333 62 55l2 13v9c0 26 -13 46 -39 60c-4.66699 3.33301 -13 5.66602 -25 6.99902c-28 0 -48.333 -17.667 -61 -53zM508 750.998v-43
h6c23.333 0 35 6 35 18l2 9c-4.66699 10.667 -11 16 -19 16h-24zM2517 750.998v-132l1 -1v-2c44.667 0 70.667 16.333 78 49l1 9v19c0 14.667 -6.66699 29 -20 43c-10.667 10 -27.334 15 -50 15h-10zM682 741.998h3c16 0 31 -8.66699 45 -26v20h32v-156h-32v20
c-15.333 -16.667 -32.333 -25 -51 -25c-32 0 -53.333 20.667 -64 62l-4 23c0 38 18.333 64.667 55 80zM856 741.998h2c31.333 0 49 -22 53 -66v-96h-32v82c0 28 -9 42 -27 42h-7c-14 0 -22.333 -13 -25 -39v-85h-33v156h30v-13c12 12.667 25 19 39 19zM1003 741.998h3.00098
c19.333 0 34.333 -8.66699 45 -26v20h30v-140c0 -40 -22 -66.667 -66 -80h-11c-31.333 0 -54.333 17.333 -69 52h38c11.333 -10.667 20.666 -16 27.999 -16h9c22 0 35.667 16.667 41 50c-14 -18 -30 -27 -48 -27c-26 0 -47.667 17.333 -65 52l-4 28v10
c0 33.333 18 58.333 54 75zM1238 741.998l2 -0.000976562c18 0 31 -8 39 -24h1c13.333 16 28 24 44 24h3c24 0 40.667 -12 50 -36c3.33301 -10.667 5 -20 5 -28v-98h-33v88c0 18.667 -5 30.334 -15 35.001l-7 1h-10c-13.333 0 -21 -13.667 -23 -41v-83h-33v87
c0 24.667 -9.33301 37 -28 37h-5c-13.333 0 -21 -12 -23 -36v-88h-34v156h32v-13h1c2.66699 10 14 16.333 34 19zM1475 741.997c20 0 36 -9 48 -27v21h30v-156h-30v20c-15.333 -16.667 -32 -25 -50 -25c-31.333 0 -53 19.667 -65 59l-4 26c0 38 18 64.667 54 80z
M646.001 650.997c0 -20.667 13.001 -33.667 39.001 -39h2c19.333 0 32.666 9.66699 39.999 29l2 10v14c-5.33301 26 -17.333 39 -36 39h-9c-18 0 -30.667 -12 -38 -36v-17zM967.002 657.997c0 -20.667 9 -35.333 27 -44l12 -2h3c20 0 33.333 12 40 36v15
c-4.66699 27.333 -17 41 -37 41h-8c-20.667 0 -33 -15.333 -37 -46zM1439 659.998v-9.00098c6 -26 18 -39 36 -39h9c24.667 4.66699 37 18.334 37 41.001v7c0 19.333 -8 33 -24 41l-11 3h-7c-26.667 -3.33301 -40 -18 -40 -44zM508.002 671.997v-53c0 -2 1.66699 -3 5 -3
c32.667 0 49 9.66699 49 29c0 14.667 -10 23.667 -30 27h-24zM1912 417.997l16 -18l-33 -35c-8 5.33301 -13.667 11 -17 17zM990.002 401.997l55 -35c0 -6.66699 -4.66699 -15.667 -14 -27l-55 35c7.33301 17.333 12 26.333 14 27zM1838 379.997h24l35 -39h-34l-13 17
l-15 -17h-35c23.333 26 36 39 38 39zM2204 379.997h25l36 -39h-34l-16 17v0c0 -2 -4.33301 -7.66699 -13 -17h-34zM414.002 374.997l33 0.000976562c3.33301 -2 13.333 -31.333 30 -88l22 -70c4 3.33301 11.333 24.666 22 63.999l30 94h35v-2l-72 -208h-28zM757.002 374.998
h33v-35h-33v35zM882.002 374.998h29l4 -4v-206h-33v210zM1497 374.998h29l3 -4v-49h19v-34h-19v-123h-34v123h-17v34h17v49zM1566 374.998h34v-63h1c10 10 21.333 15 34 15h2c24.667 0 42 -15.333 52 -46l2 -24v-92h-33v74c0 34 -8.33301 51 -25 51h-7
c-17.333 0 -26 -18.333 -26 -55v-70h-34v210zM1719 374.998h33v-35h-33v35zM1952 374.998h28l4 -4v-49h18v-34h-18v-123h-35v123h-17v34h17v49zM2083 374.998h34v-210h-34v210zM2546 374.998h33v-210h-33v210zM2775 374.998h33v-35h-33v35zM1010 326.998h3.00098
c35.333 0 59 -21.667 71 -65l2 -15v-7c0 -35.333 -18.333 -61 -55 -77l-22 -3c-32.667 0 -56.334 20.667 -71.001 62l-3 20c0 41.333 20 69 60 83zM1174 326.998h2c22.667 0 39.334 -13 50.001 -39c3.33301 -10.667 5 -27.667 5 -51v-72h-35v93
c-2.66699 21.333 -10.334 32 -23.001 32h-7c-16 0 -25 -12 -27 -36v-89h-34v157h31v-14c11.333 12.667 24 19 38 19zM1324 326.998h3.00098c18.667 0 32 -8.33301 40 -25h2v20h31v-132c0 -43.333 -19 -72 -57 -86l-18 -2h-3c-30.667 0 -53.334 17 -68.001 51h34l23 -12
l10 -2h9c21.333 0 34.333 15.333 39 46c-14 -16.667 -29.667 -25 -47 -25c-26 0 -46.667 16 -62 48c-5.33301 10 -8 23 -8 39c0 36 18.333 62 55 78zM1848 326.998h2c34.667 0 58 -22.333 70 -67l2 -16l-2 -17h-109c6 -19.333 15.333 -29 28 -29l9 -2
c12.667 0 23.334 4.66699 32.001 14h36v-2c-14.667 -32 -37.667 -48 -69 -48c-32.667 0 -56.334 20.667 -71.001 62l-1 18v5c0 20.667 7 39.667 21 57c14.667 16.667 32 25 52 25zM2208 326.998h3c18 0 33 -8.33301 45 -25h1v20h30v-157h-30v20h-1
c-14.667 -16.667 -31 -25 -49 -25c-30.667 0 -52.334 19 -65 57l-3 23v9c0 36.667 18 62 54 76zM2388 326.998h5c37.333 0 60 -27.333 68 -82l-1 -1v-9c0 -28 -14 -50.667 -42 -68c-9.33301 -4.66699 -19.333 -7 -30 -7c-14 0 -27.667 6.66699 -41 20v-63l-3 -3h-31v208h31
v-18c13.333 15.333 28 23 44 23zM2670 326.998c18.667 0 34.667 -8.33301 48 -25v20h31v-157h-31v20c-15.333 -16.667 -32 -25 -50 -25c-38.667 0 -61.667 28 -69 84c0 36 15.667 62 47 78c6.66699 3.33301 14.667 5 24 5zM606.004 321.998l31.998 0.000976562v-87
c0.666992 -26 9.33398 -39 26.001 -39h4c18.667 0 28 18.667 28 56v70h33v-157h-30v15h-3c0 -9.33301 -12 -16 -36 -20h-2c-23.333 0 -40.666 14.333 -51.999 43c-2 15.333 -3 36.666 -3 63.999v51zM757.002 321.999h33v-157h-33v157zM1719 321.999h33v-157h-33v157z
M2775 321.999h33v-157h-33v157zM970.002 248.999l-0.000976562 -9.99902c5.33301 -28.667 18 -43 38 -43h2c25.333 0 39.333 16.333 42 49c-5.33301 30 -17.666 45 -36.999 45h-7c-25.333 -6.66699 -38 -20.334 -38 -41.001zM1286 239
c6.66699 -28.667 19.332 -43 37.999 -43h7c20.667 0 33.334 16 38.001 48v1c-5.33301 30 -18 45 -38 45h-9c-16.667 0 -28.667 -12 -36 -36v-15zM1809 260h78v2c-6.66699 18.667 -19 28 -37 28h-5c-14.667 0 -26.667 -10 -36 -30zM2172 240c6 -29.333 19 -44 39 -44h4
c22 0 35.667 13.667 41 41v7c-4 30.667 -16 46 -36 46h-11c-23.333 -6 -35 -19.333 -35 -40zM2344 242c5.33301 -30.667 18.333 -46 39 -46h2c21.333 0 35.333 13 42 39v14c0 18 -10.667 31.667 -32 41h-14c-20 0 -32.333 -15.333 -37 -46v-2zM2634 239
c4 -28.667 18 -43 42 -43c18.667 0 31.667 10.333 39 31l1 10v10c0 22.667 -11 37 -33 43h-11c-18 0 -30.667 -12.667 -38 -38v-13zM2200 142h32v-33h-32v33zM2661 142h32v-33h-32v33zM1763 22h3.00098c14.667 0 23.667 -10.667 27 -32v-1c0 -7.33301 -5 -16.333 -15 -27
l-6 -11h-18c0 10.667 6 22.667 18 36l1 2v1c-0.666992 8 -2.33398 12 -5.00098 12h-7c-3.33301 0 -5 -4 -5 -12h-20c2.66699 21.333 11.667 32 27 32zM1004 11l34 -38l-17 -13l-33 34zM241 -13l3 0.000976562c32 -20 50 -32.667 54 -38l-13 -24
c-37.333 21.333 -56 33.666 -56 36.999zM2247 -12.999l55 -37l-11 -25c-4.66699 0 -24.334 11.667 -59 35c6.66699 15.333 11.667 24.333 15 27zM2943 -14.999l12 -26l-58 -34l-13 25l59 37v-2zM786 -28.999h32.001v-12l4 -4h9v-23h-9l-4 -3v-178h-29v20
c-14.667 -17.333 -32 -26 -52 -26c-30.667 0 -52.334 22.333 -65.001 67l-2 17c0 43.333 21.667 71.333 65 84h9c14 0 28 -7.33301 42 -22v38l-4 3h-27v23h31v16zM962.001 -33.999h26l36 -39h-34l-15 17l-15 -17h-34zM1704 -33.999h22c4.66699 0 18 -13 40 -39h-35l-14 17
c-8.66699 -9.33301 -13 -15 -13 -17h-37v2zM48.001 -39.999h102v-38h-36v-171h-32l-2 3v157l1 2v1l-1 1l1 2l-1 1l1 2l-1 2h-35v35zM463.001 -39.999l30 0.000976562v-46l1 -1l-1 -2v-2l1 -2l-1 -2v-1l1 -2v-1l-1 -2l1 -2h2c7.33301 10.667 18.333 16 33 16h2
c22.667 0 39 -12.667 49 -38c3.33301 -6.66699 5 -15.334 5 -26.001v-98h-34v81c0 28.667 -8.33301 43 -25 43h-5c-18.667 0 -28 -18.333 -28 -55v-69h-33v206zM845.001 -39.998h30l4 -3v-32h-34v35zM1286 -39.998l34 0.000976562v-126l44 73h40l-50 -75l58 -80v-1h-45
c-4 9.33301 -19.667 33.666 -47 72.999v-73h-34v209zM1468 -39.9971v-63c10 10.667 21.333 16 34 16c24 0 41 -12 51 -36c4 -8 6 -24.667 6 -50v-76h-34v85c0 26 -8.66699 39 -26 39h-7c-13.333 0 -21.333 -11.667 -24 -35v-89h-34v200l-1 2v2l1 2l-1 2l1 1h34z
M1587 -39.9971h33v-35h-33v35zM2029 -39.9971h32v-69c11.333 14.667 26 22 44 22h1c32 0 54.667 -20.333 68 -61l3 -23c0 -32 -13.667 -57.667 -41 -77c-12.667 -4.66699 -23 -7 -31 -7c-18 0 -33.333 8.66699 -46 26v-20h-30v209zM2749 -39.9971h33.001v-63h1
c10 10.667 21.667 16 35 16h2c25.333 0 42.666 -16 51.999 -48l2 -26v-88h-34v71c0 34.667 -6.66699 52 -20 52l-7 1h-7c-16 0 -24 -17 -24 -51v-73h-33v209zM227.002 -86.9971h1v-38h-3c-18 0 -27 -12 -27 -36v-88h-33v156h30v-13c7.33301 12.667 18 19 32 19z
M377.002 -86.9971c30 0 48.333 -18.667 55 -56v-106h-33v87c-2.66699 24.667 -11.334 37 -26.001 37h-4c-19.333 0 -29 -17.667 -29 -53v-71h-33v156h32v-13c10.667 12.667 23.334 19 38.001 19zM978.002 -86.9971c30.667 0 53.002 -20.333 67.002 -61l3 -25
c-0.666992 -10 -2.33398 -15 -5.00098 -15h-108c7.33301 -20 20.666 -30 39.999 -30c10 0 20.333 4.66699 31 14h36c-14 -34 -37 -51 -69 -51c-34.667 0 -58.667 22.333 -72 67v24c0 34.667 19 59.667 57 75zM1715 -86.9971l2.99902 0.000976562
c32.667 0 55.334 -21 68.001 -63l2 -16v-14l-2 -8h-108c7.33301 -20 18.333 -30 33 -30h8c9.33301 0 18.333 4.66699 27 14h38c-14.667 -34 -37 -51 -67 -51c-36 0 -60.667 21.667 -74 65l-1 19c0 39.333 19.333 66.666 58 81.999zM1880 -86.9961h1.99902
c23.333 0 40 -13 50 -39c2.66699 -10.667 4 -28 4 -52v-71h-34v88c0 20.667 -7.33301 32.667 -22 36h-7c-16.667 0 -26 -12 -28 -36v-88h-34v156h31v-13c10.667 12.667 23.334 19 38.001 19zM2259 -86.9961h3c17.333 0 32.333 -8.66699 45 -26h1v20h31v-156h-31v20h-1
c-14.667 -17.333 -31.334 -26 -50 -26c-30 0 -51.333 19.333 -64 58l-3 23v8c0 34.667 16.333 59.667 49 75c4.66699 2.66699 11.334 4 20 4zM2433 -86.9961h3c26 0 43.333 -16.667 52 -50l2 -54v-58h-34v88c0 20.667 -8.33301 32.667 -25 36h-6c-16 0 -24.667 -11 -26 -33
v-91h-35v156h31v-13c11.333 12.667 24 19 38 19zM2658 -86.9961h1c31.333 0 53.333 -20 66 -60l3 -26c0 -37.333 -18 -64 -54 -80l-16 -2c-17.333 0 -31.666 7.33301 -43 22v-68h-34v208h30v-18c13.333 16 29 24 47 24zM3030 -86.9961h3c14 0 27.333 -8 40 -24
c11.333 16 26 24 44 24h4c24 0 40.667 -14.333 50 -43l4 -32v-87h-33v78c0 30.667 -8.33301 46 -25 46h-4c-15.333 0 -24.333 -10.667 -27 -32v-89l-3 -3h-30v89c0 18 -6.66699 29.667 -20 35h-11c-17.333 0 -26 -16.333 -26 -49v-75h-32v156h30v-13
c9.33301 12.667 21.333 19 36 19zM246.002 -92.9961h31l3 -3v-150l-3 -3h-31v156zM845.002 -92.9961h34v-156h-34v156zM1070 -92.9961l34 0.000976562v-87c1.33301 -25.333 10.333 -38 27 -38h3c18.667 0 28 17.333 28 52v73h33v-156h-30v15h-3
c-5.33301 -14 -18 -21 -38 -21c-22 0 -38.667 13.333 -50 40c-2.66699 5.33301 -4 12.666 -4 21.999v100zM1587 -92.9951h33v-156h-33v156zM2902 -92.9951h33v-156h-33v156zM705.002 -170.995c0 -22.667 10.667 -38.334 32 -47.001h8c22.667 0 36.667 14 42 42v7
c0 22.667 -11.333 37.334 -34 44.001h-11c-16.667 0 -29 -12 -37 -36v-10zM935.002 -154.995h78c-7.33301 20 -18.333 30 -33 30h-5c-18 0 -31.333 -9.33301 -40 -28v-2zM1678 -154.995h78c-9.33301 20 -21 30 -35 30h-4c-20 0 -33 -10 -39 -30zM2059 -163.995v-7.00098
c4.66699 -31.333 17.667 -47 39 -47h3c27.333 3.33301 41 18.333 41 45v4c0 18.667 -8 32.334 -24 41.001l-12 3h-8c-26 -6 -39 -19 -39 -39zM2223 -173.996c6 -29.333 19 -44 39 -44h7c18 0 30.667 12.667 38 38v9c-3.33301 30.667 -15.333 46 -36 46h-10
c-20 0 -32.667 -15.333 -38 -46v-3zM2613 -163.996v-14c0 -20 12.333 -33.333 37 -40h6c21.333 0 34.333 16.333 39 49c-5.33301 29.333 -17.666 44 -37 44h-9c-24 -6.66699 -36 -19.667 -36 -39zM1910 2156h-149v105h149v-105zM1338 2489h149v-488l95 113h169l-139 -148
l149 -225v373h149v-391h-137h-12h-168l-79 142l-27 -29v-113h-149v766zM2083 1885c4 -50.667 29.333 -76 76 -76c30 0 51 9.33301 63 28h139c-15.333 -42.667 -41.666 -74 -78.999 -94s-78 -30 -122 -30c-62.667 0 -114.834 17.667 -156.501 53s-62.5 85.666 -62.5 150.999
c0 56.667 18.833 105.334 56.5 146.001s87.5 61 149.5 61c148.667 0 223 -79.667 223 -239h-287zM2395 2114h144v-50h1c28.667 40 71 60 127 60c34.667 0 65.667 -11 93 -33s41 -55.333 41 -100v-268h-149v205c0 51.333 -16.333 77 -49 77
c-12.667 0 -25.667 -4.83301 -39 -14.5s-20 -30.167 -20 -61.5v-206h-149v391zM2281 2168l-33 -33l-99 63l-98 -63l-33 33l101 93h61zM358.002 1532v6h16v18c0 12 6.33301 18 19 18c2 0 3.5 -0.166992 4.5 -0.5s2.16699 -0.5 3.5 -0.5v-6c-2 0.666992 -4.66699 1 -8 1
c-8 0 -12 -4 -12 -12v-18h18v-6h-18v-82h-7v82h-16zM660.002 1494c0 -30.667 -14 -46 -42 -46c-27.333 0 -41 15.333 -41 46c0 31.333 13.667 47 41 47c28 0 42 -15.667 42 -47zM847.002 1538h14v-13v0c6 10.667 15.667 16 29 16c20 0 30 -11 30 -33v-58h-15v60
c0 12 -5.66699 18 -17 18c-18 0 -27 -9.33301 -27 -28v-50h-14v88zM1133 1538h18v-12h-18v-55c0 -5.33301 3.66699 -8 11 -8h7v-13h-11c-14 0 -21 6.33301 -21 19v57h-15v12h15v27h14v-27zM1397 1509c-1.33301 11.333 -7.99902 17 -19.999 17c-16 0 -24 -11 -24 -33
c0 -20 7.66699 -30 23 -30c11.333 0 18.333 6.66699 21 20h20c-4.66699 -23.333 -18.334 -35 -41.001 -35c-28.667 0 -43 15 -43 45c0 32 14.667 48 44 48c24.667 0 38 -10.667 40 -32h-20zM1604 1572h19v-45v0c5.33301 9.33301 14.333 14 27 14c20.667 0 31 -10 31 -30v-61
h-19v56c-1.33301 13.333 -7 20 -17 20c-14.667 0 -22 -8 -22 -24v-52h-19v122zM1955 1450h-23v12h-1c-6 -9.33301 -15 -14 -27 -14c-21.333 0 -32 12 -32 36v54h24v-49c0 -14.667 5.33301 -22 16 -22c12.667 0 19 8.33301 19 25v46h24v-88zM2237 1450h-32.999v10v0
c-5.33301 -8 -14 -12 -26 -12c-24.667 0 -37 15.667 -37 47c0 30.667 12.333 46 37 46c11.333 0 19.666 -4 24.999 -12v0v43h34v-122zM2455 1487c0.666992 -11.333 6.66699 -17 18 -17c6 0 10.667 2 14 6h31c-7.33301 -18.667 -22.333 -28 -45 -28
c-33.333 0 -50 15.333 -50 46c0 31.333 15.667 47 47 47c33.333 0 50 -18 50 -54h-65zM2706 1539h32v-10h1c5.33301 8 14 12 26 12c24.667 0 37 -15.667 37 -47c0 -30.667 -12.667 -46 -38 -46c-11.333 0 -19.333 4 -24 12v0v-39h-34v118zM374.004 2084h119
c64.667 0 108.667 -18.5 132 -55.5s35 -78.5 35 -124.5c0 -51.333 -13.5 -94.333 -40.5 -129s-69.5 -52 -127.5 -52h-118v184h-34v17h34v160zM674.004 2084h23v-361h-23v361zM723.004 2084h26l229 -331h1v331h22v-361h-26l-230 334h-1v-334h-21v361zM1049 1901v-178h-22v361
h22v-163h232v163h22v-361h-22v178h-232zM530.004 1924v-17.001h-133v-165h97c34 0 66.5 11.333 97.5 34s46.5 65.334 46.5 128.001c0 74 -18 119.333 -54 136s-67.667 25 -95 25h-92v-141h133zM2753 1473c10 0 15 7 15 21c0 14.667 -5 22 -15 22s-15 -7.33301 -15 -22
c0 -14 5 -21 15 -21zM2488 1504c0 10 -5 15 -15 15s-16 -5 -18 -15h33zM2190 1516c-10 0 -15 -7.33301 -15 -22c0 -14 5 -21 15 -21c9.33301 0 14 7 14 21c0 14.667 -4.66699 22 -14 22zM587.004 1494c0 -24.667 10.333 -37 31 -37s31 12.333 31 37
c0 25.333 -10.333 38 -31 38s-31 -12.667 -31 -38zM2226 1962c0 44 -21.667 66 -65 66c-44.667 0 -70.334 -22 -77 -66h142z" />
    <glyph glyph-name="space" unicode=" " horiz-adv-x="827" 
 />
    <glyph glyph-name="exclam" unicode="!" horiz-adv-x="524" 
d="M436 96c-6.66699 -26 -18.666 -44.998 -35.999 -56.998c-13.333 -14 -35 -24 -65 -30c-22.667 -4.66699 -47.334 -7 -74.001 -7c-24 0 -47 2.33301 -69 7c-30.667 6.66699 -52.667 16.667 -66 30c-15.333 12 -26.333 31 -33 57c-4 18 -6 40.667 -6 68c0 23.333 2 44 6 62
c6.66699 26 17.667 45 33 57c14 13.333 35 23.333 63 30c21.333 4 45.333 6 72 6c68.667 0 115 -12 139 -36c17.333 -12 29.333 -31 36 -57c3.33301 -16.667 5 -37.334 5 -62.001c0 -28.667 -1.66699 -51.334 -5 -68.001zM83.001 1436h360l-36 -1026h-283z" />
    <glyph glyph-name="quotedbl" unicode="&#x22;" horiz-adv-x="913" 
d="M257 1024l-97.999 -4.00098l72 194l-31 5l-31 7c-23.333 6 -41.666 15.667 -54.999 29c-27.333 22 -41 62.333 -41 121c0 62 13.667 103.667 41 125c13.333 12 35.333 21 66 27c22.667 4 45.667 6 69 6c26.667 0 50 -2 70 -6c29.333 -5.33301 51.666 -14.333 66.999 -27
c17.333 -13.333 28.666 -32 33.999 -56c3.33301 -14.667 5 -37.667 5 -69c0 -17.333 -1.66699 -33.666 -5 -48.999l-9 -35l-12 -28zM675.001 1024l-97.999 -4.00098l71 194l-30 5l-31 7c-23.333 6 -41.666 15.667 -54.999 29c-27.333 22 -41 62.333 -41 121
c0 62 13.667 103.667 41 125c13.333 12 35.333 21 66 27c22 4 45 6 69 6c26 0 49.333 -2 70 -6c29.333 -5.33301 51.666 -14.333 66.999 -27c17.333 -13.333 28.666 -32 33.999 -56c3.33301 -14.667 5 -37.667 5 -69c0 -17.333 -1.66699 -33.666 -5 -48.999l-9 -35l-13 -28z
" />
    <glyph glyph-name="numbersign" unicode="#" horiz-adv-x="1280" 
d="M911 729h227l-27 -199h-254l-67 -249h-178l67 249h-264l-70 -254l-172 5l66 249h-162l29 199h184l76 258h-228l25 199h254l68 246h176l-70 -246h268l68 246h176l-68 -246h160l-28 -199h-185zM538 987l-68 -258h264l74 258h-270z" />
    <glyph glyph-name="dollar" unicode="$" horiz-adv-x="1292" 
d="M1209 562c4.66699 -25.333 6.99902 -53.002 6.99902 -83.002c0 -19.333 -1 -43.666 -3 -72.999c-16 -168.667 -87.667 -285 -215 -349c-36 -19.333 -77 -34.666 -123 -45.999c-32 -8 -73 -15 -123 -21v-201h-229v197c-71.333 3.33301 -144 9.66602 -218 18.999
c-62 8 -117 16.667 -165 26l-35 346l84 -17c41.333 -8 79.666 -14.667 114.999 -20c46.667 -7.33301 90.334 -13 131.001 -17c48.667 -5.33301 93 -8 133 -8c143.333 0 227.333 33 252 99c10.667 28.667 10 56 -2 82c-14 28 -43.667 52.333 -89 73
c-19.333 8.66699 -43.666 17.334 -72.999 26.001c-11.333 4 -25 8.33301 -41 13l-145 44c-40 12.667 -74.667 25.334 -104 38.001c-79.333 32.667 -141 71 -185 115c-44 45.333 -72.333 100.666 -85 165.999c-8.66699 46 -9.66699 98.333 -3 157
c22 164 94.333 280.333 217 349c60.667 30 131.667 49.667 213 59v209h229v-199c66 -0.666992 133.333 -4.66699 202 -12c58 -6 112.333 -13.667 163 -23l29 -333l-38 6c-4 0.666992 -7.33301 1 -10 1c-7.33301 1.33301 -14 2.66602 -20 3.99902
c-34.667 5.33301 -66.667 10 -96 14c-40 5.33301 -77.333 9.33301 -112 12c-42.667 4 -82 6 -118 6c-152.667 0 -242.667 -33 -270 -99c-9.33301 -28 -8.66602 -55.333 2.00098 -82c16 -29.333 48.333 -55.333 97 -78c34.667 -16 91.667 -35.667 171 -59l105 -33
c39.333 -12.667 73.333 -25 102 -37c74.667 -31.333 130.667 -66.666 168 -105.999c43.333 -43.333 70.666 -98.333 81.999 -165z" />
    <glyph glyph-name="percent" unicode="%" horiz-adv-x="1363" 
d="M-579 1425h262l-887 -1421h-260zM-1129 1337c46.667 -62.667 70 -152 70 -268c0 -254.667 -109 -378.334 -327 -371.001c-115.333 -4.66699 -200.333 28.333 -255 99c-47.333 61.333 -71 151.333 -71 270c0 120 24.333 210.667 73 272c55.333 70 142.333 103.667 261 101
c112.667 2.66699 195.667 -31.666 249 -102.999zM-1243 1067c6 150 -41 225 -141 225c-96 0 -144 -75 -144 -225c0 -148.667 48 -223 144 -223c100 0 147 74.333 141 223zM-139 630c44.667 -60 67.001 -149.333 67.001 -268c0 -249.333 -109 -374 -327 -374
c-116 0 -200 34 -252 102c-46.667 60 -70 149.333 -70 268c-6.66699 248.667 102.666 373 327.999 373c117.333 2.66699 202 -31 254 -101zM-253.999 360c2 150.667 -44.333 226 -139 226c-98.667 0 -148 -76 -148 -228c0 -148.667 49.333 -223 148 -223
c94.667 0 141 75 139 225z" />
    <glyph glyph-name="ampersand" unicode="&#x26;" horiz-adv-x="1484" 
d="M296 0c-61.333 24.667 -110.332 59.999 -146.999 105.999c-30 36.667 -51.333 79.334 -64 128.001c-9.33301 34.667 -14 70.667 -14 108c0 172.667 95 305.667 285 399l16 11l-10 8c-80.667 84.667 -121 175.334 -121 272.001c0 94.667 38.333 176 115 244
c35.333 33.333 78.333 60 129 80c65.333 26 139 39 221 39c116 0 212.333 -30.667 289 -92c74.667 -59.333 116.334 -136 125.001 -230c3.33301 -68 -10.334 -130 -41.001 -186c-24 -44.667 -58.333 -84.334 -103 -119.001c-47.333 -36.667 -99 -64.667 -155 -84l200 -225
c8.66699 6.66699 18.334 17.667 29.001 33c4.66699 6 9 12 13 18l14 22c10 18 18.667 36.667 26 56l223 -53c-20 -60.667 -46.333 -121.667 -79 -183c-14.667 -28.667 -31.334 -55.334 -50.001 -80.001l260 -272h-382l-86 84c-34.667 -26 -75 -48.667 -121 -68
s-91.667 -34.333 -137 -45c-58.667 -13.333 -116.334 -18.666 -173.001 -15.999c-102.667 0 -190 15 -262 45zM556.001 556.999c-91.333 -34.667 -147.334 -77.668 -168.001 -129.001c-15.333 -41.333 -11.666 -78.333 11.001 -111c2.66699 -8 8 -16.333 16 -25
c9.33301 -11.333 21.333 -21.666 36 -30.999c38 -24 87.333 -36 148 -36c52 0 104 11 156 33c21.333 10 41 21 59 33l-254 268zM542 1059c0 -8 1 -16.667 3 -26l13 -41c17.333 -38.667 45.333 -75 84 -109l7 -2c74 17.333 126.333 45 157 83c24.667 30 35 63.667 31 101
c-10 80.667 -60 121 -150 121c-96.667 0 -145 -42.333 -145 -127z" />
    <glyph glyph-name="quotesingle" unicode="'" horiz-adv-x="514" 
d="M261 1024l-97.999 -4.00098l72 194l-31 5l-31 7c-23.333 6 -41.666 15.667 -54.999 29c-27.333 22 -41 62.333 -41 121c0 62 13.667 103.667 41 125c13.333 12 35.333 21 66 27c22.667 4 45.667 6 69 6c26.667 0 50 -2 70 -6c29.333 -5.33301 51.666 -14.333 66.999 -27
c17.333 -13.333 28.666 -32 33.999 -56c3.33301 -14.667 5 -37.667 5 -69c0 -17.333 -1.66699 -33.666 -5 -48.999l-9 -35l-12 -28z" />
    <glyph glyph-name="parenleft" unicode="(" horiz-adv-x="661" 
d="M554 -258c-56 0 -110 12.002 -162 36.002c-60 28 -112.333 69.333 -157 124c-50.667 63.333 -90 141.666 -118 234.999c-30.667 104.667 -46 227 -46 367v92c0 138.667 15.333 260.334 46 365.001c28 93.333 67.333 171.666 118 234.999c44.667 55.333 97 97 157 125
c52 24.667 106 37 162 37h11l14 -174c-59.333 -12.667 -111 -63.334 -155 -152.001c-51.333 -102 -77 -230.333 -77 -385v-194c0 -154 25.667 -282.667 77 -386c44 -90 95.667 -142.333 155 -157l-14 -168h-11z" />
    <glyph glyph-name="parenright" unicode=")" horiz-adv-x="675" 
d="M115 1360c56 0 110 -12.334 162 -37.001c60 -27.333 112.333 -68.666 157 -123.999c50.667 -62.667 89.667 -140.667 117 -234c31.333 -105.333 47 -227.666 47 -366.999v-92c0 -138.667 -15.667 -260.334 -47 -365.001c-27.333 -94 -66.333 -172.333 -117 -235
c-44.667 -55.333 -97 -97 -157 -125c-52 -24.667 -106 -37 -162 -37h-11l-14 174c59.333 12.667 111 63.334 155 152.001c50.667 102 76 230.333 76 385v194c0 154 -25.333 282.667 -76 386c-44 89.333 -95.667 141.666 -155 156.999l14 168h11z" />
    <glyph glyph-name="asterisk" unicode="*" horiz-adv-x="944" 
d="M861 1100l-108 -187l-195 138l19 -240h-213l18 240l-194 -138l-109 187l213 102l-213 103l109 188l194 -137l-18 237h213l-19 -237l195 137l108 -188l-217 -103z" />
    <glyph glyph-name="plus" unicode="+" horiz-adv-x="1218" 
d="M743 408v-390h-281v390h-391v280h391v393h281v-393h393v-280h-393z" />
    <glyph glyph-name="comma" unicode="," horiz-adv-x="503" 
d="M257 -205l-97.999 -4l72 195l-31 4l-31 7c-23.333 6.66699 -41.666 16.667 -54.999 30c-27.333 21.333 -41 61.333 -41 120c0 62 13.667 103.667 41 125c13.333 12 35.333 21 66 27c22.667 4 45.667 6 69 6c26.667 0 50 -1.66699 70 -5
c29.333 -6 51.666 -15.333 66.999 -28c17.333 -13.333 28.666 -32 33.999 -56c3.33301 -14 5 -37 5 -69c0 -16.667 -1.66699 -33 -5 -49l-9 -35l-12 -28z" />
    <glyph glyph-name="hyphen" unicode="-" horiz-adv-x="1083" 
d="M81 408v280h924v-280h-924z" />
    <glyph glyph-name="hyphen" unicode="&#x2010;" horiz-adv-x="1083" 
d="M81 408v280h924v-280h-924z" />
    <glyph glyph-name="period" unicode="." horiz-adv-x="499" 
d="M324 300c26.667 -5.33301 47.334 -15.334 62.001 -30.001c17.333 -13.333 29.333 -33 36 -59c4.66699 -16.667 7 -37 7 -61c0 -28 -2.33301 -50.667 -7 -68c-6.66699 -26.667 -18.667 -45.667 -36 -57c-14.667 -14 -36.334 -24 -65.001 -30
c-21.333 -4.66699 -44.666 -7 -69.999 -7s-48.333 2.33301 -69 7c-28.667 6 -50 16 -64 30c-17.333 11.333 -29.666 30.333 -36.999 57c-5.33301 18.667 -8 41.334 -8 68.001c0 22.667 2.66699 43 8 61c7.33301 26 19.666 45.667 36.999 59c14 14.667 34 24.667 60 30
c18 3.33301 42.333 5 73 5c31.333 0 55.666 -1.66699 72.999 -5z" />
    <glyph glyph-name="slash" unicode="/" horiz-adv-x="1150" 
d="M885 1421h260l-885 -1421h-258z" />
    <glyph glyph-name="zero" unicode="0" horiz-adv-x="1398" 
d="M1221 1340c48 -67.333 83.335 -151.001 106.002 -251.001c21.333 -90.667 32 -195.667 32 -315c0 -262.667 -51 -460 -153 -592c-108.667 -141.333 -277 -209.666 -505 -204.999c-230.667 -4.66699 -400.334 66.666 -509.001 213.999c-96 131.333 -144 323 -144 575
c-3.33301 253.333 46 446.333 148 579c110 144.667 280.333 214.334 511 209.001c235.333 8 406.666 -63.333 513.999 -214zM988.002 767.999c0 319.333 -94.333 479 -283 479c-195.333 0 -293 -160.333 -293 -481c0 -319.333 97.667 -479 293 -479
c188.667 0 283 160.333 283 481z" />
    <glyph glyph-name="one" unicode="1" horiz-adv-x="722" 
d="M670 0h-367v1214h-260l37 320h590v-1534z" />
    <glyph glyph-name="two" unicode="2" horiz-adv-x="1208" 
d="M1122 0l-1077 -0.000976562v319l433 367c73.333 61.333 126 107.666 158 138.999c82 78.667 125.333 154 130 226c8 142.667 -83.667 201.334 -275 176.001c-43.333 -5.33301 -101 -21.666 -173 -48.999c-64.667 -25.333 -126.334 -54 -185.001 -86l41 364
c61.333 29.333 124.666 52 189.999 68c73.333 17.333 148.666 26 225.999 26c178 0 317 -44.667 417 -134c94.667 -84.667 142 -198.334 142 -341.001c0 -62 -13.667 -124 -41 -186c-24 -55.333 -59.333 -111.666 -106 -168.999c-40 -48.667 -90.333 -101 -151 -157l-85 -75
l-88 -74l-131 -105h610z" />
    <glyph glyph-name="three" unicode="3" horiz-adv-x="1148" 
d="M759 817c228 -42.667 341.998 -167.001 341.998 -373.001c0 -137.333 -58 -248.666 -174 -333.999c-119.333 -88.667 -279 -133 -479 -133c-80 0 -158.667 8.33301 -236 25c-65.333 14 -125.333 33 -180 57l35 320c44 -23.333 94.333 -43 151 -59
c70.667 -19.333 139 -29 205 -29c195.333 0 293 57.333 293 172c0 68 -33 118.667 -99 152c-27.333 14 -61.333 25.667 -102 35c-33.333 7.33301 -73.666 13.333 -120.999 18l-153 14v258l153 12c41.333 5.33301 75.333 10.666 102 15.999c36.667 8 67.667 17.667 93 29
c62.667 29.333 94 73 94 131c0 96.667 -82.667 138.334 -248 125.001c-55.333 -8 -104.666 -16.667 -147.999 -26c-50.667 -12 -92.667 -25 -126 -39l39 323c88 30 194.333 45 319 45c164 0 294.333 -37 391 -111c92 -70.667 138 -161 138 -271
c0 -172 -96.333 -289.667 -289 -353v-4z" />
    <glyph glyph-name="four" unicode="4" horiz-adv-x="1339" 
d="M1265 326h-156v-326h-315v326h-756v274l606 934h465v-897h195zM433 637h361v549z" />
    <glyph glyph-name="five" unicode="5" horiz-adv-x="1206" 
d="M1052 1223l-555.002 0.000976562l-35 -219c23.333 4 48.666 6 75.999 6c82.667 0 158.334 -8.66699 227.001 -26c76 -18.667 141 -47 195 -85c130.667 -85.333 196 -213 196 -383c0 -150.667 -61 -277 -183 -379c-129.333 -108 -298.333 -162 -507 -162
c-79.333 0 -160.666 8.33301 -243.999 25c-72 14 -135.333 31.667 -190 53l37 320c50 -20 107.333 -38 172 -54c80 -18.667 149.667 -28 209 -28c92 0 164.667 12.667 218 38c68.667 33.333 103 86.666 103 159.999c0 170.667 -151.333 256 -454 256
c-75.333 0 -143.666 -4.66699 -204.999 -14l92 803h887z" />
    <glyph glyph-name="six" unicode="6" horiz-adv-x="1705" 
d="M1091 1255c-90 9.33301 -175.331 5.00098 -255.998 -12.999c-70 -16 -134.667 -41.667 -194 -77c-51.333 -30 -95.666 -65.333 -132.999 -106c-32 -35.333 -54.667 -69.666 -68 -102.999c20.667 13.333 47.667 26.333 81 39c34 11.333 68.667 20.333 104 27
c47.333 8 96.666 12 147.999 12c150 0 265.333 -34.667 346 -104c95.333 -82 145.333 -214.667 150 -398c3.33301 -162.667 -42.667 -293.334 -138 -392.001c-104.667 -110 -256.667 -165 -456 -165c-230.667 0 -399.334 66.333 -506.001 199
c-46.667 58.667 -81.334 130.334 -104.001 215.001c-20.667 77.333 -31 164.666 -31 261.999c0 287.333 97 514.666 291 681.999c152.667 137.333 358 213.333 616 228h115zM399.002 592.001c-12 -74 3.66699 -142 47 -204c50.667 -72 125 -105.667 223 -101
c174.667 8 262 85.667 262 233c0 84 -27 143 -81 177c-44 27.333 -110 39.333 -198 36c-142.667 -10 -227 -57 -253 -141z" />
    <glyph glyph-name="seven" unicode="7" horiz-adv-x="1218" 
d="M1171 1309c-84.667 -109.333 -169.335 -234.334 -254.002 -375.001c-37.333 -62 -73.333 -125.667 -108 -191c-38.667 -73.333 -74.334 -147.666 -107.001 -222.999c-36.667 -83.333 -69 -166.333 -97 -249c-31.333 -91.333 -57.666 -181.666 -78.999 -270.999h-415
c38.667 129.333 87.667 262.333 147 399c28 64.667 57.667 127.667 89 189c34.667 70 71.334 138.333 110.001 205c42.667 73.333 87.334 144.333 134.001 213c51.333 75.333 105 147.666 161 216.999h-707l35 311h1091v-225z" />
    <glyph glyph-name="eight" unicode="8" horiz-adv-x="1288" 
d="M321 791c-154.667 78.667 -232 190.332 -232 334.999c0 128.667 54.333 233 163 313c106 78 240 117 402 117c174 0 309 -41.667 405 -125c82.667 -72 124 -160.667 124 -266c0 -147.333 -78 -260.666 -234 -339.999l-4 -2c86 -30 156 -76 210 -138
c60.667 -70 91 -151 91 -243c0 -139.333 -56.667 -252 -170 -338s-262 -129 -446 -129c-190.667 0 -340.667 45.667 -450 137c-96 80 -144 177 -144 291c0 175.333 95 303 285 383v5zM793 577.998c-42 38.667 -101.667 68.667 -179 90c-130 -33.333 -195 -110 -195 -230
c-2.66699 -128 72.333 -192 225 -192c146 0 219 56 219 168c0 65.333 -23.333 120 -70 164zM669 931.998c108 27.333 162 91.333 162 192c0 116 -64.333 174 -193 174c-128 0 -192 -53 -192 -159c0 -98 74.333 -167 223 -207z" />
    <glyph glyph-name="nine" unicode="9" horiz-adv-x="1705" 
d="M1274 1359c47.333 -58 82.666 -129 105.999 -213c20.667 -76.667 31 -163 31 -259c0 -287.333 -96.333 -516 -289 -686c-153.333 -136 -359.333 -211.333 -618 -226l-164 -4l33 305c108 0 203.333 10.667 286 32c72 18 134 44 186 78c42.667 28 78 61.333 106 100
c22 28.667 39.333 60.667 52 96c-26 -16.667 -53.333 -30.334 -82 -41.001c-66.667 -27.333 -149 -41 -247 -41c-149.333 0 -265 34.667 -347 104c-97.333 82.667 -148.333 215 -153 397c-3.33301 162.667 43.334 293.334 140.001 392.001
c105.333 108.667 257.333 163 456 163c228.667 0 396.667 -65.667 504 -197zM1003 1142c-52.667 68.667 -128.332 103 -226.999 103c-173.333 0 -260 -77.667 -260 -233c0 -82.667 26.667 -141 80 -175c45.333 -28.667 110.666 -40 195.999 -34
c67.333 2.66699 126 19.667 176 51c42.667 26.667 68.667 56 78 88c20 70 5.66699 136.667 -43 200z" />
    <glyph glyph-name="colon" unicode=":" horiz-adv-x="489" 
d="M384 78c-15.333 -14 -37.333 -23.665 -66 -28.998c-19.333 -4 -42.333 -6 -69 -6c-27.333 0 -51.666 2 -72.999 6c-30 5.33301 -52.667 15 -68 29c-14.667 13.333 -25.334 33.666 -32.001 60.999c-4.66699 19.333 -7 40.666 -7 63.999c0 56 13 96.333 39 121
c28 24 75 36 141 36c62.667 0 107.667 -12 135 -36c27.333 -26 41 -66.333 41 -121c0 -58 -13.667 -99.667 -41 -125zM384 743.002c-15.333 -13.333 -37.334 -23.666 -66.001 -30.999c-22 -4.66699 -45 -7 -69 -7c-25.333 0 -49.666 2.33301 -72.999 7
c-30 7.33301 -52.667 17.666 -68 30.999c-14.667 14 -25.334 34 -32.001 60c-4.66699 18.667 -7 40.334 -7 65.001c0 21.333 2.33301 41 7 59c6.66699 25.333 17.334 44.666 32.001 57.999c29.333 26 76.333 39 141 39c60.667 0 105.667 -13 135 -39
c27.333 -25.333 41 -64.333 41 -117c0 -57.333 -13.667 -99 -41 -125z" />
    <glyph glyph-name="semicolon" unicode=";" horiz-adv-x="489" 
d="M407 119l-12 -29.001l-146 -246h-98l78 199c-62 0 -103 11.667 -123 35c-26 24 -39 65.667 -39 125c0 56 13 96.333 39 121c15.333 13.333 38 23.333 68 30c22 4 45.667 6 71 6c23.333 0 46 -2 68 -6c30.667 -6.66699 53.667 -16.667 69 -30
c24.667 -23.333 37 -63.666 37 -120.999c0 -31.333 -4 -59.333 -12 -84zM413 926.999c4 -16.667 6 -36.334 6 -59.001c0 -25.333 -2 -47 -6 -65c-6 -26 -16.333 -46 -31 -60c-15.333 -13.333 -37.666 -23.666 -66.999 -30.999c-22 -4.66699 -45.333 -7 -70 -7
c-25.333 0 -49.333 2.33301 -72 7c-28.667 7.33301 -51 17.666 -67 30.999c-14.667 14 -25.334 34 -32.001 60c-4.66699 18.667 -7 40.334 -7 65.001c0 21.333 2.33301 41 7 59c6.66699 25.333 17.334 44.666 32.001 57.999c29.333 26 75.666 39 138.999 39
c62 0 107.667 -13 137 -39c14.667 -13.333 25 -32.666 31 -57.999z" />
    <glyph glyph-name="less" unicode="&#x3c;" horiz-adv-x="849" 
d="M71 717l717 448v-336l-447 -282l447 -283v-336l-717 453v336z" />
    <glyph glyph-name="equal" unicode="=" horiz-adv-x="1046" 
d="M63 647v281h920v-281h-920zM63 446v-278h920v278h-920z" />
    <glyph glyph-name="greater" unicode="&#x3e;" horiz-adv-x="843" 
d="M782 377l-717 -449v336l446 283l-446 282v336l717 -452v-336z" />
    <glyph glyph-name="question" unicode="?" horiz-adv-x="1062" 
d="M525 96c-6.66699 -26 -18.668 -45 -36.001 -57c-14 -14 -35.333 -24 -64 -30c-20.667 -4.66699 -43.667 -7 -69 -7c-26 0 -49.667 2.33301 -71 7c-29.333 6 -50.666 16 -63.999 30c-17.333 12 -29.666 31 -36.999 57c-4.66699 18 -7 40.667 -7 68
c0 23.333 2.33301 44 7 62c7.33301 26 19.666 45 36.999 57c24 24 69 36 135 36c64 0 108.333 -12 133 -36c16.667 -12 28.667 -31 36 -57c4.66699 -18 7 -38.667 7 -62c0 -27.333 -2.33301 -50 -7 -68zM998.999 1004l-0.999023 -8l-1 -5l2 -2h-2
c0 -93.333 -12.333 -162.333 -37 -207c-68 -149.333 -214 -225 -438 -227v-147h-338v423c132.667 -17.333 220 -26 262 -26h20c87.333 0 142.666 13.667 165.999 41c19.333 12.667 29 60.334 29 143.001c0 91.333 -11.667 143.333 -35 156c-26 22 -80.667 33 -164 33
c-42 2.66699 -103 -1.33301 -183 -12l-106 -16l-102 -17l29 251c144.667 32 279 48 403 48c208 0 352 -61 432 -183c37.333 -46.667 58 -128.334 62 -245.001h2z" />
    <glyph glyph-name="at" unicode="@" horiz-adv-x="1607" 
d="M890 618c0 18.667 -2.66699 33.999 -8 45.999l-16 24c-18 14 -51 21 -99 21h-233l22 209h250c160.667 0 260.334 -39 299.001 -117c23.333 -46.667 35 -104 35 -172v-303c41.333 -15.333 76.333 -9.33301 105 18c23.333 22 41.666 57 54.999 105
c13.333 44.667 20 101 20 169c-3.33301 78 -12.333 142 -27 192c-18 60 -45.667 104.667 -83 134c-48 42 -110 71 -186 87c-32.667 6.66699 -69.667 11.334 -111 14.001c-33.333 2.66699 -73 4 -119 4c-192.667 0 -332 -48.667 -418 -146v-4
c-39.333 -48.667 -66.333 -108.334 -81 -179.001c-12.667 -58 -19 -134 -19 -228c0 -184.667 43 -313.334 129 -386.001h2c45.333 -40 107.333 -69 186 -87c30 -7.33301 61.667 -12.333 95 -15c26.667 -2.66699 53 -4 79 -4h398l-23 -193h-379
c-35.333 0 -70.666 2 -105.999 6c-44.667 4 -87.334 11 -128.001 21c-105.333 25.333 -189.666 67 -252.999 125c-138 107.333 -207 274 -207 500c0 70 1.33301 127.333 4 172c4 56.667 11 106.667 21 150c22.667 98.667 67 183.667 133 255c120 135.333 307 203 561 203
c122.667 0 226 -10.333 310 -31c97.333 -23.333 179 -62 245 -116c56.667 -44 100 -97.667 130 -161c37.333 -79.333 56 -176 56 -290c0 -154.667 -25 -276.667 -75 -366c-58 -104 -147 -156 -267 -156c-33.333 0 -67 1.66699 -101 5c-26 2.66699 -53 6.33398 -81 11.001
l-72 19l-12 28c-74.667 -42 -150.334 -63 -227.001 -63h-23c-70.667 0 -128.667 30 -174 90c-30 39.333 -45 89 -45 149v7c0 98.667 34.667 163.334 104 194.001c27.333 22 98.333 33 213 33h121v26zM804 419.999c-52 0 -82 -4.00098 -90 -12.001
c-10.667 -9.33301 -16 -23.666 -16 -42.999c0 -45.333 23.667 -68 71 -68c30 0 70.333 11.667 121 35v88h-86z" />
    <glyph glyph-name="A" unicode="A" horiz-adv-x="1548" 
d="M1116 0l-72 236h-536l-70 -236h-434l559 1536h430l555 -1536h-432zM776 1178l-197 -658h394z" />
    <glyph glyph-name="B" unicode="B" horiz-adv-x="1320" 
d="M1267 457v-36.999c0 -141.333 -54.667 -252 -164 -332c-93.333 -68 -205.333 -102 -336 -102l-694 18v1532l531 12h124c146 -5.33301 260.333 -39 343 -101c100.667 -74 151 -186.333 151 -337v-39c0 -108.667 -47 -200.667 -141 -276
c124 -78.667 186 -191.334 186 -338.001zM759 915.001c46 9.33301 77.333 22.999 94 40.999c22 22.667 33 63 33 121c0 116.667 -73 171.334 -219 164.001l-203 -4v-322h295zM704 295c146 -6 219 48.668 219 164.001c0 103.333 -47 162.666 -141 177.999h-318v-332l6 -2z
" />
    <glyph glyph-name="C" unicode="C" horiz-adv-x="1208" 
d="M825 295c68.667 0 175.668 11.667 321.001 35v-305l-159 -23c-70 -10.667 -147.333 -16 -232 -16c-325.333 0 -536.333 118 -633 354c-16.667 43.333 -29.334 94 -38.001 152c-10 66 -15 141.667 -15 227v100c0 106 8 197.333 24 274c14 69.333 34.667 126.333 62 171
c108.667 190.667 309.334 286 602.001 286c109.333 0 239 -14.333 389 -43v-303c-148.667 22 -266 33 -352 33c-136.667 0 -227.334 -22.667 -272.001 -68c-46.667 -38 -70 -139 -70 -303v-233c0 -74 6.33301 -133.667 19 -179c10 -36 24 -63 42 -81
c44 -52 135.667 -78 275 -78h37z" />
    <glyph glyph-name="D" unicode="D" horiz-adv-x="1411" 
d="M1322 1087c15.333 -73.333 23.001 -162.668 23.001 -268.001v-100c0 -174 -17 -300.333 -51 -379c-88.667 -232 -300.334 -348 -635.001 -348c-76 0 -153.333 0.333008 -232 1c-63.333 0.666992 -126 1.66699 -188 3l-90 2c-35.333 0.666992 -62 1.33398 -80 2.00098
v1538l586 6c165.333 0 300.333 -28 405 -84c87.333 -46.667 153 -112 197 -196c29.333 -52 51 -111 65 -177zM960.001 867.998c0 154.667 -23.332 255.001 -69.999 301.001c-42 46.667 -132.667 70 -272 70c-42 0 -96 -3.33301 -162 -10v-926
c21.333 -2.66699 45.666 -4.33398 72.999 -5.00098l97 -1c140 0 230.667 25.333 272 76c16.667 20 30 47.333 40 82c14.667 48 22 106.667 22 176v237z" />
    <glyph glyph-name="E" unicode="E" horiz-adv-x="1038" 
d="M466 913h400l-25 -280h-375v-330h502v-303h-897v1536h897v-297h-502v-326z" />
    <glyph glyph-name="F" unicode="F" horiz-adv-x="1034" 
d="M462 913h402l-31 -278h-371v-635h-393v1536h893v-297h-500v-326z" />
    <glyph glyph-name="G" unicode="G" horiz-adv-x="1300" 
d="M1228 43c-54 -12.667 -99.6689 -22.333 -137.002 -29c-49.333 -8 -99.666 -14 -150.999 -18c-60.667 -5.33301 -123 -8 -187 -8c-323.333 0 -535 117.333 -635 352c-32.667 80.667 -49 207.667 -49 381v100c0 212 28.667 359.667 86 443c114.667 188 314.667 282 600 282
c116.667 0 246.334 -13.667 389.001 -41l33 -303c-149.333 24.667 -277 37 -383 37c-137.333 0 -227.333 -22.667 -270 -68c-49.333 -30.667 -74 -131.667 -74 -303v-239c0 -142.667 22.667 -228 68 -256c34 -50.667 122.667 -76 266 -76h71v338h-227l31 278h569v-870z" />
    <glyph glyph-name="H" unicode="H" horiz-adv-x="1339" 
d="M1271 0h-395v635h-414v-635h-391v1536h391v-623h414v623h395v-1536z" />
    <glyph glyph-name="I" unicode="I" horiz-adv-x="538" 
d="M466 0h-391v1536h391v-1536z" />
    <glyph glyph-name="J" unicode="J" horiz-adv-x="870" 
d="M805 588c0 -148 -24.667 -263 -74 -345c-38 -64.667 -100.333 -120.334 -187 -167.001c-120 -60 -262.667 -90 -428 -90h-61l35 309c43.333 0 80 2 110 6c41.333 6 76.333 16.333 105 31c72 36.667 108 104.334 108 203.001v1001h392v-948z" />
    <glyph glyph-name="K" unicode="K" horiz-adv-x="1374" 
d="M921 0c-7.33301 10.667 -20 30.333 -38 59l-135 215l-81 127l-209 330v-731h-393v1536h393v-664l430 664h410l-498 -729c0 -1.33301 6.66699 -12.333 20 -33l53 -82l77 -116l379 -576h-408z" />
    <glyph glyph-name="L" unicode="L" horiz-adv-x="1034" 
d="M981 0h-920v1536h389v-1237h500z" />
    <glyph glyph-name="M" unicode="M" horiz-adv-x="2154" 
d="M1671 0l-131 1085l-313 -1085h-289l-314 1085l-131 -1085l-444 4l229 1532h598l205 -729l207 729h584l233 -1536h-434z" />
    <glyph glyph-name="N" unicode="N" horiz-adv-x="1378" 
d="M1312 0h-393l-463 819v-819h-391v1534h391l463 -809v809h393v-1534z" />
    <glyph glyph-name="O" unicode="O" horiz-adv-x="1435" 
d="M1400 817l-0.00195312 -99.9971c0 -180 -16.333 -305.667 -49 -377c-52 -122 -132 -211.333 -240 -268c-103.333 -56 -233.666 -84 -390.999 -84s-287.666 28 -390.999 84c-109.333 59.333 -189.333 148.666 -240 267.999c-34 74 -51 199.667 -51 377v100
c0 217.333 29.333 365.666 88 444.999c50 85.333 117.667 150.666 203 195.999c104 57.333 234.333 86 391 86c156 0 286.333 -28.667 391 -86c82 -44 149.667 -109.333 203 -196c57.333 -82 86 -230.333 86 -445zM719.998 297.003c124 2 202.668 26.666 236.001 73.999
c38 30.667 57 119.334 57 266.001v233c0 171.333 -21.333 270.333 -64 297c-40.667 41.333 -117 64 -229 68c-112 -4 -188.333 -26.667 -229 -68c-48 -30 -72 -126 -72 -288v-236c0 -147.333 21 -238 63 -272c33.333 -47.333 112.666 -72 237.999 -74z" />
    <glyph glyph-name="P" unicode="P" horiz-adv-x="1292" 
d="M1212 1213c12 -54.667 18 -118.332 18 -190.999v-72c0 -134.667 -11.667 -225.334 -35 -272.001c-71.333 -165.333 -225 -248 -461 -248c-30 -2 -83.667 0.666992 -161 8c-31.333 4 -69.666 8.33301 -114.999 13v-451h-383v1534l519 10h140
c215.333 0 360.333 -67.667 435 -203c19.333 -40 33.666 -82.667 42.999 -128zM882 1051c0 80 -12.333 134.334 -37 163.001c-24.667 25.333 -63 41 -115 47c-58 7.33301 -148.667 5.33301 -272 -6v-524c134 -15.333 228.667 -20 284 -14c43.333 4 74.333 17 93 39
c31.333 33.333 47 85.666 47 156.999v138z" />
    <glyph glyph-name="Q" unicode="Q" horiz-adv-x="1576" 
d="M1179 0l-55.001 61l-10 5c-92.667 -52 -218.334 -78 -377.001 -78c-155.333 0 -285.666 28 -390.999 84c-107.333 57.333 -186.666 146.666 -237.999 267.999c-34 74 -51 199.667 -51 377v100c0 211.333 28.667 359.666 86 444.999c51.333 84 119 149.333 203 196
c106.667 57.333 237 86 391 86c158.667 0 289 -28.667 391 -86c86 -46 154.333 -111.333 205 -196c56 -83.333 84 -231.666 84 -444.999v-100c0 -184 -16.333 -309.667 -49 -377c-12.667 -29.333 -27 -58.666 -43 -87.999l252 -252h-398zM867.999 311l-119 125l199 195
l82 -82l1 42l1 279c0 170.667 -22 269.667 -66 297c-38.667 41.333 -115 64 -229 68c-110.667 -4 -186.334 -26.667 -227.001 -68c-48 -30 -72 -126 -72 -288v-236c0 -148 21.667 -238.667 65 -272c33.333 -47.333 111.333 -72 234 -74c46.667 0 90.334 4.66699 131.001 14z
" />
    <glyph glyph-name="R" unicode="R" horiz-adv-x="1363" 
d="M562 450l-78.999 2c-8.66699 0 -16.334 -0.333008 -23.001 -1v-451h-383v1534l522 10h142c207.333 0 351.333 -67.667 432 -203c18.667 -41.333 33 -84 43 -128c12 -56 18 -119.667 18 -191v-72c0 -60 -6.33301 -113.333 -19 -160
c-10 -36.667 -24.667 -71.334 -44 -104.001c-37.333 -64 -97 -113.667 -179 -149c51.333 -19.333 97.666 -53 138.999 -101c15.333 -18 29.333 -37.333 42 -58c10 -16.667 18 -32 24 -46c3.33301 -6.66699 8 -16.667 14 -30l121 -302h-405
c-10 30.667 -22.333 61.334 -37 92.001l-37 89c-15.333 36 -29.666 67.667 -42.999 95c-20 44 -41 77.667 -63 101c-31.333 32 -71 53 -119 63c-21.333 4.66699 -43.333 8 -66 10zM460.001 731c7.33301 -0.666992 15.3311 -1.00098 23.998 -1.00098l201 -7
c16.667 -2 35.334 -0.666992 56.001 4c8.66699 2 16.667 4 24 6c9.33301 2.66699 18 6 26 10c20 8.66699 37.333 20.334 52 35.001c31.333 31.333 47 82 47 152v112c0 83.333 -11.667 139.333 -35 168c-25.333 26 -65.666 42.667 -120.999 50
c-60.667 8 -152 6.33301 -274 -5v-524z" />
    <glyph glyph-name="S" unicode="S" horiz-adv-x="1292" 
d="M591 -12c-78.667 0 -165 4.99902 -259 14.999c-36 4 -73 8.66699 -111 14l-89 14l-31 344l80 -16l115 -20c46.667 -7.33301 90.667 -13 132 -17c49.333 -4.66699 94 -7 134 -7c145.333 0 229.333 33 252 99c12.667 27.333 12 54 -2 80
c-14 28.667 -43.667 53.334 -89 74.001c-19.333 8.66699 -43.666 17.667 -72.999 27l-86 26c-38 9.33301 -72 18.666 -102 27.999c-38.667 12 -74 24.667 -106 38c-79.333 33.333 -141 72 -185 116c-42 44.667 -69 99.334 -81 164.001c-8.66699 46 -9.66699 98.333 -3 157
c18 169.333 90.333 285.666 217 348.999c47.333 25.333 104.333 43.666 171 54.999c26 4 55.667 7.33301 89 10l86 6h58c66 0 138.667 -4 218 -12l97 -11l82 -12l33 -335c-43.333 10.667 -98 20.334 -164 29.001c-84.667 12 -161.334 18 -230.001 18
c-152 0 -241.333 -34.333 -268 -103c-10 -28.667 -9.33301 -56 2 -82c14.667 -30 46.667 -56.333 96 -79c20.667 -9.33301 46.667 -19.333 78 -30l198 -59c38 -12 72 -24.333 102 -37c72.667 -30.667 127.667 -66 165 -106c44 -44 72.333 -99 85 -165
c8.66699 -47.333 9.66699 -98.666 3 -153.999c-18 -168 -90.333 -284.333 -217 -349c-46.667 -25.333 -103.667 -43.333 -171 -54c-26 -4 -55.667 -7.33301 -89 -10l-77 -5h-60z" />
    <glyph glyph-name="T" unicode="T" horiz-adv-x="1288" 
d="M835 1237v-1237h-394v1237h-362v297h1122v-297h-366z" />
    <glyph glyph-name="U" unicode="U" horiz-adv-x="1507" 
d="M1437 719c0 -176.667 -17.666 -303.667 -52.999 -381c-52 -122 -131.333 -210.667 -238 -266c-108 -57.333 -238.333 -86 -391 -86s-283 28.667 -391 86c-111.333 59.333 -191.333 148 -240 266c-34 70 -51 197 -51 381v815h381v-893c0 -146 21 -236 63 -270
c35.333 -48 114.666 -74 237.999 -78c124 4 202.667 30 236 78c39.333 34 59 122 59 264v899h387v-815z" />
    <glyph glyph-name="V" unicode="V" horiz-adv-x="1503" 
d="M1020 0h-535l-485 1534h432l320 -1085l319 1085h432z" />
    <glyph glyph-name="W" unicode="W" horiz-adv-x="2091" 
d="M1681 0h-456l-181 719l-176 -719h-458l-410 1534h432l232 -969l210 969h345l211 -969l229 969h430z" />
    <glyph glyph-name="X" unicode="X" horiz-adv-x="1466" 
d="M729 573l-215 -573h-459l362 788l-344 746h445l211 -535l211 535h446l-346 -746l361 -788h-459z" />
    <glyph glyph-name="Y" unicode="Y" horiz-adv-x="1280" 
d="M231 0l191 477l-416 1057h430l205 -633l205 633h428l-613 -1534h-430z" />
    <glyph glyph-name="Z" unicode="Z" horiz-adv-x="1310" 
d="M24 0l674 1237h-580l31 297h1141l-664 -1227h615l-43 -307h-1174z" />
    <glyph glyph-name="bracketleft" unicode="[" horiz-adv-x="638" 
d="M71 1591h498v-131h-217v-1460h217v-133h-498v1724z" />
    <glyph glyph-name="backslash" unicode="\" horiz-adv-x="1153" 
d="M2 1421h262l885 -1421h-264z" />
    <glyph glyph-name="bracketright" unicode="]" horiz-adv-x="649" 
d="M569 -131h-498v131h217v1460h-217v133h498v-1724z" />
    <glyph glyph-name="asciicircum" unicode="^" horiz-adv-x="1329" 
d="M61 811l461 862h280l465 -862h-315l-289 571h-8l-289 -571h-305z" />
    <glyph glyph-name="underscore" unicode="_" horiz-adv-x="1222" 
d="M77 0v285h1071v-285h-1071z" />
    <glyph glyph-name="grave" unicode="`" horiz-adv-x="495" 
d="M239 1532l97.999 4l-71 -195l61 -11c23.333 -6.66699 41.666 -16.667 54.999 -30c27.333 -21.333 41 -61.333 41 -120c0 -62 -13.667 -103.667 -41 -125c-15.333 -12.667 -37.666 -21.667 -66.999 -27c-20.667 -4 -43.334 -6 -68.001 -6c-26 0 -49.333 2 -70 6
c-29.333 5.33301 -51.666 14.333 -66.999 27c-17.333 13.333 -28.666 32 -33.999 56c-3.33301 14.667 -5 37.667 -5 69s4 59.333 12 84l7 15z" />
    <glyph glyph-name="a" unicode="a" 
d="M985 672l0.000976562 -672.002h-279l-3 10c-1.33301 4.66699 -2.33301 8 -3 10c-2.66699 6.66699 -5 14.334 -7 23.001l-3 25c-102.667 -53.333 -203 -80 -301 -80h-29c-100.667 0 -180.667 38.667 -240 116c-39.333 60.667 -59 128.334 -59 203.001v8
c0 132 46.333 219.667 139 263c38 25.333 134.333 38 289 38h158v37c0 76 -11 119.667 -33 131c-24 18 -66.333 27 -127 27h-315l30 279h338c215.333 0 348.666 -53.333 399.999 -160c30 -62 45 -148 45 -258zM534.001 392.998c-65.333 0 -105 -6.66797 -119 -20.001
c-10.667 -11.333 -16 -30.666 -16 -57.999c0 -60 30.667 -90 92 -90c36.667 0 88.667 15 156 45v123h-113z" />
    <glyph glyph-name="b" unicode="b" horiz-adv-x="1110" 
d="M1044 639l-0.000976562 -109c0 -177.333 -13 -287 -39 -329c-8.66699 -28 -32.667 -61.667 -72 -101c-82.667 -76 -222.667 -114 -420 -114c-139.333 0 -288 15 -446 45v1503l336 59v-526c42 14 87 24.667 135 32c38.667 6 74.334 9 107.001 9
c192.667 0 312.667 -50.667 360 -152c26 -41.333 39 -147 39 -317zM705.999 700c0 68 -31.334 109 -94.001 123h-51c-55.333 0 -108 -15 -158 -45v-510l125 -6c96.667 0 153.334 31.333 170.001 94c5.33301 16.667 8 38.667 8 66v278z" />
    <glyph glyph-name="c" unicode="c" horiz-adv-x="980" 
d="M909 1061l-0.000976562 -273c-132 24.667 -234.667 37 -308 37c-78.667 0 -131.667 -13.667 -159 -41c-23.333 -14.667 -35 -72 -35 -172v-139c0 -91.333 10.333 -145.333 31 -162c24.667 -31.333 77 -47 157 -47h25c50.667 0 146.334 13 287.001 39h2v-270
c0 -6.66699 -60.333 -19 -181 -37c-52 -6.66699 -107 -10 -165 -10c-232 0 -383.667 84 -455 252c-24.667 52.667 -37 143.334 -37 272.001v74c0 155.333 20.333 261.666 61 318.999c80 135.333 223.667 203 431 203c112 0 227.333 -15 346 -45z" />
    <glyph glyph-name="d" unicode="d" horiz-adv-x="1116" 
d="M67 639c0 163.333 13.6689 268.999 41.002 316.999c45.333 101.333 165.333 152 360 152c80.667 -2 160.667 -15.667 240 -41l1 33l1 289l2 145l334 59v-1564c-86.667 -14 -164.667 -24.667 -234 -32c-76.667 -7.33301 -148.334 -11 -215.001 -11
c-196.667 0 -336.334 38 -419.001 114c-38.667 40.667 -62 74.334 -70 101.001c-27.333 44 -41 153.667 -41 329v109zM405.002 423.999c0 -25.333 2.66699 -48 8 -68c18 -62.667 76 -94 174 -94l121 4v510c-50 31.333 -102 47 -156 47l-49 -2c-65.333 -12 -98 -53 -98 -123
v-274z" />
    <glyph glyph-name="e" unicode="e" horiz-adv-x="1097" 
d="M1025 643l0.000976562 -194h-612v-33c0 -74 22.667 -119 68 -135c35.333 -10 75.333 -15 120 -15h27c120 0 243 13 369 39h2v-274c0 -3.33301 -57.333 -14.333 -172 -33c-72 -8 -154.667 -12 -248 -12c-240 0 -395 81 -465 243c-26 64 -39 131 -39 201v262
c0 192 80.667 319.667 242 383c71.333 23.333 147.666 35 228.999 35c226 0 372.667 -73.667 440 -221c26 -58 39 -140 39 -246zM687.001 694c0 76 -16.333 121 -49 135c-24.667 16.667 -54.667 25 -90 25c-90 0 -135 -42.333 -135 -127v-51h274v18z" />
    <glyph glyph-name="f" unicode="f" horiz-adv-x="854" 
d="M815 1616l-0.000976562 -278.999h-152c-44 0 -73.333 -12.333 -88 -37c-9.33301 -14.667 -14 -42.334 -14 -83.001v-127h258l-31 -281h-227v-809h-334v809h-164v281h164v167c0 172.667 58.667 282.667 176 330c48.667 19.333 101.334 29 158.001 29h254z" />
    <glyph glyph-name="g" unicode="g" horiz-adv-x="1126" 
d="M1052 27l-1.99902 -14v-52c-6 -50 -18.333 -98.333 -37 -145c-71.333 -164 -227.666 -246 -468.999 -246c-92.667 0 -174 4 -244 12c-114.667 18.667 -172 29.667 -172 33v270l2 2c123.333 -24.667 245.666 -37 366.999 -37h27c52 0 92 5.66699 120 17
c48 18.667 72 63 72 133v37c-16 -6.66699 -38.333 -13.667 -67 -21c-52 -12 -111 -18 -177 -18c-192.667 0 -312.667 50.667 -360 152c-27.333 39.333 -41 144.333 -41 315v108c0 160 13.667 270 41 330l22 45c11.333 19.333 23.666 36.666 36.999 51.999
c36 41.333 81.333 70.333 136 87c82.667 22.667 167 26 253 10c68.667 -12 135 -35.667 199 -71c0 18.667 2.66699 34.334 8 47.001l6 23h279v-1069zM716.001 776c-8.66699 3.33301 -18 6.66699 -28 10l-101 23c-93.333 12.667 -149.333 -14 -168 -80
c-6.66699 -22.667 -10 -43.667 -10 -63v-260c0 -70 32.667 -111 98 -123l27 -4h20c52.667 0 106.667 16.333 162 49v448z" />
    <glyph glyph-name="h" unicode="h" horiz-adv-x="1118" 
d="M1048 637v-639h-340v698c0 70 -30.667 111 -92 123l-53 2c-47.333 0 -99.333 -15.667 -156 -47v-776h-338v1536l338 57v-528c41.333 14 85.666 24.667 132.999 32c38.667 6 74.334 9 107.001 9c194 0 314.667 -50.667 362 -152c26 -38 39 -143 39 -315z" />
    <glyph glyph-name="i" unicode="i" horiz-adv-x="466" 
d="M404 1431c4.66699 -17.333 7.00195 -39 7.00195 -65c0 -58 -14.333 -98.333 -43 -121c-13.333 -13.333 -34.333 -23 -63 -29c-20 -4 -43.333 -6 -70 -6s-50 2 -70 6c-28.667 6 -51.667 15.667 -69 29c-14.667 14 -25 33.333 -31 58c-4 16.667 -6 37.667 -6 63
c0 24 2 45 6 63c6 26.667 16.333 46.667 31 60c29.333 23.333 75.666 35 138.999 35c65.333 0 109.666 -11.667 132.999 -35c17.333 -14 29.333 -33.333 36 -58zM65.002 0h338v1090h-338v-1090z" />
    <glyph glyph-name="j" unicode="j" horiz-adv-x="743" 
d="M679 1366c0 -56.667 -13.666 -97 -40.999 -121c-13.333 -13.333 -34.666 -23 -63.999 -29c-20.667 -4 -44.334 -6 -71.001 -6c-27.333 0 -50.666 2 -69.999 6c-28 6 -49 15.667 -63 29c-17.333 14 -29.333 33.333 -36 58c-4.66699 16.667 -7 37.667 -7 63
c0 24.667 2.33301 45.667 7 63c6.66699 26.667 18.667 46.667 36 60c23.333 23.333 67.666 35 132.999 35c30 0 54.667 -2 74 -6c27.333 -5.33301 47.666 -15 60.999 -29c27.333 -24 41 -65 41 -123zM335.001 0c0 -76.667 -23 -121 -69 -133l-52 -12
c-22 -4.66699 -45 -7 -69 -7l-119 5v-281l141 -4c238.667 0 393.667 82.667 465 248c10 22 18 46 24 72l11 73c2.66699 24.667 4 41.667 4 51v1078h-336v-1090z" />
    <glyph glyph-name="k" unicode="k" horiz-adv-x="1136" 
d="M407 610h2l305 482h363l-334 -529l334 -563h-363l-305 508h-2v-508h-336v1534l336 59v-983z" />
    <glyph glyph-name="l" unicode="l" horiz-adv-x="688" 
d="M409 428c0 -73.333 24 -118.334 72 -135.001c24.667 -6.66699 59.667 -11 105 -13c8 -0.666992 16 -1 24 -1h47v-283c-20.667 -1.33301 -48 -2 -82 -2c-238 0 -393.667 84 -467 252c-19.333 49.333 -31 96.333 -35 141c-1.33301 12.667 -2 30.334 -2 53.001v1096l338 59
v-1167z" />
    <glyph glyph-name="m" unicode="m" horiz-adv-x="1771" 
d="M1697 639l0.00390625 -639.002h-340v700c0 68 -31.333 109 -94 123c-34.667 6.66699 -72.334 5 -113.001 -5c-33.333 -8.66699 -66 -22 -98 -40v-778h-340v700c0 68 -31.333 109 -94 123c-28 2.66699 -50 3.33398 -66 2.00098c-26.667 -4 -48.334 -8.33301 -65.001 -13
c-27.333 -8 -53.333 -19.333 -78 -34h-2v-778h-336v1096h276l23 -43c4 -10 7.33301 -19.667 10 -29l12 6l20 11c20.667 10 41.667 19 63 27c29.333 10.667 59.333 19.334 90 26.001c37.333 8 74.666 12.667 111.999 14h19c50 1.33301 93.333 -2.66699 130 -12
c44.667 -10.667 83.667 -30 117 -58c3.33301 0 5.66602 -0.666992 6.99902 -2c28.667 10.667 54 19.334 76 26.001c29.333 10 57.333 18 84 24c65.333 16 127.333 24 186 24c196 0 315.333 -51.333 358 -154c28.667 -42.667 43 -148.334 43 -317.001z" />
    <glyph glyph-name="n" unicode="n" horiz-adv-x="1118" 
d="M1046 639v-638.999h-338v700c0 68 -32 109 -96 123c-28 2.66699 -50 3.33398 -66 2.00098c-26.667 -4 -48.334 -8.33301 -65.001 -13c-28 -8 -54 -19.333 -78 -34v-778h-336v1094h279l20 -43c4 -10 7.33301 -19.667 10 -29c2 0.666992 6.33301 2.66699 13 6l20 11
c20.667 10 41.334 18.667 62.001 26c29.333 11.333 59 20.333 89 27c37.333 8 75 12.667 113 14c76.667 3.33301 138 -3.33398 184 -20.001c60 -22.667 109.333 -66 148 -130c27.333 -50.667 41 -156.334 41 -317.001z" />
    <glyph glyph-name="o" unicode="o" horiz-adv-x="1034" 
d="M1003 647l-0.000976562 -201c0 -209.333 -75 -347 -225 -413c-75.333 -31.333 -164.333 -47 -267 -47c-224 0 -370 73 -438 219c-31.333 60.667 -47 135 -47 223v240c0 213.333 92 349.666 276 408.999c70.667 20.667 136.334 31 197.001 31h33
c229.333 0 377.333 -87.333 444 -262c18 -53.333 27 -119.666 27 -198.999zM666.999 659c0 87.333 -24.666 138 -73.999 152c-14.667 8 -36.334 12 -65.001 12h-27c-60 0 -102.333 -24.333 -127 -73c-6.66699 -20.667 -10 -44 -10 -70v-274c0 -94.667 49 -142 147 -142h9
c78 0 126.333 34.333 145 103l1 26v4z" />
    <glyph glyph-name="p" unicode="p" horiz-adv-x="1118" 
d="M69 1096l278.997 -0.000976562l6 -23c2.66699 -8 4.66699 -16.667 6 -26c0.666992 -3.33301 1.33398 -7.33301 2.00098 -12l2 -11c30.667 16 60.667 29.667 90 41c36 14 71.667 24.333 107 31c86.667 18 170.334 14.333 251.001 -11c52 -16.667 96.667 -46 134 -88
c14 -15.333 26.667 -32.666 38 -51.999l13 -23l10 -21c14 -38 24 -80 30 -126c7.33301 -52 11 -120 11 -204v-106c0 -163.333 -13.667 -269.333 -41 -318c-43.333 -102 -162.666 -153 -357.999 -153c-33.333 0 -66 2 -98 6l-76 14c-29.333 7.33301 -52 14.333 -68 21v-467
l-338 -62v1590zM406.997 325.999c56.667 -31.333 109.333 -47.001 158 -47.001l49 2c62.667 14 94 54.667 94 122v254c0 30.667 -2.66699 53.334 -8 68.001c-20 68 -75.333 94.667 -166 80l-37 -6l-64 -18l-26 -9v-446z" />
    <glyph glyph-name="q" unicode="q" horiz-adv-x="1134" 
d="M1056 -434l-340.001 -62.001v531c-14 -6.66699 -35.667 -13.667 -65 -21l-77 -14c-32.667 -4 -66 -6 -100 -6c-193.333 0 -312.666 50.333 -357.999 151c-28.667 47.333 -43 154 -43 320v104c0 158.667 14.333 269.334 43 332.001l23 44c10.667 19.333 23 37 37 53
c36 42 81 71 135 87c81.333 25.333 165.666 29 252.999 11c35.333 -6.66699 71 -17 107 -31c29.333 -11.333 59.333 -25 90 -41l2 11c0.666992 4.66699 1.33398 8.66699 2.00098 12c1.33301 9.33301 3.33301 18 6 26l7 23h278v-1530zM715.999 773.999
c-8 3.33301 -16.334 6.33398 -25.001 9.00098l-33 9l-63 13c-99.333 14.667 -156.666 -12 -171.999 -80c-5.33301 -16.667 -8 -39.334 -8 -68.001v-256c0 -66 32 -106 96 -120l49 -2c50 0 102 15 156 45v450z" />
    <glyph glyph-name="r" unicode="r" horiz-adv-x="817" 
d="M745 1110l33 -289.001c-54.667 2.66699 -102.667 -0.666016 -144 -9.99902l-22 -4c-42 -8.66699 -111 -30.667 -207 -66v-741h-334v1100h276l11 -25c6 -14 12 -32.333 18 -55l78 29c46.667 16 100.667 31 162 45c36 8 79 13.333 129 16z" />
    <glyph glyph-name="s" unicode="s" horiz-adv-x="1007" 
d="M903 131c-29.333 -38.667 -68.666 -69.665 -117.999 -92.998c-40.667 -18.667 -88.334 -32.334 -143.001 -41.001c-36.667 -5.33301 -81.334 -9 -134.001 -11c-74.667 0 -154 4 -238 12c-72 6.66699 -132 15 -180 25l-31 292l44 -9l68 -12
c64.667 -10.667 123.667 -18.334 177 -23.001c70 -6 126.667 -6.33301 170 -1c52.667 6.66699 84 21.667 94 45c14 36.667 -41.333 71 -166 103l-82 22c-32.667 9.33301 -61.334 18.666 -86.001 27.999c-64 24 -113.667 53 -149 87c-36.667 32 -60.667 71.667 -72 119
c-8 32.667 -10 72.334 -6 119.001c8 66.667 29.333 122.667 64 168c29.333 38.667 69.333 69.667 120 93c40 18.667 87.667 32 143 40c36 6 80.667 10 134 12c66 2.66699 136.667 0.666992 212 -6c56 -4.66699 111 -11.667 165 -21l30 -288
c-33.333 6.66699 -72.666 13.334 -117.999 20.001c-58.667 8.66699 -112.334 14 -161.001 16c-61.333 3.33301 -111 1.66602 -149 -5.00098c-45.333 -8 -72.666 -22.667 -81.999 -44c-16 -38.667 40.667 -75.334 170 -110.001l84 -22c33.333 -9.33301 62 -18.666 86 -27.999
c64 -22.667 112 -49 144 -79c34.667 -35.333 57.334 -76 68.001 -122c7.33301 -32.667 9 -72.667 5 -120c-7.33301 -66 -28.333 -121.333 -63 -166z" />
    <glyph glyph-name="t" unicode="t" horiz-adv-x="905" 
d="M825 -4l-170.999 -0.000976562c-34.667 0 -64.334 1 -89.001 3c-66 4.66699 -120 17 -162 37c-51.333 24.667 -90.333 62.334 -117 113.001c-30 57.333 -45 134 -45 230l-2 432h-164v281h164v272l336 57v-329h256l-35 -281h-221v-413c0 -9.33301 0.333008 -17.333 1 -24
c1.33301 -17.333 4 -31.666 8 -42.999c10 -27.333 31.333 -46.333 64 -57c25.333 -10.667 61 -19.334 107 -26.001c8 -1.33301 16.333 -2.33301 25 -3l21 -2l24 -1v-246z" />
    <glyph glyph-name="u" unicode="u" horiz-adv-x="1142" 
d="M73 461l0.000976562 631.002h342v-693c0 -68.667 32.667 -110.334 98 -125.001c28 -2.66699 50 -3.33398 66 -2.00098c52.667 3.33301 101.667 19 147 47l2 773h340v-1092h-280l-17 29c-2 4 -3.66699 7.66699 -5 11c-3.33301 8.66699 -6.33301 18 -9 28l-99 -43
c-30 -10.667 -60 -19 -90 -25c-38 -8 -76 -12.667 -114 -14c-78 -4 -140.667 3 -188 21c-60.667 23.333 -111.334 67.333 -152.001 132c-27.333 56.667 -41 164 -41 322z" />
    <glyph glyph-name="v" unicode="v" horiz-adv-x="1191" 
d="M817 0h-430l-387 1092h367l233 -734l227 734h365z" />
    <glyph glyph-name="w" unicode="w" horiz-adv-x="1714" 
d="M1365 0h-368l-142 483l-145 -483h-367l-319 1090h344l176 -687l160 687h301l160 -687l174 687h346z" />
    <glyph glyph-name="x" unicode="x" horiz-adv-x="1165" 
d="M750 0l-162 385l-162 -385h-381l299 563l-285 527h369l160 -367l155 367h369l-283 -527l297 -563h-376z" />
    <glyph glyph-name="y" unicode="y" horiz-adv-x="1282" 
d="M1250 1090l-46.001 -133.999l-378 -1059c-16.667 -40.667 -34 -76.334 -52 -107.001c-48.667 -82 -111 -141 -187 -177c-72 -30 -160.667 -45 -266 -45c-22 0 -46 0.333008 -72 1l-68 3v281l117 -5c24.667 0 48.334 2.33301 71.001 7l27 6
c6.66699 1.33301 13.667 3.33301 21 6c48 12.667 72 57 72 133l-453 1090h375l254 -674l217 674h368z" />
    <glyph glyph-name="z" unicode="z" horiz-adv-x="1062" 
d="M997 279l-31 -279h-938l494 807h-428l38 283h908l-465 -811h422z" />
    <glyph glyph-name="braceleft" unicode="{" horiz-adv-x="870" 
d="M63 571c36.667 6.66699 68.001 16.9971 94.001 30.9971c28 14.667 49.667 31.334 65 50.001c19.333 24 29 52.333 29 85c0 237.333 15.667 423 47 557c26.667 115.333 66.334 196.333 119.001 243c39.333 35.333 91.666 53.333 156.999 54c12 0 25.667 -0.333008 41 -1
l82 -7c15.333 -1.33301 28.666 -2 39.999 -2h6l20 -209l-72 10c-31.333 0.666992 -57 -11 -77 -35c-26.667 -32 -47 -89.333 -61 -172c-16.667 -97.333 -25 -231.666 -25 -402.999c0 -65.333 -13.333 -118.333 -40 -159c-10.667 -16 -23 -30 -37 -42
c-10.667 -9.33301 -22.667 -17.333 -36 -24c28.667 -11.333 53 -32 73 -62c26.667 -41.333 40 -95.666 40 -162.999c0 -170 8.33301 -303.333 25 -400c14 -82 34.333 -139.333 61 -172c20 -24.667 45.667 -37 77 -37c6 0 12.667 0.666992 20 2l52 6l-20 -202h-6
c-11.333 0 -24.666 -0.666992 -39.999 -2l-82 -7c-15.333 -1.33301 -29 -1.66602 -41 -0.999023c-65.333 0 -117.666 17.667 -156.999 53c-52.667 46 -92.334 126.667 -119.001 242c-31.333 134 -47 319.333 -47 556c0 32.667 -9.66699 61 -29 85
c-14.667 17.333 -36.334 33.666 -65.001 48.999c-26 14 -57.333 24 -94 30v47z" />
    <glyph glyph-name="bar" unicode="|" horiz-adv-x="430" 
d="M94 -121v1655h246v-1655h-246z" />
    <glyph glyph-name="braceright" unicode="}" horiz-adv-x="851" 
d="M792 526c-36.667 -6 -68.001 -15.9961 -94.001 -29.9961c-28 -14.667 -49.667 -31.334 -65 -50.001c-19.333 -24.667 -29 -53.334 -29 -86.001c0 -236.667 -15.667 -422 -47 -556c-26.667 -116 -66 -197 -118 -243c-40 -36 -92.333 -54 -157 -54
c-12.667 0 -26.667 0.333008 -42 1l-82 7c-14.667 1.33301 -27.667 2 -39 2h-7l-20 209l53 -10c6.66699 -1.33301 13 -2 19 -2c31.333 -1.33301 57 10.667 77 36c26.667 33.333 47.334 91.333 62.001 174c16.667 97.333 25 231.333 25 402c0 65.333 13 118.333 39 159
c18.667 28.667 43 50.667 73 66c-30 10 -54.667 30.667 -74 62c-25.333 40.667 -38 95 -38 163c0 169.333 -8.33301 302.666 -25 399.999c-14.667 82 -35.334 139.333 -62.001 172c-20 24.667 -45.667 36.667 -77 36c-5.33301 0 -11.666 -0.333008 -18.999 -1l-53 -7l20 203
h7c11.333 0 24.333 0.666992 39 2l82 7c15.333 0.666992 29.333 1 42 1c64.667 0 117 -17.667 157 -53c52 -46 91.333 -126.667 118 -242c31.333 -134 47 -319.667 47 -557c0 -60 31.333 -105 94 -135c28 -14.667 59.333 -24.334 94 -29.001v-47z" />
    <glyph glyph-name="asciitilde" unicode="~" horiz-adv-x="1327" 
d="M71 352c-5.33301 140 23.668 249 87.001 327c60.667 76 145.667 114 255 114c49.333 0 97.333 -6.66699 144 -20c38 -10 80.667 -26 128 -48l97 -42c33.333 -12.667 60.333 -19 81 -19c59.333 0 95 49.667 107 149h295c4.66699 -148.667 -24.333 -258.667 -87 -330
c-58 -66.667 -144.667 -100 -260 -100c-50.667 0 -101.334 7 -152.001 21c-20 5.33301 -42.333 12.333 -67 21c-9.33301 4 -20 8.33301 -32 13l-33 13c-72 36.667 -125.333 55 -160 55c-59.333 0 -94 -51.333 -104 -154h-299z" />
    <glyph glyph-name="exclamdown" unicode="&#xa1;" horiz-adv-x="530" 
d="M98 1331c6 24.667 17.6699 44 35.0029 58c15.333 13.333 36.666 22.666 63.999 27.999c19.333 4 41.666 6 66.999 6c28 0 52.333 -2 73 -6c30 -5.33301 52 -14.666 66 -27.999c16 -14 27 -33.667 33 -59c4 -18 6 -38.667 6 -62c0 -24 -2 -44.667 -6 -62
c-6 -26 -17 -45.667 -33 -59c-14.667 -15.333 -36 -26.333 -64 -33c-19.333 -4 -44.333 -6 -75 -6c-26.667 0 -49.334 2 -68.001 6c-26.667 6.66699 -47.667 17.667 -63 33c-17.333 13.333 -29 32.333 -35 57c-4 16 -6 37.333 -6 64s2 47.667 6 63zM86.0029 8h365l-43 1014
h-283z" />
    <glyph glyph-name="cent" unicode="&#xa2;" horiz-adv-x="1024" 
d="M387 614l-0.00195312 -138.999c0 -94 9.33301 -148.667 28 -164c12 -14 39 -25.333 81 -34c37.333 -7.33301 80 -11 128 -11h25c70.667 0 173 13 307 39h2v-274c0 -7.33301 -63.667 -19 -191 -35l-55 -6c-8 -1.33301 -15.333 -2 -22 -2v-199h-236v207
c-171.333 24.667 -288.666 106.667 -351.999 246c-24.667 50.667 -37 142 -37 274v68c0 155.333 22 263 66 323c66.667 106 174.334 170.333 323.001 193v205h236v-199l129 -13c48 -6.66699 94.333 -15.334 139 -26.001v-276c-130 25.333 -239.333 38 -328 38
c-108.667 0 -179 -13.667 -211 -41c-21.333 -13.333 -32 -71.333 -32 -174z" />
    <glyph glyph-name="sterling" unicode="&#xa3;" horiz-adv-x="1259" 
d="M1132 1489l33.001 -291.003c-36 13.333 -85.333 27 -148 41c-72 16.667 -128.667 25 -170 25c-80 0 -139.667 -21.667 -179 -65c-33.333 -37.333 -50 -86.666 -50 -147.999c0 -51.333 8.66699 -111.666 26 -180.999h336v-239h-303
c2.66699 -64 -4.66602 -120 -21.999 -168c-28.667 -68.667 -68.334 -124 -119.001 -166v-4h651v-293h-1118v188c71.333 29.333 133 74.333 185 135c58 68.667 87 140 87 214l1 47c-0.666992 18 -2.33398 33.667 -5.00098 47h-243v239h196c-6.66699 29.333 -11 61.333 -13 96
c-2 26.667 -3 59.667 -3 99c0 144.667 50.667 261.334 152 350.001c102 88.667 236.333 133 403 133c117.333 0 218.333 -19.667 303 -59z" />
    <glyph glyph-name="currency" unicode="&#xa4;" horiz-adv-x="1333" 
d="M1105 1180l154 -148.001l-199 -164l26 -45c10 -18 18 -36 24 -54c16 -44.667 24 -92 24 -142c0 -56 -8.33301 -107 -25 -153c-13.333 -37.333 -32.333 -71.666 -57 -102.999l195 -172l-150 -148l-168 195c-76 -58.667 -164.667 -88 -266 -88
c-105.333 0 -194 27.333 -266 82l-170 -189l-148 148l191 170c-54.667 62 -82 145 -82 249c0 54 8 103.333 24 148c13.333 36 32 70 56 102l-199 162l156 150l176 -181c72.667 50.667 160 76 262 76c108 0 197.333 -24.667 268 -74zM520 431.999
c40 -39.333 87.667 -59 143 -59c54 0 101 20.333 141 61c46.667 48 70 112.333 70 193c0 155.333 -70.333 233 -211 233c-142 0 -213 -79.667 -213 -239c0 -80 23.333 -143 70 -189z" />
    <glyph glyph-name="yen" unicode="&#xa5;" horiz-adv-x="1337" 
d="M1077 629v-154h-197v-78h197v-151h-197l-2 -246h-446l4 246h-197v151h197v78h-197v154h185l-418 905h442l215 -576l217 576h449l-432 -905h180z" />
    <glyph glyph-name="brokenbar" unicode="&#xa6;" horiz-adv-x="98" 
 />
    <glyph glyph-name="section" unicode="&#xa7;" horiz-adv-x="1425" 
d="M1307 212c4.66699 -20.667 7.32812 -43.665 7.99512 -68.998l-3 -61c-21.333 -138.667 -97 -235 -227 -289c-41.333 -16 -87 -28.667 -137 -38c-41.333 -8 -87.333 -13.667 -138 -17c-13.333 -2.66699 -28.666 -4 -45.999 -4h-42
c-9.33301 -2.66699 -18.666 -4.33398 -27.999 -5.00098l-45 1c-83.333 3.33301 -157.666 7.33301 -222.999 12c-72.667 6 -133 12.667 -181 20c-24.667 3.33301 -42.334 7.66602 -53.001 12.999l-37 278c55.333 -10.667 123.333 -20.334 204 -29.001
c103.333 -12 195 -18 275 -18c153.333 0 242.333 27.333 267 82c10 26 8.33301 48.667 -5 68c-9.33301 21.333 -43.333 42.333 -102 63l-70 24l-165 41c-31.333 7.33301 -58.666 14 -81.999 20c-64 18 -117.333 37.333 -160 58c-46 17.333 -86.333 40 -121 68
c-70.667 63.333 -97.667 139.333 -81 228c6 33.333 18.333 68 37 104c12.667 26 29.334 54 50.001 84c8.66699 14.667 22.334 30.334 41.001 47.001l-5 4c-1.33301 2 -3 3.33301 -5 4c-44 36.667 -72.667 82.334 -86 137.001c-9.33301 40 -10.666 83.667 -3.99902 131
c16 142 90.333 238.333 223 289c38 18 82.333 31.333 133 40c36.667 6.66699 83.667 11.667 141 15l93 5h65c74.667 0 151 -3 229 -9c62.667 -5.33301 124.334 -12 185.001 -20v-4l24 -3c12 -1.33301 20.333 -2.33301 25 -3l33 -287c-53.333 11.333 -120.333 22 -201 32
c-48 6 -94 10.333 -138 13c-50.667 4 -96.667 6 -138 6c-154.667 0 -244.334 -26.667 -269.001 -80c-10 -26.667 -8 -49 6 -67c10.667 -26.667 43.667 -49.334 99 -68.001c18 -5.33301 43.333 -11.666 76 -18.999l244 -59c64.667 -18.667 118.334 -39 161.001 -61
c37.333 -14.667 77.666 -38 120.999 -70c70 -62.667 97.667 -138.334 83 -227.001c-6 -34 -18 -69 -36 -105c-14.667 -28.667 -32.334 -55.667 -53.001 -81c-10.667 -18.667 -21.667 -34 -33 -46l2 -3c0.666992 -2 2 -4.33301 4 -7c44 -36.667 72.333 -82.667 85 -138z
M992.994 629.002c-34 31.333 -115.332 61.332 -243.999 89.999c-65.333 14 -132.333 26.333 -201 37c-18 -15.333 -30.667 -27.333 -38 -36c-12.667 -14.667 -20.334 -28.667 -23.001 -42c-10 -22.667 -4.66699 -44.667 16 -66c27.333 -32 109.333 -60.667 246 -86
c28.667 -10 60.667 -18.667 96 -26l97 -15c30 14.667 52.333 39.334 67 74.001c6 26 0.666992 49.333 -16 70z" />
    <glyph glyph-name="dieresis" unicode="&#xa8;" horiz-adv-x="708" 
d="M-81 1143v258h258v-258h-258zM320 1143v258h258v-258h-258z" />
    <glyph glyph-name="copyright" unicode="&#xa9;" horiz-adv-x="1050" 
d="M538 371c-117.333 0 -188.334 36.6689 -213.001 110.002c-12.667 17.333 -19 57 -19 119v39c0 38.667 2.66699 70 8 94c4.66699 19.333 11 33.666 19 42.999l2 2c34.667 57.333 102.334 86 203.001 86c58.667 0 109 -5.33301 151 -16v-84c-34 4.66699 -59.333 8 -76 10
c-24 2.66699 -43 4 -57 4c-48 0 -81.333 -8 -100 -24c-19.333 -16.667 -29 -51 -29 -103v-69c0 -50 8.33301 -82.333 25 -97c14.667 -18.667 48.667 -28 102 -28h12c18 0 35.667 0.666992 53 2l70 10v-86l-55 -8c-5.33301 -0.666992 -10 -1.33398 -14 -2.00098
c-10 -1.33301 -22.667 -2 -38 -2h-44zM832.999 303.002c-86.667 -87.333 -190.667 -131 -312 -131c-123.333 0 -228.333 43.667 -315 131c-86 87.333 -129 192.333 -129 315s43 227 129 313c86.667 86.667 191.667 130 315 130c121.333 0 225.333 -43.333 312 -130
c87.333 -86.667 131 -191 131 -313c0 -122.667 -43.667 -227.667 -131 -315zM782.999 878.002c-72 71.333 -159.333 107 -262 107c-102 0 -189.333 -35.667 -262 -107c-72 -71.333 -108 -158 -108 -260s36 -189.333 108 -262c72.667 -72 160 -108 262 -108
c102.667 0 190 36 262 108c71.333 72.667 107 160 107 262s-35.667 188.667 -107 260z" />
    <glyph glyph-name="ordfeminine" unicode="&#xaa;" horiz-adv-x="466" 
 />
    <glyph glyph-name="guillemotleft" unicode="&#xab;" horiz-adv-x="1644" 
d="M1157 -74l-482 615l482 612h428l-488 -612l488 -615h-428zM544 -74l-481 615l481 612h428l-487 -612l487 -615h-428z" />
    <glyph glyph-name="registered" unicode="&#xae;" horiz-adv-x="1044" 
d="M721 1017l21.999 -76l10 -23h-111l-15 44c-8 25.333 -15.333 52 -22 80c-11.333 44.667 -47.333 70 -108 76h-58v-200h-108v520c42.667 8 98.667 12 168 12c82.667 0 143.334 -14.333 182.001 -43c34 -25.333 51 -60 51 -104c0 -81.333 -35.333 -132 -106 -152v-2
c43.333 -17.333 70 -45.333 80 -84c4.66699 -14 9.66699 -30 15 -48zM506.999 1188c88 0 127.667 34 119 102c-6 57.333 -45 86 -117 86l-70 -2v-186h68zM837.999 1486c86.667 -86.667 130 -190.667 130 -312c0 -123.333 -43.333 -228.666 -130 -315.999
s-191.667 -131 -315 -131c-122.667 0 -227.334 43.667 -314.001 131s-130 192.666 -130 315.999c0 121.333 43.333 225.333 130 312s191.334 130 314.001 130c123.333 0 228.333 -43.333 315 -130zM784.999 911c71.333 72.667 107 160.335 107 263.002
c0 101.333 -35.667 187.666 -107 258.999c-72 71.333 -159.333 107 -262 107c-101.333 0 -188.333 -35.667 -261 -107c-72.667 -72 -109 -158.333 -109 -259c0 -102.667 36.333 -190.334 109 -263.001c72.667 -72 159.667 -108 261 -108c102.667 0 190 36 262 108z" />
    <glyph glyph-name="degree" unicode="&#xb0;" horiz-adv-x="393" 
 />
    <glyph glyph-name="plusminus" unicode="&#xb1;" horiz-adv-x="1224" 
d="M758 653v-389h-283v389h-389v281h389v387h283v-387h389v-281h-389zM86 170v-281h1061v281h-1061z" />
    <glyph glyph-name="uni00B2" unicode="&#xb2;" horiz-adv-x="753" 
d="M32 594v146.999c118.667 101.333 215 192.333 289 273c86 94 129 160 129 198c0 24.667 -5 43.334 -15 56.001c-13.333 17.333 -34.333 26 -63 26c-30 0 -53.5 -10.167 -70.5 -30.5s-27.5 -45.5 -31.5 -75.5l-222 49c20.667 75.333 61.334 134.5 122.001 177.5
s134.667 64.5 222 64.5c88 0 159.667 -18.667 215 -56c67.333 -43.333 101 -106.666 101 -189.999c0 -72.667 -34.333 -148.334 -103 -227.001c-48.667 -57.333 -111.334 -111.333 -188.001 -162l-66 -49l336 -4v-197h-655z" />
    <glyph glyph-name="uni00B3" unicode="&#xb3;" horiz-adv-x="753" 
d="M237 954l0.000976562 159.999h70c30 0 57 7.66699 81 23c30.667 18.667 46 43.667 46 75c0 27.333 -7.66699 50 -23 68s-35 27 -59 27c-32 0 -56.833 -7.5 -74.5 -22.5s-31.167 -36.167 -40.5 -63.5l-193 69c63.333 126 176.666 189 339.999 189
c79.333 0 148.333 -20.667 207 -62c67.333 -46 101 -107.333 101 -184c0 -56 -20.667 -101 -62 -135c-30 -24.667 -71 -44 -123 -58c56 -2.66699 102.333 -19 139 -49c44 -35.333 66 -85.666 66 -150.999c0 -82 -38.333 -147 -115 -195c-68 -42 -149.667 -63 -245 -63
c-152 0 -260 60 -324 180l188 82c18 -31.333 35.5 -54.166 52.5 -68.499s41.833 -21.5 74.5 -21.5c74 0 111 32.667 111 98c0 39.333 -14.667 66.166 -44 80.499s-68 21.5 -116 21.5h-57z" />
    <glyph glyph-name="acute" unicode="&#xb4;" horiz-adv-x="344" 
d="M399 643h-41l213 217h133z" />
    <glyph glyph-name="uni00B5" unicode="&#xb5;" horiz-adv-x="983" 
 />
    <glyph glyph-name="paragraph" unicode="&#xb6;" horiz-adv-x="1572" 
d="M642 700h-14c-118 0 -232.333 40.667 -343 122c-60.667 44 -108.334 95.333 -143.001 154c-39.333 66.667 -59.666 140 -60.999 220c-2.66699 76 9 146 35 210c30 74 78.333 137.333 145 190c75.333 60.667 173 107 293 139c133.333 35.333 292.333 53 477 53
c204.667 0 359 -9.66699 463 -29v-1872h-315v1659h-229v-1659h-308v813z" />
    <glyph glyph-name="ch270" unicode="&#xb7;" horiz-adv-x="505" 
 />
    <glyph glyph-name="ch270" unicode="&#x2219;" horiz-adv-x="505" 
 />
    <glyph glyph-name="cedilla" unicode="&#xb8;" horiz-adv-x="407" 
d="M227 -164c-22 -12 -45.999 -18 -71.999 -18c-53.333 0 -101 10.667 -143 32v25c15.333 -9.33301 33.666 -14 54.999 -14c18 0 35 3.66699 51 11c19.333 9.33301 29 22 29 38c0 16.667 -11.667 31 -35 43l50 70h45l-37 -54c64 -6 96 -31 96 -75c0 -24 -13 -43.333 -39 -58
z" />
    <glyph glyph-name="uni00B9" unicode="&#xb9;" horiz-adv-x="518" 
 />
    <glyph glyph-name="ordmasculine" unicode="&#xba;" horiz-adv-x="407" 
d="M688 778c-58 -65.333 -117 -98.001 -177 -98.001c-61.333 0 -92 33.333 -92 100c0 64.667 27.333 127.667 82 189c56 64 116 96 180 96c61.333 0 92 -33.333 92 -100c0 -61.333 -28.333 -123.666 -85 -186.999zM646 1030c-39.333 0 -75 -33.667 -107 -101
c-28 -57.333 -42 -108.333 -42 -153c0 -42 16.333 -63 49 -63c38 0 73 33.667 105 101c28 59.333 42 110.333 42 153c0 42 -15.667 63 -47 63z" />
    <glyph glyph-name="guillemotright" unicode="&#xbb;" horiz-adv-x="1662" 
d="M503 1155l481 -614l-481 -613h-428l487 613l-487 614h428zM1115 1155l482 -614l-482 -613h-428l488 613l-488 614h428z" />
    <glyph glyph-name="onequarter" unicode="&#xbc;" horiz-adv-x="1718" 
 />
    <glyph glyph-name="onehalf" unicode="&#xbd;" horiz-adv-x="1718" 
 />
    <glyph glyph-name="threequarters" unicode="&#xbe;" horiz-adv-x="1957" 
 />
    <glyph glyph-name="Agrave" unicode="&#xc0;" horiz-adv-x="1550" 
d="M682 1620l-256 315h288l148 -315h-180zM563 1534l-557 -1534h432l72 236h534l72 -236h432l-557 1534h-428zM776 1178l195 -660h-390z" />
    <glyph glyph-name="Aacute" unicode="&#xc1;" horiz-adv-x="1550" 
d="M664 1620l147 315h289l-256 -315h-180zM563 1534l-557 -1534h432l72 236h534l72 -236h432l-557 1534h-428zM776 1178l195 -660h-390z" />
    <glyph glyph-name="Acircumflex" unicode="&#xc2;" horiz-adv-x="1550" 
d="M1105 1620h-215l-115 139l-113 -139h-217l217 282h228zM1112 0l-72 236h-532l-72 -236h-432l555 1534h430l557 -1534h-434zM774 1178l-197 -660h392z" />
    <glyph glyph-name="Atilde" unicode="&#xc3;" horiz-adv-x="1550" 
d="M471 1604c-7.33301 149.333 51.668 224.001 177.001 224.001c22.667 0 46.667 -3.33301 72 -10l67 -23l12 -5l12 -6c9.33301 -4.66699 17 -8.33398 23 -11.001c17.333 -7.33301 32 -11 44 -11c32.667 0 51.667 25.333 57 76h149c5.33301 -147.333 -53.667 -221 -177 -221
c-26 0 -52.333 4 -79 12c-10 3.33301 -21.333 7.33301 -34 12c-4.66699 1.33301 -10.334 3.33301 -17.001 6l-43 17c-9.33301 4 -16 6.66699 -20 8c-12.667 4.66699 -25 7 -37 7c-30 0 -47 -25 -51 -75h-155zM561.001 1534l-557 -1534h432l74 236h534l70 -236h432l-555 1534
h-430zM776.001 1178l195 -660h-392z" />
    <glyph glyph-name="Adieresis" unicode="&#xc4;" horiz-adv-x="1548" 
d="M1110 1696c-10.667 -12 -27.9961 -20.667 -51.9961 -26c-9.33301 -2 -19.333 -3.33301 -30 -4c-8.66699 -0.666992 -17.667 -1 -27 -1c-8.66699 0 -17.334 0.333008 -26.001 1c-10.667 0.666992 -20.334 2 -29.001 4c-23.333 5.33301 -41 14 -53 26
c-22 16 -33 48.667 -33 98l1 25l4 26c5.33301 20 14.666 35 27.999 45c20.667 19.333 56.667 29 108 29c53.333 0 89.666 -9.66699 108.999 -29c14 -10 23.667 -25 29 -45c2 -8 3.66699 -16.667 5 -26c0.666992 -7.33301 1 -15.666 1 -24.999
c0 -48.667 -11.667 -81.334 -35 -98.001zM684.004 1794c0 -49.333 -11 -82 -33 -98c-10.667 -12 -28.334 -20.667 -53.001 -26c-9.33301 -2 -19.666 -3.33301 -30.999 -4c-8.66699 -0.666992 -17.334 -1 -26.001 -1c-9.33301 0 -18 0.333008 -26 1
c-10.667 0.666992 -20.667 2 -30 4c-22.667 5.33301 -41 14 -55 26c-20.667 17.333 -31 50 -31 98c0 8.66699 0.333008 17 1 25c1.33301 9.33301 3 18 5 26c4.66699 20 13 35 25 45c24 19.333 61 29 111 29c54.667 0 91.334 -9.66699 110.001 -29c14 -10 23.333 -25 28 -45
l4 -26zM557.004 1534l-555 -1534h430l72 236h534l72 -236h434l-557 1534h-430zM772.004 1178l195 -660h-392z" />
    <glyph glyph-name="AE" unicode="&#xc6;" horiz-adv-x="2269" 
 />
    <glyph glyph-name="Ccedilla" unicode="&#xc7;" horiz-adv-x="1222" 
d="M456 864l-0.000976562 -235c0 -71.333 6.66699 -130 20 -176c10.667 -36.667 25 -64 43 -82c37.333 -52 128.333 -78 273 -78h35c64 0 171 11.667 321 35v-303c-44 -9.33301 -97.333 -17.666 -160 -24.999c-58.667 -9.33301 -131.667 -14 -219 -14l-28 -54
c88.667 -20 133 -67 133 -141c0 -58.667 -23.333 -103 -70 -133c-38 -24.667 -87 -37 -147 -37c-62.667 0 -113.334 11.667 -152.001 35l35 111c32.667 -18 66 -27 100 -27c44 0 66 15.667 66 47s-47 54 -141 68l61 137c-245.333 26 -412.666 141.333 -501.999 346
c-34 64.667 -51 191.667 -51 381v100c0 221.333 29.333 369 88 443c108.667 186.667 309.334 280 602.001 280c64.667 0 126.667 -3 186 -9c66.667 -6.66699 133 -17.334 199 -32.001v-303c-151.333 24.667 -267.333 37 -348 37c-141.333 0 -232 -24 -272 -72
c-48 -27.333 -72 -127 -72 -299z" />
    <glyph glyph-name="Egrave" unicode="&#xc8;" horiz-adv-x="1038" 
d="M466 913h400l-25 -280h-375v-330h502v-303h-897v1536h897v-297h-502v-326zM444 1620l-256 315h289l147 -315h-180z" />
    <glyph glyph-name="Eacute" unicode="&#xc9;" horiz-adv-x="1038" 
d="M466 913h400l-25 -280h-375v-330h502v-303h-897v1536h897v-297h-502v-326zM388 1620l148 315h288l-256 -315h-180z" />
    <glyph glyph-name="Ecircumflex" unicode="&#xca;" horiz-adv-x="1038" 
d="M466 913h400l-25 -280h-375v-330h502v-303h-897v1536h897v-297h-502v-326zM850 1620h-216l-114 139l-113 -139h-218l218 282h227z" />
    <glyph glyph-name="Edieresis" unicode="&#xcb;" horiz-adv-x="1038" 
d="M964 1534h-891v-1534h891v297h-500v338h367l35 278h-402v322h500v299zM880 1740c-6 -19.333 -15 -33.9961 -27 -43.9961c-25.333 -22 -62.666 -33 -111.999 -33c-8.66699 0 -17.334 0.333008 -26.001 1c-10.667 1.33301 -20.667 3 -30 5c-22.667 6 -39.667 15 -51 27
c-13.333 10 -23 24.667 -29 44c-2 7.33301 -3.66699 15.666 -5 24.999c-0.666992 7.33301 -1 15.666 -1 24.999s0.333008 17.666 1 24.999c1.33301 10 3 19 5 27c6 20.667 15.667 36 29 46c19.333 19.333 55 29 107 29c50.667 0 88 -9.66699 112 -29
c12 -10 21 -25.333 27 -46c2 -8 3.66699 -17 5 -27c0.666992 -8 1 -16.333 1 -25c0 -18.667 -2 -35.334 -6 -50.001zM424 1765c-0.666992 -9.33301 -2.33301 -17.6689 -5 -25.002c-5.33301 -19.333 -15 -34 -29 -44c-11.333 -12 -28.333 -21 -51 -27
c-9.33301 -2 -19 -3.66699 -29 -5c-8.66699 -0.666992 -17.334 -1 -26.001 -1c-53.333 0 -90.333 11 -111 33c-13.333 10 -22.666 24.667 -27.999 44l-4 25v50l4 27c5.33301 20.667 14.666 36 27.999 46c19.333 19.333 56.333 29 111 29c50 0 85.333 -9.66699 106 -29
c14 -10 23.667 -25.333 29 -46c2.66699 -8 4.33398 -17 5.00098 -27c0.666992 -7.33301 1 -15.666 1 -24.999s-0.333008 -17.666 -1 -24.999z" />
    <glyph glyph-name="Igrave" unicode="&#xcc;" horiz-adv-x="538" 
d="M466 0h-391v1536h391v-1536zM177 1620l-256 315h289l147 -315h-180z" />
    <glyph glyph-name="Iacute" unicode="&#xcd;" horiz-adv-x="538" 
d="M466 0h-391v1536h391v-1536zM160 1620l148 315h288l-256 -315h-180z" />
    <glyph glyph-name="Icircumflex" unicode="&#xce;" horiz-adv-x="753" 
d="M573 0h-396v1534h396v-1534zM712 1622h-223l-113 141l-115 -141h-223l223 287h228z" />
    <glyph glyph-name="Idieresis" unicode="&#xcf;" horiz-adv-x="815" 
d="M774 1765c-1.33301 -9.33301 -3.00098 -17.665 -5.00098 -24.998c-4.66699 -20 -13 -35.333 -25 -46c-11.333 -11.333 -28.666 -19.666 -51.999 -24.999c-9.33301 -2 -19.333 -3.66699 -30 -5c-9.33301 -0.666992 -18.333 -1 -27 -1c-51.333 0 -88 10.333 -110 31
c-14 10.667 -23.667 26 -29 46c-2.66699 7.33301 -4.33398 15.666 -5.00098 24.999c-0.666992 7.33301 -1 15.666 -1 24.999s0.333008 17.666 1 24.999c0.666992 10 2.33398 19 5.00098 27c5.33301 20.667 15 36 29 46c20.667 19.333 57.334 29 110.001 29
c53.333 0 89.666 -9.66699 108.999 -29c12 -10 20.333 -25.333 25 -46c2 -8 3.66699 -17 5 -27c0.666992 -8 1 -16.333 1 -25s-0.333008 -17 -1 -25zM316.999 1765c-1.33301 -9.33301 -2.99805 -17.6699 -4.99805 -25.0029c-6 -20 -16.333 -35.333 -31 -46
c-11.333 -11.333 -28.333 -19.666 -51 -24.999c-9.33301 -2 -19 -3.66699 -29 -5c-9.33301 -0.666992 -18 -1 -26 -1c-52 0 -88.333 10.333 -109 31c-13.333 10.667 -22.666 26 -27.999 46l-4 25v50l4 27c5.33301 20.667 14.666 36 27.999 46
c19.333 19.333 55.666 29 108.999 29c51.333 0 86.666 -9.66699 105.999 -29c14.667 -10 25 -25.333 31 -46c2 -8 3.66699 -17 5 -27c0.666992 -7.33301 1 -15.666 1 -24.999s-0.333008 -17.666 -1 -24.999zM207.001 -0.00292969h391v1534h-391v-1534z" />
    <glyph glyph-name="Dslash" unicode="&#xd0;" horiz-adv-x="1574" 
d="M1479 1076c14.667 -72.667 22.001 -161.667 22.001 -267v-96c0 -166.667 -17 -294.334 -51 -383.001c-88 -229.333 -298.333 -344 -631 -344c-78 0 -155.667 0.333008 -233 1c-62 0.666992 -123.667 1.66699 -185 3l-88 2c-35.333 0.666992 -62 1.33398 -80 2.00098v672
h-187v184h187v678l584 6c163.333 0 296.666 -27.667 399.999 -83c86 -46 152 -112 198 -198c28.667 -51.333 50 -110.333 64 -177zM1120 858c0 150.667 -23.333 250.333 -70 299c-42.667 45.333 -132.667 68 -270 68c-58 0 -113.333 -2.66699 -166 -8v-367h215v-184h-215
v-371c44 -5.33301 89 -8 135 -8h41c137.333 0 227 25 269 75c16.667 19.333 30 47.333 40 84c14 48 21 107 21 177v235z" />
    <glyph glyph-name="Dslash" unicode="&#x110;" horiz-adv-x="1574" 
d="M1479 1076c14.667 -72.667 22.001 -161.667 22.001 -267v-96c0 -166.667 -17 -294.334 -51 -383.001c-88 -229.333 -298.333 -344 -631 -344c-78 0 -155.667 0.333008 -233 1c-62 0.666992 -123.667 1.66699 -185 3l-88 2c-35.333 0.666992 -62 1.33398 -80 2.00098v672
h-187v184h187v678l584 6c163.333 0 296.666 -27.667 399.999 -83c86 -46 152 -112 198 -198c28.667 -51.333 50 -110.333 64 -177zM1120 858c0 150.667 -23.333 250.333 -70 299c-42.667 45.333 -132.667 68 -270 68c-58 0 -113.333 -2.66699 -166 -8v-367h215v-184h-215
v-371c44 -5.33301 89 -8 135 -8h41c137.333 0 227 25 269 75c16.667 19.333 30 47.333 40 84c14 48 21 107 21 177v235z" />
    <glyph glyph-name="Ntilde" unicode="&#xd1;" horiz-adv-x="1378" 
d="M364 1604c-8 158 54.001 237.001 186.001 237.001c25.333 0 51.333 -3.66699 78 -11l70 -24l53 -23c17.333 -7.33301 31.666 -11 42.999 -11c32.667 0 52.667 26.333 60 79h159c6 -155.333 -56.667 -233 -188 -233c-28 0 -56 4 -84 12
c-10.667 3.33301 -23 7.66602 -37 12.999c-4 2 -9.66699 4.33301 -17 7l-44 18c-9.33301 4 -16.333 6.66699 -21 8c-12.667 4.66699 -25.667 7 -39 7c-32.667 0 -51 -26.333 -55 -79h-164zM921.001 725.001l-465 809h-393v-1534h393v817l465 -817h393v1534h-393v-809z" />
    <glyph glyph-name="Ograve" unicode="&#xd2;" horiz-adv-x="1435" 
d="M1400 817l-0.00195312 -99.9971c0 -180 -16.333 -305.667 -49 -377c-52 -122 -132 -211.333 -240 -268c-103.333 -56 -233.666 -84 -390.999 -84s-287.666 28 -390.999 84c-109.333 59.333 -189.333 148.666 -240 267.999c-34 74 -51 199.667 -51 377v100
c0 217.333 29.333 365.666 88 444.999c50 85.333 117.667 150.666 203 195.999c104 57.333 234.333 86 391 86c156 0 286.333 -28.667 391 -86c82 -44 149.667 -109.333 203 -196c57.333 -82 86 -230.333 86 -445zM719.998 297.003c124 2 202.668 26.666 236.001 73.999
c38 30.667 57 119.334 57 266.001v233c0 171.333 -21.333 270.333 -64 297c-40.667 41.333 -117 64 -229 68c-112 -4 -188.333 -26.667 -229 -68c-48 -30 -72 -126 -72 -288v-236c0 -147.333 21 -238 63 -272c33.333 -47.333 112.666 -72 237.999 -74zM633.999 1620
l-256 315h288l148 -315h-180z" />
    <glyph glyph-name="Oacute" unicode="&#xd3;" horiz-adv-x="1435" 
d="M1400 817l-0.00195312 -99.9971c0 -180 -16.333 -305.667 -49 -377c-52 -122 -132 -211.333 -240 -268c-103.333 -56 -233.666 -84 -390.999 -84s-287.666 28 -390.999 84c-109.333 59.333 -189.333 148.666 -240 267.999c-34 74 -51 199.667 -51 377v100
c0 217.333 29.333 365.666 88 444.999c50 85.333 117.667 150.666 203 195.999c104 57.333 234.333 86 391 86c156 0 286.333 -28.667 391 -86c82 -44 149.667 -109.333 203 -196c57.333 -82 86 -230.333 86 -445zM719.998 297.003c124 2 202.668 26.666 236.001 73.999
c38 30.667 57 119.334 57 266.001v233c0 171.333 -21.333 270.333 -64 297c-40.667 41.333 -117 64 -229 68c-112 -4 -188.333 -26.667 -229 -68c-48 -30 -72 -126 -72 -288v-236c0 -147.333 21 -238 63 -272c33.333 -47.333 112.666 -72 237.999 -74zM567.999 1620l147 315
h289l-256 -315h-180z" />
    <glyph glyph-name="Ocircumflex" unicode="&#xd4;" horiz-adv-x="1435" 
d="M1400 817l-0.00195312 -99.9971c0 -180 -16.333 -305.667 -49 -377c-52 -122 -132 -211.333 -240 -268c-103.333 -56 -233.666 -84 -390.999 -84s-287.666 28 -390.999 84c-109.333 59.333 -189.333 148.666 -240 267.999c-34 74 -51 199.667 -51 377v100
c0 217.333 29.333 365.666 88 444.999c50 85.333 117.667 150.666 203 195.999c104 57.333 234.333 86 391 86c156 0 286.333 -28.667 391 -86c82 -44 149.667 -109.333 203 -196c57.333 -82 86 -230.333 86 -445zM719.998 297.003c124 2 202.668 26.666 236.001 73.999
c38 30.667 57 119.334 57 266.001v233c0 171.333 -21.333 270.333 -64 297c-40.667 41.333 -117 64 -229 68c-112 -4 -188.333 -26.667 -229 -68c-48 -30 -72 -126 -72 -288v-236c0 -147.333 21 -238 63 -272c33.333 -47.333 112.666 -72 237.999 -74zM1049 1620h-215
l-115 139l-113 -139h-217l217 282h228z" />
    <glyph glyph-name="Otilde" unicode="&#xd5;" horiz-adv-x="1435" 
d="M1400 817l-0.00195312 -99.9971c0 -180 -16.333 -305.667 -49 -377c-52 -122 -132 -211.333 -240 -268c-103.333 -56 -233.666 -84 -390.999 -84s-287.666 28 -390.999 84c-109.333 59.333 -189.333 148.666 -240 267.999c-34 74 -51 199.667 -51 377v100
c0 217.333 29.333 365.666 88 444.999c50 85.333 117.667 150.666 203 195.999c104 57.333 234.333 86 391 86c156 0 286.333 -28.667 391 -86c82 -44 149.667 -109.333 203 -196c57.333 -82 86 -230.333 86 -445zM719.998 297.003c124 2 202.668 26.666 236.001 73.999
c38 30.667 57 119.334 57 266.001v233c0 171.333 -21.333 270.333 -64 297c-40.667 41.333 -117 64 -229 68c-112 -4 -188.333 -26.667 -229 -68c-48 -30 -72 -126 -72 -288v-236c0 -147.333 21 -238 63 -272c33.333 -47.333 112.666 -72 237.999 -74zM404.999 1604
c-8 149.333 50.668 224.001 176.001 224.001c22.667 0 47 -3.33301 73 -10l66 -23l13 -5l11 -6c9.33301 -4.66699 17 -8.33398 23 -11.001c17.333 -7.33301 32 -11 44 -11c32.667 0 51.667 25.333 57 76h149c5.33301 -147.333 -53.667 -221 -177 -221
c-26 0 -52.333 4 -79 12c-10 3.33301 -21.333 7.33301 -34 12c-4.66699 1.33301 -10.334 3.33301 -17.001 6l-43 17c-9.33301 4 -16 6.66699 -20 8c-12.667 4.66699 -25 7 -37 7c-30 0 -46.667 -25 -50 -75h-155z" />
    <glyph glyph-name="Odieresis" unicode="&#xd6;" horiz-adv-x="1427" 
d="M1085 1790c0 -49.333 -11.001 -82 -33.001 -98c-10.667 -11.333 -27.667 -19.333 -51 -24c-9.33301 -2 -19 -3.33301 -29 -4c-8.66699 -0.666992 -17.667 -1 -27 -1c-21.333 0 -40.666 1.66699 -57.999 5c-24 4.66699 -42 12.667 -54 24c-12 10 -20.667 25.333 -26 46
c-2 8 -3.33301 17 -4 27c-0.666992 8 -1 16.333 -1 25s0.333008 17 1 25c0.666992 9.33301 2 18 4 26c5.33301 20 14 35 26 45c20 20.667 57.333 31 112 31c52.667 0 88.334 -10.333 107.001 -31c13.333 -10 22.666 -25 27.999 -45l4 -26zM592.999 1692
c-12 -11.333 -29.999 -19.333 -53.999 -24c-9.33301 -2 -19.333 -3.33301 -30 -4c-8.66699 -0.666992 -17.334 -1 -26.001 -1c-9.33301 0 -18.333 0.333008 -27 1c-10.667 0.666992 -20.334 2 -29.001 4c-23.333 4.66699 -41 12.667 -53 24
c-13.333 10 -22.666 25.333 -27.999 46l-4 27v50l4 26c5.33301 20 14.666 35 27.999 45c20.667 20.667 57 31 109 31c52.667 0 89.334 -10.333 110.001 -31c14 -10 23.667 -25 29 -45c2 -8 3.66699 -16.667 5 -26c0.666992 -7.33301 1 -15.666 1 -24.999
c0 -48.667 -11.667 -81.334 -35 -98.001zM714 1546c-155.333 -2 -286.331 -31.333 -392.998 -88c-86 -50.667 -153 -116.667 -201 -198c-58.667 -81.333 -88 -229.666 -88 -444.999v-96c0 -182 18.333 -309.667 55 -383c47.333 -118 125.333 -207.333 234 -268
c103.333 -54.667 234.333 -82 393 -82c160 0 289.667 27.333 389 82c112.667 60.667 192.667 150 240 268c34 74 51 201.667 51 383v96c0 217.333 -29.333 365.666 -88 444.999c-46.667 80.667 -114.334 146.667 -203.001 198c-102.667 56.667 -232.334 86 -389.001 88z
M1007 635c0 -148 -18.333 -236.666 -55 -265.999c-34.667 -46.667 -114 -72 -238 -76c-124 4 -203.333 29.333 -238 76c-42 31.333 -63 122.666 -63 273.999v231c0 162.667 24 259 72 289c38 42.667 114.333 66 229 70c112.667 -4 189 -27.333 229 -70
c42.667 -26.667 64 -125.667 64 -297v-231z" />
    <glyph glyph-name="Ugrave" unicode="&#xd9;" horiz-adv-x="1507" 
d="M1437 719c0 -176.667 -17.666 -303.667 -52.999 -381c-52 -122 -131.333 -210.667 -238 -266c-108 -57.333 -238.333 -86 -391 -86s-283 28.667 -391 86c-111.333 59.333 -191.333 148 -240 266c-34 70 -51 197 -51 381v815h381v-893c0 -146 21 -236 63 -270
c35.333 -48 114.666 -74 237.999 -78c124 4 202.667 30 236 78c39.333 34 59 122 59 264v899h387v-815zM691.001 1620l-256 315h289l147 -315h-180z" />
    <glyph glyph-name="Uacute" unicode="&#xda;" horiz-adv-x="1507" 
d="M1437 719c0 -176.667 -17.666 -303.667 -52.999 -381c-52 -122 -131.333 -210.667 -238 -266c-108 -57.333 -238.333 -86 -391 -86s-283 28.667 -391 86c-111.333 59.333 -191.333 148 -240 266c-34 70 -51 197 -51 381v815h381v-893c0 -146 21 -236 63 -270
c35.333 -48 114.666 -74 237.999 -78c124 4 202.667 30 236 78c39.333 34 59 122 59 264v899h387v-815zM625.001 1620l148 315h288l-256 -315h-180z" />
    <glyph glyph-name="Udieresis" unicode="&#xdc;" horiz-adv-x="1523" 
d="M1054 635c0 -146.667 -19.667 -234 -59 -262c-36 -48 -115.333 -74 -238 -78c-126 4 -204.667 30 -236 78c-42 34 -63 124 -63 270v891h-381v-819c0 -184 17 -311 51 -381c54.667 -122.667 134.667 -210.667 240 -264c101.333 -56 231 -84 389 -84c160 0 291 28 393 84
c106 54.667 186 142.667 240 264c32.667 78 49 205 49 381v819h-385v-899zM1129 1769c-1.33301 -9.33301 -3 -18 -5 -26c-4.66699 -20 -13 -35 -25 -45c-20.667 -19.333 -58.334 -29 -113.001 -29c-8.66699 0 -17.334 0.333008 -26.001 1c-10.667 0.666992 -21 2 -31 4
c-24 4.66699 -41.667 12.667 -53 24c-13.333 10 -22.333 25 -27 45l-4 26v50l4 28c4.66699 20.667 13.667 36.334 27 47.001c20.667 19.333 57.334 29 110.001 29c54.667 0 92.334 -9.66699 113.001 -29c12 -10.667 20.333 -26.334 25 -47.001c2 -8.66699 3.66699 -18 5 -28
c0.666992 -8 1 -16.333 1 -25s-0.333008 -17 -1 -25zM665 1769c-0.666992 -9.33301 -2.33105 -18 -4.99805 -26c-5.33301 -20 -14 -35 -26 -45c-12 -11.333 -29.667 -19.333 -53 -24c-8.66699 -2 -18.334 -3.33301 -29.001 -4c-8.66699 -0.666992 -17.334 -1 -26.001 -1
c-8 0 -16 0.333008 -24 1c-10.667 0.666992 -20.334 2 -29.001 4c-24 5.33301 -42.667 13.333 -56 24c-13.333 10 -22.666 25 -27.999 45l-4 26v50l4 28c5.33301 20.667 14.666 36.334 27.999 47.001c24 19.333 60.333 29 109 29c51.333 0 87.333 -9.66699 108 -29
c12 -10.667 20.667 -26.334 26 -47.001c2.66699 -8.66699 4.33398 -18 5.00098 -28c1.33301 -8 2 -16.333 2 -25s-0.666992 -17 -2 -25z" />
    <glyph glyph-name="Yacute" unicode="&#xdd;" horiz-adv-x="1280" 
d="M231 0l191 477l-416 1057h430l205 -633l205 633h428l-613 -1534h-430zM539 1620l148 315h289l-256 -315h-181z" />
    <glyph glyph-name="Thorn" unicode="&#xde;" horiz-adv-x="2299" 
 />
    <glyph glyph-name="germandbls" unicode="&#xdf;" horiz-adv-x="929" 
 />
    <glyph glyph-name="agrave" unicode="&#xe0;" 
d="M985 672l0.000976562 -672.002h-279l-3 10c-1.33301 4.66699 -2.33301 8 -3 10c-2.66699 6.66699 -5 14.334 -7 23.001l-3 25c-102.667 -53.333 -203 -80 -301 -80h-29c-100.667 0 -180.667 38.667 -240 116c-39.333 60.667 -59 128.334 -59 203.001v8
c0 132 46.333 219.667 139 263c38 25.333 134.333 38 289 38h158v37c0 76 -11 119.667 -33 131c-24 18 -66.333 27 -127 27h-315l30 279h338c215.333 0 348.666 -53.333 399.999 -160c30 -62 45 -148 45 -258zM534.001 392.998c-65.333 0 -105 -6.66797 -119 -20.001
c-10.667 -11.333 -16 -30.666 -16 -57.999c0 -60 30.667 -90 92 -90c36.667 0 88.667 15 156 45v123h-113zM510.001 1182l-256 315h289l148 -315h-181z" />
    <glyph glyph-name="aacute" unicode="&#xe1;" 
d="M985 672l0.000976562 -672.002h-279l-3 10c-1.33301 4.66699 -2.33301 8 -3 10c-2.66699 6.66699 -5 14.334 -7 23.001l-3 25c-102.667 -53.333 -203 -80 -301 -80h-29c-100.667 0 -180.667 38.667 -240 116c-39.333 60.667 -59 128.334 -59 203.001v8
c0 132 46.333 219.667 139 263c38 25.333 134.333 38 289 38h158v37c0 76 -11 119.667 -33 131c-24 18 -66.333 27 -127 27h-315l30 279h338c215.333 0 348.666 -53.333 399.999 -160c30 -62 45 -148 45 -258zM534.001 392.998c-65.333 0 -105 -6.66797 -119 -20.001
c-10.667 -11.333 -16 -30.666 -16 -57.999c0 -60 30.667 -90 92 -90c36.667 0 88.667 15 156 45v123h-113zM425.001 1182l148 315h289l-257 -315h-180z" />
    <glyph glyph-name="acircumflex" unicode="&#xe2;" 
d="M985 672l0.000976562 -672.002h-279l-3 10c-1.33301 4.66699 -2.33301 8 -3 10c-2.66699 6.66699 -5 14.334 -7 23.001l-3 25c-102.667 -53.333 -203 -80 -301 -80h-29c-100.667 0 -180.667 38.667 -240 116c-39.333 60.667 -59 128.334 -59 203.001v8
c0 132 46.333 219.667 139 263c38 25.333 134.333 38 289 38h158v37c0 76 -11 119.667 -33 131c-24 18 -66.333 27 -127 27h-315l30 279h338c215.333 0 348.666 -53.333 399.999 -160c30 -62 45 -148 45 -258zM534.001 392.998c-65.333 0 -105 -6.66797 -119 -20.001
c-10.667 -11.333 -16 -30.666 -16 -57.999c0 -60 30.667 -90 92 -90c36.667 0 88.667 15 156 45v123h-113zM878.001 1182h-215l-115 139l-112 -139h-218l218 282h227z" />
    <glyph glyph-name="atilde" unicode="&#xe3;" 
d="M985 672l0.000976562 -672.002h-279l-3 10c-1.33301 4.66699 -2.33301 8 -3 10c-2.66699 6.66699 -5 14.334 -7 23.001l-3 25c-102.667 -53.333 -203 -80 -301 -80h-29c-100.667 0 -180.667 38.667 -240 116c-39.333 60.667 -59 128.334 -59 203.001v8
c0 132 46.333 219.667 139 263c38 25.333 134.333 38 289 38h158v37c0 76 -11 119.667 -33 131c-24 18 -66.333 27 -127 27h-315l30 279h338c215.333 0 348.666 -53.333 399.999 -160c30 -62 45 -148 45 -258zM534.001 392.998c-65.333 0 -105 -6.66797 -119 -20.001
c-10.667 -11.333 -16 -30.666 -16 -57.999c0 -60 30.667 -90 92 -90c36.667 0 88.667 15 156 45v123h-113zM271.001 1176c-8 149.333 50.668 224.001 176.001 224.001c22.667 0 47 -3.33301 73 -10l67 -23l12 -5l12 -6c9.33301 -4.66699 17 -8.33398 23 -11.001
c16.667 -7.33301 31.334 -11 44.001 -11c32.667 0 51.334 25.333 56.001 76h149c5.33301 -147.333 -53.334 -221 -176.001 -221c-26 0 -52.333 4 -79 12c-10.667 3.33301 -22.334 7.33301 -35.001 12c-4 1.33301 -9.66699 3.33301 -17 6l-42 17
c-9.33301 4 -16 6.66699 -20 8c-12.667 4.66699 -25.334 7 -38.001 7c-29.333 0 -46 -25 -50 -75h-155z" />
    <glyph glyph-name="adieresis" unicode="&#xe4;" 
d="M540 1092l-341.999 0.000976562l-28 -283h317c61.333 0 103.666 -9.66699 126.999 -29c22 -8 33 -49.667 33 -125v-37h-156c-151.333 0 -249 -13.333 -293 -40c-91.333 -42.667 -137 -130.334 -137 -263.001v-8c0 -78 19 -146.333 57 -205c60 -76 139.333 -114 238 -114
h31c103.333 0 204.333 26.667 303 80l16 -68h273l2 672c0 108.667 -15.333 194 -46 256c-51.333 109.333 -183 164 -395 164zM647.001 268.001c-59.333 -28.667 -111.333 -42.999 -156 -42.999c-61.333 0 -92 30 -92 90c0 27.333 5.33301 46.666 16 57.999
c12 13.333 51.667 20 119 20h113v-125zM906.001 1302c-1.33301 -9.33301 -2.99902 -17.999 -4.99902 -25.999c-4.66699 -20.667 -13 -36.334 -25 -47.001c-10.667 -11.333 -28 -19.333 -52 -24c-9.33301 -2 -19.333 -3.33301 -30 -4
c-8.66699 -0.666992 -17.334 -1 -26.001 -1c-53.333 0 -89.666 9.66699 -108.999 29c-14 10.667 -23.667 26.334 -29 47.001c-2 8 -3.66699 16.667 -5 26c-0.666992 8 -1 16.333 -1 25c0 9.33301 0.333008 17.666 1 24.999c1.33301 9.33301 3 18.333 5 27
c5.33301 20 15 35.333 29 46c19.333 19.333 55.666 29 108.999 29c52.667 0 88.667 -9.66699 108 -29c12 -10.667 20.333 -26 25 -46c2 -8.66699 3.66699 -17.667 5 -27c0.666992 -8 1 -16.333 1 -25s-0.333008 -17 -1 -25zM447.002 1302c-0.666992 -9.33301 -2 -18 -4 -26
c-5.33301 -20.667 -14 -36.334 -26 -47.001c-13.333 -11.333 -31.666 -19.333 -54.999 -24c-9.33301 -2 -19 -3.33301 -29 -4c-8.66699 -0.666992 -17.334 -1 -26.001 -1c-53.333 0 -90.333 9.66699 -111 29c-13.333 10.667 -22.666 26.334 -27.999 47.001l-4 26v50l4 27
c5.33301 20 14.666 35.333 27.999 46c20.667 19.333 57.667 29 111 29c50 0 86.667 -9.66699 110 -29c12 -10.667 20.667 -26 26 -46c2 -8.66699 3.33301 -17.667 4 -27c0.666992 -8 1 -16.333 1 -25s-0.333008 -17 -1 -25z" />
    <glyph glyph-name="aring" unicode="&#xe5;" 
d="M983 672v-674h-281l-12 42l-4 26c-98 -52 -197.667 -78 -299 -78h-31c-100 0 -178.667 37.333 -236 112c-38 59.333 -57 128.333 -57 207v8c0 135.333 45 222 135 260c38.667 28.667 133.667 43 285 43h162v33c0 79.333 -11.667 123 -35 131c-22 18 -65 27 -129 27h-312
l31 283h336c214 0 348.667 -53.333 404 -160c28.667 -65.333 43 -152 43 -260zM530 393c-63.333 0 -102.333 -6 -117 -18c-12 -12.667 -18 -32.667 -18 -60c0 -60 30.667 -90 92 -90c43.333 0 96 15 158 45v123h-115zM780 1339c0 -130.667 -78 -196 -234 -196
c-154 0 -231 65.333 -231 196c0 135.333 77.667 203 233 203c154.667 0 232 -67.667 232 -203zM634 1339c0 67.333 -30 101 -90 101s-90 -33.667 -90 -101c0 -62.667 30.667 -94 92 -94c58.667 0 88 31.333 88 94z" />
    <glyph glyph-name="ae" unicode="&#xe6;" horiz-adv-x="987" 
 />
    <glyph glyph-name="ccedilla" unicode="&#xe7;" horiz-adv-x="980" 
d="M407 659l-0.000976562 -138.998c0 -92.667 10.333 -147.334 31 -164.001c20 -30 72.333 -45 157 -45h23c60 0 157 13 291 39h2v-274c0 -4.66699 -61 -16.334 -183 -35.001c-27.333 -5.33301 -62.666 -8 -105.999 -8l-27 -53c88.667 -22 133 -70.667 133 -146
c0 -58.667 -23.333 -102.667 -70 -132c-39.333 -25.333 -89 -38 -149 -38c-58.667 0 -109 11.667 -151 35l35 113c30 -16.667 63.333 -25 100 -25c42 0 63 15 63 45c0 36 -47 58.667 -141 68l64 135c-184.667 16 -309 99.333 -373 250
c-24.667 50.667 -37 141.334 -37 272.001v72c0 153.333 20.333 259.666 61 318.999c80.667 138 225 207 433 207c114 0 230 -15 348 -45v-274h-6c-132 22.667 -234 34 -306 34c-86 0 -138.333 -13 -157 -39c-23.333 -14.667 -35 -72 -35 -172z" />
    <glyph glyph-name="egrave" unicode="&#xe8;" horiz-adv-x="1097" 
d="M1025 643l0.000976562 -194h-612v-33c0 -74 22.667 -119 68 -135c35.333 -10 75.333 -15 120 -15h27c120 0 243 13 369 39h2v-274c0 -3.33301 -57.333 -14.333 -172 -33c-72 -8 -154.667 -12 -248 -12c-240 0 -395 81 -465 243c-26 64 -39 131 -39 201v262
c0 192 80.667 319.667 242 383c71.333 23.333 147.666 35 228.999 35c226 0 372.667 -73.667 440 -221c26 -58 39 -140 39 -246zM687.001 694c0 76 -16.333 121 -49 135c-24.667 16.667 -54.667 25 -90 25c-90 0 -135 -42.333 -135 -127v-51h274v18zM510.001 1182l-257 315
h289l148 -315h-180z" />
    <glyph glyph-name="eacute" unicode="&#xe9;" horiz-adv-x="1097" 
d="M1025 643l0.000976562 -194h-612v-33c0 -74 22.667 -119 68 -135c35.333 -10 75.333 -15 120 -15h27c120 0 243 13 369 39h2v-274c0 -3.33301 -57.333 -14.333 -172 -33c-72 -8 -154.667 -12 -248 -12c-240 0 -395 81 -465 243c-26 64 -39 131 -39 201v262
c0 192 80.667 319.667 242 383c71.333 23.333 147.666 35 228.999 35c226 0 372.667 -73.667 440 -221c26 -58 39 -140 39 -246zM687.001 694c0 76 -16.333 121 -49 135c-24.667 16.667 -54.667 25 -90 25c-90 0 -135 -42.333 -135 -127v-51h274v18zM410.001 1182l148 315
h289l-256 -315h-181z" />
    <glyph glyph-name="ecircumflex" unicode="&#xea;" horiz-adv-x="1097" 
d="M1025 643l0.000976562 -194h-612v-33c0 -74 22.667 -119 68 -135c35.333 -10 75.333 -15 120 -15h27c120 0 243 13 369 39h2v-274c0 -3.33301 -57.333 -14.333 -172 -33c-72 -8 -154.667 -12 -248 -12c-240 0 -395 81 -465 243c-26 64 -39 131 -39 201v262
c0 192 80.667 319.667 242 383c71.333 23.333 147.666 35 228.999 35c226 0 372.667 -73.667 440 -221c26 -58 39 -140 39 -246zM687.001 694c0 76 -16.333 121 -49 135c-24.667 16.667 -54.667 25 -90 25c-90 0 -135 -42.333 -135 -127v-51h274v18zM896.001 1182h-216
l-114 139l-113 -139h-217l217 282h227z" />
    <glyph glyph-name="edieresis" unicode="&#xeb;" horiz-adv-x="1097" 
d="M916 1304l-2.99805 -26c-4.66699 -20 -13.667 -35 -27 -45c-10.667 -12 -28 -20.333 -52 -25c-9.33301 -2 -19.333 -3.66699 -30 -5c-8.66699 -0.666992 -17.334 -1 -26.001 -1c-9.33301 0 -18.333 0.333008 -27 1c-10.667 1.33301 -20.334 3 -29.001 5
c-23.333 4.66699 -41 13 -53 25c-13.333 10 -22.666 25 -27.999 45l-4 26v50l4 25c5.33301 19.333 14.666 34 27.999 44c20.667 20.667 57 31 109 31c53.333 0 89.333 -10.333 108 -31c13.333 -9.33301 22.333 -24 27 -44l3 -25v-50zM461.002 1304
c-0.666992 -9.33301 -2.33301 -18 -5 -26c-5.33301 -20 -15 -35 -29 -45c-11.333 -12 -28.333 -20.333 -51 -25c-9.33301 -2 -19 -3.66699 -29 -5c-8.66699 -0.666992 -17.334 -1 -26.001 -1c-53.333 0 -90.333 10.333 -111 31c-13.333 10 -23 25 -29 45
c-2 8 -3.33301 16.667 -4 26c-1.33301 8 -2 16.333 -2 25c0 9.33301 0.666992 17.666 2 24.999c0.666992 9.33301 2 17.666 4 24.999c6 19.333 15.667 34 29 44c20.667 20.667 57.667 31 111 31c50.667 0 86 -10.333 106 -31c14 -10 23.667 -24.667 29 -44
c2.66699 -7.33301 4.33398 -15.666 5.00098 -24.999c0.666992 -7.33301 1 -15.666 1 -24.999c0 -8.66699 -0.333008 -17 -1 -25zM544.003 1106c-85.333 0 -161.666 -11 -228.999 -33c-161.333 -64.667 -242 -191.667 -242 -381v-260c0 -64.667 13.667 -131.667 41 -201
c71.333 -163.333 226.333 -245 465 -245c96.667 0 178.667 4.66699 246 14c112 18 168 30.333 168 37v264l-2 2c-124 -23.333 -245.667 -35 -365 -35h-25c-56.667 0 -95.334 5 -116.001 15c-52 14 -78 59 -78 135v31h610l6 6v188c0 96.667 -13.667 178 -41 244
c-65.333 146 -211.333 219 -438 219zM407.003 674v53c0 84.667 47 127 141 127c32 0 62 -7.66699 90 -23c31.333 -18.667 47 -65 47 -139v-18h-278z" />
    <glyph glyph-name="igrave" unicode="&#xec;" horiz-adv-x="466" 
d="M65 0h338v1090h-338v-1090zM166 1182l-256 315h289l147 -315h-180z" />
    <glyph glyph-name="iacute" unicode="&#xed;" horiz-adv-x="466" 
d="M66 0h338v1090h-338v-1090zM135 1182l148 315h288l-256 -315h-180z" />
    <glyph glyph-name="icircumflex" unicode="&#xee;" horiz-adv-x="761" 
d="M544 0h-334v1092h334v-1092zM712 1192h-219l-117 143l-115 -143h-221l221 291h232z" />
    <glyph glyph-name="idieresis" unicode="&#xef;" horiz-adv-x="806" 
d="M491 1313c0 7.33301 0.333984 14.667 1.00098 22c1.33301 9.33301 3 17.666 5 24.999c5.33301 20 14 35 26 45c24 20.667 61 31 111 31c50.667 0 86 -10.333 106 -31c12 -10 20.667 -25 26 -45c2 -7.33301 3.33301 -15.666 4 -24.999c0.666992 -6.66699 1 -14 1 -22
c0 -46.667 -10.333 -78.667 -31 -96c-11.333 -12 -28.333 -20.667 -51 -26c-9.33301 -2 -19 -3.33301 -29 -4c-8.66699 -0.666992 -17.334 -1 -26.001 -1c-50 0 -87 10.333 -111 31c-21.333 18 -32 50 -32 96zM38.001 1313c0 8 0.333984 15.333 1.00098 22
c1.33301 9.33301 3 17.666 5 24.999c5.33301 20 15 35 29 45c18.667 20.667 52.667 31 102 31c54.667 0 91.667 -10.333 111 -31c13.333 -10 23 -25 29 -45c2 -7.33301 3.66699 -15.666 5 -24.999c0.666992 -6.66699 1 -14 1 -22c0 -47.333 -11.667 -79.333 -35 -96
c-19.333 -20.667 -56.333 -31 -111 -31c-8 0 -16 0.333008 -24 1c-10 0.666992 -19.333 2 -28 4c-22.667 5.33301 -39.334 14 -50.001 26c-23.333 16.667 -35 48.667 -35 96zM573.002 0.000976562h-332v1092h332v-1092z" />
    <glyph glyph-name="eth" unicode="&#xf0;" horiz-adv-x="1380" 
d="M1298 635c0 -108.667 -17.668 -206 -53.001 -292c-32.667 -78.667 -79 -146 -139 -202c-113.333 -103.333 -255 -155 -425 -155c-176 0 -321 54 -435 162c-118 111.333 -177 258 -177 440c0 166 55.667 302.333 167 409c104.667 100 235.334 152.667 392.001 158
c41.333 2.66699 76.333 2 105 -2c11.333 -1.33301 22 -3.66602 32 -6.99902l21 -7c-64 78 -127.667 138 -191 180l-348 -152l-65 146l254 112c-60.667 42 -136 82.333 -226 121l160 203c66 -24.667 129.667 -52.334 191 -83.001c67.333 -33.333 130 -69 188 -107l334 143
l73 -139l-253 -113c124 -102 222.667 -224.333 296 -367c66 -126.667 99 -276 99 -448zM963.999 578c0 115.333 -23.334 194.333 -70.001 237c-48.667 49.333 -117.667 74 -207 74c-99.333 0 -174.666 -36 -225.999 -108c-41.333 -57.333 -62 -128 -62 -212
c0 -91.333 24 -166.333 72 -225c52 -62.667 122.667 -94 212 -94c187.333 0 281 109.333 281 328z" />
    <glyph glyph-name="ntilde" unicode="&#xf1;" horiz-adv-x="1118" 
d="M237 1174c-6.66699 159.333 54.666 239 183.999 239c26 0 52.667 -3.66699 80 -11l61 -22l61 -26c18.667 -7.33301 33.334 -11 44.001 -11c33.333 0 52.333 26.667 57 80h160c7.33301 -155.333 -54.667 -233 -186 -233c-27.333 0 -55.666 4 -84.999 12l-73 25
c-40.667 18.667 -69.334 28 -86.001 28c-32.667 0 -51 -27 -55 -81h-162zM862 1084c-48 18 -109.668 25.3359 -185.001 22.0029c-37.333 -1.33301 -74.666 -6 -111.999 -14c-30.667 -6.66699 -60.667 -15.667 -90 -27c-21.333 -7.33301 -42.333 -16 -63 -26l-20 -11l-12 -6
c-3.33301 9.33301 -7 18.666 -11 27.999l-10 22c-6 13.333 -10 20 -12 20h-276v-1092h336v778c46 27.333 93.667 42.333 143 45c16 1.33301 38 0.666016 66 -2.00098c62.667 -12 94 -53 94 -123v-698h340v641c0 160 -13.667 264.333 -41 313
c-38 63.333 -87 106.666 -147 129.999z" />
    <glyph glyph-name="ograve" unicode="&#xf2;" horiz-adv-x="1034" 
d="M1003 647l-0.000976562 -201c0 -209.333 -75 -347 -225 -413c-75.333 -31.333 -164.333 -47 -267 -47c-224 0 -370 73 -438 219c-31.333 60.667 -47 135 -47 223v240c0 213.333 92 349.666 276 408.999c70.667 20.667 136.334 31 197.001 31h33
c229.333 0 377.333 -87.333 444 -262c18 -53.333 27 -119.666 27 -198.999zM666.999 659c0 87.333 -24.666 138 -73.999 152c-14.667 8 -36.334 12 -65.001 12h-27c-60 0 -102.333 -24.333 -127 -73c-6.66699 -20.667 -10 -44 -10 -70v-274c0 -94.667 49 -142 147 -142h9
c78 0 126.333 34.333 145 103l1 26v4zM489 1182l-256 315h289l147 -315h-180z" />
    <glyph glyph-name="oacute" unicode="&#xf3;" horiz-adv-x="1034" 
d="M1003 647l-0.000976562 -201c0 -209.333 -75 -347 -225 -413c-75.333 -31.333 -164.333 -47 -267 -47c-224 0 -370 73 -438 219c-31.333 60.667 -47 135 -47 223v240c0 213.333 92 349.666 276 408.999c70.667 20.667 136.334 31 197.001 31h33
c229.333 0 377.333 -87.333 444 -262c18 -53.333 27 -119.666 27 -198.999zM666.999 659c0 87.333 -24.666 138 -73.999 152c-14.667 8 -36.334 12 -65.001 12h-27c-60 0 -102.333 -24.333 -127 -73c-6.66699 -20.667 -10 -44 -10 -70v-274c0 -94.667 49 -142 147 -142h9
c78 0 126.333 34.333 145 103l1 26v4zM357 1182l147 315h289l-256 -315h-180z" />
    <glyph glyph-name="ocircumflex" unicode="&#xf4;" horiz-adv-x="1034" 
d="M1003 647l-0.000976562 -201c0 -209.333 -75 -347 -225 -413c-75.333 -31.333 -164.333 -47 -267 -47c-224 0 -370 73 -438 219c-31.333 60.667 -47 135 -47 223v240c0 213.333 92 349.666 276 408.999c70.667 20.667 136.334 31 197.001 31h33
c229.333 0 377.333 -87.333 444 -262c18 -53.333 27 -119.666 27 -198.999zM666.999 659c0 87.333 -24.666 138 -73.999 152c-14.667 8 -36.334 12 -65.001 12h-27c-60 0 -102.333 -24.333 -127 -73c-6.66699 -20.667 -10 -44 -10 -70v-274c0 -94.667 49 -142 147 -142h9
c78 0 126.333 34.333 145 103l1 26v4zM844 1182h-215l-115 139l-112 -139h-218l218 282h227z" />
    <glyph glyph-name="otilde" unicode="&#xf5;" horiz-adv-x="1034" 
d="M1003 647l-0.000976562 -201c0 -209.333 -75 -347 -225 -413c-75.333 -31.333 -164.333 -47 -267 -47c-224 0 -370 73 -438 219c-31.333 60.667 -47 135 -47 223v240c0 213.333 92 349.666 276 408.999c70.667 20.667 136.334 31 197.001 31h33
c229.333 0 377.333 -87.333 444 -262c18 -53.333 27 -119.666 27 -198.999zM666.999 659c0 87.333 -24.666 138 -73.999 152c-14.667 8 -36.334 12 -65.001 12h-27c-60 0 -102.333 -24.333 -127 -73c-6.66699 -20.667 -10 -44 -10 -70v-274c0 -94.667 49 -142 147 -142h9
c78 0 126.333 34.333 145 103l1 26v4zM221 1176c-8 149.333 50.6699 224 176.003 224c22.667 0 47 -3.33301 73 -10l66 -23c4 -1.33301 8.33301 -3 13 -5l11 -6l23 -11c17.333 -7.33301 32 -11 44 -11c32.667 0 51.667 25.333 57 76h149
c5.33301 -147.333 -53.334 -221 -176.001 -221c-26.667 0 -53.334 4 -80.001 12c-10 3.33301 -21.333 7.33301 -34 12c-4.66699 1.33301 -10.334 3.33301 -17.001 6l-43 17c-9.33301 4 -16 6.66699 -20 8c-12.667 4.66699 -25 7 -37 7c-30 0 -46.667 -25 -50 -75h-155z" />
    <glyph glyph-name="odieresis" unicode="&#xf6;" horiz-adv-x="1042" 
d="M610 1273c-2.66699 8.66699 -4.33496 17.667 -5.00195 27c-1.33301 8 -2 16.333 -2 25s0.666992 17 2 25c0.666992 9.33301 2.33398 18 5.00098 26c5.33301 20 14 35 26 45c12 14 29 23 51 27c12.667 2.66699 32.667 4 60 4c25.333 0 44.333 -1.33301 57 -4
c22.667 -4 39.667 -13 51 -27c14 -10 23 -25 27 -45l4 -26v-50l-4 -27c-4 -20.667 -13 -36.667 -27 -48c-11.333 -10 -28.666 -17.333 -51.999 -22l-30 -4h-53l-30 4c-24 4.66699 -42 12 -54 22c-12 12 -20.667 28 -26 48zM148.999 1273
c-2.66699 8.66699 -4.33398 17.668 -5.00098 27.001c-0.666992 8 -1 16.333 -1 25c0 9.33301 0.333008 17.666 1 24.999c0.666992 9.33301 2.33398 18 5.00098 26c5.33301 20 14.666 35 27.999 45c12 14 29.333 23 52 27c12.667 2.66699 31.667 4 57 4
c54.667 0 91 -10.333 109 -31c11.333 -10 19.666 -25 24.999 -45c2 -8 3.33301 -16.667 4 -26c0.666992 -8 1 -16.333 1 -25s-0.333008 -17 -1 -25c-0.666992 -9.33301 -2 -18.333 -4 -27c-5.33301 -20 -13.666 -36 -24.999 -48c-12 -10 -29.667 -17.333 -53 -22l-30 -4h-52
l-30 4c-23.333 4.66699 -41 12 -53 22c-13.333 12 -22.666 28 -27.999 48zM1007 647.001v-198.001c0 -214.667 -76.333 -352.667 -229 -414c-73.333 -31.333 -161 -47 -263 -47c-224 0 -370 71 -438 213c-31.333 66.667 -47 142.334 -47 227.001v242
c0 211.333 90.667 345.666 272 402.999c64 19.333 129 29 195 29h39c227.333 0 374 -85.333 440 -256c20.667 -57.333 31 -123.666 31 -198.999zM666.999 662c0 83.333 -24.667 132.333 -74 147c-20.667 8 -41 12 -61 12h-31c-62 0 -104.333 -24.333 -127 -73
c-6.66699 -16 -10 -38 -10 -66v-279c0 -92.667 50.333 -139 151 -139h7c75.333 0 122.333 33.667 141 101c2.66699 24 4 47.667 4 71v226z" />
    <glyph glyph-name="divide" unicode="&#xf7;" horiz-adv-x="1824" 
d="M742 931c-3.33301 14.667 -4.99805 35.999 -4.99805 63.999l1 29l4 34c6 27.333 17.333 48 34 62c13.333 14.667 34.666 24.667 63.999 30c18.667 3.33301 43 5 73 5c31.333 0 56.333 -1.66699 75 -5c27.333 -5.33301 49 -15.333 65 -30
c13.333 -14.667 23 -34.667 29 -60c3.33301 -18 5 -39.667 5 -65s-1.66699 -46.666 -5 -63.999c-6 -25.333 -15.667 -45 -29 -59c-15.333 -13.333 -38 -22.333 -68 -27c-19.333 -3.33301 -43.333 -5 -72 -5s-52.334 1.66699 -71.001 5
c-30.667 4.66699 -52.667 13.667 -66 27c-16.667 14 -28 33.667 -34 59zM1087 93.999c0 -56.667 -11.333 -98.335 -34 -125.002c-16 -13.333 -38.667 -23.333 -68 -30c-22 -4.66699 -46 -7 -72 -7c-25.333 0 -49 2.33301 -71 7c-30 6.66699 -52 16.667 -66 30
c-17.333 15.333 -28.666 35.333 -33.999 60c-3.33301 14.667 -5 36.334 -5 65.001c0 28 1.66699 49.333 5 64c5.33301 24.667 16.666 43.667 33.999 57c14 14 35.333 24.333 64 31c22.667 5.33301 47 8 73 8c64 0 110.667 -13 140 -39
c22.667 -23.333 34 -63.666 34 -120.999zM1741 421.998h-1653v242h1653v-242z" />
    <glyph glyph-name="glyph239" unicode="&#xf9;" horiz-adv-x="1142" 
d="M73 461l0.000976562 631.002h342v-693c0 -68.667 32.667 -110.334 98 -125.001c28 -2.66699 50 -3.33398 66 -2.00098c52.667 3.33301 101.667 19 147 47l2 773h340v-1092h-280l-17 29c-2 4 -3.66699 7.66699 -5 11c-3.33301 8.66699 -6.33301 18 -9 28l-99 -43
c-30 -10.667 -60 -19 -90 -25c-38 -8 -76 -12.667 -114 -14c-78 -4 -140.667 3 -188 21c-60.667 23.333 -111.334 67.333 -152.001 132c-27.333 56.667 -41 164 -41 322zM536.001 1182l-256 315h288l148 -315h-180z" />
    <glyph glyph-name="glyph240" unicode="&#xfa;" horiz-adv-x="1142" 
d="M73 461l0.000976562 631.002h342v-693c0 -68.667 32.667 -110.334 98 -125.001c28 -2.66699 50 -3.33398 66 -2.00098c52.667 3.33301 101.667 19 147 47l2 773h340v-1092h-280l-17 29c-2 4 -3.66699 7.66699 -5 11c-3.33301 8.66699 -6.33301 18 -9 28l-99 -43
c-30 -10.667 -60 -19 -90 -25c-38 -8 -76 -12.667 -114 -14c-78 -4 -140.667 3 -188 21c-60.667 23.333 -111.334 67.333 -152.001 132c-27.333 56.667 -41 164 -41 322zM480.001 1182l147 315h289l-256 -315h-180z" />
    <glyph glyph-name="ucircumflex" unicode="&#xfb;" horiz-adv-x="1142" 
d="M269 6c46.667 -17.333 108.334 -24.001 185.001 -20.001c38 1.33301 75.333 6 112 14c30 6.66699 59 15.334 87 26.001c20 7.33301 40.667 16.333 62 27l34 17c2.66699 -9.33301 6 -19 10 -29l20 -43h283v1096h-340v-781
c-48.667 -28.667 -96.334 -44.334 -143.001 -47.001c-26 -2 -47.333 -1.33301 -64 2c-65.333 16.667 -98 58.334 -98 125.001v701h-338v-641c0 -158.667 14.333 -264.667 43 -318c36.667 -63.333 85.667 -106.333 147 -129zM906 1196h-221l-117 139l-114 -139h-221l221 283
h231z" />
    <glyph glyph-name="udieresis" unicode="&#xfc;" horiz-adv-x="1142" 
d="M1060 -2l-276.001 0.000976562l-11 20c-6.66699 16 -12.667 33.333 -18 52l-35 -17c-21.333 -10.667 -41.666 -19.667 -60.999 -27c-28 -10.667 -57 -19.334 -87 -26.001c-36.667 -8 -74.667 -12.667 -114 -14c-77.333 -4 -140 2.66699 -188 20
c-63.333 22.667 -113.333 65.667 -150 129c-27.333 51.333 -41 157.333 -41 318v641h340v-701c0 -66.667 32 -108.334 96 -125.001c18.667 -3.33301 40.667 -4 66 -2c48 2.66699 96.333 18.334 145 47.001v781h334v-1096zM666.999 1278c-2 8 -3.66797 16.667 -5.00098 26
c-0.666992 8 -1 16.333 -1 25c0 18.667 2 35.334 6 50.001c5.33301 19.333 14 34 26 44c22 22 58.333 33 109 33c56 0 93 -11 111 -33c12 -10 20.667 -24.667 26 -44c4 -14.667 6 -31.334 6 -50.001c0 -8.66699 -0.333008 -17 -1 -25c-1.33301 -9.33301 -3 -18 -5 -26
c-5.33301 -20 -14 -35.667 -26 -47c-11.333 -10.667 -29 -18.334 -53 -23.001c-15.333 -2.66699 -34.666 -4 -57.999 -4l-26 1l-28 3c-22.667 4.66699 -41 12.334 -55 23.001c-12 11.333 -20.667 27 -26 47zM200.998 1278c-2 8 -3.33301 16.668 -4 26.001
c-0.666992 8 -1 16.333 -1 25s0.333008 17 1 25c0.666992 9.33301 2 17.666 4 24.999c5.33301 19.333 13.666 34 24.999 44c18 22 55.667 33 113 33c52 0 89 -11 111 -33c12 -10 20.667 -24.667 26 -44c4 -14.667 6 -31.334 6 -50.001c0 -8.66699 -0.333008 -17 -1 -25
c-1.33301 -9.33301 -3 -18 -5 -26c-5.33301 -20 -14 -35.667 -26 -47c-14 -10.667 -32.667 -18.334 -56 -23.001l-29 -3h-53l-32 3c-24.667 4.66699 -42.667 12.334 -54 23.001s-19.666 26.334 -24.999 47.001z" />
    <glyph glyph-name="glyph257" unicode="&#xfd;" horiz-adv-x="1282" 
d="M1250 1090l-46.001 -133.999l-378 -1059c-16.667 -40.667 -34 -76.334 -52 -107.001c-48.667 -82 -111 -141 -187 -177c-72 -30 -160.667 -45 -266 -45c-22 0 -46 0.333008 -72 1l-68 3v281l117 -5c24.667 0 48.334 2.33301 71.001 7l27 6
c6.66699 1.33301 13.667 3.33301 21 6c48 12.667 72 57 72 133l-453 1090h375l254 -674l217 674h368zM551.999 1182l147 315h289l-256 -315h-180z" />
    <glyph glyph-name="thorn" unicode="&#xfe;" horiz-adv-x="696" 
 />
    <glyph glyph-name="ydieresis" unicode="&#xff;" horiz-adv-x="1284" 
d="M735 1276l-3.99902 25.999v50l4 25c5.33301 19.333 14.666 34 27.999 44c20.667 20.667 57 31 109 31c53.333 0 90 -10.333 110 -31c12 -10 20.667 -24.667 26 -44c2 -7.33301 3.33301 -15.666 4 -24.999c0.666992 -8 1 -16.333 1 -25s-0.333008 -17 -1 -25
c-0.666992 -9.33301 -2 -18 -4 -26c-5.33301 -20 -14 -35 -26 -45c-11.333 -12 -29.333 -20.333 -54 -25c-9.33301 -2 -19.333 -3.66699 -30 -5c-8.66699 -0.666992 -17.334 -1 -26.001 -1c-9.33301 0 -18.333 0.333008 -27 1c-10 1.33301 -19.667 3 -29 5
c-23.333 4.66699 -41 13 -53 25c-13.333 10 -22.666 25 -27.999 45zM277.001 1276c-2 8 -3.33301 16.6689 -4 26.002c-0.666992 8 -1 16.333 -1 25s0.333008 17 1 25c0.666992 9.33301 2 17.666 4 24.999c4.66699 19.333 13 34 25 44c20.667 20.667 58.334 31 113.001 31
c52 0 87.333 -10.333 106 -31c12.667 -10 21.667 -24.667 27 -44c4 -14.667 6 -31.334 6 -50.001c0 -8.66699 -0.333008 -17 -1 -25c-1.33301 -9.33301 -3 -18 -5 -26c-6 -20 -15 -35 -27 -45c-10.667 -12 -27.667 -20.333 -51 -25c-8.66699 -2 -18.334 -3.66699 -29.001 -5
c-8 -0.666992 -16.667 -1 -26 -1c-22 0 -41.667 2 -59 6c-24 4.66699 -42 13 -54 25c-12 10 -20.333 25 -25 45zM1251 1092l-179.002 -498.002l-132 -369l-87 -249c-3.33301 -10 -6.33301 -18.333 -9 -25c-6.66699 -19.333 -13 -36.666 -19 -51.999
c-16 -41.333 -33 -77.333 -51 -108c-49.333 -83.333 -113 -141.333 -191 -174c-70 -30 -158 -45 -264 -45c-21.333 0 -44.666 0.333008 -69.999 1l-68 3v279c14 -1.33301 29.333 -2 46 -2h71c60.667 0 100.334 5.33301 119.001 16c48 14.667 72 58.334 72 131.001l-455 1092
h373l258 -674l211 674h375z" />
    <glyph glyph-name="Abreve" unicode="&#x102;" horiz-adv-x="1548" 
d="M557 1534l-555 -1534h430l72 236h534l72 -236h434l-557 1534h-430zM772 1178l195 -660h-392zM646 1871c8.66699 -60 50.3311 -90 124.998 -90c77.333 0 122.333 30 135 90h168c-7.33301 -164.667 -108.333 -247 -303 -247c-99.333 0 -174.666 23.333 -225.999 70
c-45.333 42.667 -69.666 101.667 -72.999 177h174z" />
    <glyph glyph-name="abreve" unicode="&#x103;" 
d="M985 672l0.000976562 -672.002h-279l-3 10c-1.33301 4.66699 -2.33301 8 -3 10c-2.66699 6.66699 -5 14.334 -7 23.001l-3 25c-102.667 -53.333 -203 -80 -301 -80h-29c-100.667 0 -180.667 38.667 -240 116c-39.333 60.667 -59 128.334 -59 203.001v8
c0 132 46.333 219.667 139 263c38 25.333 134.333 38 289 38h158v37c0 76 -11 119.667 -33 131c-24 18 -66.333 27 -127 27h-315l30 279h338c215.333 0 348.666 -53.333 399.999 -160c30 -62 45 -148 45 -258zM534.001 392.998c-65.333 0 -105 -6.66797 -119 -20.001
c-10.667 -11.333 -16 -30.666 -16 -57.999c0 -60 30.667 -90 92 -90c36.667 0 88.667 15 156 45v123h-113zM399.001 1395c8.66699 -60 50.3311 -90 124.998 -90c76.667 0 121.667 30 135 90h168c-7.33301 -164.667 -108.333 -247 -303 -247
c-99.333 0 -174.666 23.333 -225.999 70c-45.333 42.667 -69.666 101.667 -72.999 177h174z" />
    <glyph glyph-name="Ccaron" unicode="&#x10c;" horiz-adv-x="1479" 
 />
    <glyph glyph-name="ccaron" unicode="&#x10d;" horiz-adv-x="1024" 
 />
    <glyph glyph-name="dcroat" unicode="&#x111;" horiz-adv-x="1116" 
d="M405 424c0 -25.333 2.66699 -48 8 -68c18 -62.667 76 -94 174 -94l121 4v510c-50.667 31.333 -102.667 47 -156 47l-49 -2c-65.333 -12 -98 -53 -98 -123v-274zM1046 1217l0.000976562 -1188c-87.333 -14 -165.333 -24.667 -234 -32
c-76.667 -7.33301 -148.334 -11 -215.001 -11c-197.333 0 -337.333 38 -420 114c-38 40.667 -61 74.334 -69 101.001c-27.333 44 -41 153.667 -41 329v109c0 163.333 13.667 269 41 317c45.333 101.333 165.333 152 360 152c80 -2 160 -15.667 240 -41l1 33v117h-253v148
h254v24c0 50.667 0.666992 99 2 145l334 59v-228h85v-148h-85z" />
    <glyph glyph-name="Itilde" unicode="&#x128;" horiz-adv-x="538" 
d="M466 0h-391v1536h391v-1536zM-33 1604c-8 149.333 50.668 224.001 176.001 224.001c22.667 0 47 -3.33301 73 -10l67 -23l12 -5l12 -6c9.33301 -4.66699 17 -8.33398 23 -11.001c16.667 -7.33301 31.334 -11 44.001 -11c32.667 0 51.334 25.333 56.001 76h149
c5.33301 -147.333 -53.334 -221 -176.001 -221c-26.667 0 -53.334 4 -80.001 12c-10 3.33301 -21.333 7.33301 -34 12c-4.66699 1.33301 -10.334 3.33301 -17.001 6l-43 17c-9.33301 4 -16 6.66699 -20 8c-12 4.66699 -24.333 7 -37 7c-29.333 0 -46 -25 -50 -75h-155z" />
    <glyph glyph-name="itilde" unicode="&#x129;" horiz-adv-x="466" 
d="M65 0h338v1090h-338v-1090zM-45 1176c-8 149.333 50.668 224.001 176.001 224.001c22.667 0 47 -3.33301 73 -10l67 -23l12 -5l12 -6c9.33301 -4.66699 17 -8.33398 23 -11.001c16.667 -7.33301 31.334 -11 44.001 -11c32.667 0 51.334 25.333 56.001 76h149
c5.33301 -147.333 -53.334 -221 -176.001 -221c-26.667 0 -53.334 4 -80.001 12c-10 3.33301 -21.333 7.33301 -34 12c-4.66699 1.33301 -10.334 3.33301 -17.001 6l-43 17c-9.33301 4 -16 6.66699 -20 8c-12 4.66699 -24.333 7 -37 7c-29.333 0 -46 -25 -50 -75h-155z" />
    <glyph glyph-name="dotlessi" unicode="&#x131;" horiz-adv-x="569" 
 />
    <glyph glyph-name="Lslash" unicode="&#x141;" horiz-adv-x="2002" 
 />
    <glyph glyph-name="lslash" unicode="&#x142;" horiz-adv-x="358" 
 />
    <glyph glyph-name="OE" unicode="&#x152;" horiz-adv-x="2215" 
 />
    <glyph glyph-name="oe" unicode="&#x153;" horiz-adv-x="874" 
 />
    <glyph glyph-name="Scaron" unicode="&#x160;" horiz-adv-x="1292" 
d="M319 1905h222l112 -142l115 142h223l-223 -287h-227zM600 -16c-80.667 0 -166.665 5.66406 -257.998 16.9971c-73.333 8.66699 -140.333 20 -201 34l-30 340l79 -17c40 -7.33301 78.333 -14 115 -20c46.667 -7.33301 90.667 -13 132 -17c49.333 -5.33301 94 -8 134 -8
c143.333 0 228 33.667 254 101c8 27.333 6.66699 54 -4 80c-13.333 28 -43 52 -89 72l-130 46c-2.66699 0.666992 -4.66699 1 -6 1l-125 38c-40 12.667 -75 25.334 -105 38.001c-78.667 32 -140 70 -184 114c-42.667 42.667 -70.334 97.334 -83.001 164.001
c-8.66699 47.333 -9.66699 99 -3 155c18 167.333 90.333 284.333 217 351c50 24.667 107.667 42.667 173 54c50.667 8.66699 110 13.667 178 15l51 2c66.667 0 140 -4.33301 220 -13l179 -24l33 -336c-40.667 10.667 -95.334 20.334 -164.001 29.001
c-84 11.333 -159.667 17 -227 17c-156 0 -246.333 -33.667 -271 -101c-10 -29.333 -9.33301 -56 2 -80c15.333 -29.333 47.666 -55.333 96.999 -78c20.667 -10 46.667 -20 78 -30l94 -29c44 -12.667 78.333 -23 103 -31c38 -12 71.667 -24.333 101 -37
c73.333 -30 128 -64.667 164 -104c44 -46.667 72.333 -102 85 -166c8.66699 -44.667 9.66699 -95.667 3 -153c-17.333 -166 -89 -283 -215 -351c-51.333 -26 -109 -44.667 -173 -56c-49.333 -9.33301 -107.666 -14.333 -174.999 -15z" />
    <glyph glyph-name="scaron" unicode="&#x161;" horiz-adv-x="1007" 
d="M171 1475h221l113 -140l117 140h219l-219 -287h-230zM746 619c-24 8.66699 -52.667 17.666 -86 26.999l-85 23c-129.333 34.667 -185.333 70.334 -168 107.001c8 22.667 34.333 37.667 79 45c37.333 6.66699 87.333 8.33398 150 5.00098
c46.667 -2.66699 100.667 -8.33398 162 -17.001l119 -18l-31 284c-50.667 10 -105.667 17.667 -165 23c-74 6.66699 -144.667 8.66699 -212 6c-54.667 -2 -100.334 -6 -137.001 -12c-54 -8 -101 -21.333 -141 -40c-48.667 -22.667 -87.667 -53.334 -117 -92.001
c-33.333 -44 -54 -99 -62 -165c-6 -44 -5 -84 3 -120c11.333 -47.333 35 -88 71 -122c36.667 -32.667 87.334 -61 152.001 -85c24.667 -8.66699 53 -17.667 85 -27l83 -21c124 -32 178.333 -67 163 -105c-11.333 -22.667 -43 -37.334 -95 -44.001
c-43.333 -5.33301 -99.666 -5 -168.999 1c-52.667 4 -110.667 11.333 -174 22l-112 21l28 -292l180 -24c41.333 -4.66699 80 -8 116 -10c42.667 -2 82.667 -2.33301 120 -1c54 2 99.333 5.66699 136 11c54.667 8.66699 102 22 142 40
c49.333 22.667 88.666 53.334 117.999 92.001c34 44.667 55 100 63 166c6 46.667 5.33301 87.334 -2 122.001c-10.667 46.667 -34 86.667 -70 120c-32 30 -80 56.667 -144 80z" />
    <glyph glyph-name="Utilde" unicode="&#x168;" horiz-adv-x="1507" 
d="M1437 719c0 -176.667 -17.666 -303.667 -52.999 -381c-52 -122 -131.333 -210.667 -238 -266c-108 -57.333 -238.333 -86 -391 -86s-283 28.667 -391 86c-111.333 59.333 -191.333 148 -240 266c-34 70 -51 197 -51 381v815h381v-893c0 -146 21 -236 63 -270
c35.333 -48 114.666 -74 237.999 -78c124 4 202.667 30 236 78c39.333 34 59 122 59 264v899h387v-815zM481.001 1604c-8 149.333 50.6689 224.001 176.002 224.001c22.667 0 47 -3.33301 73 -10l67 -23l12 -5l12 -6c9.33301 -4.66699 17 -8.33398 23 -11.001
c16.667 -7.33301 31.334 -11 44.001 -11c32 0 50.667 25.333 56 76h149c5.33301 -147.333 -53.334 -221 -176.001 -221c-26.667 0 -53.334 4 -80.001 12c-10 3.33301 -21.333 7.33301 -34 12c-4.66699 1.33301 -10.334 3.33301 -17.001 6l-43 17
c-9.33301 4 -16 6.66699 -20 8c-12 4.66699 -24.333 7 -37 7c-29.333 0 -46 -25 -50 -75h-155z" />
    <glyph glyph-name="utilde" unicode="&#x169;" horiz-adv-x="1142" 
d="M73 461l0.000976562 631.002h342v-693c0 -68.667 32.667 -110.334 98 -125.001c28 -2.66699 50 -3.33398 66 -2.00098c52.667 3.33301 101.667 19 147 47l2 773h340v-1092h-280l-17 29c-2 4 -3.66699 7.66699 -5 11c-3.33301 8.66699 -6.33301 18 -9 28l-99 -43
c-30 -10.667 -60 -19 -90 -25c-38 -8 -76 -12.667 -114 -14c-78 -4 -140.667 3 -188 21c-60.667 23.333 -111.334 67.333 -152.001 132c-27.333 56.667 -41 164 -41 322zM307.001 1176c-8 149.333 50.668 224.001 176.001 224.001c22.667 0 46.667 -3.33301 72 -10l67 -23
l12 -5l12 -6c9.33301 -4.66699 17 -8.33398 23 -11.001c17.333 -7.33301 32 -11 44 -11c32.667 0 51.667 25.333 57 76h149c5.33301 -147.333 -53.667 -221 -177 -221c-26 0 -52.333 4 -79 12c-10 3.33301 -21.333 7.33301 -34 12
c-4.66699 1.33301 -10.334 3.33301 -17.001 6l-43 17c-9.33301 4 -16 6.66699 -20 8c-12.667 4.66699 -25 7 -37 7c-30 0 -46.667 -25 -50 -75h-155z" />
    <glyph glyph-name="Ydieresis" unicode="&#x178;" horiz-adv-x="1280" 
d="M1009 1763c-1.33301 -9.33301 -3 -17.667 -5 -25c-4.66699 -19.333 -13 -34 -25 -44c-12 -12 -30 -21 -54 -27c-9.33301 -2 -19.333 -3.66699 -30 -5c-9.33301 -0.666992 -18.333 -1 -27 -1c-50.667 0 -86.667 11 -108 33c-14 10 -23.333 24.667 -28 44l-4 25v50l4 27
c4.66699 20.667 14 36 28 46c20.667 19.333 56.667 29 108 29c53.333 0 90.333 -9.66699 111 -29c12 -10 20.333 -25.333 25 -46c2 -8 3.66699 -17 5 -27c0.666992 -8 1 -16.333 1 -25s-0.333008 -17 -1 -25zM544 1738c-5.33301 -19.333 -14.001 -33.998 -26.001 -43.998
c-12 -12 -29.667 -21 -53 -27c-9.33301 -2 -19 -3.66699 -29 -5c-9.33301 -0.666992 -18 -1 -26 -1c-9.33301 0 -18.333 0.333008 -27 1c-11.333 1.33301 -21.666 3 -30.999 5c-24.667 6 -42.334 15 -53.001 27c-12 10 -20.333 24.667 -25 44
c-2 7.33301 -3.66699 15.666 -5 24.999c-0.666992 8 -1 16.333 -1 25s0.333008 17 1 25c1.33301 10 3 19 5 27c4.66699 20.667 13 36 25 46c19.333 19.333 56.333 29 111 29c51.333 0 87.333 -9.66699 108 -29c12 -10 20.667 -25.333 26 -46
c2.66699 -8 4.33398 -17 5.00098 -27c1.33301 -8 2 -16.333 2 -25c0 -18.667 -2.33301 -35.334 -7 -50.001zM845.999 1534l-207 -633l-205 633h-430l418 -1057l-191 -477h428l615 1534h-428z" />
    <glyph glyph-name="Zcaron" unicode="&#x17d;" horiz-adv-x="1310" 
d="M356 1905h221l113 -142l116 142h224l-224 -287h-229zM20 2l678 1235h-582l35 297h1133l-662 -1225h612l-40 -307h-1174z" />
    <glyph glyph-name="zcaron" unicode="&#x17e;" horiz-adv-x="1062" 
d="M235 1475h219l117 -140l114 140h222l-222 -287h-231zM126 1092l-35 -283h429l-492 -809h938l31 279h-424l463 813h-910z" />
    <glyph glyph-name="florin" unicode="&#x192;" horiz-adv-x="1202" 
d="M466 1024l1.99805 72.001c5.33301 44 15 87 29 129c19.333 57.333 45 107.333 77 150c40 53.333 89 94.666 147 123.999c68.667 34 148.334 51 239.001 51c80 0 140 -11.333 180 -34l-51 -226c-33.333 14 -69.666 21 -108.999 21c-104 0 -164 -63.667 -180 -191l-10 -96
h227v-217h-256l-53 -373c-8.66699 -69.333 -21.334 -129 -38.001 -179c-18.667 -57.333 -43.667 -105.333 -75 -144c-70 -87.333 -177 -131 -321 -131c-99.333 2 -169 13.333 -209 34l49 217c21.333 -9.33301 55.666 -15.333 102.999 -18c56.667 0 97.334 20 122.001 60
s45.334 119.667 62.001 239l33 295h-172v217h204z" />
    <glyph glyph-name="Ohorn" unicode="&#x1a0;" horiz-adv-x="1435" 
d="M1400 817l-0.00195312 -99.9971c0 -180 -16.333 -305.667 -49 -377c-52 -122 -132 -211.333 -240 -268c-103.333 -56 -233.666 -84 -390.999 -84s-287.666 28 -390.999 84c-109.333 59.333 -189.333 148.666 -240 267.999c-34 74 -51 199.667 -51 377v100
c0 217.333 29.333 365.666 88 444.999c50 85.333 117.667 150.666 203 195.999c104 57.333 234.333 86 391 86c156 0 286.333 -28.667 391 -86c82 -44 149.667 -109.333 203 -196c57.333 -82 86 -230.333 86 -445zM719.998 297.003c124 2 202.668 26.666 236.001 73.999
c38 30.667 57 119.334 57 266.001v233c0 171.333 -21.333 270.333 -64 297c-40.667 41.333 -117 64 -229 68c-112 -4 -188.333 -26.667 -229 -68c-48 -30 -72 -126 -72 -288v-236c0 -147.333 21 -238 63 -272c33.333 -47.333 112.666 -72 237.999 -74zM1113 1287l1 105.999
c70 26.667 110.667 63.334 122 110.001l-10 3c-33.333 10 -55.333 21.333 -66 34c-14 14.667 -21 42.667 -21 84c4 38 15.667 64.667 35 80c9.33301 8 25 14 47 18c15.333 3.33301 27.666 5 36.999 5c12.667 0 26 -1.33301 40 -4c20.667 -4 36.334 -10.333 47.001 -19
c12 -10 20 -23.333 24 -40c2.66699 -10 4 -26 4 -48c0 -12 -1.33301 -23.667 -4 -35l-7 -24c-36.667 -126.667 -119.667 -216.667 -249 -270z" />
    <glyph glyph-name="ohorn" unicode="&#x1a1;" horiz-adv-x="1034" 
d="M1003 647l-0.000976562 -201c0 -209.333 -75 -347 -225 -413c-75.333 -31.333 -164.333 -47 -267 -47c-224 0 -370 73 -438 219c-31.333 60.667 -47 135 -47 223v240c0 213.333 92 349.666 276 408.999c70.667 20.667 136.334 31 197.001 31h33
c229.333 0 377.333 -87.333 444 -262c18 -53.333 27 -119.666 27 -198.999zM666.999 659c0 87.333 -24.666 138 -73.999 152c-14.667 8 -36.334 12 -65.001 12h-27c-60 0 -102.333 -24.333 -127 -73c-6.66699 -20.667 -10 -44 -10 -70v-274c0 -94.667 49 -142 147 -142h9
c78 0 126.333 34.333 145 103l1 26v4zM779 859l-0.00195312 105.999c70.667 26.667 111.334 63.334 122.001 110.001l-10 3c-33.333 10 -55.333 21.333 -66 34c-14 14.667 -21 42.667 -21 84c4.66699 38 16.334 64.667 35.001 80c10 8 25.667 14 47 18
c15.333 3.33301 27.666 5 36.999 5c12.667 0 26 -1.33301 40 -4c20.667 -4 36.334 -10.333 47.001 -19c12.667 -10 20.667 -23.333 24 -40c2.66699 -10 4 -26 4 -48c0 -12 -1.33301 -23.667 -4 -35l-6 -24c-37.333 -126.667 -120.333 -216.667 -249 -270z" />
    <glyph glyph-name="Uhorn" unicode="&#x1af;" horiz-adv-x="1507" 
d="M1437 719c0 -176.667 -17.666 -303.667 -52.999 -381c-52 -122 -131.333 -210.667 -238 -266c-108 -57.333 -238.333 -86 -391 -86s-283 28.667 -391 86c-111.333 59.333 -191.333 148 -240 266c-34 70 -51 197 -51 381v815h381v-893c0 -146 21 -236 63 -270
c35.333 -48 114.666 -74 237.999 -78c124 4 202.667 30 236 78c39.333 34 59 122 59 264v899h387v-815zM1390 1287l-0.00195312 105.999c70.667 26.667 111.334 63.334 122.001 110.001l-10 3c-33.333 10 -55.333 21.333 -66 34c-14 14.667 -21 42.667 -21 84
c4.66699 38 16.334 64.667 35.001 80c10 8 25.667 14 47 18c15.333 3.33301 27.666 5 36.999 5c12.667 0 26 -1.33301 40 -4c20.667 -4 36.334 -10.333 47.001 -19c12.667 -10 20.667 -23.333 24 -40c2.66699 -10 4 -26 4 -48c0 -12 -1.33301 -23.667 -4 -35l-6 -24
c-37.333 -126.667 -120.333 -216.667 -249 -270z" />
    <glyph glyph-name="uhorn" unicode="&#x1b0;" horiz-adv-x="1142" 
d="M73 461l0.000976562 631.002h342v-693c0 -68.667 32.667 -110.334 98 -125.001c28 -2.66699 50 -3.33398 66 -2.00098c52.667 3.33301 101.667 19 147 47l2 773h340v-1092h-280l-17 29c-2 4 -3.66699 7.66699 -5 11c-3.33301 8.66699 -6.33301 18 -9 28l-99 -43
c-30 -10.667 -60 -19 -90 -25c-38 -8 -76 -12.667 -114 -14c-78 -4 -140.667 3 -188 21c-60.667 23.333 -111.334 67.333 -152.001 132c-27.333 56.667 -41 164 -41 322zM1026 859.002l-0.00195312 105.999c70.667 26.667 111.334 63.334 122.001 110.001l-10 3
c-33.333 10 -55.333 21.333 -66 34c-14 14.667 -21 42.667 -21 84c4.66699 38 16.334 64.667 35.001 80c10 8 25.667 14 47 18c15.333 3.33301 27.666 5 36.999 5c12.667 0 26 -1.33301 40 -4c20.667 -4 36.334 -10.333 47.001 -19c12.667 -10 20.667 -23.333 24 -40
c2.66699 -10 4 -26 4 -48c0 -12 -1.33301 -23.667 -4 -35l-6 -24c-37.333 -126.667 -120.333 -216.667 -249 -270z" />
    <glyph glyph-name="pi" unicode="&#x3c0;" horiz-adv-x="1124" 
 />
    <glyph glyph-name="uni1EA0" unicode="&#x1ea0;" horiz-adv-x="1548" 
d="M557 1534l-555 -1534h430l72 236h534l72 -236h434l-557 1534h-430zM772 1178l195 -660h-392zM857 -185.5c23.333 -23 35 -51.167 35 -84.5c0 -32.667 -11.667 -60.5 -35 -83.5s-51.333 -34.5 -84 -34.5s-60.667 11.5 -84 34.5s-35 50.833 -35 83.5
c0 33.333 11.667 61.5 35 84.5s51.333 34.5 84 34.5s60.667 -11.5 84 -34.5z" />
    <glyph glyph-name="uni1EA1" unicode="&#x1ea1;" 
d="M985 672l0.000976562 -672.002h-279l-3 10c-1.33301 4.66699 -2.33301 8 -3 10c-2.66699 6.66699 -5 14.334 -7 23.001l-3 25c-102.667 -53.333 -203 -80 -301 -80h-29c-100.667 0 -180.667 38.667 -240 116c-39.333 60.667 -59 128.334 -59 203.001v8
c0 132 46.333 219.667 139 263c38 25.333 134.333 38 289 38h158v37c0 76 -11 119.667 -33 131c-24 18 -66.333 27 -127 27h-315l30 279h338c215.333 0 348.666 -53.333 399.999 -160c30 -62 45 -148 45 -258zM534.001 392.998c-65.333 0 -105 -6.66797 -119 -20.001
c-10.667 -11.333 -16 -30.666 -16 -57.999c0 -60 30.667 -90 92 -90c36.667 0 88.667 15 156 45v123h-113zM594.501 -185.503c23 -23 34.5 -51.167 34.5 -84.5c0 -32.667 -11.5 -60.5 -34.5 -83.5s-51.167 -34.5 -84.5 -34.5c-32.667 0 -60.5 11.5 -83.5 34.5
s-34.5 50.833 -34.5 83.5c0 33.333 11.5 61.5 34.5 84.5s50.833 34.5 83.5 34.5c33.333 0 61.5 -11.5 84.5 -34.5z" />
    <glyph glyph-name="uni1EA2" unicode="&#x1ea2;" horiz-adv-x="1550" 
d="M561 1534l-557 -1534h432l74 236h534l70 -236h432l-555 1534h-430zM776 1178l195 -660h-392zM1049 1872c-1.33301 -38 -6.33301 -66.334 -15 -85.001c-28.667 -61.333 -97.334 -104.333 -206.001 -129l-15 -61l-106 20l-5 124c60.667 20.667 103 36.667 127 48
s40.333 21.666 49 30.999c6 4.66699 9 22.334 9 53.001s-3.33301 48 -10 52c-6.66699 7.33301 -23.667 11 -51 11c-17.333 0 -41 -2 -71 -6c-11.333 -1.33301 -24.666 -3.33301 -39.999 -6c-8.66699 -1.33301 -28.667 -4.66602 -60 -9.99902l13 116
c61.333 15.333 119.333 23 174 23c82.667 0 143.334 -25.333 182.001 -76c15.333 -22 23.666 -55.667 24.999 -101v-4z" />
    <glyph glyph-name="uni1EA3" unicode="&#x1ea3;" 
d="M985 672l0.000976562 -672.002h-279l-3 10c-1.33301 4.66699 -2.33301 8 -3 10c-2.66699 6.66699 -5 14.334 -7 23.001l-3 25c-102.667 -53.333 -203 -80 -301 -80h-29c-100.667 0 -180.667 38.667 -240 116c-39.333 60.667 -59 128.334 -59 203.001v8
c0 132 46.333 219.667 139 263c38 25.333 134.333 38 289 38h158v37c0 76 -11 119.667 -33 131c-24 18 -66.333 27 -127 27h-315l30 279h338c215.333 0 348.666 -53.333 399.999 -160c30 -62 45 -148 45 -258zM534.001 392.998c-65.333 0 -105 -6.66797 -119 -20.001
c-10.667 -11.333 -16 -30.666 -16 -57.999c0 -60 30.667 -90 92 -90c36.667 0 88.667 15 156 45v123h-113zM819.001 1425c-0.666992 -38 -5.33301 -66.334 -14 -85.001c-28.667 -61.333 -97.667 -104.333 -207 -129l-15 -61l-106 20l-4 124c60.667 20.667 103 36.667 127 48
s40 21.666 48 30.999c6 4.66699 9 22.334 9 53.001s-3.33301 48 -10 52c-6 7.33301 -23 11 -51 11c-16.667 0 -40 -2 -70 -6c-11.333 -1.33301 -25 -3.33301 -41 -6c-8.66699 -1.33301 -28.334 -4.66602 -59.001 -9.99902l13 116c60.667 15.333 118.667 23 174 23
c82.667 0 143.334 -25.333 182.001 -76c15.333 -22 23.333 -55.667 24 -101v-4z" />
    <glyph glyph-name="uni1EA4" unicode="&#x1ea4;" horiz-adv-x="1550" 
d="M563 1534l-557 -1534h432l72 236h534l72 -236h432l-557 1534h-428zM776 1178l195 -660h-390zM1020 1829l137 285h268l-238 -285h-167zM1105 1620h-215l-115 139l-113 -139h-217l217 282h228z" />
    <glyph glyph-name="uni1EA5" unicode="&#x1ea5;" 
d="M985 672l0.000976562 -672.002h-279l-3 10c-1.33301 4.66699 -2.33301 8 -3 10c-2.66699 6.66699 -5 14.334 -7 23.001l-3 25c-102.667 -53.333 -203 -80 -301 -80h-29c-100.667 0 -180.667 38.667 -240 116c-39.333 60.667 -59 128.334 -59 203.001v8
c0 132 46.333 219.667 139 263c38 25.333 134.333 38 289 38h158v37c0 76 -11 119.667 -33 131c-24 18 -66.333 27 -127 27h-315l30 279h338c215.333 0 348.666 -53.333 399.999 -160c30 -62 45 -148 45 -258zM534.001 392.998c-65.333 0 -105 -6.66797 -119 -20.001
c-10.667 -11.333 -16 -30.666 -16 -57.999c0 -60 30.667 -90 92 -90c36.667 0 88.667 15 156 45v123h-113zM878.001 1182h-215l-115 139l-112 -139h-218l218 282h227zM761.001 1391l137 285h268l-238 -285h-167z" />
    <glyph glyph-name="uni1EA6" unicode="&#x1ea6;" horiz-adv-x="1550" 
d="M1039 1819l-237 285h268l137 -285h-168zM563 1534l-557 -1534h432l72 236h534l72 -236h432l-557 1534h-428zM776 1178l195 -660h-390zM1105 1620h-215l-115 139l-113 -139h-217l217 282h228z" />
    <glyph glyph-name="uni1EA7" unicode="&#x1ea7;" 
d="M985 672l0.000976562 -672.002h-279l-3 10c-1.33301 4.66699 -2.33301 8 -3 10c-2.66699 6.66699 -5 14.334 -7 23.001l-3 25c-102.667 -53.333 -203 -80 -301 -80h-29c-100.667 0 -180.667 38.667 -240 116c-39.333 60.667 -59 128.334 -59 203.001v8
c0 132 46.333 219.667 139 263c38 25.333 134.333 38 289 38h158v37c0 76 -11 119.667 -33 131c-24 18 -66.333 27 -127 27h-315l30 279h338c215.333 0 348.666 -53.333 399.999 -160c30 -62 45 -148 45 -258zM534.001 392.998c-65.333 0 -105 -6.66797 -119 -20.001
c-10.667 -11.333 -16 -30.666 -16 -57.999c0 -60 30.667 -90 92 -90c36.667 0 88.667 15 156 45v123h-113zM878.001 1182h-215l-115 139l-112 -139h-218l218 282h227zM810.001 1391l-238 285h268l137 -285h-167z" />
    <glyph glyph-name="uni1EA8" unicode="&#x1ea8;" horiz-adv-x="1550" 
d="M1112 0l-72 236h-532l-72 -236h-432l555 1534h430l557 -1534h-434zM774 1178l-197 -660h392zM1330 2040c-0.666992 -35.333 -5.00098 -61.3311 -13.001 -77.998c-26.667 -56.667 -90 -96.334 -190 -119.001l-14 -56l-97 19l-5 113c56 19.333 95 34.166 117 44.499
s37 19.833 45 28.5c5.33301 4 8 20.333 8 49c0 27.333 -3 43 -9 47c-6 6.66699 -21.667 10 -47 10c-16 0.666992 -37.667 -1 -65 -5c-10.667 -1.33301 -23 -3.33301 -37 -6c-8 -0.666992 -26.333 -3.66699 -55 -9l12 107c56 14 109.333 21 160 21
c76 0 131.667 -23.333 167 -70c14.667 -20.667 22.334 -51.667 23.001 -93v-3zM1105 1620h-215l-115 139l-113 -139h-217l217 282h228z" />
    <glyph glyph-name="uni1EA9" unicode="&#x1ea9;" 
d="M985 672l0.000976562 -672.002h-279l-3 10c-1.33301 4.66699 -2.33301 8 -3 10c-2.66699 6.66699 -5 14.334 -7 23.001l-3 25c-102.667 -53.333 -203 -80 -301 -80h-29c-100.667 0 -180.667 38.667 -240 116c-39.333 60.667 -59 128.334 -59 203.001v8
c0 132 46.333 219.667 139 263c38 25.333 134.333 38 289 38h158v37c0 76 -11 119.667 -33 131c-24 18 -66.333 27 -127 27h-315l30 279h338c215.333 0 348.666 -53.333 399.999 -160c30 -62 45 -148 45 -258zM534.001 392.998c-65.333 0 -105 -6.66797 -119 -20.001
c-10.667 -11.333 -16 -30.666 -16 -57.999c0 -60 30.667 -90 92 -90c36.667 0 88.667 15 156 45v123h-113zM878.001 1182h-215l-115 139l-112 -139h-218l218 282h227zM1081 1603c-0.666992 -35.333 -5.00195 -61.3311 -13.002 -77.998
c-26 -56.667 -89.333 -96.334 -190 -119.001l-14 -56l-97 19l-4 113c56 19.333 95 34.166 117 44.499s36.667 19.833 44 28.5c6 4 9 20.333 9 49c0 27.333 -3.33301 43 -10 47c-6 6.66699 -21.667 10 -47 10c-15.333 0.666992 -36.666 -1 -63.999 -5
c-10.667 -1.33301 -23.334 -3.33301 -38.001 -6c-8 -0.666992 -26 -3.66699 -54 -9l12 107c56 14 109 21 159 21c76.667 0 132.334 -23.333 167.001 -70c14.667 -20.667 22.334 -51.667 23.001 -93v-3z" />
    <glyph glyph-name="uni1EAA" unicode="&#x1eaa;" horiz-adv-x="1550" 
d="M537 1936c-7.33301 142.667 48.666 214 167.999 214c22 0 45.333 -3.33301 70 -10l63 -22l12 -5l11 -6c9.33301 -4 16.666 -7.33301 21.999 -10c16 -6.66699 30 -10 42 -10c31.333 0 49.333 24 54 72h142c4.66699 -140 -51.333 -210 -168 -210
c-25.333 0 -50.666 3.66699 -75.999 11c-9.33301 2.66699 -20.333 6.33398 -33 11.001c-4 1.33301 -9.33301 3.33301 -16 6l-40 17c-9.33301 3.33301 -15.666 5.66602 -18.999 6.99902c-12 4.66699 -24 7 -36 7c-28 0 -44 -24 -48 -72h-148zM560.999 1534l-557 -1534h432
l74 236h534l70 -236h432l-555 1534h-430zM775.999 1178l195 -660h-392zM1105 1620h-215l-115 139l-113 -139h-217l217 282h228z" />
    <glyph glyph-name="uni1EAB" unicode="&#x1eab;" 
d="M985 672l0.000976562 -672.002h-279l-3 10c-1.33301 4.66699 -2.33301 8 -3 10c-2.66699 6.66699 -5 14.334 -7 23.001l-3 25c-102.667 -53.333 -203 -80 -301 -80h-29c-100.667 0 -180.667 38.667 -240 116c-39.333 60.667 -59 128.334 -59 203.001v8
c0 132 46.333 219.667 139 263c38 25.333 134.333 38 289 38h158v37c0 76 -11 119.667 -33 131c-24 18 -66.333 27 -127 27h-315l30 279h338c215.333 0 348.666 -53.333 399.999 -160c30 -62 45 -148 45 -258zM534.001 392.998c-65.333 0 -105 -6.66797 -119 -20.001
c-10.667 -11.333 -16 -30.666 -16 -57.999c0 -60 30.667 -90 92 -90c36.667 0 88.667 15 156 45v123h-113zM878.001 1182h-215l-115 139l-112 -139h-218l218 282h227zM299.001 1508c-7.33301 142.667 48.666 214 167.999 214c22 0 45 -3.33301 69 -10l64 -22l12 -5l11 -6
l22 -10c16 -6.66699 30 -10 42 -10c30.667 0 48.334 24 53.001 72h142c5.33301 -140 -50.667 -210 -168 -210c-24.667 0 -49.667 3.66699 -75 11c-10 2.66699 -21 6.33398 -33 11.001c-4 1.33301 -9.33301 3.33301 -16 6l-41 17c-8.66699 3.33301 -15 5.66602 -19 6.99902
c-12 4.66699 -23.667 7 -35 7c-28.667 0 -44.667 -24 -48 -72h-148z" />
    <glyph glyph-name="uni1EAC" unicode="&#x1eac;" horiz-adv-x="1548" 
d="M557 1534l-555 -1534h430l72 236h534l72 -236h434l-557 1534h-430zM772 1178l195 -660h-392zM857 -185.5c23.333 -23 35 -51.167 35 -84.5c0 -32.667 -11.667 -60.5 -35 -83.5s-51.333 -34.5 -84 -34.5s-60.667 11.5 -84 34.5s-35 50.833 -35 83.5
c0 33.333 11.667 61.5 35 84.5s51.333 34.5 84 34.5s60.667 -11.5 84 -34.5zM1105 1620h-215l-115 139l-113 -139h-217l217 282h228z" />
    <glyph glyph-name="uni1EAD" unicode="&#x1ead;" 
d="M985 672l0.000976562 -672.002h-279l-3 10c-1.33301 4.66699 -2.33301 8 -3 10c-2.66699 6.66699 -5 14.334 -7 23.001l-3 25c-102.667 -53.333 -203 -80 -301 -80h-29c-100.667 0 -180.667 38.667 -240 116c-39.333 60.667 -59 128.334 -59 203.001v8
c0 132 46.333 219.667 139 263c38 25.333 134.333 38 289 38h158v37c0 76 -11 119.667 -33 131c-24 18 -66.333 27 -127 27h-315l30 279h338c215.333 0 348.666 -53.333 399.999 -160c30 -62 45 -148 45 -258zM534.001 392.998c-65.333 0 -105 -6.66797 -119 -20.001
c-10.667 -11.333 -16 -30.666 -16 -57.999c0 -60 30.667 -90 92 -90c36.667 0 88.667 15 156 45v123h-113zM878.001 1182h-215l-115 139l-112 -139h-218l218 282h227zM594.501 -185.503c23 -23 34.5 -51.167 34.5 -84.5c0 -32.667 -11.5 -60.5 -34.5 -83.5
s-51.167 -34.5 -84.5 -34.5c-32.667 0 -60.5 11.5 -83.5 34.5s-34.5 50.833 -34.5 83.5c0 33.333 11.5 61.5 34.5 84.5s50.833 34.5 83.5 34.5c33.333 0 61.5 -11.5 84.5 -34.5z" />
    <glyph glyph-name="uni1EAE" unicode="&#x1eae;" horiz-adv-x="1550" 
d="M563 1534l-557 -1534h432l72 236h534l72 -236h432l-557 1534h-428zM776 1178l195 -660h-390zM706 1905l137 285h268l-238 -285h-167zM646 1871c8.66699 -60 50.3311 -90 124.998 -90c77.333 0 122.333 30 135 90h168c-7.33301 -164.667 -108.333 -247 -303 -247
c-99.333 0 -174.666 23.333 -225.999 70c-45.333 42.667 -69.666 101.667 -72.999 177h174z" />
    <glyph glyph-name="uni1EAF" unicode="&#x1eaf;" 
d="M985 672l0.000976562 -672.002h-279l-3 10c-1.33301 4.66699 -2.33301 8 -3 10c-2.66699 6.66699 -5 14.334 -7 23.001l-3 25c-102.667 -53.333 -203 -80 -301 -80h-29c-100.667 0 -180.667 38.667 -240 116c-39.333 60.667 -59 128.334 -59 203.001v8
c0 132 46.333 219.667 139 263c38 25.333 134.333 38 289 38h158v37c0 76 -11 119.667 -33 131c-24 18 -66.333 27 -127 27h-315l30 279h338c215.333 0 348.666 -53.333 399.999 -160c30 -62 45 -148 45 -258zM534.001 392.998c-65.333 0 -105 -6.66797 -119 -20.001
c-10.667 -11.333 -16 -30.666 -16 -57.999c0 -60 30.667 -90 92 -90c36.667 0 88.667 15 156 45v123h-113zM448.001 1430l137 285h268l-238 -285h-167zM399.001 1395c8.66699 -60 50.3311 -90 124.998 -90c76.667 0 121.667 30 135 90h168
c-7.33301 -164.667 -108.333 -247 -303 -247c-99.333 0 -174.666 23.333 -225.999 70c-45.333 42.667 -69.666 101.667 -72.999 177h174z" />
    <glyph glyph-name="uni1EB0" unicode="&#x1eb0;" horiz-adv-x="1550" 
d="M725 1904l-237 285h268l137 -285h-168zM563 1534l-557 -1534h432l72 236h534l72 -236h432l-557 1534h-428zM776 1178l195 -660h-390zM646 1871c8.66699 -60 50.3311 -90 124.998 -90c77.333 0 122.333 30 135 90h168c-7.33301 -164.667 -108.333 -247 -303 -247
c-99.333 0 -174.666 23.333 -225.999 70c-45.333 42.667 -69.666 101.667 -72.999 177h174z" />
    <glyph glyph-name="uni1EB1" unicode="&#x1eb1;" 
d="M985 672l0.000976562 -672.002h-279l-3 10c-1.33301 4.66699 -2.33301 8 -3 10c-2.66699 6.66699 -5 14.334 -7 23.001l-3 25c-102.667 -53.333 -203 -80 -301 -80h-29c-100.667 0 -180.667 38.667 -240 116c-39.333 60.667 -59 128.334 -59 203.001v8
c0 132 46.333 219.667 139 263c38 25.333 134.333 38 289 38h158v37c0 76 -11 119.667 -33 131c-24 18 -66.333 27 -127 27h-315l30 279h338c215.333 0 348.666 -53.333 399.999 -160c30 -62 45 -148 45 -258zM534.001 392.998c-65.333 0 -105 -6.66797 -119 -20.001
c-10.667 -11.333 -16 -30.666 -16 -57.999c0 -60 30.667 -90 92 -90c36.667 0 88.667 15 156 45v123h-113zM477.001 1430l-238 285h268l137 -285h-167zM399.001 1395c8.66699 -60 50.3311 -90 124.998 -90c76.667 0 121.667 30 135 90h168
c-7.33301 -164.667 -108.333 -247 -303 -247c-99.333 0 -174.666 23.333 -225.999 70c-45.333 42.667 -69.666 101.667 -72.999 177h174z" />
    <glyph glyph-name="uni1EB2" unicode="&#x1eb2;" horiz-adv-x="1550" 
d="M1112 0l-72 236h-532l-72 -236h-432l555 1534h430l557 -1534h-434zM774 1178l-197 -660h392zM1035 2135c-0.666992 -35.333 -5.00098 -61.3311 -13.001 -77.998c-26.667 -56.667 -90 -96.334 -190 -119.001l-14 -56l-97 19l-5 113c56 19.333 95 34.166 117 44.499
s37 19.833 45 28.5c5.33301 4 8 20.333 8 49c0 27.333 -3 43 -9 47c-6 6.66699 -21.667 10 -47 10c-16 0.666992 -37.667 -1 -65 -5c-10.667 -1.33301 -23 -3.33301 -37 -6c-8 -0.666992 -26.333 -3.66699 -55 -9l12 107c56 14 109.333 21 160 21
c76 0 131.667 -23.333 167 -70c14.667 -20.667 22.334 -51.667 23.001 -93v-3zM645.999 1871c8.66699 -60 50.3311 -90 124.998 -90c77.333 0 122.333 30 135 90h168c-7.33301 -164.667 -108.333 -247 -303 -247c-99.333 0 -174.666 23.333 -225.999 70
c-45.333 42.667 -69.666 101.667 -72.999 177h174z" />
    <glyph glyph-name="uni1EB3" unicode="&#x1eb3;" 
d="M985 672l0.000976562 -672.002h-279l-3 10c-1.33301 4.66699 -2.33301 8 -3 10c-2.66699 6.66699 -5 14.334 -7 23.001l-3 25c-102.667 -53.333 -203 -80 -301 -80h-29c-100.667 0 -180.667 38.667 -240 116c-39.333 60.667 -59 128.334 -59 203.001v8
c0 132 46.333 219.667 139 263c38 25.333 134.333 38 289 38h158v37c0 76 -11 119.667 -33 131c-24 18 -66.333 27 -127 27h-315l30 279h338c215.333 0 348.666 -53.333 399.999 -160c30 -62 45 -148 45 -258zM534.001 392.998c-65.333 0 -105 -6.66797 -119 -20.001
c-10.667 -11.333 -16 -30.666 -16 -57.999c0 -60 30.667 -90 92 -90c36.667 0 88.667 15 156 45v123h-113zM785.001 1655c-0.666992 -35.333 -5.00195 -61.3311 -13.002 -77.998c-26 -56.667 -89.333 -96.334 -190 -119.001l-14 -56l-97 19l-4 113
c56 19.333 95 34.166 117 44.499s36.667 19.833 44 28.5c6 4 9 20.333 9 49c0 27.333 -3.33301 43 -10 47c-6 6.66699 -21.667 10 -47 10c-15.333 0.666992 -36.666 -1 -63.999 -5c-10.667 -1.33301 -23.334 -3.33301 -38.001 -6c-8 -0.666992 -26 -3.66699 -54 -9l12 107
c56 14 109 21 159 21c76.667 0 132.334 -23.333 167.001 -70c14.667 -20.667 22.334 -51.667 23.001 -93v-3zM398.999 1395c8.66699 -60 50.3311 -90 124.998 -90c76.667 0 121.667 30 135 90h168c-7.33301 -164.667 -108.333 -247 -303 -247
c-99.333 0 -174.666 23.333 -225.999 70c-45.333 42.667 -69.666 101.667 -72.999 177h174z" />
    <glyph glyph-name="uni1EB4" unicode="&#x1eb4;" horiz-adv-x="1550" 
d="M537 1926c-7.33301 142.667 48.666 214 167.999 214c22 0 45.333 -3.33301 70 -10l63 -22l12 -5l11 -6c9.33301 -4 16.666 -7.33301 21.999 -10c16 -6.66699 30 -10 42 -10c31.333 0 49.333 24 54 72h142c4.66699 -140 -51.333 -210 -168 -210
c-25.333 0 -50.666 3.66699 -75.999 11c-9.33301 2.66699 -20.333 6.33398 -33 11.001c-4 1.33301 -9.33301 3.33301 -16 6l-40 17c-9.33301 3.33301 -15.666 5.66602 -18.999 6.99902c-12 4.66699 -24 7 -36 7c-28 0 -44 -24 -48 -72h-148zM560.999 1534l-557 -1534h432
l74 236h534l70 -236h432l-555 1534h-430zM775.999 1178l195 -660h-392zM645.999 1871c8.66699 -60 50.3311 -90 124.998 -90c77.333 0 122.333 30 135 90h168c-7.33301 -164.667 -108.333 -247 -303 -247c-99.333 0 -174.666 23.333 -225.999 70
c-45.333 42.667 -69.666 101.667 -72.999 177h174z" />
    <glyph glyph-name="uni1EB5" unicode="&#x1eb5;" 
d="M985 672l0.000976562 -672.002h-279l-3 10c-1.33301 4.66699 -2.33301 8 -3 10c-2.66699 6.66699 -5 14.334 -7 23.001l-3 25c-102.667 -53.333 -203 -80 -301 -80h-29c-100.667 0 -180.667 38.667 -240 116c-39.333 60.667 -59 128.334 -59 203.001v8
c0 132 46.333 219.667 139 263c38 25.333 134.333 38 289 38h158v37c0 76 -11 119.667 -33 131c-24 18 -66.333 27 -127 27h-315l30 279h338c215.333 0 348.666 -53.333 399.999 -160c30 -62 45 -148 45 -258zM534.001 392.998c-65.333 0 -105 -6.66797 -119 -20.001
c-10.667 -11.333 -16 -30.666 -16 -57.999c0 -60 30.667 -90 92 -90c36.667 0 88.667 15 156 45v123h-113zM260.001 1456c-7.33301 142.667 48.666 214 167.999 214c22 0 45 -3.33301 69 -10l64 -22l12 -5l11 -6l22 -10c16 -6.66699 30 -10 42 -10
c30.667 0 48.334 24 53.001 72h142c5.33301 -140 -50.667 -210 -168 -210c-24.667 0 -49.667 3.66699 -75 11c-10 2.66699 -21 6.33398 -33 11.001c-4 1.33301 -9.33301 3.33301 -16 6l-41 17c-8.66699 3.33301 -15 5.66602 -19 6.99902c-12 4.66699 -23.667 7 -35 7
c-28.667 0 -44.667 -24 -48 -72h-148zM399 1395c8.66699 -60 50.3311 -90 124.998 -90c76.667 0 121.667 30 135 90h168c-7.33301 -164.667 -108.333 -247 -303 -247c-99.333 0 -174.666 23.333 -225.999 70c-45.333 42.667 -69.666 101.667 -72.999 177h174z" />
    <glyph glyph-name="uni1EB6" unicode="&#x1eb6;" horiz-adv-x="1548" 
d="M557 1534l-555 -1534h430l72 236h534l72 -236h434l-557 1534h-430zM772 1178l195 -660h-392zM857 -185.5c23.333 -23 35 -51.167 35 -84.5c0 -32.667 -11.667 -60.5 -35 -83.5s-51.333 -34.5 -84 -34.5s-60.667 11.5 -84 34.5s-35 50.833 -35 83.5
c0 33.333 11.667 61.5 35 84.5s51.333 34.5 84 34.5s60.667 -11.5 84 -34.5zM646 1871c8.66699 -60 50.3311 -90 124.998 -90c77.333 0 122.333 30 135 90h168c-7.33301 -164.667 -108.333 -247 -303 -247c-99.333 0 -174.666 23.333 -225.999 70
c-45.333 42.667 -69.666 101.667 -72.999 177h174z" />
    <glyph glyph-name="uni1EB7" unicode="&#x1eb7;" 
d="M985 672l0.000976562 -672.002h-279l-3 10c-1.33301 4.66699 -2.33301 8 -3 10c-2.66699 6.66699 -5 14.334 -7 23.001l-3 25c-102.667 -53.333 -203 -80 -301 -80h-29c-100.667 0 -180.667 38.667 -240 116c-39.333 60.667 -59 128.334 -59 203.001v8
c0 132 46.333 219.667 139 263c38 25.333 134.333 38 289 38h158v37c0 76 -11 119.667 -33 131c-24 18 -66.333 27 -127 27h-315l30 279h338c215.333 0 348.666 -53.333 399.999 -160c30 -62 45 -148 45 -258zM534.001 392.998c-65.333 0 -105 -6.66797 -119 -20.001
c-10.667 -11.333 -16 -30.666 -16 -57.999c0 -60 30.667 -90 92 -90c36.667 0 88.667 15 156 45v123h-113zM594.501 -185.503c23 -23 34.5 -51.167 34.5 -84.5c0 -32.667 -11.5 -60.5 -34.5 -83.5s-51.167 -34.5 -84.5 -34.5c-32.667 0 -60.5 11.5 -83.5 34.5
s-34.5 50.833 -34.5 83.5c0 33.333 11.5 61.5 34.5 84.5s50.833 34.5 83.5 34.5c33.333 0 61.5 -11.5 84.5 -34.5zM399.001 1395c8.66699 -60 50.3311 -90 124.998 -90c76.667 0 121.667 30 135 90h168c-7.33301 -164.667 -108.333 -247 -303 -247
c-99.333 0 -174.666 23.333 -225.999 70c-45.333 42.667 -69.666 101.667 -72.999 177h174z" />
    <glyph glyph-name="uni1EB8" unicode="&#x1eb8;" horiz-adv-x="1038" 
d="M466 913h400l-25 -280h-375v-330h502v-303h-897v1536h897v-297h-502v-326zM609.5 -185.5c23 -23 34.5 -51.167 34.5 -84.5c0 -32.667 -11.5 -60.5 -34.5 -83.5s-51.167 -34.5 -84.5 -34.5c-32.667 0 -60.5 11.5 -83.5 34.5s-34.5 50.833 -34.5 83.5
c0 33.333 11.5 61.5 34.5 84.5s50.833 34.5 83.5 34.5c33.333 0 61.5 -11.5 84.5 -34.5z" />
    <glyph glyph-name="uni1EB9" unicode="&#x1eb9;" horiz-adv-x="1097" 
d="M1025 643l0.000976562 -194h-612v-33c0 -74 22.667 -119 68 -135c35.333 -10 75.333 -15 120 -15h27c120 0 243 13 369 39h2v-274c0 -3.33301 -57.333 -14.333 -172 -33c-72 -8 -154.667 -12 -248 -12c-240 0 -395 81 -465 243c-26 64 -39 131 -39 201v262
c0 192 80.667 319.667 242 383c71.333 23.333 147.666 35 228.999 35c226 0 372.667 -73.667 440 -221c26 -58 39 -140 39 -246zM687.001 694c0 76 -16.333 121 -49 135c-24.667 16.667 -54.667 25 -90 25c-90 0 -135 -42.333 -135 -127v-51h274v18zM650.501 -185.5
c23 -23 34.5 -51.167 34.5 -84.5c0 -32.667 -11.5 -60.5 -34.5 -83.5s-50.833 -34.5 -83.5 -34.5s-60.667 11.5 -84 34.5s-35 50.833 -35 83.5c0 33.333 11.667 61.5 35 84.5s51.333 34.5 84 34.5s60.5 -11.5 83.5 -34.5z" />
    <glyph glyph-name="uni1EBA" unicode="&#x1eba;" horiz-adv-x="1038" 
d="M466 913h400l-25 -280h-375v-330h502v-303h-897v1536h897v-297h-502v-326zM790 1872c-0.666992 -38 -5.33301 -66.334 -14 -85.001c-28.667 -61.333 -97.667 -104.333 -207 -129l-15 -61l-106 20l-4 124c60.667 20.667 103 36.667 127 48s40 21.666 48 30.999
c6 4.66699 9 22.334 9 53.001s-3.33301 48 -10 52c-6.66699 7.33301 -23.667 11 -51 11c-17.333 0 -41 -2 -71 -6c-11.333 -1.33301 -24.666 -3.33301 -39.999 -6c-8.66699 -1.33301 -28.334 -4.66602 -59.001 -9.99902l12 116c61.333 15.333 119.333 23 174 23
c83.333 0 144 -25.333 182 -76c16 -22 24.333 -55.667 25 -101v-4z" />
    <glyph glyph-name="uni1EBB" unicode="&#x1ebb;" horiz-adv-x="1097" 
d="M1025 643l0.000976562 -194h-612v-33c0 -74 22.667 -119 68 -135c35.333 -10 75.333 -15 120 -15h27c120 0 243 13 369 39h2v-274c0 -3.33301 -57.333 -14.333 -172 -33c-72 -8 -154.667 -12 -248 -12c-240 0 -395 81 -465 243c-26 64 -39 131 -39 201v262
c0 192 80.667 319.667 242 383c71.333 23.333 147.666 35 228.999 35c226 0 372.667 -73.667 440 -221c26 -58 39 -140 39 -246zM687.001 694c0 76 -16.333 121 -49 135c-24.667 16.667 -54.667 25 -90 25c-90 0 -135 -42.333 -135 -127v-51h274v18zM818.001 1425
c-0.666992 -38 -5.33203 -66.334 -13.999 -85.001c-28.667 -61.333 -97.334 -104.333 -206.001 -129l-16 -61l-106 20l-4 124c60.667 20.667 103 36.667 127 48s40.333 21.666 49 30.999c6 4.66699 9 22.334 9 53.001s-3.66699 48 -11 52c-6 7.33301 -22.667 11 -50 11
c-17.333 0 -41 -2 -71 -6c-11.333 -1.33301 -25 -3.33301 -41 -6c-8.66699 -1.33301 -28.334 -4.66602 -59.001 -9.99902l13 116c60.667 15.333 118.667 23 174 23c82.667 0 143.334 -25.333 182.001 -76c15.333 -22 23.333 -55.667 24 -101v-4z" />
    <glyph glyph-name="uni1EBC" unicode="&#x1ebc;" horiz-adv-x="1038" 
d="M466 913h400l-25 -280h-375v-330h502v-303h-897v1536h897v-297h-502v-326zM252 1604c-8 149.333 50.668 224.001 176.001 224.001c22.667 0 47 -3.33301 73 -10l67 -23l12 -5l12 -6c9.33301 -4.66699 17 -8.33398 23 -11.001c16.667 -7.33301 31.334 -11 44.001 -11
c32.667 0 51.334 25.333 56.001 76h149c5.33301 -147.333 -53.334 -221 -176.001 -221c-26.667 0 -53.334 4 -80.001 12c-10 3.33301 -21.333 7.33301 -34 12c-4.66699 1.33301 -10.334 3.33301 -17.001 6l-43 17c-9.33301 4 -16 6.66699 -20 8c-12 4.66699 -24.333 7 -37 7
c-29.333 0 -46 -25 -50 -75h-155z" />
    <glyph glyph-name="uni1EBD" unicode="&#x1ebd;" horiz-adv-x="1097" 
d="M1025 643l0.000976562 -194h-612v-33c0 -74 22.667 -119 68 -135c35.333 -10 75.333 -15 120 -15h27c120 0 243 13 369 39h2v-274c0 -3.33301 -57.333 -14.333 -172 -33c-72 -8 -154.667 -12 -248 -12c-240 0 -395 81 -465 243c-26 64 -39 131 -39 201v262
c0 192 80.667 319.667 242 383c71.333 23.333 147.666 35 228.999 35c226 0 372.667 -73.667 440 -221c26 -58 39 -140 39 -246zM687.001 694c0 76 -16.333 121 -49 135c-24.667 16.667 -54.667 25 -90 25c-90 0 -135 -42.333 -135 -127v-51h274v18zM270.001 1176
c-8 149.333 50.999 224.001 176.999 224.001c22.667 0 46.667 -3.33301 72 -10l67 -23l12 -5l12 -6c9.33301 -4.66699 17 -8.33398 23 -11.001c16.667 -7.33301 31.334 -11 44.001 -11c32.667 0 51.334 25.333 56.001 76h149c5.33301 -147.333 -53.334 -221 -176.001 -221
c-26 0 -52.333 4 -79 12l-35 12c-4 1.33301 -9.33301 3.33301 -16 6l-43 17c-9.33301 4 -16 6.66699 -20 8c-12.667 4.66699 -25 7 -37 7c-30 0 -47 -25 -51 -75h-155z" />
    <glyph glyph-name="uni1EBE" unicode="&#x1ebe;" horiz-adv-x="1038" 
d="M466 913h400l-25 -280h-375v-330h502v-303h-897v1536h897v-297h-502v-326zM850 1620h-216l-114 139l-113 -139h-218l218 282h227zM773 1819l137 285h268l-238 -285h-167z" />
    <glyph glyph-name="uni1EBF" unicode="&#x1ebf;" horiz-adv-x="1097" 
d="M1025 643l0.000976562 -194h-612v-33c0 -74 22.667 -119 68 -135c35.333 -10 75.333 -15 120 -15h27c120 0 243 13 369 39h2v-274c0 -3.33301 -57.333 -14.333 -172 -33c-72 -8 -154.667 -12 -248 -12c-240 0 -395 81 -465 243c-26 64 -39 131 -39 201v262
c0 192 80.667 319.667 242 383c71.333 23.333 147.666 35 228.999 35c226 0 372.667 -73.667 440 -221c26 -58 39 -140 39 -246zM687.001 694c0 76 -16.333 121 -49 135c-24.667 16.667 -54.667 25 -90 25c-90 0 -135 -42.333 -135 -127v-51h274v18zM896.001 1182h-216
l-114 139l-113 -139h-217l217 282h227zM772.001 1391l137 285h268l-238 -285h-167z" />
    <glyph glyph-name="uni1EC0" unicode="&#x1ec0;" horiz-adv-x="1038" 
d="M466 913h400l-25 -280h-375v-330h502v-303h-897v1536h897v-297h-502v-326zM850 1620h-216l-114 139l-113 -139h-218l218 282h227zM792 1819l-238 285h268l137 -285h-167z" />
    <glyph glyph-name="uni1EC1" unicode="&#x1ec1;" horiz-adv-x="1097" 
d="M1025 643l0.000976562 -194h-612v-33c0 -74 22.667 -119 68 -135c35.333 -10 75.333 -15 120 -15h27c120 0 243 13 369 39h2v-274c0 -3.33301 -57.333 -14.333 -172 -33c-72 -8 -154.667 -12 -248 -12c-240 0 -395 81 -465 243c-26 64 -39 131 -39 201v262
c0 192 80.667 319.667 242 383c71.333 23.333 147.666 35 228.999 35c226 0 372.667 -73.667 440 -221c26 -58 39 -140 39 -246zM687.001 694c0 76 -16.333 121 -49 135c-24.667 16.667 -54.667 25 -90 25c-90 0 -135 -42.333 -135 -127v-51h274v18zM896.001 1182h-216
l-114 139l-113 -139h-217l217 282h227zM810.001 1391l-238 285h268l137 -285h-167z" />
    <glyph glyph-name="uni1EC2" unicode="&#x1ec2;" horiz-adv-x="1038" 
d="M466 913h400l-25 -280h-375v-330h502v-303h-897v1536h897v-297h-502v-326zM850 1620h-216l-114 139l-113 -139h-218l218 282h227zM1063 2040c-0.666992 -35.333 -5.00098 -61.3311 -13.001 -77.998c-26.667 -56.667 -90 -96.334 -190 -119.001l-14 -56l-97 19l-4 113
c56 19.333 94.833 34.166 116.5 44.499s36.5 19.833 44.5 28.5c5.33301 4 8 20.333 8 49c0 27.333 -3 43 -9 47c-6 6.66699 -21.667 10 -47 10c-15.333 0.666992 -37 -1 -65 -5c-10 -1.33301 -22.333 -3.33301 -37 -6c-8 -0.666992 -26 -3.66699 -54 -9l11 107
c56.667 14 110 21 160 21c76 0 131.667 -23.333 167 -70c14.667 -20.667 22.334 -51.667 23.001 -93v-3z" />
    <glyph glyph-name="uni1EC3" unicode="&#x1ec3;" horiz-adv-x="1097" 
d="M1025 643l0.000976562 -194h-612v-33c0 -74 22.667 -119 68 -135c35.333 -10 75.333 -15 120 -15h27c120 0 243 13 369 39h2v-274c0 -3.33301 -57.333 -14.333 -172 -33c-72 -8 -154.667 -12 -248 -12c-240 0 -395 81 -465 243c-26 64 -39 131 -39 201v262
c0 192 80.667 319.667 242 383c71.333 23.333 147.666 35 228.999 35c226 0 372.667 -73.667 440 -221c26 -58 39 -140 39 -246zM687.001 694c0 76 -16.333 121 -49 135c-24.667 16.667 -54.667 25 -90 25c-90 0 -135 -42.333 -135 -127v-51h274v18zM896.001 1182h-216
l-114 139l-113 -139h-217l217 282h227zM1081 1603c-0.666992 -35.333 -5.00195 -61.3311 -13.002 -77.998c-26 -56.667 -89.333 -96.334 -190 -119.001l-14 -56l-97 19l-4 113c56 19.333 95 34.166 117 44.499s36.667 19.833 44 28.5c6 4 9 20.333 9 49
c0 27.333 -3.33301 43 -10 47c-6 6.66699 -21.667 10 -47 10c-15.333 0.666992 -36.666 -1 -63.999 -5c-10.667 -1.33301 -23.334 -3.33301 -38.001 -6c-8 -0.666992 -26 -3.66699 -54 -9l12 107c56 14 109 21 159 21c76.667 0 132.334 -23.333 167.001 -70
c14.667 -20.667 22.334 -51.667 23.001 -93v-3z" />
    <glyph glyph-name="uni1EC4" unicode="&#x1ec4;" horiz-adv-x="1038" 
d="M466 913h400l-25 -280h-375v-330h502v-303h-897v1536h897v-297h-502v-326zM850 1620h-216l-114 139l-113 -139h-218l218 282h227zM280 1936c-8 142.667 48 214 168 214c21.333 0 44.333 -3.33301 69 -10l64 -22c3.33301 -1.33301 7 -3 11 -5l12 -6l21 -10
c16.667 -6.66699 30.667 -10 42 -10c31.333 0 49.333 24 54 72h142c5.33301 -140 -50.667 -210 -168 -210c-24.667 0 -50 3.66699 -76 11c-9.33301 2.66699 -20 6.33398 -32 11.001c-4.66699 1.33301 -10 3.33301 -16 6l-41 17c-8.66699 3.33301 -15 5.66602 -19 6.99902
c-12 4.66699 -24 7 -36 7c-28 0 -44 -24 -48 -72h-147z" />
    <glyph glyph-name="uni1EC5" unicode="&#x1ec5;" horiz-adv-x="1097" 
d="M1025 643l0.000976562 -194h-612v-33c0 -74 22.667 -119 68 -135c35.333 -10 75.333 -15 120 -15h27c120 0 243 13 369 39h2v-274c0 -3.33301 -57.333 -14.333 -172 -33c-72 -8 -154.667 -12 -248 -12c-240 0 -395 81 -465 243c-26 64 -39 131 -39 201v262
c0 192 80.667 319.667 242 383c71.333 23.333 147.666 35 228.999 35c226 0 372.667 -73.667 440 -221c26 -58 39 -140 39 -246zM687.001 694c0 76 -16.333 121 -49 135c-24.667 16.667 -54.667 25 -90 25c-90 0 -135 -42.333 -135 -127v-51h274v18zM896.001 1182h-216
l-114 139l-113 -139h-217l217 282h227zM337.001 1508c-7.33301 142.667 48.666 214 167.999 214c22 0 45 -3.33301 69 -10l64 -22l12 -5l11 -6l22 -10c16 -6.66699 30 -10 42 -10c30.667 0 48.334 24 53.001 72h142c5.33301 -140 -50.667 -210 -168 -210
c-24.667 0 -49.667 3.66699 -75 11c-10 2.66699 -21 6.33398 -33 11.001c-4 1.33301 -9.33301 3.33301 -16 6l-41 17c-8.66699 3.33301 -15 5.66602 -19 6.99902c-12 4.66699 -23.667 7 -35 7c-28.667 0 -44.667 -24 -48 -72h-148z" />
    <glyph glyph-name="uni1EC6" unicode="&#x1ec6;" horiz-adv-x="1038" 
d="M466 913h400l-25 -280h-375v-330h502v-303h-897v1536h897v-297h-502v-326zM850 1620h-216l-114 139l-113 -139h-218l218 282h227zM603.5 -185.5c23 -23 34.5 -51.167 34.5 -84.5c0 -32.667 -11.5 -60.5 -34.5 -83.5s-50.833 -34.5 -83.5 -34.5
c-33.333 0 -61.5 11.5 -84.5 34.5s-34.5 50.833 -34.5 83.5c0 33.333 11.5 61.5 34.5 84.5s51.167 34.5 84.5 34.5c32.667 0 60.5 -11.5 83.5 -34.5z" />
    <glyph glyph-name="uni1EC7" unicode="&#x1ec7;" horiz-adv-x="1097" 
d="M1025 643l0.000976562 -194h-612v-33c0 -74 22.667 -119 68 -135c35.333 -10 75.333 -15 120 -15h27c120 0 243 13 369 39h2v-274c0 -3.33301 -57.333 -14.333 -172 -33c-72 -8 -154.667 -12 -248 -12c-240 0 -395 81 -465 243c-26 64 -39 131 -39 201v262
c0 192 80.667 319.667 242 383c71.333 23.333 147.666 35 228.999 35c226 0 372.667 -73.667 440 -221c26 -58 39 -140 39 -246zM687.001 694c0 76 -16.333 121 -49 135c-24.667 16.667 -54.667 25 -90 25c-90 0 -135 -42.333 -135 -127v-51h274v18zM896.001 1182h-216
l-114 139l-113 -139h-217l217 282h227zM650.501 -185.5c23 -23 34.5 -51.167 34.5 -84.5c0 -32.667 -11.5 -60.5 -34.5 -83.5s-50.833 -34.5 -83.5 -34.5s-60.667 11.5 -84 34.5s-35 50.833 -35 83.5c0 33.333 11.667 61.5 35 84.5s51.333 34.5 84 34.5
s60.5 -11.5 83.5 -34.5z" />
    <glyph glyph-name="uni1EC8" unicode="&#x1ec8;" horiz-adv-x="538" 
d="M466 0h-391v1536h391v-1536zM524 1872c-0.666992 -38 -5.33398 -66.334 -14.001 -85.001c-28.667 -61.333 -97.667 -104.333 -207 -129l-15 -61l-106 20l-5 124c61.333 20.667 103.833 36.667 127.5 48s39.834 21.666 48.501 30.999c6 4.66699 9 22.334 9 53.001
s-3.33301 48 -10 52c-6.66699 7.33301 -23.667 11 -51 11c-17.333 0 -41 -2 -71 -6c-11.333 -1.33301 -24.666 -3.33301 -39.999 -6c-8.66699 -1.33301 -28.334 -4.66602 -59.001 -9.99902l12 116c61.333 15.333 119.333 23 174 23c83.333 0 144 -25.333 182 -76
c16 -22 24.333 -55.667 25 -101v-4z" />
    <glyph glyph-name="uni1EC9" unicode="&#x1ec9;" horiz-adv-x="466" 
d="M66 0h338v1090h-338v-1090zM505 1425c-0.666992 -38 -5.33398 -66.334 -14.001 -85.001c-28.667 -61.333 -97.667 -104.333 -207 -129l-15 -61l-106 20l-5 124c61.333 20.667 103.833 36.667 127.5 48s39.834 21.666 48.501 30.999c6 4.66699 9 22.334 9 53.001
s-3.33301 48 -10 52c-6.66699 7.33301 -23.667 11 -51 11c-17.333 0 -41 -2 -71 -6c-11.333 -1.33301 -24.666 -3.33301 -39.999 -6c-8.66699 -1.33301 -28.334 -4.66602 -59.001 -9.99902l12 116c61.333 15.333 119.333 23 174 23c83.333 0 144 -25.333 182 -76
c16 -22 24.333 -55.667 25 -101v-4z" />
    <glyph glyph-name="uni1ECA" unicode="&#x1eca;" horiz-adv-x="538" 
d="M466 0h-391v1536h391v-1536zM354.5 -185.5c23 -23 34.5 -51.167 34.5 -84.5c0 -32.667 -11.5 -60.5 -34.5 -83.5s-50.833 -34.5 -83.5 -34.5c-33.333 0 -61.5 11.5 -84.5 34.5s-34.5 50.833 -34.5 83.5c0 33.333 11.5 61.5 34.5 84.5s51.167 34.5 84.5 34.5
c32.667 0 60.5 -11.5 83.5 -34.5z" />
    <glyph glyph-name="uni1ECB" unicode="&#x1ecb;" horiz-adv-x="466" 
d="M404 1431c4.66699 -17.333 7.00195 -39 7.00195 -65c0 -58 -14.333 -98.333 -43 -121c-13.333 -13.333 -34.333 -23 -63 -29c-20 -4 -43.333 -6 -70 -6s-50 2 -70 6c-28.667 6 -51.667 15.667 -69 29c-14.667 14 -25 33.333 -31 58c-4 16.667 -6 37.667 -6 63
c0 24 2 45 6 63c6 26.667 16.333 46.667 31 60c29.333 23.333 75.666 35 138.999 35c65.333 0 109.666 -11.667 132.999 -35c17.333 -14 29.333 -33.333 36 -58zM65.002 0h338v1090h-338v-1090zM318.002 -185.5c23.333 -23 35 -51.167 35 -84.5
c0 -32.667 -11.667 -60.5 -35 -83.5s-51.333 -34.5 -84 -34.5s-60.5 11.5 -83.5 34.5s-34.5 50.833 -34.5 83.5c0 33.333 11.5 61.5 34.5 84.5s50.833 34.5 83.5 34.5s60.667 -11.5 84 -34.5z" />
    <glyph glyph-name="uni1ECC" unicode="&#x1ecc;" horiz-adv-x="1435" 
d="M1400 817l-0.00195312 -99.9971c0 -180 -16.333 -305.667 -49 -377c-52 -122 -132 -211.333 -240 -268c-103.333 -56 -233.666 -84 -390.999 -84s-287.666 28 -390.999 84c-109.333 59.333 -189.333 148.666 -240 267.999c-34 74 -51 199.667 -51 377v100
c0 217.333 29.333 365.666 88 444.999c50 85.333 117.667 150.666 203 195.999c104 57.333 234.333 86 391 86c156 0 286.333 -28.667 391 -86c82 -44 149.667 -109.333 203 -196c57.333 -82 86 -230.333 86 -445zM719.998 297.003c124 2 202.668 26.666 236.001 73.999
c38 30.667 57 119.334 57 266.001v233c0 171.333 -21.333 270.333 -64 297c-40.667 41.333 -117 64 -229 68c-112 -4 -188.333 -26.667 -229 -68c-48 -30 -72 -126 -72 -288v-236c0 -147.333 21 -238 63 -272c33.333 -47.333 112.666 -72 237.999 -74zM802.999 -185.498
c23.333 -23 35 -51.167 35 -84.5c0 -32.667 -11.667 -60.5 -35 -83.5s-51.333 -34.5 -84 -34.5s-60.667 11.5 -84 34.5s-35 50.833 -35 83.5c0 33.333 11.667 61.5 35 84.5s51.333 34.5 84 34.5s60.667 -11.5 84 -34.5z" />
    <glyph glyph-name="uni1ECD" unicode="&#x1ecd;" horiz-adv-x="1034" 
d="M1003 647l-0.000976562 -201c0 -209.333 -75 -347 -225 -413c-75.333 -31.333 -164.333 -47 -267 -47c-224 0 -370 73 -438 219c-31.333 60.667 -47 135 -47 223v240c0 213.333 92 349.666 276 408.999c70.667 20.667 136.334 31 197.001 31h33
c229.333 0 377.333 -87.333 444 -262c18 -53.333 27 -119.666 27 -198.999zM666.999 659c0 87.333 -24.666 138 -73.999 152c-14.667 8 -36.334 12 -65.001 12h-27c-60 0 -102.333 -24.333 -127 -73c-6.66699 -20.667 -10 -44 -10 -70v-274c0 -94.667 49 -142 147 -142h9
c78 0 126.333 34.333 145 103l1 26v4zM598.5 -185.5c23 -23 34.5 -51.167 34.5 -84.5c0 -32.667 -11.5 -60.5 -34.5 -83.5s-51.167 -34.5 -84.5 -34.5c-32.667 0 -60.5 11.5 -83.5 34.5s-34.5 50.833 -34.5 83.5c0 33.333 11.5 61.5 34.5 84.5s50.833 34.5 83.5 34.5
c33.333 0 61.5 -11.5 84.5 -34.5z" />
    <glyph glyph-name="uni1ECE" unicode="&#x1ece;" horiz-adv-x="1435" 
d="M1400 817l-0.00195312 -99.9971c0 -180 -16.333 -305.667 -49 -377c-52 -122 -132 -211.333 -240 -268c-103.333 -56 -233.666 -84 -390.999 -84s-287.666 28 -390.999 84c-109.333 59.333 -189.333 148.666 -240 267.999c-34 74 -51 199.667 -51 377v100
c0 217.333 29.333 365.666 88 444.999c50 85.333 117.667 150.666 203 195.999c104 57.333 234.333 86 391 86c156 0 286.333 -28.667 391 -86c82 -44 149.667 -109.333 203 -196c57.333 -82 86 -230.333 86 -445zM719.998 297.003c124 2 202.668 26.666 236.001 73.999
c38 30.667 57 119.334 57 266.001v233c0 171.333 -21.333 270.333 -64 297c-40.667 41.333 -117 64 -229 68c-112 -4 -188.333 -26.667 -229 -68c-48 -30 -72 -126 -72 -288v-236c0 -147.333 21 -238 63 -272c33.333 -47.333 112.666 -72 237.999 -74zM980.999 1872
c-0.666992 -38 -5.66797 -66.334 -15.001 -85.001c-28.667 -61.333 -97.334 -104.333 -206.001 -129l-15 -61l-106 20l-5 124c61.333 20.667 103.833 36.667 127.5 48s39.834 21.666 48.501 30.999c6 4.66699 9 22.334 9 53.001s-3.33301 48 -10 52
c-6.66699 7.33301 -23.667 11 -51 11c-17.333 0 -41 -2 -71 -6c-11.333 -1.33301 -24.666 -3.33301 -39.999 -6c-8.66699 -1.33301 -28.334 -4.66602 -59.001 -9.99902l12 116c61.333 15.333 119.333 23 174 23c82.667 0 143.334 -25.333 182.001 -76
c16 -22 24.333 -55.667 25 -101v-4z" />
    <glyph glyph-name="uni1ECF" unicode="&#x1ecf;" horiz-adv-x="1034" 
d="M1003 647l-0.000976562 -201c0 -209.333 -75 -347 -225 -413c-75.333 -31.333 -164.333 -47 -267 -47c-224 0 -370 73 -438 219c-31.333 60.667 -47 135 -47 223v240c0 213.333 92 349.666 276 408.999c70.667 20.667 136.334 31 197.001 31h33
c229.333 0 377.333 -87.333 444 -262c18 -53.333 27 -119.666 27 -198.999zM666.999 659c0 87.333 -24.666 138 -73.999 152c-14.667 8 -36.334 12 -65.001 12h-27c-60 0 -102.333 -24.333 -127 -73c-6.66699 -20.667 -10 -44 -10 -70v-274c0 -94.667 49 -142 147 -142h9
c78 0 126.333 34.333 145 103l1 26v4zM789 1425c-0.666992 -38 -5.33398 -66.334 -14.001 -85.001c-28.667 -61.333 -97.667 -104.333 -207 -129l-15 -61l-106 20l-5 124c61.333 20.667 103.833 36.667 127.5 48s39.834 21.666 48.501 30.999c6 4.66699 9 22.334 9 53.001
s-3.33301 48 -10 52c-6.66699 7.33301 -23.667 11 -51 11c-17.333 0 -41 -2 -71 -6c-11.333 -1.33301 -24.666 -3.33301 -39.999 -6c-8.66699 -1.33301 -28.334 -4.66602 -59.001 -9.99902l12 116c61.333 15.333 119.333 23 174 23c83.333 0 144 -25.333 182 -76
c16 -22 24.333 -55.667 25 -101v-4z" />
    <glyph glyph-name="uni1ED0" unicode="&#x1ed0;" horiz-adv-x="1435" 
d="M1400 817l-0.00195312 -99.9971c0 -180 -16.333 -305.667 -49 -377c-52 -122 -132 -211.333 -240 -268c-103.333 -56 -233.666 -84 -390.999 -84s-287.666 28 -390.999 84c-109.333 59.333 -189.333 148.666 -240 267.999c-34 74 -51 199.667 -51 377v100
c0 217.333 29.333 365.666 88 444.999c50 85.333 117.667 150.666 203 195.999c104 57.333 234.333 86 391 86c156 0 286.333 -28.667 391 -86c82 -44 149.667 -109.333 203 -196c57.333 -82 86 -230.333 86 -445zM719.998 297.003c124 2 202.668 26.666 236.001 73.999
c38 30.667 57 119.334 57 266.001v233c0 171.333 -21.333 270.333 -64 297c-40.667 41.333 -117 64 -229 68c-112 -4 -188.333 -26.667 -229 -68c-48 -30 -72 -126 -72 -288v-236c0 -147.333 21 -238 63 -272c33.333 -47.333 112.666 -72 237.999 -74zM1049 1620h-215
l-115 139l-113 -139h-217l217 282h228zM961.999 1819l137 285h268l-238 -285h-167z" />
    <glyph glyph-name="uni1ED1" unicode="&#x1ed1;" horiz-adv-x="1034" 
d="M1003 647l-0.000976562 -201c0 -209.333 -75 -347 -225 -413c-75.333 -31.333 -164.333 -47 -267 -47c-224 0 -370 73 -438 219c-31.333 60.667 -47 135 -47 223v240c0 213.333 92 349.666 276 408.999c70.667 20.667 136.334 31 197.001 31h33
c229.333 0 377.333 -87.333 444 -262c18 -53.333 27 -119.666 27 -198.999zM666.999 659c0 87.333 -24.666 138 -73.999 152c-14.667 8 -36.334 12 -65.001 12h-27c-60 0 -102.333 -24.333 -127 -73c-6.66699 -20.667 -10 -44 -10 -70v-274c0 -94.667 49 -142 147 -142h9
c78 0 126.333 34.333 145 103l1 26v4zM844 1182h-215l-115 139l-112 -139h-218l218 282h227zM734 1391l137 285h268l-238 -285h-167z" />
    <glyph glyph-name="uni1ED2" unicode="&#x1ed2;" horiz-adv-x="1435" 
d="M1400 817l-0.00195312 -99.9971c0 -180 -16.333 -305.667 -49 -377c-52 -122 -132 -211.333 -240 -268c-103.333 -56 -233.666 -84 -390.999 -84s-287.666 28 -390.999 84c-109.333 59.333 -189.333 148.666 -240 267.999c-34 74 -51 199.667 -51 377v100
c0 217.333 29.333 365.666 88 444.999c50 85.333 117.667 150.666 203 195.999c104 57.333 234.333 86 391 86c156 0 286.333 -28.667 391 -86c82 -44 149.667 -109.333 203 -196c57.333 -82 86 -230.333 86 -445zM719.998 297.003c124 2 202.668 26.666 236.001 73.999
c38 30.667 57 119.334 57 266.001v233c0 171.333 -21.333 270.333 -64 297c-40.667 41.333 -117 64 -229 68c-112 -4 -188.333 -26.667 -229 -68c-48 -30 -72 -126 -72 -288v-236c0 -147.333 21 -238 63 -272c33.333 -47.333 112.666 -72 237.999 -74zM1049 1620h-215
l-115 139l-113 -139h-217l217 282h228zM981.999 1819l-238 285h268l137 -285h-167z" />
    <glyph glyph-name="uni1ED3" unicode="&#x1ed3;" horiz-adv-x="1034" 
d="M1003 647l-0.000976562 -201c0 -209.333 -75 -347 -225 -413c-75.333 -31.333 -164.333 -47 -267 -47c-224 0 -370 73 -438 219c-31.333 60.667 -47 135 -47 223v240c0 213.333 92 349.666 276 408.999c70.667 20.667 136.334 31 197.001 31h33
c229.333 0 377.333 -87.333 444 -262c18 -53.333 27 -119.666 27 -198.999zM666.999 659c0 87.333 -24.666 138 -73.999 152c-14.667 8 -36.334 12 -65.001 12h-27c-60 0 -102.333 -24.333 -127 -73c-6.66699 -20.667 -10 -44 -10 -70v-274c0 -94.667 49 -142 147 -142h9
c78 0 126.333 34.333 145 103l1 26v4zM844 1182h-215l-115 139l-112 -139h-218l218 282h227zM761 1391l-237 285h268l137 -285h-168z" />
    <glyph glyph-name="uni1ED4" unicode="&#x1ed4;" horiz-adv-x="1435" 
d="M1400 817l-0.00195312 -99.9971c0 -180 -16.333 -305.667 -49 -377c-52 -122 -132 -211.333 -240 -268c-103.333 -56 -233.666 -84 -390.999 -84s-287.666 28 -390.999 84c-109.333 59.333 -189.333 148.666 -240 267.999c-34 74 -51 199.667 -51 377v100
c0 217.333 29.333 365.666 88 444.999c50 85.333 117.667 150.666 203 195.999c104 57.333 234.333 86 391 86c156 0 286.333 -28.667 391 -86c82 -44 149.667 -109.333 203 -196c57.333 -82 86 -230.333 86 -445zM719.998 297.003c124 2 202.668 26.666 236.001 73.999
c38 30.667 57 119.334 57 266.001v233c0 171.333 -21.333 270.333 -64 297c-40.667 41.333 -117 64 -229 68c-112 -4 -188.333 -26.667 -229 -68c-48 -30 -72 -126 -72 -288v-236c0 -147.333 21 -238 63 -272c33.333 -47.333 112.666 -72 237.999 -74zM1049 1620h-215
l-115 139l-113 -139h-217l217 282h228zM1272 2040c-0.666992 -35.333 -5.00098 -61.3311 -13.001 -77.998c-26.667 -56.667 -90 -96.334 -190 -119.001l-14 -56l-97 19l-5 113c56 19.333 95 34.166 117 44.499s37 19.833 45 28.5c5.33301 4 8 20.333 8 49
c0 27.333 -3 43 -9 47c-6 6.66699 -21.667 10 -47 10c-16 0.666992 -37.667 -1 -65 -5c-10.667 -1.33301 -23 -3.33301 -37 -6c-8 -0.666992 -26 -3.66699 -54 -9l11 107c56 14 109.333 21 160 21c76 0 131.667 -23.333 167 -70c14.667 -20.667 22.334 -51.667 23.001 -93
v-3z" />
    <glyph glyph-name="uni1ED5" unicode="&#x1ed5;" horiz-adv-x="1034" 
d="M1003 647l-0.000976562 -201c0 -209.333 -75 -347 -225 -413c-75.333 -31.333 -164.333 -47 -267 -47c-224 0 -370 73 -438 219c-31.333 60.667 -47 135 -47 223v240c0 213.333 92 349.666 276 408.999c70.667 20.667 136.334 31 197.001 31h33
c229.333 0 377.333 -87.333 444 -262c18 -53.333 27 -119.666 27 -198.999zM666.999 659c0 87.333 -24.666 138 -73.999 152c-14.667 8 -36.334 12 -65.001 12h-27c-60 0 -102.333 -24.333 -127 -73c-6.66699 -20.667 -10 -44 -10 -70v-274c0 -94.667 49 -142 147 -142h9
c78 0 126.333 34.333 145 103l1 26v4zM844 1182h-215l-115 139l-112 -139h-218l218 282h227zM1043 1603c-1.33301 -35.333 -6 -61.3311 -14 -77.998c-26 -56.667 -89 -96.334 -189 -119.001l-14 -56l-98 19l-4 113c56 19.333 95 34.166 117 44.499s37 19.833 45 28.5
c5.33301 4 8 20.333 8 49c0 27.333 -3 43 -9 47c-6 6.66699 -21.667 10 -47 10c-16 0.666992 -37.667 -1 -65 -5c-10.667 -1.33301 -23 -3.33301 -37 -6c-8 -0.666992 -26.333 -3.66699 -55 -9l12 107c56 14 109.333 21 160 21c76 0 131.667 -23.333 167 -70
c14 -20.667 21.667 -51.667 23 -93v-3z" />
    <glyph glyph-name="uni1ED6" unicode="&#x1ed6;" horiz-adv-x="1435" 
d="M1400 817l-0.00195312 -99.9971c0 -180 -16.333 -305.667 -49 -377c-52 -122 -132 -211.333 -240 -268c-103.333 -56 -233.666 -84 -390.999 -84s-287.666 28 -390.999 84c-109.333 59.333 -189.333 148.666 -240 267.999c-34 74 -51 199.667 -51 377v100
c0 217.333 29.333 365.666 88 444.999c50 85.333 117.667 150.666 203 195.999c104 57.333 234.333 86 391 86c156 0 286.333 -28.667 391 -86c82 -44 149.667 -109.333 203 -196c57.333 -82 86 -230.333 86 -445zM719.998 297.003c124 2 202.668 26.666 236.001 73.999
c38 30.667 57 119.334 57 266.001v233c0 171.333 -21.333 270.333 -64 297c-40.667 41.333 -117 64 -229 68c-112 -4 -188.333 -26.667 -229 -68c-48 -30 -72 -126 -72 -288v-236c0 -147.333 21 -238 63 -272c33.333 -47.333 112.666 -72 237.999 -74zM1049 1620h-215
l-115 139l-113 -139h-217l217 282h228zM460.999 1936c-8 142.667 47.999 214 167.999 214c21.333 0 44.333 -3.33301 69 -10l63 -22l12 -5l11 -6c9.33301 -4 16.666 -7.33301 21.999 -10c16 -6.66699 30 -10 42 -10c31.333 0 49.333 24 54 72h142
c5.33301 -140 -50.667 -210 -168 -210c-25.333 0 -50.666 3.66699 -75.999 11c-9.33301 2.66699 -20.333 6.33398 -33 11.001c-4 1.33301 -9 3.33301 -15 6l-41 17c-9.33301 3.33301 -15.666 5.66602 -18.999 6.99902c-12 4.66699 -24 7 -36 7c-28 0 -44 -24 -48 -72h-147z
" />
    <glyph glyph-name="uni1ED7" unicode="&#x1ed7;" horiz-adv-x="1034" 
d="M1003 647l-0.000976562 -201c0 -209.333 -75 -347 -225 -413c-75.333 -31.333 -164.333 -47 -267 -47c-224 0 -370 73 -438 219c-31.333 60.667 -47 135 -47 223v240c0 213.333 92 349.666 276 408.999c70.667 20.667 136.334 31 197.001 31h33
c229.333 0 377.333 -87.333 444 -262c18 -53.333 27 -119.666 27 -198.999zM666.999 659c0 87.333 -24.666 138 -73.999 152c-14.667 8 -36.334 12 -65.001 12h-27c-60 0 -102.333 -24.333 -127 -73c-6.66699 -20.667 -10 -44 -10 -70v-274c0 -94.667 49 -142 147 -142h9
c78 0 126.333 34.333 145 103l1 26v4zM844 1182h-215l-115 139l-112 -139h-218l218 282h227zM261 1498c-7.33301 142.667 48.666 214 167.999 214c22 0 45.333 -3.33301 70 -10l63 -22l12 -5l11 -6c9.33301 -4 16.666 -7.33301 21.999 -10c16 -6.66699 30 -10 42 -10
c31.333 0 49.333 24 54 72h142c4.66699 -140 -51.333 -210 -168 -210c-25.333 0 -50.666 3.66699 -75.999 11c-9.33301 2.66699 -20.333 6.33398 -33 11.001c-4 1.33301 -9.33301 3.33301 -16 6l-40 17c-9.33301 3.33301 -15.666 5.66602 -18.999 6.99902
c-12 4.66699 -24 7 -36 7c-28 0 -44 -24 -48 -72h-148z" />
    <glyph glyph-name="uni1ED8" unicode="&#x1ed8;" horiz-adv-x="1435" 
d="M1400 817l-0.00195312 -99.9971c0 -180 -16.333 -305.667 -49 -377c-52 -122 -132 -211.333 -240 -268c-103.333 -56 -233.666 -84 -390.999 -84s-287.666 28 -390.999 84c-109.333 59.333 -189.333 148.666 -240 267.999c-34 74 -51 199.667 -51 377v100
c0 217.333 29.333 365.666 88 444.999c50 85.333 117.667 150.666 203 195.999c104 57.333 234.333 86 391 86c156 0 286.333 -28.667 391 -86c82 -44 149.667 -109.333 203 -196c57.333 -82 86 -230.333 86 -445zM719.998 297.003c124 2 202.668 26.666 236.001 73.999
c38 30.667 57 119.334 57 266.001v233c0 171.333 -21.333 270.333 -64 297c-40.667 41.333 -117 64 -229 68c-112 -4 -188.333 -26.667 -229 -68c-48 -30 -72 -126 -72 -288v-236c0 -147.333 21 -238 63 -272c33.333 -47.333 112.666 -72 237.999 -74zM1049 1620h-215
l-115 139l-113 -139h-217l217 282h228zM802.999 -185.498c23.333 -23 35 -51.167 35 -84.5c0 -32.667 -11.667 -60.5 -35 -83.5s-51.333 -34.5 -84 -34.5s-60.667 11.5 -84 34.5s-35 50.833 -35 83.5c0 33.333 11.667 61.5 35 84.5s51.333 34.5 84 34.5
s60.667 -11.5 84 -34.5z" />
    <glyph glyph-name="uni1ED9" unicode="&#x1ed9;" horiz-adv-x="1034" 
d="M1003 647l-0.000976562 -201c0 -209.333 -75 -347 -225 -413c-75.333 -31.333 -164.333 -47 -267 -47c-224 0 -370 73 -438 219c-31.333 60.667 -47 135 -47 223v240c0 213.333 92 349.666 276 408.999c70.667 20.667 136.334 31 197.001 31h33
c229.333 0 377.333 -87.333 444 -262c18 -53.333 27 -119.666 27 -198.999zM666.999 659c0 87.333 -24.666 138 -73.999 152c-14.667 8 -36.334 12 -65.001 12h-27c-60 0 -102.333 -24.333 -127 -73c-6.66699 -20.667 -10 -44 -10 -70v-274c0 -94.667 49 -142 147 -142h9
c78 0 126.333 34.333 145 103l1 26v4zM844 1182h-215l-115 139l-112 -139h-218l218 282h227zM598.5 -185.5c23 -23 34.5 -51.167 34.5 -84.5c0 -32.667 -11.5 -60.5 -34.5 -83.5s-51.167 -34.5 -84.5 -34.5c-32.667 0 -60.5 11.5 -83.5 34.5s-34.5 50.833 -34.5 83.5
c0 33.333 11.5 61.5 34.5 84.5s50.833 34.5 83.5 34.5c33.333 0 61.5 -11.5 84.5 -34.5z" />
    <glyph glyph-name="uni1EDA" unicode="&#x1eda;" horiz-adv-x="1435" 
d="M1400 817l-0.00195312 -99.9971c0 -180 -16.333 -305.667 -49 -377c-52 -122 -132 -211.333 -240 -268c-103.333 -56 -233.666 -84 -390.999 -84s-287.666 28 -390.999 84c-109.333 59.333 -189.333 148.666 -240 267.999c-34 74 -51 199.667 -51 377v100
c0 217.333 29.333 365.666 88 444.999c50 85.333 117.667 150.666 203 195.999c104 57.333 234.333 86 391 86c156 0 286.333 -28.667 391 -86c82 -44 149.667 -109.333 203 -196c57.333 -82 86 -230.333 86 -445zM719.998 297.003c124 2 202.668 26.666 236.001 73.999
c38 30.667 57 119.334 57 266.001v233c0 171.333 -21.333 270.333 -64 297c-40.667 41.333 -117 64 -229 68c-112 -4 -188.333 -26.667 -229 -68c-48 -30 -72 -126 -72 -288v-236c0 -147.333 21 -238 63 -272c33.333 -47.333 112.666 -72 237.999 -74zM567.999 1620l147 315
h289l-256 -315h-180zM1113 1287l1 105.999c70 26.667 110.667 63.334 122 110.001l-10 3c-33.333 10 -55.333 21.333 -66 34c-14 14.667 -21 42.667 -21 84c4 38 15.667 64.667 35 80c9.33301 8 25 14 47 18c15.333 3.33301 27.666 5 36.999 5c12.667 0 26 -1.33301 40 -4
c20.667 -4 36.334 -10.333 47.001 -19c12 -10 20 -23.333 24 -40c2.66699 -10 4 -26 4 -48c0 -12 -1.33301 -23.667 -4 -35l-7 -24c-36.667 -126.667 -119.667 -216.667 -249 -270z" />
    <glyph glyph-name="uni1EDB" unicode="&#x1edb;" horiz-adv-x="1034" 
d="M1003 647l-0.000976562 -201c0 -209.333 -75 -347 -225 -413c-75.333 -31.333 -164.333 -47 -267 -47c-224 0 -370 73 -438 219c-31.333 60.667 -47 135 -47 223v240c0 213.333 92 349.666 276 408.999c70.667 20.667 136.334 31 197.001 31h33
c229.333 0 377.333 -87.333 444 -262c18 -53.333 27 -119.666 27 -198.999zM666.999 659c0 87.333 -24.666 138 -73.999 152c-14.667 8 -36.334 12 -65.001 12h-27c-60 0 -102.333 -24.333 -127 -73c-6.66699 -20.667 -10 -44 -10 -70v-274c0 -94.667 49 -142 147 -142h9
c78 0 126.333 34.333 145 103l1 26v4zM357 1182l147 315h289l-256 -315h-180zM778 859l0.998047 105.999c70 26.667 110.667 63.334 122 110.001l-10 3c-33.333 10 -55.666 21.333 -66.999 34c-13.333 14.667 -20 42.667 -20 84c4 38 15.667 64.667 35 80
c9.33301 8 24.666 14 45.999 18c16 3.33301 28.333 5 37 5c12.667 0 26.334 -1.33301 41.001 -4c20.667 -4 36.334 -10.333 47.001 -19c12 -10 20 -23.333 24 -40c2 -10 3 -26 3 -48c0 -12 -1 -23.667 -3 -35l-7 -24c-36.667 -126.667 -119.667 -216.667 -249 -270z" />
    <glyph glyph-name="uni1EDC" unicode="&#x1edc;" horiz-adv-x="1435" 
d="M1400 817l-0.00195312 -99.9971c0 -180 -16.333 -305.667 -49 -377c-52 -122 -132 -211.333 -240 -268c-103.333 -56 -233.666 -84 -390.999 -84s-287.666 28 -390.999 84c-109.333 59.333 -189.333 148.666 -240 267.999c-34 74 -51 199.667 -51 377v100
c0 217.333 29.333 365.666 88 444.999c50 85.333 117.667 150.666 203 195.999c104 57.333 234.333 86 391 86c156 0 286.333 -28.667 391 -86c82 -44 149.667 -109.333 203 -196c57.333 -82 86 -230.333 86 -445zM719.998 297.003c124 2 202.668 26.666 236.001 73.999
c38 30.667 57 119.334 57 266.001v233c0 171.333 -21.333 270.333 -64 297c-40.667 41.333 -117 64 -229 68c-112 -4 -188.333 -26.667 -229 -68c-48 -30 -72 -126 -72 -288v-236c0 -147.333 21 -238 63 -272c33.333 -47.333 112.666 -72 237.999 -74zM633.999 1620
l-256 315h288l148 -315h-180zM1113 1287l1 105.999c70 26.667 110.667 63.334 122 110.001l-10 3c-33.333 10 -55.333 21.333 -66 34c-14 14.667 -21 42.667 -21 84c4 38 15.667 64.667 35 80c9.33301 8 25 14 47 18c15.333 3.33301 27.666 5 36.999 5
c12.667 0 26 -1.33301 40 -4c20.667 -4 36.334 -10.333 47.001 -19c12 -10 20 -23.333 24 -40c2.66699 -10 4 -26 4 -48c0 -12 -1.33301 -23.667 -4 -35l-7 -24c-36.667 -126.667 -119.667 -216.667 -249 -270z" />
    <glyph glyph-name="uni1EDD" unicode="&#x1edd;" horiz-adv-x="1034" 
d="M1003 647l-0.000976562 -201c0 -209.333 -75 -347 -225 -413c-75.333 -31.333 -164.333 -47 -267 -47c-224 0 -370 73 -438 219c-31.333 60.667 -47 135 -47 223v240c0 213.333 92 349.666 276 408.999c70.667 20.667 136.334 31 197.001 31h33
c229.333 0 377.333 -87.333 444 -262c18 -53.333 27 -119.666 27 -198.999zM666.999 659c0 87.333 -24.666 138 -73.999 152c-14.667 8 -36.334 12 -65.001 12h-27c-60 0 -102.333 -24.333 -127 -73c-6.66699 -20.667 -10 -44 -10 -70v-274c0 -94.667 49 -142 147 -142h9
c78 0 126.333 34.333 145 103l1 26v4zM489 1182l-256 315h289l147 -315h-180zM778 859l0.998047 105.999c70 26.667 110.667 63.334 122 110.001l-10 3c-33.333 10 -55.666 21.333 -66.999 34c-13.333 14.667 -20 42.667 -20 84c4 38 15.667 64.667 35 80
c9.33301 8 24.666 14 45.999 18c16 3.33301 28.333 5 37 5c12.667 0 26.334 -1.33301 41.001 -4c20.667 -4 36.334 -10.333 47.001 -19c12 -10 20 -23.333 24 -40c2 -10 3 -26 3 -48c0 -12 -1 -23.667 -3 -35l-7 -24c-36.667 -126.667 -119.667 -216.667 -249 -270z" />
    <glyph glyph-name="uni1EDE" unicode="&#x1ede;" horiz-adv-x="1435" 
d="M1400 817l-0.00195312 -99.9971c0 -180 -16.333 -305.667 -49 -377c-52 -122 -132 -211.333 -240 -268c-103.333 -56 -233.666 -84 -390.999 -84s-287.666 28 -390.999 84c-109.333 59.333 -189.333 148.666 -240 267.999c-34 74 -51 199.667 -51 377v100
c0 217.333 29.333 365.666 88 444.999c50 85.333 117.667 150.666 203 195.999c104 57.333 234.333 86 391 86c156 0 286.333 -28.667 391 -86c82 -44 149.667 -109.333 203 -196c57.333 -82 86 -230.333 86 -445zM719.998 297.003c124 2 202.668 26.666 236.001 73.999
c38 30.667 57 119.334 57 266.001v233c0 171.333 -21.333 270.333 -64 297c-40.667 41.333 -117 64 -229 68c-112 -4 -188.333 -26.667 -229 -68c-48 -30 -72 -126 -72 -288v-236c0 -147.333 21 -238 63 -272c33.333 -47.333 112.666 -72 237.999 -74zM980.999 1872
c-0.666992 -38 -5.66797 -66.334 -15.001 -85.001c-28.667 -61.333 -97.334 -104.333 -206.001 -129l-15 -61l-106 20l-5 124c61.333 20.667 103.833 36.667 127.5 48s39.834 21.666 48.501 30.999c6 4.66699 9 22.334 9 53.001s-3.33301 48 -10 52
c-6.66699 7.33301 -23.667 11 -51 11c-17.333 0 -41 -2 -71 -6c-11.333 -1.33301 -24.666 -3.33301 -39.999 -6c-8.66699 -1.33301 -28.334 -4.66602 -59.001 -9.99902l12 116c61.333 15.333 119.333 23 174 23c82.667 0 143.334 -25.333 182.001 -76
c16 -22 24.333 -55.667 25 -101v-4zM1113 1287l1 105.999c70 26.667 110.667 63.334 122 110.001l-10 3c-33.333 10 -55.333 21.333 -66 34c-14 14.667 -21 42.667 -21 84c4 38 15.667 64.667 35 80c9.33301 8 25 14 47 18c15.333 3.33301 27.666 5 36.999 5
c12.667 0 26 -1.33301 40 -4c20.667 -4 36.334 -10.333 47.001 -19c12 -10 20 -23.333 24 -40c2.66699 -10 4 -26 4 -48c0 -12 -1.33301 -23.667 -4 -35l-7 -24c-36.667 -126.667 -119.667 -216.667 -249 -270z" />
    <glyph glyph-name="uni1EDF" unicode="&#x1edf;" horiz-adv-x="1034" 
d="M1003 647l-0.000976562 -201c0 -209.333 -75 -347 -225 -413c-75.333 -31.333 -164.333 -47 -267 -47c-224 0 -370 73 -438 219c-31.333 60.667 -47 135 -47 223v240c0 213.333 92 349.666 276 408.999c70.667 20.667 136.334 31 197.001 31h33
c229.333 0 377.333 -87.333 444 -262c18 -53.333 27 -119.666 27 -198.999zM666.999 659c0 87.333 -24.666 138 -73.999 152c-14.667 8 -36.334 12 -65.001 12h-27c-60 0 -102.333 -24.333 -127 -73c-6.66699 -20.667 -10 -44 -10 -70v-274c0 -94.667 49 -142 147 -142h9
c78 0 126.333 34.333 145 103l1 26v4zM789 1425c-0.666992 -38 -5.33398 -66.334 -14.001 -85.001c-28.667 -61.333 -97.667 -104.333 -207 -129l-15 -61l-106 20l-5 124c61.333 20.667 103.833 36.667 127.5 48s39.834 21.666 48.501 30.999c6 4.66699 9 22.334 9 53.001
s-3.33301 48 -10 52c-6.66699 7.33301 -23.667 11 -51 11c-17.333 0 -41 -2 -71 -6c-11.333 -1.33301 -24.666 -3.33301 -39.999 -6c-8.66699 -1.33301 -28.334 -4.66602 -59.001 -9.99902l12 116c61.333 15.333 119.333 23 174 23c83.333 0 144 -25.333 182 -76
c16 -22 24.333 -55.667 25 -101v-4zM778 858.999l0.998047 105.999c70 26.667 110.667 63.334 122 110.001l-10 3c-33.333 10 -55.666 21.333 -66.999 34c-13.333 14.667 -20 42.667 -20 84c4 38 15.667 64.667 35 80c9.33301 8 24.666 14 45.999 18
c16 3.33301 28.333 5 37 5c12.667 0 26.334 -1.33301 41.001 -4c20.667 -4 36.334 -10.333 47.001 -19c12 -10 20 -23.333 24 -40c2 -10 3 -26 3 -48c0 -12 -1 -23.667 -3 -35l-7 -24c-36.667 -126.667 -119.667 -216.667 -249 -270z" />
    <glyph glyph-name="uni1EE0" unicode="&#x1ee0;" horiz-adv-x="1435" 
d="M1400 817l-0.00195312 -99.9971c0 -180 -16.333 -305.667 -49 -377c-52 -122 -132 -211.333 -240 -268c-103.333 -56 -233.666 -84 -390.999 -84s-287.666 28 -390.999 84c-109.333 59.333 -189.333 148.666 -240 267.999c-34 74 -51 199.667 -51 377v100
c0 217.333 29.333 365.666 88 444.999c50 85.333 117.667 150.666 203 195.999c104 57.333 234.333 86 391 86c156 0 286.333 -28.667 391 -86c82 -44 149.667 -109.333 203 -196c57.333 -82 86 -230.333 86 -445zM719.998 297.003c124 2 202.668 26.666 236.001 73.999
c38 30.667 57 119.334 57 266.001v233c0 171.333 -21.333 270.333 -64 297c-40.667 41.333 -117 64 -229 68c-112 -4 -188.333 -26.667 -229 -68c-48 -30 -72 -126 -72 -288v-236c0 -147.333 21 -238 63 -272c33.333 -47.333 112.666 -72 237.999 -74zM404.999 1604
c-8 149.333 50.668 224.001 176.001 224.001c22.667 0 47 -3.33301 73 -10l66 -23l13 -5l11 -6c9.33301 -4.66699 17 -8.33398 23 -11.001c17.333 -7.33301 32 -11 44 -11c32.667 0 51.667 25.333 57 76h149c5.33301 -147.333 -53.667 -221 -177 -221
c-26 0 -52.333 4 -79 12c-10 3.33301 -21.333 7.33301 -34 12c-4.66699 1.33301 -10.334 3.33301 -17.001 6l-43 17c-9.33301 4 -16 6.66699 -20 8c-12.667 4.66699 -25 7 -37 7c-30 0 -46.667 -25 -50 -75h-155zM1113 1287l1 105.999c70 26.667 110.667 63.334 122 110.001
l-10 3c-33.333 10 -55.333 21.333 -66 34c-14 14.667 -21 42.667 -21 84c4 38 15.667 64.667 35 80c9.33301 8 25 14 47 18c15.333 3.33301 27.666 5 36.999 5c12.667 0 26 -1.33301 40 -4c20.667 -4 36.334 -10.333 47.001 -19c12 -10 20 -23.333 24 -40
c2.66699 -10 4 -26 4 -48c0 -12 -1.33301 -23.667 -4 -35l-7 -24c-36.667 -126.667 -119.667 -216.667 -249 -270z" />
    <glyph glyph-name="uni1EE1" unicode="&#x1ee1;" horiz-adv-x="1034" 
d="M1003 647l-0.000976562 -201c0 -209.333 -75 -347 -225 -413c-75.333 -31.333 -164.333 -47 -267 -47c-224 0 -370 73 -438 219c-31.333 60.667 -47 135 -47 223v240c0 213.333 92 349.666 276 408.999c70.667 20.667 136.334 31 197.001 31h33
c229.333 0 377.333 -87.333 444 -262c18 -53.333 27 -119.666 27 -198.999zM666.999 659c0 87.333 -24.666 138 -73.999 152c-14.667 8 -36.334 12 -65.001 12h-27c-60 0 -102.333 -24.333 -127 -73c-6.66699 -20.667 -10 -44 -10 -70v-274c0 -94.667 49 -142 147 -142h9
c78 0 126.333 34.333 145 103l1 26v4zM221 1233c-8 149.333 50.6699 224 176.003 224c22.667 0 47 -3.33301 73 -10l66 -23c4 -1.33301 8.33301 -3 13 -5l11 -6l23 -11c17.333 -7.33301 32 -11 44 -11c32.667 0 51.667 25.333 57 76h149
c5.33301 -147.333 -53.334 -221 -176.001 -221c-26.667 0 -53.334 4 -80.001 12c-10 3.33301 -21.333 7.33301 -34 12c-4.66699 1.33301 -10.334 3.33301 -17.001 6l-43 17c-9.33301 4 -16 6.66699 -20 8c-12.667 4.66699 -25 7 -37 7c-30 0 -46.667 -25 -50 -75h-155z
M778.003 859l0.998047 105.999c70 26.667 110.667 63.334 122 110.001l-10 3c-33.333 10 -55.666 21.333 -66.999 34c-13.333 14.667 -20 42.667 -20 84c4 38 15.667 64.667 35 80c9.33301 8 24.666 14 45.999 18c16 3.33301 28.333 5 37 5
c12.667 0 26.334 -1.33301 41.001 -4c20.667 -4 36.334 -10.333 47.001 -19c12 -10 20 -23.333 24 -40c2 -10 3 -26 3 -48c0 -12 -1 -23.667 -3 -35l-7 -24c-36.667 -126.667 -119.667 -216.667 -249 -270z" />
    <glyph glyph-name="uni1EE2" unicode="&#x1ee2;" horiz-adv-x="1435" 
d="M1400 817l-0.00195312 -99.9971c0 -180 -16.333 -305.667 -49 -377c-52 -122 -132 -211.333 -240 -268c-103.333 -56 -233.666 -84 -390.999 -84s-287.666 28 -390.999 84c-109.333 59.333 -189.333 148.666 -240 267.999c-34 74 -51 199.667 -51 377v100
c0 217.333 29.333 365.666 88 444.999c50 85.333 117.667 150.666 203 195.999c104 57.333 234.333 86 391 86c156 0 286.333 -28.667 391 -86c82 -44 149.667 -109.333 203 -196c57.333 -82 86 -230.333 86 -445zM719.998 297.003c124 2 202.668 26.666 236.001 73.999
c38 30.667 57 119.334 57 266.001v233c0 171.333 -21.333 270.333 -64 297c-40.667 41.333 -117 64 -229 68c-112 -4 -188.333 -26.667 -229 -68c-48 -30 -72 -126 -72 -288v-236c0 -147.333 21 -238 63 -272c33.333 -47.333 112.666 -72 237.999 -74zM802.999 -185.498
c23.333 -23 35 -51.167 35 -84.5c0 -32.667 -11.667 -60.5 -35 -83.5s-51.333 -34.5 -84 -34.5s-60.667 11.5 -84 34.5s-35 50.833 -35 83.5c0 33.333 11.667 61.5 35 84.5s51.333 34.5 84 34.5s60.667 -11.5 84 -34.5zM1113 1287l1 105.999
c70 26.667 110.667 63.334 122 110.001l-10 3c-33.333 10 -55.333 21.333 -66 34c-14 14.667 -21 42.667 -21 84c4 38 15.667 64.667 35 80c9.33301 8 25 14 47 18c15.333 3.33301 27.666 5 36.999 5c12.667 0 26 -1.33301 40 -4c20.667 -4 36.334 -10.333 47.001 -19
c12 -10 20 -23.333 24 -40c2.66699 -10 4 -26 4 -48c0 -12 -1.33301 -23.667 -4 -35l-7 -24c-36.667 -126.667 -119.667 -216.667 -249 -270z" />
    <glyph glyph-name="uni1EE3" unicode="&#x1ee3;" horiz-adv-x="1034" 
d="M1003 647l-0.000976562 -201c0 -209.333 -75 -347 -225 -413c-75.333 -31.333 -164.333 -47 -267 -47c-224 0 -370 73 -438 219c-31.333 60.667 -47 135 -47 223v240c0 213.333 92 349.666 276 408.999c70.667 20.667 136.334 31 197.001 31h33
c229.333 0 377.333 -87.333 444 -262c18 -53.333 27 -119.666 27 -198.999zM666.999 659c0 87.333 -24.666 138 -73.999 152c-14.667 8 -36.334 12 -65.001 12h-27c-60 0 -102.333 -24.333 -127 -73c-6.66699 -20.667 -10 -44 -10 -70v-274c0 -94.667 49 -142 147 -142h9
c78 0 126.333 34.333 145 103l1 26v4zM598.5 -185.5c23 -23 34.5 -51.167 34.5 -84.5c0 -32.667 -11.5 -60.5 -34.5 -83.5s-51.167 -34.5 -84.5 -34.5c-32.667 0 -60.5 11.5 -83.5 34.5s-34.5 50.833 -34.5 83.5c0 33.333 11.5 61.5 34.5 84.5s50.833 34.5 83.5 34.5
c33.333 0 61.5 -11.5 84.5 -34.5zM778 859l0.998047 105.999c70 26.667 110.667 63.334 122 110.001l-10 3c-33.333 10 -55.666 21.333 -66.999 34c-13.333 14.667 -20 42.667 -20 84c4 38 15.667 64.667 35 80c9.33301 8 24.666 14 45.999 18c16 3.33301 28.333 5 37 5
c12.667 0 26.334 -1.33301 41.001 -4c20.667 -4 36.334 -10.333 47.001 -19c12 -10 20 -23.333 24 -40c2 -10 3 -26 3 -48c0 -12 -1 -23.667 -3 -35l-7 -24c-36.667 -126.667 -119.667 -216.667 -249 -270z" />
    <glyph glyph-name="uni1EE4" unicode="&#x1ee4;" horiz-adv-x="1507" 
d="M1437 719c0 -176.667 -17.666 -303.667 -52.999 -381c-52 -122 -131.333 -210.667 -238 -266c-108 -57.333 -238.333 -86 -391 -86s-283 28.667 -391 86c-111.333 59.333 -191.333 148 -240 266c-34 70 -51 197 -51 381v815h381v-893c0 -146 21 -236 63 -270
c35.333 -48 114.666 -74 237.999 -78c124 4 202.667 30 236 78c39.333 34 59 122 59 264v899h387v-815zM839.001 -185.5c23.333 -23 35 -51.167 35 -84.5c0 -32.667 -11.667 -60.5 -35 -83.5s-51.333 -34.5 -84 -34.5s-60.667 11.5 -84 34.5s-35 50.833 -35 83.5
c0 33.333 11.667 61.5 35 84.5s51.333 34.5 84 34.5s60.667 -11.5 84 -34.5z" />
    <glyph glyph-name="uni1EE5" unicode="&#x1ee5;" horiz-adv-x="1142" 
d="M73 461l0.000976562 631.002h342v-693c0 -68.667 32.667 -110.334 98 -125.001c28 -2.66699 50 -3.33398 66 -2.00098c52.667 3.33301 101.667 19 147 47l2 773h340v-1092h-280l-17 29c-2 4 -3.66699 7.66699 -5 11c-3.33301 8.66699 -6.33301 18 -9 28l-99 -43
c-30 -10.667 -60 -19 -90 -25c-38 -8 -76 -12.667 -114 -14c-78 -4 -140.667 3 -188 21c-60.667 23.333 -111.334 67.333 -152.001 132c-27.333 56.667 -41 164 -41 322zM683.001 -185.498c23.333 -23 35 -51.167 35 -84.5c0 -32.667 -11.667 -60.5 -35 -83.5
s-51.333 -34.5 -84 -34.5s-60.5 11.5 -83.5 34.5s-34.5 50.833 -34.5 83.5c0 33.333 11.5 61.5 34.5 84.5s50.833 34.5 83.5 34.5s60.667 -11.5 84 -34.5z" />
    <glyph glyph-name="uni1EE6" unicode="&#x1ee6;" horiz-adv-x="1507" 
d="M1437 719c0 -176.667 -17.666 -303.667 -52.999 -381c-52 -122 -131.333 -210.667 -238 -266c-108 -57.333 -238.333 -86 -391 -86s-283 28.667 -391 86c-111.333 59.333 -191.333 148 -240 266c-34 70 -51 197 -51 381v815h381v-893c0 -146 21 -236 63 -270
c35.333 -48 114.666 -74 237.999 -78c124 4 202.667 30 236 78c39.333 34 59 122 59 264v899h387v-815zM1038 1872c-0.666992 -38 -5.33301 -66.334 -14 -85.001c-28.667 -61.333 -97.667 -104.333 -207 -129l-15 -61l-106 20l-5 124c61.333 20.667 104 36.667 128 48
s40 21.666 48 30.999c6 4.66699 9 22.334 9 53.001s-3.33301 48 -10 52c-6.66699 7.33301 -23.667 11 -51 11c-17.333 0 -41 -2 -71 -6c-11.333 -1.33301 -24.666 -3.33301 -39.999 -6c-8.66699 -1.33301 -28.334 -4.66602 -59.001 -9.99902l12 116
c61.333 15.333 119.333 23 174 23c83.333 0 144 -25.333 182 -76c16 -22 24.333 -55.667 25 -101v-4z" />
    <glyph glyph-name="uni1EE7" unicode="&#x1ee7;" horiz-adv-x="1142" 
d="M73 461l0.000976562 631.002h342v-693c0 -68.667 32.667 -110.334 98 -125.001c28 -2.66699 50 -3.33398 66 -2.00098c52.667 3.33301 101.667 19 147 47l2 773h340v-1092h-280l-17 29c-2 4 -3.66699 7.66699 -5 11c-3.33301 8.66699 -6.33301 18 -9 28l-99 -43
c-30 -10.667 -60 -19 -90 -25c-38 -8 -76 -12.667 -114 -14c-78 -4 -140.667 3 -188 21c-60.667 23.333 -111.334 67.333 -152.001 132c-27.333 56.667 -41 164 -41 322zM846.001 1425c-0.666992 -38 -5.66699 -66.334 -15 -85.001
c-28.667 -61.333 -97.334 -104.333 -206.001 -129l-15 -61l-106 20l-5 124c61.333 20.667 103.833 36.667 127.5 48s39.834 21.666 48.501 30.999c6 4.66699 9 22.334 9 53.001s-3.33301 48 -10 52c-6.66699 7.33301 -23.667 11 -51 11c-17.333 0 -41 -2 -71 -6
c-11.333 -1.33301 -24.666 -3.33301 -39.999 -6c-8.66699 -1.33301 -28.334 -4.66602 -59.001 -9.99902l12 116c61.333 15.333 119.333 23 174 23c82.667 0 143.334 -25.333 182.001 -76c15.333 -22 23.666 -55.667 24.999 -101v-4z" />
    <glyph glyph-name="uni1EE8" unicode="&#x1ee8;" horiz-adv-x="1507" 
d="M1437 719c0 -176.667 -17.666 -303.667 -52.999 -381c-52 -122 -131.333 -210.667 -238 -266c-108 -57.333 -238.333 -86 -391 -86s-283 28.667 -391 86c-111.333 59.333 -191.333 148 -240 266c-34 70 -51 197 -51 381v815h381v-893c0 -146 21 -236 63 -270
c35.333 -48 114.666 -74 237.999 -78c124 4 202.667 30 236 78c39.333 34 59 122 59 264v899h387v-815zM625.001 1620l148 315h288l-256 -315h-180zM1390 1287l-0.00195312 105.999c70.667 26.667 111.334 63.334 122.001 110.001l-10 3c-33.333 10 -55.333 21.333 -66 34
c-14 14.667 -21 42.667 -21 84c4.66699 38 16.334 64.667 35.001 80c10 8 25.667 14 47 18c15.333 3.33301 27.666 5 36.999 5c12.667 0 26 -1.33301 40 -4c20.667 -4 36.334 -10.333 47.001 -19c12.667 -10 20.667 -23.333 24 -40c2.66699 -10 4 -26 4 -48
c0 -12 -1.33301 -23.667 -4 -35l-6 -24c-37.333 -126.667 -120.333 -216.667 -249 -270z" />
    <glyph glyph-name="uni1EE9" unicode="&#x1ee9;" horiz-adv-x="1142" 
d="M73 461l0.000976562 631.002h342v-693c0 -68.667 32.667 -110.334 98 -125.001c28 -2.66699 50 -3.33398 66 -2.00098c52.667 3.33301 101.667 19 147 47l2 773h340v-1092h-280l-17 29c-2 4 -3.66699 7.66699 -5 11c-3.33301 8.66699 -6.33301 18 -9 28l-99 -43
c-30 -10.667 -60 -19 -90 -25c-38 -8 -76 -12.667 -114 -14c-78 -4 -140.667 3 -188 21c-60.667 23.333 -111.334 67.333 -152.001 132c-27.333 56.667 -41 164 -41 322zM480.001 1182l147 315h289l-256 -315h-180zM1025 859.002l1 105.999
c70 26.667 110.333 63.334 121 110.001l-10 3c-32.667 10 -54.667 21.333 -66 34c-14 14.667 -21 42.667 -21 84c4.66699 38 16.667 64.667 36 80c9.33301 8 24.666 14 45.999 18c16 3.33301 28.333 5 37 5c12.667 0 26.334 -1.33301 41.001 -4c20 -4 35.667 -10.333 47 -19
c12 -10 20 -23.333 24 -40c2 -10 3 -26 3 -48c0 -12 -1 -23.667 -3 -35l-7 -24c-37.333 -126.667 -120.333 -216.667 -249 -270z" />
    <glyph glyph-name="uni1EEA" unicode="&#x1eea;" horiz-adv-x="1507" 
d="M1437 719c0 -176.667 -17.666 -303.667 -52.999 -381c-52 -122 -131.333 -210.667 -238 -266c-108 -57.333 -238.333 -86 -391 -86s-283 28.667 -391 86c-111.333 59.333 -191.333 148 -240 266c-34 70 -51 197 -51 381v815h381v-893c0 -146 21 -236 63 -270
c35.333 -48 114.666 -74 237.999 -78c124 4 202.667 30 236 78c39.333 34 59 122 59 264v899h387v-815zM691.001 1620l-256 315h289l147 -315h-180zM1390 1287l-0.00195312 105.999c70.667 26.667 111.334 63.334 122.001 110.001l-10 3c-33.333 10 -55.333 21.333 -66 34
c-14 14.667 -21 42.667 -21 84c4.66699 38 16.334 64.667 35.001 80c10 8 25.667 14 47 18c15.333 3.33301 27.666 5 36.999 5c12.667 0 26 -1.33301 40 -4c20.667 -4 36.334 -10.333 47.001 -19c12.667 -10 20.667 -23.333 24 -40c2.66699 -10 4 -26 4 -48
c0 -12 -1.33301 -23.667 -4 -35l-6 -24c-37.333 -126.667 -120.333 -216.667 -249 -270z" />
    <glyph glyph-name="uni1EEB" unicode="&#x1eeb;" horiz-adv-x="1142" 
d="M73 461l0.000976562 631.002h342v-693c0 -68.667 32.667 -110.334 98 -125.001c28 -2.66699 50 -3.33398 66 -2.00098c52.667 3.33301 101.667 19 147 47l2 773h340v-1092h-280l-17 29c-2 4 -3.66699 7.66699 -5 11c-3.33301 8.66699 -6.33301 18 -9 28l-99 -43
c-30 -10.667 -60 -19 -90 -25c-38 -8 -76 -12.667 -114 -14c-78 -4 -140.667 3 -188 21c-60.667 23.333 -111.334 67.333 -152.001 132c-27.333 56.667 -41 164 -41 322zM536.001 1182l-256 315h288l148 -315h-180zM1025 859.002l1 105.999
c70 26.667 110.333 63.334 121 110.001l-10 3c-32.667 10 -54.667 21.333 -66 34c-14 14.667 -21 42.667 -21 84c4.66699 38 16.667 64.667 36 80c9.33301 8 24.666 14 45.999 18c16 3.33301 28.333 5 37 5c12.667 0 26.334 -1.33301 41.001 -4c20 -4 35.667 -10.333 47 -19
c12 -10 20 -23.333 24 -40c2 -10 3 -26 3 -48c0 -12 -1 -23.667 -3 -35l-7 -24c-37.333 -126.667 -120.333 -216.667 -249 -270z" />
    <glyph glyph-name="uni1EEC" unicode="&#x1eec;" horiz-adv-x="1507" 
d="M1437 719c0 -176.667 -17.666 -303.667 -52.999 -381c-52 -122 -131.333 -210.667 -238 -266c-108 -57.333 -238.333 -86 -391 -86s-283 28.667 -391 86c-111.333 59.333 -191.333 148 -240 266c-34 70 -51 197 -51 381v815h381v-893c0 -146 21 -236 63 -270
c35.333 -48 114.666 -74 237.999 -78c124 4 202.667 30 236 78c39.333 34 59 122 59 264v899h387v-815zM1038 1872c-0.666992 -38 -5.33301 -66.334 -14 -85.001c-28.667 -61.333 -97.667 -104.333 -207 -129l-15 -61l-106 20l-5 124c61.333 20.667 104 36.667 128 48
s40 21.666 48 30.999c6 4.66699 9 22.334 9 53.001s-3.33301 48 -10 52c-6.66699 7.33301 -23.667 11 -51 11c-17.333 0 -41 -2 -71 -6c-11.333 -1.33301 -24.666 -3.33301 -39.999 -6c-8.66699 -1.33301 -28.334 -4.66602 -59.001 -9.99902l12 116
c61.333 15.333 119.333 23 174 23c83.333 0 144 -25.333 182 -76c16 -22 24.333 -55.667 25 -101v-4zM1390 1287l-0.00195312 105.999c70.667 26.667 111.334 63.334 122.001 110.001l-10 3c-33.333 10 -55.333 21.333 -66 34c-14 14.667 -21 42.667 -21 84
c4.66699 38 16.334 64.667 35.001 80c10 8 25.667 14 47 18c15.333 3.33301 27.666 5 36.999 5c12.667 0 26 -1.33301 40 -4c20.667 -4 36.334 -10.333 47.001 -19c12.667 -10 20.667 -23.333 24 -40c2.66699 -10 4 -26 4 -48c0 -12 -1.33301 -23.667 -4 -35l-6 -24
c-37.333 -126.667 -120.333 -216.667 -249 -270z" />
    </font>
</defs>
</svg>
