<?xml version="1.0" encoding="utf-8"?>
<!-- Generator: Adobe Illustrator 22.0.1, SVG Export Plug-In . SVG Version: 6.00 Build 0)  -->
<svg version="1.1" id="Layer_1" xmlns="http://www.w3.org/2000/svg" xmlns:xlink="http://www.w3.org/1999/xlink" x="0px" y="0px"
	 viewBox="0 0 444 444" style="enable-background:new 0 0 444 444;" xml:space="preserve">
<style type="text/css">
	.st0{fill:#E34C39;}
	.st1{fill:#FFFFFF;}
</style>
<circle class="st0" cx="222" cy="222" r="222"/>
<g>
	<path class="st1" d="M165.6,229c2.3-10.3,8-17.3,16.9-22.1c-1.6-1.9-3.4-3.5-4.6-5.5c-3.1-5-5.9-10.1-9-15.1
		c-0.7-1.1-1.7-2.3-2.9-2.7c-8.5-3.1-13.8-10.3-13.7-18.9c0.1-8.5,5.7-15.5,14.4-18.3c1-0.3,1.9-1.7,2.4-2.8
		c7.7-17.5,20.5-29,39.1-33.6c4.7-1.2,9.7-1.6,14.5-1.6c10.4,0,18.4,8.4,18.3,18.7c-0.1,10.8-7.9,18.9-18.5,19.1
		c-4.1,0.1-6.7-2.1-6.9-6c-0.2-3.7,2.2-6.3,6.3-6.7c4.2-0.4,6.5-2.8,6.4-6.6c-0.2-3.9-2.6-6-6.9-6c-19,0-36.1,12.9-41.9,31.4
		c-1.7,5.5-2.7,6.3-8.7,6.6c-3.6,0.2-5.9,2.6-5.9,6.1c0,3.5,2.2,6.1,5.7,6.4c1.2,0.1,2.4-0.1,3.5,0.1c2.7,0.4,4.1,2.2,4.9,4.8
		c4.6,15.6,14.5,26.2,30,31.1c23.5,7.5,48.3-6.3,55.3-30.4c1.7-5.9,2.4-6.4,8.6-6.9c3.6-0.3,6.1-2.9,6-6.5c-0.1-3.6-2.6-6-6.3-6.2
		c-5.9-0.2-6.3-0.6-8.2-6.2c-2.9-8.6-7.4-16.1-14.7-21.7c-2.9-2.2-3.3-6.2-1-9.2c2.1-2.7,6-3.1,9-0.7c6.8,5.7,12.2,12.6,15.9,20.8
		c1.4,3.1,3,5.2,6.4,6.5c7.7,3,12.1,10.7,11.5,18.9c-0.5,7.9-6,14.7-13.8,17.2c-1,0.3-2.2,1.1-2.5,2c-3.1,7.5-7.4,14.3-13,20.2
		c-0.2,0.2-0.4,0.6-0.4,0.6c3.7,3.2,7.3,6.3,11.2,9.6c7.8-4.7,14.1-11.3,18.7-19.5c6.3-11.5,7.6-23.8,5.2-36.4
		c-5.7-30.3-23.2-51.1-52.6-60.5c-43.7-14-89.7,14.6-97.3,59.7c-0.7,4.2-0.8,8.5-1.2,12.7c-0.3,4-2.5,6.3-6.3,6.3
		c-3.8,0-6.4-2.5-6.3-6.6c0.5-27.3,11.1-49.9,31.6-67.8C178,92,193.2,84.7,210.4,83c36.7-3.5,66.1,9.6,86.6,40.8
		c9.8,15,14.4,31.7,13.6,49.5c-1.1,24-12.2,42.5-33.3,54.2c-29.2,16.2-55.1,36.3-76.2,62.2c-6.2,7.6-11.7,15.7-17.3,23.7
		c-2.6,3.7-5.1,4.6-8.6,2.5c-3.1-1.9-4-5.6-1.8-9c4.1-6.1,8.2-12.2,12.6-18c20.3-26.4,45-47.9,73.6-65c0.7-0.4,1.4-0.8,2.1-1.3
		c0.1-0.1,0.3-0.2,0.4-0.4c-3.1-4.9-11-7.4-16.1-5.2c-15.6,6.8-31.3,6.8-46.9-0.1c-1.7-0.7-3.9-1.1-5.7-0.6
		c-7.7,2-12.7,6.9-14.7,14.8c-0.6,2.4-0.1,3.8,2.3,5.3c6.2,3.9,12.3,8,18.2,12.3c3.3,2.4,3.7,6.8,1.3,9.6c-2.2,2.7-6,2.7-9.2,0.1
		c-6.9-5.6-14.4-10.4-22.4-14.3c-4-1.9-7.9-4.1-11.6-6.4c-3.7-2.4-7.2-5.2-10.8-7.9c-0.1,0.4-0.2,0.8-0.2,1.3
		c0.1,15.6-0.4,31.2,0.4,46.8c1.2,22.8,11.5,41.4,29.6,55.2c43.5,33.1,106.1,11.2,119.5-41.8c1.7-6.6,2.2-13.6,2.4-20.4
		c0.4-13.9,0.1-27.8,0.1-41.6c0-3.9,1.1-5.7,3.9-6.7c4.4-1.6,8.7,1.1,8.7,5.7c-0.1,18.2,0.6,36.5-0.7,54.7
		c-1.4,19.8-10.2,36.9-24,51.2c-14.4,15.1-32.1,24-52.8,26.7c-36.1,4.7-71.9-13.9-89.1-45.9c-7.1-13.2-10.7-27.3-10.7-42.2
		c-0.1-25,0-50.1,0-75.1c0-4.7,2.4-7.1,6.7-7c3.4,0.1,5.5,2.1,5.9,5.5c0.3,3.1,0.4,6.2,1.1,9.2C149.3,216,156.6,222.9,165.6,229z"/>
	<path class="st1" d="M241.1,177.8c-3.7,0.1-6.4-2.5-6.4-6.2c-0.1-3.8,2.7-6.6,6.4-6.5c3.6,0,6.3,2.8,6.3,6.4
		C247.3,175.2,244.9,177.7,241.1,177.8z"/>
	<path class="st1" d="M203.1,177.8c-3.7,0-6.3-2.5-6.4-6.2c-0.1-3.8,2.6-6.5,6.4-6.5c3.6,0,6.3,2.8,6.3,6.4
		C209.4,175.1,206.8,177.8,203.1,177.8z"/>
	<path class="st1" d="M222.1,196.7c-3.9,0-6.6-2.6-6.5-6.4c0-3.6,2.8-6.3,6.4-6.3c3.7,0,6.3,2.6,6.4,6.3
		C228.4,194.1,225.9,196.7,222.1,196.7z"/>
</g>
</svg>
