<?xml version="1.0" encoding="utf-8"?>
<!-- Generator: Adobe Illustrator 22.0.1, SVG Export Plug-In . SVG Version: 6.00 Build 0)  -->
<svg version="1.1" id="Layer_1" xmlns="http://www.w3.org/2000/svg" xmlns:xlink="http://www.w3.org/1999/xlink" x="0px" y="0px"
	 viewBox="0 0 116 116" style="enable-background:new 0 0 116 116;" xml:space="preserve">
<style type="text/css">
	.st0{fill:#0A679B;}
	.st1{fill:#FFFFFF;}
	.st2{fill:none;stroke:#FFFFFF;}
</style>
<circle class="st0" cx="58" cy="58" r="58"/>
<circle class="st1" cx="58" cy="58" r="43"/>
<circle class="st2" cx="58" cy="58" r="46.8"/>
<g>
	<path class="st0" d="M38.2,39.6c0,0.6,0,1.1,0,1.6c0.1,1.3,0.6,2.3,1.8,2.8c1.1,0.5,2.2,0.3,3.2-0.5c0.6-0.5,0.9-1.2,1-2
		c0-0.5,0-1,0-1.5c0-0.3,0.1-0.4,0.3-0.3c0.1,0,0.1,0,0.2,0c5.7,0,11.5,0,17.2,0c0.2,0,0.3,0,0.5,0c0,0.4,0,0.7,0,1.1
		c0,0.8,0.1,1.5,0.5,2.1c0.7,1.1,2,1.6,3.3,1.2c1.3-0.4,2.2-1.4,2.2-2.7c0-0.5,0-0.9,0-1.4c0-0.1,0.1-0.3,0.2-0.3
		c1.3-0.1,2.6,0,3.5,1.1c0.5,0.6,0.9,1.3,0.9,2.1c0,3.9,0,7.7,0,11.6c0,0.3-0.1,0.4-0.4,0.4c-0.8,0-1.5,0-2.3,0
		c-0.3,0-0.4-0.1-0.4-0.4c0-1.8,0-3.5,0-5.3c0-0.1,0-0.2,0-0.3c-11.1,0-22.3,0-33.4,0c0,0.1,0,0.3,0,0.4c0,6.7,0,13.3,0,20
		c0,0.1,0,0.1,0,0.2c0,0.6,0.1,0.7,0.7,0.7c2.7,0,5.4,0,8.1,0c3,0,5.9,0,8.9,0c0.2,0,0.3,0,0.5,0c0,1,0,2,0,3c-0.2,0-0.4,0-0.5,0
		c-5.7,0-11.4,0-17.1,0c-0.7,0-1.3-0.1-1.9-0.4c-1.1-0.6-1.6-1.6-1.7-2.8c0-0.1,0-0.3,0-0.4c0-8.7,0-17.5,0-26.2
		c0-1.2,0.3-2.2,1.4-2.9c0.3-0.2,0.7-0.4,1-0.5C36.7,39.8,37.4,39.7,38.2,39.6z"/>
	<path class="st0" d="M58,70.2C58,63.5,63.5,58,70.2,58c6.7,0,12.2,5.5,12.2,12.2c0,6.7-5.5,12.2-12.2,12.2
		C63.5,82.3,58,76.9,58,70.2z M70.2,61c-5,0-9.1,4.1-9.2,9.1c0,5,4.1,9.1,9.1,9.1c5,0,9.2-4.1,9.2-9.1C79.3,65.2,75.2,61.1,70.2,61z
		"/>
	<path class="st0" d="M48.9,57.9c0-2,0-4,0-6c0.4,0,0.7,0,1.1,0c1.5,0,3,0,4.5,0c0.3,0,0.4,0.1,0.4,0.4c0,1.8,0,3.5,0,5.3
		c0,0.2,0,0.4-0.3,0.4c-1.8,0-3.7,0-5.5,0C49.1,58,49,58,48.9,57.9z"/>
	<path class="st0" d="M58,58c0-2,0-4,0-6c0.1,0,0.2,0,0.4,0c1.7,0,3.5,0,5.2,0c0.2,0,0.4,0,0.4,0.3c0,1.8,0,3.6,0,5.5
		c0,0.1,0,0.1,0,0.2C62,58,60.1,58,58,58z"/>
	<path class="st0" d="M45.8,57.9c-2,0-4,0-6,0c0-0.1,0-0.2,0-0.3c0-1.7,0-3.5,0-5.2c0-0.3,0.1-0.4,0.4-0.4c1.8,0,3.6,0,5.3,0
		c0.2,0,0.4,0,0.4,0.3c0,1.8,0,3.7,0,5.5C45.8,57.8,45.8,57.9,45.8,57.9z"/>
	<path class="st0" d="M45.8,67.1c-2,0-4,0-6,0c0-2,0-3.9,0-6c0.1,0,0.3,0,0.4,0c1.7,0,3.5,0,5.2,0c0.3,0,0.4,0.1,0.4,0.4
		c0,1.7,0,3.5,0,5.2C45.8,66.8,45.8,66.9,45.8,67.1z"/>
	<path class="st0" d="M54.9,67.1c-2,0-4,0-6,0c0-2,0-4,0-6c0.1,0,0.2,0,0.3,0c1.8,0,3.5,0,5.3,0c0.2,0,0.4,0,0.4,0.3
		c0,1.8,0,3.7,0,5.5C54.9,66.9,54.9,67,54.9,67.1z"/>
	<path class="st0" d="M39.7,38.2c0-1,0-2,0-2.9c0-1.1,1-1.8,2-1.5c0.6,0.2,1,0.7,1,1.5c0,2,0,4,0,6.1c0,0.9-0.7,1.6-1.5,1.5
		c-0.9,0-1.5-0.7-1.5-1.6C39.7,40.2,39.7,39.2,39.7,38.2z"/>
	<path class="st0" d="M64.1,38.2c0-1,0-2,0-3c0-1,0.9-1.7,1.8-1.6c0.6,0.1,1,0.5,1.2,1.2c0,0.2,0.1,0.4,0.1,0.6c0,1.9,0,3.8,0,5.7
		c0,0.9-0.4,1.5-1.1,1.7c-1,0.3-1.9-0.4-1.9-1.5c0,0,0-0.1,0-0.1C64.1,40.2,64.1,39.2,64.1,38.2z"/>
	<path class="st0" d="M71.7,73.2c-1,0-1.9,0-2.9,0c-1,0-1.6-0.6-1.7-1.6c0-2,0-3.9,0-5.9c0-0.8,0.5-1.4,1.1-1.6
		c0.6-0.2,1.3,0.1,1.6,0.7c0.2,0.3,0.2,0.7,0.3,1c0,1.3,0,2.6,0,3.9c0,0.4,0.1,0.5,0.5,0.5c1.4,0,2.7,0,4.1,0c0.7,0,1.2,0.3,1.4,0.9
		c0.3,0.6,0.1,1.2-0.3,1.6c-0.3,0.3-0.7,0.5-1.1,0.5C73.7,73.2,72.7,73.2,71.7,73.2z"/>
</g>
</svg>
