<?xml version="1.0" encoding="utf-8"?>
<!-- Generator: Adobe Illustrator 22.0.1, SVG Export Plug-In . SVG Version: 6.00 Build 0)  -->
<svg version="1.1" xmlns="http://www.w3.org/2000/svg" xmlns:xlink="http://www.w3.org/1999/xlink" x="0px" y="0px"
	 viewBox="0 0 458.3 449.4" style="enable-background:new 0 0 458.3 449.4;" xml:space="preserve">
<style type="text/css">
	.st0{fill:#0470B7;}
	.st1{fill:#FFFFFF;}
	.st2{font-family:'UTM-Flavour';}
	.st3{font-size:180.8199px;}
</style>
<g id="BG">
</g>
<g id="Layer_1">
	<path class="st0" d="M-365-153.5C-365.8-153.5-364.9-153.4-365-153.5L-365-153.5z"/>
	<path class="st0" d="M-303.2,41.2c1.7-0.3,3.3-0.7,4.9-1.2c-0.7-1.9-1.4-3.7-2.2-5.5C-301.4,36.8-302.3,39-303.2,41.2z"/>
	<path class="st0" d="M-590.4-135.9c0.5-2.2-0.8-5-3.2-5.5c-1.4-0.3-2.8-0.5-4.2-0.7c-0.4,1.1-0.8,2.3-1.2,3.4
		C-600.9-133.2-592.5-130.8-590.4-135.9z"/>
	<g>
		<g>
			<path class="st0" d="M410.5,300.5c0.5,1.6,0.9,3.2,1.3,4.8c0.2,0.7,0.3,1.5,0.4,2.2c0.1,0.4,0.1,0.9,0.2,1.3
				c0.1,0.8,0-0.2,0.1,0.3c0.3,3.2,0.5,6.4,0.3,9.7c0,0.7-0.1,1.5-0.2,2.2c0,0.4-0.1,0.9-0.1,1.3c0.1-0.7,0,0.1-0.1,0.3
				c-0.2,1.6-0.5,3.1-0.9,4.6c-0.4,1.6-0.9,3.2-1.4,4.7c-0.2,0.7-0.5,1.4-0.8,2.1c0,0-0.6,1.3-0.2,0.6c-0.2,0.4-0.4,0.8-0.6,1.2
				c-1,2.2-0.7,5,1.6,6.2c2,1.1,5.2,0.7,6.2-1.6c6.1-13.3,7.3-28.6,2.8-42.6c-0.7-2.3-3.2-4-5.6-3.2
				C411.4,295.6,409.7,298.1,410.5,300.5L410.5,300.5z"/>
			<path class="st0" d="M423.4,94.7c3.1,4.7,6.2,9.5,9.3,14.2c1.3,2,4.1,3,6.2,1.6c2-1.3,3-4.1,1.6-6.2c-3.1-4.7-6.2-9.5-9.3-14.2
				c-1.3-2-4.1-3-6.2-1.6C423.1,89.8,422,92.6,423.4,94.7L423.4,94.7z"/>
			<path class="st0" d="M447.8,90.7c0.5,2.1,1,4.2,1.6,6.3c0.3,1.1,1.1,2.2,2.1,2.7c0.5,0.3,1.1,0.5,1.7,0.5
				c0.6,0.1,1.2,0.1,1.8-0.1c1.1-0.4,2.2-1,2.7-2.1c0.6-1.1,0.8-2.3,0.5-3.5c-0.5-2.1-1-4.2-1.6-6.3c-0.3-1.1-1.1-2.2-2.1-2.7
				c-0.5-0.3-1.1-0.5-1.7-0.5c-0.6-0.1-1.2-0.1-1.8,0.1c-1.1,0.4-2.2,1-2.7,2.1C447.7,88.2,447.5,89.4,447.8,90.7L447.8,90.7z"/>
			<path class="st0" d="M21.2,116.1c0-0.4,0-0.9,0.1-1.3c0-0.2,0-0.4,0.1-0.6c0-0.6-0.2,0.9,0,0.3c0.2-0.9,0.3-1.7,0.5-2.6
				c0.2-0.8,0.5-1.6,0.8-2.4c0.1-0.2,0.1-0.4,0.2-0.6c0.4-0.9-0.3,0.7-0.1,0.1c0.2-0.4,0.4-0.8,0.6-1.2c0.4-0.8,0.8-1.5,1.2-2.2
				c0.2-0.4,0.5-0.7,0.7-1.1c0.1-0.2,0.2-0.3,0.3-0.5c0.4-0.6-0.2,0.2-0.2,0.2c-0.1-0.2,1.6-1.8,1.8-2c0.6-0.6,1.3-1.2,2-1.8
				c1.9-1.5,1.7-4.9,0-6.4c-2-1.8-4.5-1.6-6.4,0c-6.6,5.4-10.4,13.6-10.7,22c-0.1,2.4,2.2,4.7,4.6,4.6
				C19.2,120.5,21.1,118.6,21.2,116.1L21.2,116.1z"/>
		</g>
		<path class="st0" d="M71.4,415.4c-0.5,0.3-1.1,0.6-1.7,0.9c-0.9,0.5,1-0.3,0,0c-0.3,0.1-0.6,0.2-0.9,0.3c-0.5,0.1-1.3,0.1-1.7,0.4
			c0.8-0.4,0.7-0.1,0.1,0c-0.4,0-0.8,0-1.2,0c-0.3,0-0.6,0-0.9-0.1c-1-0.1,1.1,0.2,0.1,0c-0.6-0.1-1.1-0.2-1.7-0.4
			c-0.3-0.1-0.5-0.2-0.8-0.3c-1-0.3,0.9,0.5,0,0c-0.5-0.3-1.1-0.6-1.6-0.9c-0.2-0.1-0.4-0.3-0.6-0.4c-0.8-0.6,0.8,0.7,0,0
			c-0.4-0.4-0.8-0.8-1.2-1.2c-0.1-0.1-0.5-0.7-0.6-0.6c0.2,0,0.6,0.8,0,0c-0.4-0.6-0.7-1.2-1-1.8c-0.5-0.9,0.3,1,0,0
			c-0.1-0.3-0.2-0.6-0.3-0.9c-0.1-0.2-0.6-1.6-0.4-1.8c0,0.2,0.1,0.4,0.1,0.6c0-0.2,0-0.4-0.1-0.6c0-0.3,0-0.6,0-1
			c0-0.4,0-0.7,0-1.1c0.1-0.5,0-0.5,0,0.2c0-0.2,0.1-0.4,0.1-0.7c0.1-0.5,0.3-1,0.4-1.6c0.3-1-0.5,0.9,0-0.1
			c0.2-0.3,0.3-0.6,0.4-0.8c0.2-0.3,0.3-0.5,0.5-0.8c0.6-0.9-0.7,0.7,0-0.1c0.5-0.5,1-1,1.6-1.5c0.8-0.7-0.8,0.5,0.1-0.1
			c0.3-0.2,0.5-0.4,0.8-0.5c0.6-0.3,1.1-0.6,1.7-0.9c1-0.5-0.9,0.3,0.1-0.1c0.3-0.1,0.6-0.2,0.9-0.3c0.3-0.1,0.7-0.2,1-0.3
			c0.2-0.1,1.8-0.3,0.7-0.2c0.6-0.1,1.3-0.1,1.9-0.1c0.4,0,0.8,0,1.1,0.1c-1.1-0.1,0.1,0,0.3,0.1c0.7,0.2,1.5,0.4,2.2,0.7
			c-1-0.4,0.1,0.1,0.3,0.2c0.4,0.2,0.9,0.5,1.3,0.8c-0.8-0.6,0,0,0.1,0.1c0.2,0.2,0.4,0.4,0.6,0.6c0.7,0.8,0,0,0,0
			c0,0,0.5,0.7,0.5,0.7c0.2,0.2,0.3,0.5,0.4,0.8c0.5,0.9-0.1,0.2,0,0c-0.1,0.2,0.5,1.7,0.6,1.9c0.1,0.3,0.1,0.6,0.2,0.9
			c0.2,1-0.1-1.1,0,0c0,0.7,0.1,1.4,0,2.1c0,0.1-0.1,0.9-0.1,0.9c0.1-0.7,0.1-0.8,0-0.3c0,0.2-0.1,0.4-0.1,0.6
			c-0.1,0.7-0.3,1.4-0.6,2c0,0.1-0.2,0.8-0.3,0.8c0.3-0.6,0.3-0.7,0.1-0.3c-0.1,0.2-0.2,0.4-0.3,0.5c-0.1,0.2-1,1.8-1.1,1.8
			c0,0,0.7-0.8,0,0c-0.3,0.3-0.5,0.6-0.8,0.8c-0.2,0.2-0.4,0.4-0.7,0.6c-0.4,0.3-0.3,0.2,0.2-0.2C71.7,415.1,71.5,415.3,71.4,415.4
			c-2,1.3-3,4.1-1.6,6.2c1.3,2,4.1,3,6.2,1.6c5.8-3.9,9.2-11,8.4-18c-0.4-3.8-1.8-7.4-4.4-10.2c-3-3.2-7.3-4.9-11.6-5.2
			c-7.7-0.6-15.9,4.2-18.9,11.3c-2.9,6.8-1.1,15.2,4.5,20.1c6.1,5.4,15,6.4,22,2c2-1.3,3-4.1,1.6-6.2C76.3,415,73.5,414,71.4,415.4z
			"/>
		<path class="st0" d="M33.3,440.4c-0.1,0-0.3,0-0.4,0.1c0.4-0.1,0.8-0.1,1.2-0.2c-0.7,0.1-1.4,0.1-2.2,0c0.4,0.1,0.8,0.1,1.2,0.2
			c-0.6-0.1-1.1-0.2-1.7-0.4c0.4,0.2,0.7,0.3,1.1,0.5c-0.4-0.2-0.9-0.4-1.2-0.7c0.3,0.2,0.6,0.5,0.9,0.7c-0.4-0.3-0.7-0.6-1-1
			c0.2,0.3,0.5,0.6,0.7,0.9c-0.3-0.4-0.6-0.8-0.8-1.3c0.2,0.4,0.3,0.7,0.5,1.1c-0.2-0.6-0.4-1.2-0.5-1.8c0.1,0.4,0.1,0.8,0.2,1.2
			c-0.1-0.8-0.1-1.5,0-2.3c-0.1,0.4-0.1,0.8-0.2,1.2c0.1-0.9,0.4-1.7,0.7-2.5c-0.2,0.4-0.3,0.7-0.5,1.1c0.4-0.8,0.8-1.6,1.4-2.4
			c-0.2,0.3-0.5,0.6-0.7,0.9c0.3-0.4,0.7-0.8,1.1-1.1c-0.3,0.2-0.6,0.5-0.9,0.7c0.5-0.4,1-0.7,1.5-0.9c-0.4,0.2-0.7,0.3-1.1,0.5
			c0.4-0.2,0.8-0.3,1.3-0.3c-0.4,0.1-0.8,0.1-1.2,0.2c0.4-0.1,0.9-0.1,1.3,0c-0.4-0.1-0.8-0.1-1.2-0.2c0.5,0.1,1,0.2,1.4,0.4
			c-0.4-0.2-0.7-0.3-1.1-0.5c0.5,0.2,1,0.5,1.5,0.8c-0.3-0.2-0.6-0.5-0.9-0.7c0.5,0.4,1,0.8,1.3,1.4c-0.2-0.3-0.5-0.6-0.7-0.9
			c0.4,0.5,0.7,1.1,1,1.6c-0.2-0.4-0.3-0.7-0.5-1.1c0.3,0.7,0.5,1.5,0.6,2.2c-0.1-0.4-0.1-0.8-0.2-1.2c0.1,0.8,0.1,1.5,0,2.3
			c0.1-0.4,0.1-0.8,0.2-1.2c-0.1,0.7-0.3,1.3-0.5,1.9c0.2-0.4,0.3-0.7,0.5-1.1c-0.2,0.5-0.5,1-0.8,1.5c0.2-0.3,0.5-0.6,0.7-0.9
			c-0.3,0.4-0.7,0.8-1.1,1.1c0.3-0.2,0.6-0.5,0.9-0.7c-0.4,0.3-0.8,0.6-1.3,0.8c0.4-0.2,0.7-0.3,1.1-0.5
			C34.4,440.1,33.8,440.3,33.3,440.4c-1.1,0.2-2.2,1.2-2.7,2.1c-0.6,1-0.8,2.4-0.5,3.5c0.4,1.1,1,2.2,2.1,2.7
			c1.1,0.6,2.2,0.7,3.5,0.5c4.1-0.7,7.6-4.2,8.4-8.3c0.9-4.2-0.1-8.5-3-11.7c-1.4-1.5-3.3-2.7-5.3-3.2c-3.5-0.9-7.2,0.3-9.7,2.8
			c-3.3,3.3-4.8,8.5-3.6,13c0.7,2.5,2.3,4.7,4.6,6.1c2.6,1.6,5.6,1.7,8.6,1.2c1.1-0.2,2.2-1.2,2.7-2.1c0.6-1,0.8-2.4,0.5-3.5
			c-0.4-1.1-1-2.2-2.1-2.7C35.6,440.2,34.6,440.2,33.3,440.4z"/>
		<path class="st0" d="M101,87.1c-1.9,5.5-10.7,3.1-8.8-2.4c1.6-4.7,3.5-9.3,5.6-13.8c17-35,52.1-59,89.5-67.6
			c19.3-4.4,39.3-4.6,58.4,0.6c18.5,5,35.5,14.6,49.7,27.4c7.2,6.5,13.6,13.7,19.3,21.5c2.8,3.9,5.5,8,7.9,12.1
			c0.8,1.3,1.4,2.8,2.3,4c0.6,0.8,0.3,0.6,1.1,0.8c0.8,0.2-1,0,0.5,0.1c0.5,0,1.1,0,1.6-0.1c0.6-0.1,1.9-0.3,2.8-0.5
			c2.4-0.5,4.8-1.2,7.2-1.5c2.1-0.2,4.2-0.1,6.2,0.1c4.6,0.3,9.3,0.9,13.8,1.8c8.6,1.8,16.9,4.9,24.5,9.2
			c30.2,16.9,48,50.3,53.9,83.4c3.5,20,3.9,41.5-3.3,60.7c-7.5,20-23.7,37.5-45.3,41.5c0.9-2.2,1.8-4.5,2.7-6.7
			c2.7,6.2,4.7,12.7,5.7,19.4c4.3,28.1-5.6,57.3-25.2,77.7c-19.9,20.8-48.2,32.1-76.7,34.4c-14.8,1.2-30.5-0.2-43.9-7.1
			c-2.9-1.5-5.6-4-8.8-4.4c-2.4-0.3-4.9,0.5-6.8,2c-2.1,1.7-4,3.7-6.2,5.4c-2.4,1.8-4.8,3.6-7.3,5.1c-20,12.2-45,15-68,12.3
			c-22.7-2.7-45.8-10.4-63.3-25.6c-10.6-9.2-19.9-20.5-26.9-32.6C56.2,332,51,317.8,51,303.1c0-3.7,0.3-7.4,1-11.1
			c0.3-1.8,0.8-3.6,1.2-5.3c0.3-1.2,0.9-2.8,0.5-4.1c-0.7-2.2-4.5-3.3-6.4-4.2c-2.7-1.3-5.4-2.6-8-4.1
			c-10.5-5.7-20.1-13.1-26.9-23.1c-7.8-11.4-11.5-25.5-12.3-39.1c-0.7-13.8,2.3-28.5,10.5-39.8c2-2.7,4.6-5,6.5-7.9
			c1.8-2.8,1.2-6.3,1.3-9.4c0.2-5.5,1.1-10.9,2.5-16.2c2.9-11.1,8-21.7,15-30.9c7-9.2,15.8-17.3,26.4-22.2c11.2-5.2,23.4-6.5,35.4-4
			c2.4,0.5,3.8,3.3,3.2,5.6c-0.7,2.5-3.2,3.7-5.6,3.2c-4.9-1-10.5-1.3-15.5-0.7c-10.1,1.3-19.6,6.3-27.2,13.1
			c-8.1,7.3-14.2,16.1-18.7,26.1c-4.1,9.1-6.4,19.2-6.5,29.1c0,4.2-0.5,8.1-3.1,11.6c-1.9,2.7-4.4,4.9-6.3,7.6
			c-3.7,5.2-6.2,11.1-7.6,17.3c-2.9,12.7-1.3,26.4,3,38.6c3.7,10.6,10.7,19.8,19.5,26.3c4.5,3.3,9.4,6.1,14.3,8.6
			c5.5,2.8,12.9,5,15,11.6c1.2,3.9-0.1,7.8-1,11.6c-0.7,3.2-1.1,6.4-1.2,9.6c-0.2,6.5,0.8,12.9,2.6,19.2c3.8,13.1,11,25.2,19.7,35.6
			c7.5,9.1,15.7,16.9,25.5,22.7c18.8,11.1,41.4,16.2,63.2,15.9c11-0.2,21.6-1.8,32.1-5.5c4.8-1.7,9.3-3.8,13.9-6.6
			c2.1-1.3,4.4-2.9,6.1-4.2c2.1-1.7,4-3.7,6.1-5.4c5.8-4.6,13.9-5.5,20.4-1.7c2.8,1.6,5.5,3.4,8.5,4.7c3.3,1.4,6.8,2.4,10.3,3.2
			c13.2,2.8,27.3,1.9,40.5-0.8c25.9-5.3,50.9-19.3,65.5-41.8c13.9-21.4,18.7-50,8.3-73.9c-1.1-2.4-0.5-6.1,2.7-6.7
			c4.5-0.8,8.9-2.3,12.9-4.4c35.8-19,35.6-68,25.8-101.7c-8.7-30-28.7-58.5-59.1-68.7c-8-2.7-16.1-4-24.4-4.2
			c-2.2,0-3.3,0.2-5.7,0.8c-2.3,0.5-4.6,1.1-6.9,1.3c-5.6,0.5-9.5-2.3-12.2-7.1c-8.9-15.9-20.7-30.2-35.5-41
			c-14.5-10.7-31.2-17.9-49.1-20.6c-18.1-2.8-36.8-0.3-54.1,5.4C143.1,26.8,112.8,52.3,101,87.1L101,87.1z"/>
		<path class="st0" d="M95.3,90.8c-4.9-1-10.5-1.3-15.5-0.7c-10.1,1.3-19.6,6.3-27.2,13.1c-8.1,7.3-14.2,16.1-18.7,26.1
			c-4.1,9.1-6.4,19.2-6.5,29.1c0,4.2-0.5,8.1-3.1,11.6c-1.9,2.7-4.4,4.9-6.3,7.6c-3.7,5.2-6.2,11.1-7.6,17.3
			c-2.9,12.7-1.3,26.4,3,38.6c3.7,10.6,10.7,19.8,19.5,26.3c4.5,3.3,9.4,6.1,14.3,8.6c5.5,2.8,12.9,5,15,11.6
			c1.2,3.9-0.1,7.8-1,11.6c-0.7,3.2-1.1,6.4-1.2,9.6c-0.2,6.5,0.8,12.9,2.6,19.2c3.8,13.1,11,25.2,19.7,35.6
			c7.5,9.1,15.7,16.9,25.5,22.7c18.8,11.1,41.4,16.2,63.2,15.9c11-0.2,21.6-1.8,32.1-5.5c4.8-1.7,9.3-3.8,13.9-6.6
			c2.1-1.3,4.4-2.9,6.1-4.2c2.1-1.7,4-3.7,6.1-5.4c5.8-4.6,13.9-5.5,20.4-1.7c2.8,1.6,5.5,3.4,8.5,4.7c3.3,1.4,6.8,2.4,10.3,3.2
			c13.2,2.8,27.3,1.9,40.5-0.8c25.9-5.3,50.9-19.3,65.5-41.8c13.9-21.4,18.7-50,8.3-73.9c-1.1-2.4-0.5-6.1,2.7-6.7
			c4.5-0.8,8.9-2.3,12.9-4.4c35.8-19,35.6-68,25.8-101.7c-8.7-30-28.7-58.5-59.1-68.7c-8-2.7-16.1-4-24.4-4.2
			c-2.2,0-3.3,0.2-5.7,0.8c-2.3,0.5-4.6,1.1-6.9,1.3c-5.6,0.5-9.5-2.3-12.2-7.1c-8.9-15.9-20.7-30.2-35.5-41
			c-14.5-10.7-31.2-17.9-49.1-20.6c-18.1-2.8-36.8-0.3-54.1,5.4c-34.3,11.2-64.6,36.7-76.3,71.5c0,0.1-0.1,0.2-0.1,0.4
			c0,0,0,0.1,0,0.1C100.2,90.1,97.7,91.3,95.3,90.8z"/>
		<text transform="matrix(1 0 0 1 82.1505 269.1286)" class="st1 st2 st3">Hi !</text>
	</g>
</g>
</svg>
